<svg width="580" height="580" viewBox="0 0 580 580" fill="none" xmlns="http://www.w3.org/2000/svg">
<rect width="580" height="580" fill="#0E0E0E"/>
<mask id="mask0" mask-type="alpha" maskUnits="userSpaceOnUse" x="126" y="135" width="328" height="190">
<path fill-rule="evenodd" clip-rule="evenodd" d="M126.875 135.938H453.125V324.506H126.875V135.938Z" fill="white"/>
</mask>
<g mask="url(#mask0)">
<path fill-rule="evenodd" clip-rule="evenodd" d="M132.219 251.842L252.096 321.39C255.677 323.467 260.377 324.506 265.085 324.506C269.792 324.506 274.502 323.467 278.106 321.39L447.696 223.64C454.902 219.486 454.939 212.753 447.781 208.6L327.904 139.051C324.323 136.975 319.623 135.938 314.915 135.938C310.21 135.938 305.498 136.975 301.894 139.051L132.304 236.802C125.098 240.956 125.061 247.688 132.219 251.842Z" fill="#2472D3"/>
</g>
<path fill-rule="evenodd" clip-rule="evenodd" d="M142.877 322.495L132.303 328.59C125.099 332.743 125.06 339.476 132.218 343.629L252.097 413.178C255.676 415.254 260.376 416.292 265.084 416.292C269.791 416.292 274.503 415.254 278.105 413.178L447.695 315.427C454.901 311.274 454.94 304.541 447.78 300.387L437.096 294.192L286.15 381.194C280.259 384.592 272.777 386.46 265.084 386.46C257.375 386.46 249.893 384.583 244.013 381.171L142.877 322.495Z" fill="#70B0FF"/>
<path fill-rule="evenodd" clip-rule="evenodd" d="M286.15 335.298C280.259 338.695 272.777 340.565 265.084 340.565C257.375 340.565 249.893 338.688 244.013 335.275L142.877 276.599L132.303 282.694C125.099 286.848 125.06 293.58 132.218 297.734L252.097 367.282C255.676 369.359 260.376 370.396 265.084 370.396C269.791 370.396 274.503 369.359 278.105 367.282L447.695 269.532C454.901 265.378 454.94 258.645 447.78 254.492L437.096 248.294L286.15 335.298Z" fill="#70B0FF"/>
<path fill-rule="evenodd" clip-rule="evenodd" d="M142.877 368.392L132.303 374.487C125.099 378.641 125.06 385.373 132.218 389.527L252.097 459.075C255.676 461.152 260.376 462.189 265.084 462.189C269.791 462.189 274.503 461.152 278.105 459.075L447.695 361.325C454.901 357.171 454.94 350.439 447.78 346.285L437.096 340.089L286.15 427.091C280.259 430.49 272.777 432.358 265.084 432.358C257.375 432.358 249.893 430.481 244.013 427.069L142.877 368.392Z" fill="#70B0FF"/>
<path fill-rule="evenodd" clip-rule="evenodd" d="M281.219 178.378L280.106 179.839L281.203 181.391L288.521 185.636C282.416 190.338 279.233 194.994 279.127 199.604C279.021 204.306 281.761 208.278 287.427 211.564C293.721 215.217 300.816 216.86 308.397 216.404C316.134 215.947 324.99 213.756 335.274 209.832C340.575 207.775 344.765 206.36 347.771 205.446C350.776 204.535 353.304 204.079 355.357 203.987C357.409 203.895 359.145 204.26 360.641 205.127C362.684 206.316 363.231 207.821 362.273 209.74C361.314 211.564 359.014 213.618 355.212 215.809C349.353 219.187 343.422 220.33 337.352 219.371L334.272 219.506C333.481 219.598 332.61 219.919 331.661 220.465L317.644 228.545L316.61 229.869L317.469 231.193C320.933 233.02 325.112 234.252 329.843 234.89C334.656 235.484 339.947 235.347 345.634 234.344C351.244 233.385 357.097 231.558 363.034 228.864L370.35 233.112L373.03 233.749L375.639 233.157L384.824 227.861L385.941 226.31L384.764 224.802L377.446 220.557C384.185 215.582 387.766 210.605 388.343 205.63C388.925 200.747 386.109 196.456 379.972 192.894C375.644 190.384 371.074 188.833 366.417 188.238C361.765 187.646 356.632 187.965 350.863 189.197C345.172 190.476 338.37 192.667 330.617 195.769C323.657 198.326 318.596 199.971 315.357 200.471C312.036 201.02 309.431 200.701 307.388 199.512C305.42 198.372 304.639 197.002 305.2 195.496C305.763 193.899 307.586 192.3 310.516 190.613C313.052 189.151 315.66 188.192 318.506 187.736C321.349 187.279 323.717 187.371 325.528 187.965C327.581 188.238 329.399 187.919 330.98 187.006L345.792 178.47L346.746 177.191L345.726 175.867C342.972 174.454 339.347 173.449 334.773 172.9C330.275 172.306 325.225 172.398 319.692 173.127C314.242 173.814 308.707 175.273 303.17 177.464L295.617 173.082L293.015 172.398L290.406 173.082L281.219 178.378Z" fill="#DEE7FF"/>
<path fill-rule="evenodd" clip-rule="evenodd" d="M191.818 242.013L190.705 243.564L191.877 245.164L259.94 284.649L262.62 285.287L265.227 284.603L279.641 276.294L280.914 274.743L279.816 273.191L254.088 258.264L279.034 243.885L304.764 258.813L307.444 259.451L310.053 258.767L324.467 250.458L325.66 248.952L324.642 247.355L256.584 207.867L253.743 207.229L251.056 207.867L236.644 216.177L235.529 217.728L236.704 219.325L261.567 233.75L236.621 248.131L211.758 233.704L208.999 233.02L206.232 233.704L191.818 242.013Z" fill="#DEE7FF"/>
</svg>
