<svg xmlns="http://www.w3.org/2000/svg" width="24" height="24" fill="none" fill-rule="evenodd" xmlns:v="https://vecta.io/nano"><path d="M20.64 12.204a10.35 10.35 0 0 0-.164-1.841H12v3.48h4.844a4.14 4.14 0 0 1-1.796 2.716v2.258h2.91c1.702-1.567 2.684-3.874 2.684-6.615z" fill="#4285f4"/><path d="M12 21c2.43 0 4.467-.806 5.956-2.18l-2.91-2.258c-.806.54-1.837.86-3.048.86-2.344 0-4.328-1.583-5.036-3.7H3.957v2.332C5.438 18.983 8.482 21 12 21z" fill="#34a853"/><path d="M6.964 13.7A5.41 5.41 0 0 1 6.682 12a5.41 5.41 0 0 1 .282-1.71V7.958H3.957C3.348 9.173 3 10.548 3 12s.348 2.827.957 4.042L6.964 13.7z" fill="#fbbc05"/><path d="M12 6.58c1.32 0 2.508.454 3.44 1.346l2.58-2.58C16.463 3.892 14.426 3 12 3 8.482 3 5.438 5.017 3.957 7.958L6.964 10.3c.708-2.127 2.692-3.7 5.036-3.7z" fill="#ea4335"/></svg>