<svg xmlns="http://www.w3.org/2000/svg" xmlns:xlink="http://www.w3.org/1999/xlink" width="139" height="32" xmlns:v="https://vecta.io/nano"><defs><path id="A" d="M0 .18h31.016v17.957H0z"/></defs><g fill="none" fill-rule="evenodd"><path d="M41.632 22a.37.37 0 0 1-.384-.384V11.2c0-.117.035-.213.104-.288s.163-.112.28-.112h1.472a.39.39 0 0 1 .4.4v4.112h4.672V11.2a.39.39 0 0 1 .112-.288.37.37 0 0 1 .272-.112h1.488c.117 0 .21.037.28.112s.104.17.104.288v10.416c0 .107-.035.197-.104.272s-.163.112-.28.112H48.56a.37.37 0 0 1-.384-.384v-4.272h-4.672v4.272a.37.37 0 0 1-.112.272.39.39 0 0 1-.288.112h-1.472zm13.52.16c-.544 0-1.043-.11-1.496-.328s-.81-.515-1.072-.888a2.1 2.1 0 0 1-.392-1.232c0-.725.293-1.312.88-1.76s1.392-.752 2.416-.912l2.192-.32v-.336c0-.46-.117-.805-.352-1.04s-.608-.352-1.12-.352c-.352 0-.635.064-.848.192s-.387.26-.52.392l-.264.264c-.043.128-.123.192-.24.192h-1.248c-.096 0-.18-.032-.248-.096s-.104-.15-.104-.256c.01-.267.14-.568.392-.904s.637-.63 1.16-.88 1.168-.376 1.936-.376c1.26 0 2.176.283 2.752.848s.864 1.307.864 2.224v5.024c0 .107-.035.197-.104.272s-.163.112-.28.112h-1.328a.37.37 0 0 1-.384-.384v-.624c-.235.34-.565.62-.992.84s-.96.328-1.6.328zm.544-1.536c.587 0 1.067-.192 1.44-.576s.56-.94.56-1.664v-.32l-1.6.256c-1.227.192-1.84.603-1.84 1.232 0 .34.14.605.424.792s.62.28 1.016.28zm9.792 1.536c-1.173 0-2.11-.325-2.808-.976s-1.07-1.552-1.112-2.704l-.016-.64.016-.64c.043-1.152.413-2.053 1.112-2.704s1.635-.976 2.808-.976c.843 0 1.555.15 2.136.448s1.013.664 1.296 1.096.435.845.456 1.24c.01.107-.024.197-.104.272s-.173.112-.28.112h-1.424c-.117 0-.203-.024-.256-.072-.04-.036-.08-.094-.12-.175l-.04-.09c-.16-.405-.37-.7-.632-.88s-.595-.272-1-.272c-.544 0-.968.17-1.272.512s-.467.864-.488 1.568l-.016.592.016.528c.064 1.387.65 2.08 1.76 2.08.416 0 .752-.088 1.008-.264.22-.15.404-.4.552-.717l.072-.17c.043-.117.093-.203.152-.256s.147-.08.264-.08h1.424c.107 0 .2.037.28.112s.115.165.104.272c-.02.373-.17.776-.448 1.208s-.704.803-1.28 1.112-1.296.464-2.16.464zM71.44 22a.37.37 0 0 1-.384-.384V11.024c0-.117.037-.21.112-.28s.165-.104.272-.104h1.328a.37.37 0 0 1 .384.384v5.472l2.656-2.544.09-.068.063-.052a.62.62 0 0 1 .2-.12.77.77 0 0 1 .24-.032h1.52c.107 0 .192.032.256.096s.096.15.096.256c0 .096-.053.192-.16.288l-3.264 3.088 3.664 3.968c.096.096.144.187.144.272 0 .107-.032.192-.096.256s-.144.096-.24.096h-1.552c-.15 0-.26-.02-.328-.056s-.157-.11-.264-.216l-3.024-3.216v3.104a.37.37 0 0 1-.384.384H71.44zm11.648.16c-1.195 0-2.14-.34-2.84-1.024s-1.07-1.653-1.112-2.912l-.016-.4c0-1.333.35-2.384 1.048-3.152s1.667-1.152 2.904-1.152c1.27 0 2.248.384 2.936 1.152s1.032 1.792 1.032 3.072v.336a.37.37 0 0 1-.112.272.39.39 0 0 1-.288.112h-5.312v.128c.02.597.184 1.09.488 1.48s.723.584 1.256.584c.547 0 1.004-.2 1.37-.596l.12-.14c.096-.117.17-.19.224-.216s.144-.04.272-.04h1.408c.096 0 .18.027.248.08s.104.128.104.224c0 .256-.152.557-.456.904s-.74.648-1.304.904-1.22.384-1.968.384zm-1.76-5.056h3.504v-.032c0-.63-.157-1.133-.472-1.512s-.744-.568-1.288-.568-.97.19-1.28.568c-.275.337-.428.772-.458 1.307l-.006.237zM89.12 22a.37.37 0 0 1-.384-.384V14.08a.39.39 0 0 1 .112-.288.37.37 0 0 1 .272-.112h1.312a.39.39 0 0 1 .4.4v.656c.533-.704 1.3-1.056 2.304-1.056h.672c.117 0 .21.035.28.104s.104.163.104.28v1.168c0 .107-.035.197-.104.272s-.163.112-.28.112h-1.264c-.5 0-.896.144-1.184.432s-.432.683-.432 1.184v4.384a.37.37 0 0 1-.384.384H89.12zm10.416.16c-.96 0-1.78-.144-2.464-.432s-1.2-.667-1.552-1.136-.54-.98-.56-1.536c0-.085.032-.163.096-.232s.144-.104.24-.104h1.456c.117 0 .213.027.288.08a.85.85 0 0 1 .208.224c.107.363.35.667.728.912s.9.368 1.56.368c.747 0 1.31-.125 1.688-.376s.568-.595.568-1.032c0-.288-.096-.528-.288-.72s-.483-.36-.872-.504-.968-.317-1.736-.52c-1.26-.3-2.18-.693-2.768-1.184s-.88-1.195-.88-2.112c0-.62.17-1.17.512-1.656s.83-.867 1.464-1.144 1.373-.416 2.216-.416c.885 0 1.65.155 2.296.464s1.136.696 1.472 1.16.515.925.536 1.384c0 .085-.032.163-.096.232s-.144.104-.24.104h-1.52c-.235 0-.395-.096-.48-.288-.053-.34-.26-.627-.624-.856s-.81-.344-1.344-.344c-.587 0-1.048.112-1.384.336s-.504.55-.504.976c0 .288.085.528.256.72s.437.36.8.504.89.307 1.584.488c.95.213 1.704.453 2.264.72s.973.603 1.24 1.008.4.923.4 1.552c0 .693-.19 1.293-.568 1.8s-.912.893-1.6 1.16-1.485.4-2.392.4zm9.968-.16c-.97 0-1.7-.253-2.192-.76s-.736-1.25-.736-2.232v-3.616h-1.264a.37.37 0 0 1-.384-.384v-.944a.37.37 0 0 1 .384-.384h1.264v-2.656c0-.117.037-.21.112-.28s.165-.104.272-.104h1.328c.117 0 .21.035.28.104s.104.163.104.28v2.656h2a.37.37 0 0 1 .384.384v.944a.37.37 0 0 1-.384.384h-2v3.44c0 .46.08.805.24 1.04s.42.352.784.352h1.12c.117 0 .21.035.28.104s.104.163.104.28v1.008c0 .107-.035.197-.104.272s-.163.112-.28.112h-1.312zm5.536.16c-.544 0-1.043-.11-1.496-.328s-.81-.515-1.072-.888a2.1 2.1 0 0 1-.392-1.232c0-.725.293-1.312.88-1.76s1.392-.752 2.416-.912l2.192-.32v-.336c0-.46-.117-.805-.352-1.04s-.608-.352-1.12-.352c-.352 0-.635.064-.848.192s-.387.26-.52.392l-.264.264c-.043.128-.123.192-.24.192h-1.248c-.096 0-.18-.032-.248-.096s-.104-.15-.104-.256c.01-.267.14-.568.392-.904s.637-.63 1.16-.88 1.168-.376 1.936-.376c1.26 0 2.176.283 2.752.848s.864 1.307.864 2.224v5.024c0 .107-.035.197-.104.272s-.163.112-.28.112h-1.328a.37.37 0 0 1-.384-.384v-.624c-.235.34-.565.62-.992.84s-.96.328-1.6.328zm.544-1.536c.587 0 1.067-.192 1.44-.576s.56-.94.56-1.664v-.32l-1.6.256c-1.227.192-1.84.603-1.84 1.232 0 .34.14.605.424.792s.62.28 1.016.28zm9.36 1.536c-.81 0-1.488-.123-2.032-.368s-.947-.53-1.208-.856-.392-.605-.392-.84c0-.107.035-.192.104-.256s.152-.096.248-.096h1.312c.085 0 .16.043.224.128l.272.23.088.075a2.13 2.13 0 0 0 .64.376c.24.09.504.136.792.136.427 0 .773-.083 1.04-.248a.79.79 0 0 0 .4-.712c0-.213-.06-.387-.184-.52s-.34-.256-.656-.368c-.236-.084-.56-.175-.973-.274l-.443-.102c-.907-.192-1.576-.485-2.008-.88s-.648-.917-.648-1.568a2.12 2.12 0 0 1 .384-1.208c.256-.38.637-.688 1.144-.928s1.112-.36 1.816-.36c.725 0 1.35.115 1.872.344s.92.504 1.192.824.408.603.408.848c0 .096-.035.18-.104.248s-.152.104-.248.104h-1.2a.32.32 0 0 1-.272-.128l-.11-.086-.25-.2a2.04 2.04 0 0 0-.552-.344c-.203-.085-.448-.128-.736-.128-.395 0-.7.085-.912.256a.82.82 0 0 0-.32.672.75.75 0 0 0 .152.48c.1.128.307.248.616.36s.773.227 1.392.344c1.92.373 2.88 1.21 2.88 2.512 0 .757-.328 1.37-.984 1.84s-1.57.704-2.744.704zm5.76-.16a.37.37 0 0 1-.384-.384V11.024c0-.117.037-.21.112-.28s.165-.104.272-.104h1.456c.117 0 .21.035.28.104s.104.163.104.28v3.648c.64-.768 1.5-1.152 2.576-1.152.98 0 1.765.323 2.352.968s.88 1.523.88 2.632v4.496c0 .107-.035.197-.104.272s-.163.112-.28.112h-1.456a.39.39 0 0 1-.288-.112.37.37 0 0 1-.112-.272v-4.4c0-.62-.152-1.1-.456-1.448s-.74-.52-1.304-.52c-.544 0-.98.176-1.312.528s-.496.832-.496 1.44v4.4c0 .107-.035.197-.104.272s-.163.112-.28.112h-1.456z" fill="#dee7ff" fill-rule="nonzero"/><g transform="translate(0 .038)"><mask id="B" fill="#fff"><use xlink:href="#A"/></mask><path d="M.508 11.218l11.397 6.623c.34.198.787.297 1.235.297s.895-.1 1.238-.297L30.5 8.532c.685-.396.69-1.037.008-1.432L19.112.477C18.77.28 18.324.18 17.877.18s-.895.1-1.238.297L.516 9.786c-.685.396-.69 1.037-.008 1.432" fill="#2472d3" mask="url(#B)"/></g><g fill="#70b0ff"><path d="M1.52 17.984l-1.005.58c-.685.396-.69 1.037-.008 1.432l11.397 6.623c.34.198.787.297 1.235.297s.896-.1 1.238-.297L30.5 17.31c.685-.396.69-1.037.008-1.432l-1.016-.6-14.35 8.285c-.56.324-1.27.502-2.003.502s-1.444-.18-2.003-.504L1.52 17.984z"/><path d="M15.142 19.204c-.56.323-1.27.502-2.003.502s-1.444-.18-2.003-.504L1.52 13.614l-1.005.58c-.685.396-.7 1.037-.008 1.432l11.397 6.623c.34.198.787.297 1.235.297s.896-.1 1.238-.297L30.5 12.94c.685-.396.7-1.037.008-1.432l-1.016-.6-14.35 8.285zM1.52 22.355l-1.005.58c-.685.396-.7 1.037-.008 1.432L11.905 31c.34.198.787.297 1.235.297s.896-.1 1.238-.297L30.5 21.7c.685-.396.7-1.037.008-1.432l-1.016-.6-14.35 8.285c-.56.324-1.27.502-2.003.502s-1.444-.18-2.003-.504L1.52 22.355z"/></g><path d="M14.673 4.26l-.106.14.104.148.696.404c-.58.448-.883.9-.893 1.33-.01.448.25.826.8 1.14a3.49 3.49 0 0 0 1.994.461c.736-.043 1.578-.252 2.555-.626L21 6.838a3 3 0 0 1 .721-.139.87.87 0 0 1 .502.11c.194.113.246.257.155.44-.1.174-.3.37-.67.578-.557.322-1.12.43-1.698.34l-.293.013a.66.66 0 0 0-.248.091l-1.333.77-.098.126.082.126c.33.174.727.3 1.176.352.458.057.96.043 1.5-.052a6.58 6.58 0 0 0 1.654-.522l.696.404.255.06.248-.056.873-.504.106-.148-.112-.144-.696-.404c.64-.474.98-.948 1.036-1.42.055-.465-.212-.874-.796-1.213a3.42 3.42 0 0 0-1.289-.443c-.442-.056-.93-.026-1.48.1a12.98 12.98 0 0 0-1.925.626c-.662.243-1.143.4-1.45.448-.316.052-.563.022-.758-.1-.187-.1-.26-.24-.208-.382.054-.152.227-.304.505-.465a2.19 2.19 0 0 1 .76-.274c.27-.043.495-.035.668.022.195.026.368-.004.518-.1l1.408-.813.1-.122-.097-.126c-.262-.135-.606-.23-1.04-.283-.428-.057-.908-.048-1.434.022-.518.065-1.044.204-1.57.413l-.718-.417-.247-.065-.248.065-.873.504zm-8.5 6.06l-.106.148.1.152 6.47 3.76.255.06.248-.065 1.37-.8.12-.148-.104-.148-2.446-1.42 2.372-1.37 2.446 1.42.255.06.248-.065 1.37-.8.113-.143-.097-.152-6.47-3.76-.27-.06-.255.06-1.37.8-.106.148.112.152 2.364 1.374-2.372 1.37L8.07 9.53l-.262-.065-.263.065z" fill="#dee7ff"/></g></svg>