<?xml version="1.0" encoding="UTF-8"?>
<svg width="139px" height="32px" viewBox="0 0 139 32" version="1.1" xmlns="http://www.w3.org/2000/svg" xmlns:xlink="http://www.w3.org/1999/xlink">
    <!-- Generator: Sketch 59.1 (86144) - https://sketch.com -->
    <title>Group</title>
    <desc>Created with Sketch.</desc>
    <defs>
        <polygon id="path-1" points="0 0.180390952 31.0164961 0.180390952 31.0164961 18.1375399 0 18.1375399"></polygon>
    </defs>
    <g id="Page-1" stroke="none" stroke-width="1" fill="none" fill-rule="evenodd">
        <g id="Group">
            <path d="M41.632,22 C41.5253328,22 41.434667,21.962667 41.36,21.888 C41.285333,21.813333 41.248,21.7226672 41.248,21.616 L41.248,11.2 C41.248,11.0826661 41.2826663,10.986667 41.352,10.912 C41.4213337,10.837333 41.5146661,10.8 41.632,10.8 L43.104,10.8 C43.2213339,10.8 43.317333,10.837333 43.392,10.912 C43.466667,10.986667 43.504,11.0826661 43.504,11.2 L43.504,15.312 L48.176,15.312 L48.176,11.2 C48.176,11.0826661 48.213333,10.986667 48.288,10.912 C48.362667,10.837333 48.4533328,10.8 48.56,10.8 L50.048,10.8 C50.1653339,10.8 50.2586663,10.837333 50.328,10.912 C50.3973337,10.986667 50.432,11.0826661 50.432,11.2 L50.432,21.616 C50.432,21.7226672 50.3973337,21.813333 50.328,21.888 C50.2586663,21.962667 50.1653339,22 50.048,22 L48.56,22 C48.4533328,22 48.362667,21.962667 48.288,21.888 C48.213333,21.813333 48.176,21.7226672 48.176,21.616 L48.176,17.344 L43.504,17.344 L43.504,21.616 C43.504,21.7226672 43.466667,21.813333 43.392,21.888 C43.317333,21.962667 43.2213339,22 43.104,22 L41.632,22 Z M55.152,22.16 C54.6079973,22.16 54.1093356,22.0506678 53.656,21.832 C53.2026644,21.6133322 52.8453346,21.3173352 52.584,20.944 C52.3226654,20.5706648 52.192,20.1600022 52.192,19.712 C52.192,18.986663 52.4853304,18.4000022 53.072,17.952 C53.6586696,17.5039978 54.4639949,17.2000008 55.488,17.04 L57.68,16.72 L57.68,16.384 C57.68,15.925331 57.5626678,15.5786678 57.328,15.344 C57.0933322,15.1093322 56.7200026,14.992 56.208,14.992 C55.8559982,14.992 55.5733344,15.0559994 55.36,15.184 C55.1466656,15.3120006 54.973334,15.442666 54.84,15.576 L54.576,15.84 C54.5333331,15.9680006 54.4533339,16.032 54.336,16.032 L53.088,16.032 C52.9919995,16.032 52.9093337,16.0000003 52.84,15.936 C52.7706663,15.8719997 52.736,15.7866672 52.736,15.68 C52.7466667,15.413332 52.8773321,15.1120017 53.128,14.776 C53.3786679,14.4399983 53.7653307,14.1466679 54.288,13.896 C54.8106693,13.6453321 55.4559962,13.52 56.224,13.52 C57.482673,13.52 58.3999971,13.8026638 58.976,14.368 C59.5520029,14.9333362 59.84,15.6746621 59.84,16.592 L59.84,21.616 C59.84,21.7226672 59.8053337,21.813333 59.736,21.888 C59.6666663,21.962667 59.5733339,22 59.456,22 L58.128,22 C58.0213328,22 57.930667,21.962667 57.856,21.888 C57.781333,21.813333 57.744,21.7226672 57.744,21.616 L57.744,20.992 C57.5093322,21.333335 57.1786688,21.6133322 56.752,21.832 C56.3253312,22.0506678 55.7920032,22.16 55.152,22.16 Z M55.696,20.624 C56.2826696,20.624 56.7626648,20.4320019 57.136,20.048 C57.5093352,19.6639981 57.696,19.109337 57.696,18.384 L57.696,18.064 L56.096,18.32 C54.8693272,18.512001 54.256,18.9226635 54.256,19.552 C54.256,19.893335 54.3973319,20.1573324 54.68,20.344 C54.9626681,20.5306676 55.3013314,20.624 55.696,20.624 Z M65.488,22.16 C64.3146608,22.16 63.3786702,21.8346699 62.68,21.184 C61.9813298,20.5333301 61.6106669,19.6320058 61.568,18.48 L61.552,17.84 L61.568,17.2 C61.6106669,16.0479942 61.9813298,15.1466699 62.68,14.496 C63.3786702,13.8453301 64.3146608,13.52 65.488,13.52 C66.3306709,13.52 67.0426638,13.6693318 67.624,13.968 C68.2053362,14.2666682 68.6373319,14.6319978 68.92,15.064 C69.2026681,15.4960022 69.3546666,15.9093314 69.376,16.304 C69.3866667,16.4106672 69.3520004,16.501333 69.272,16.576 C69.1919996,16.650667 69.0986672,16.688 68.992,16.688 L67.568,16.688 C67.4506661,16.688 67.3653336,16.6640002 67.312,16.616 C67.2719998,16.5799998 67.232,16.5215003 67.1920001,16.4405002 L67.152,16.352 C66.9919992,15.9466646 66.7813346,15.6533342 66.52,15.472 C66.2586654,15.2906658 65.9253354,15.2 65.52,15.2 C64.9759973,15.2 64.552,15.370665 64.248,15.712 C63.9439985,16.053335 63.7813334,16.5759965 63.76,17.28 L63.744,17.872 L63.76,18.4 C63.8240003,19.7866736 64.4106611,20.48 65.52,20.48 C65.9360021,20.48 66.2719987,20.3920009 66.528,20.216 C66.7474297,20.0651421 66.9315916,19.8261238 67.0804896,19.4989394 L67.152,19.328 C67.1946669,19.2106661 67.245333,19.1253336 67.304,19.072 C67.362667,19.0186664 67.4506661,18.992 67.568,18.992 L68.992,18.992 C69.0986672,18.992 69.1919996,19.029333 69.272,19.104 C69.3520004,19.178667 69.3866667,19.2693328 69.376,19.376 C69.3546666,19.7493352 69.2053347,20.1519978 68.928,20.584 C68.6506653,21.0160022 68.2240029,21.3866651 67.648,21.696 C67.0719971,22.0053349 66.3520043,22.16 65.488,22.16 Z M71.44,22 C71.3333328,22 71.242667,21.962667 71.168,21.888 C71.093333,21.813333 71.056,21.7226672 71.056,21.616 L71.056,11.024 C71.056,10.9066661 71.093333,10.8133337 71.168,10.744 C71.242667,10.6746663 71.3333328,10.64 71.44,10.64 L72.768,10.64 C72.8746672,10.64 72.965333,10.677333 73.04,10.752 C73.114667,10.826667 73.152,10.9173328 73.152,11.024 L73.152,16.496 L75.808,13.952 L75.8968888,13.8844446 C75.9158517,13.8690372 75.9368888,13.8515557 75.96,13.832 C76.0293337,13.773333 76.0959997,13.7333334 76.16,13.712 C76.2240003,13.6906666 76.3039995,13.68 76.4,13.68 L77.92,13.68 C78.0266672,13.68 78.1119997,13.7119997 78.176,13.776 C78.2400003,13.8400003 78.272,13.9253328 78.272,14.032 C78.272,14.1280005 78.2186672,14.2239995 78.112,14.32 L74.848,17.408 L78.512,21.376 C78.6080005,21.4720005 78.656,21.5626662 78.656,21.648 C78.656,21.7546672 78.6240003,21.8399997 78.56,21.904 C78.4959997,21.9680003 78.4160005,22 78.32,22 L76.768,22 C76.6186659,22 76.5093337,21.9813335 76.44,21.944 C76.3706663,21.9066665 76.2826672,21.8346672 76.176,21.728 L73.152,18.512 L73.152,21.616 C73.152,21.7226672 73.114667,21.813333 73.04,21.888 C72.965333,21.962667 72.8746672,22 72.768,22 L71.44,22 Z M83.088,22.16 C81.8933274,22.16 80.9466702,21.8186701 80.248,21.136 C79.5493298,20.4533299 79.1786669,19.482673 79.136,18.224 L79.12,17.824 C79.12,16.49066 79.4693298,15.4400038 80.168,14.672 C80.8666702,13.9039962 81.8346605,13.52 83.072,13.52 C84.3413397,13.52 85.3199966,13.9039962 86.008,14.672 C86.6960034,15.4400038 87.04,16.4639936 87.04,17.744 L87.04,18.08 C87.04,18.1866672 87.002667,18.277333 86.928,18.352 C86.853333,18.426667 86.7573339,18.464 86.64,18.464 L81.328,18.464 L81.328,18.592 C81.3493334,19.1893363 81.5119985,19.6826647 81.816,20.072 C82.12,20.4613353 82.538664,20.656 83.072,20.656 C83.6192027,20.656 84.075679,20.457282 84.4414396,20.0598406 L84.56,19.92 C84.6560005,19.8026661 84.7306664,19.7306668 84.784,19.704 C84.8373336,19.6773332 84.9279994,19.664 85.056,19.664 L86.464,19.664 C86.5600005,19.664 86.6426663,19.6906664 86.712,19.744 C86.7813337,19.7973336 86.816,19.8719995 86.816,19.968 C86.816,20.2240013 86.6640015,20.5253316 86.36,20.872 C86.0559985,21.2186684 85.6213362,21.52 85.056,21.776 C84.4906638,22.0320013 83.8346704,22.16 83.088,22.16 Z M81.328,17.104 L84.832,17.104 L84.832,17.072 C84.832,16.4426635 84.6746682,15.9386686 84.36,15.56 C84.0453318,15.1813314 83.6160027,14.992 83.072,14.992 C82.5279973,14.992 82.1013349,15.1813314 81.792,15.56 C81.5170357,15.8965943 81.3642795,16.3322119 81.3337283,16.8668634 L81.328,17.104 Z M89.12,22 C89.0133328,22 88.922667,21.962667 88.848,21.888 C88.773333,21.813333 88.736,21.7226672 88.736,21.616 L88.736,14.08 C88.736,13.9626661 88.773333,13.866667 88.848,13.792 C88.922667,13.717333 89.0133328,13.68 89.12,13.68 L90.432,13.68 C90.5493339,13.68 90.645333,13.717333 90.72,13.792 C90.794667,13.866667 90.832,13.9626661 90.832,14.08 L90.832,14.736 C91.365336,14.0319965 92.1333283,13.68 93.136,13.68 L93.808,13.68 C93.9253339,13.68 94.0186663,13.7146663 94.088,13.784 C94.1573337,13.8533337 94.192,13.9466661 94.192,14.064 L94.192,15.232 C94.192,15.3386672 94.1573337,15.429333 94.088,15.504 C94.0186663,15.578667 93.9253339,15.616 93.808,15.616 L92.544,15.616 C92.0426642,15.616 91.6480014,15.7599986 91.36,16.048 C91.0719986,16.3360014 90.928,16.7306642 90.928,17.232 L90.928,21.616 C90.928,21.7226672 90.890667,21.813333 90.816,21.888 C90.741333,21.962667 90.6506672,22 90.544,22 L89.12,22 Z M99.536,22.16 C98.5759952,22.16 97.7546701,22.0160014 97.072,21.728 C96.3893299,21.4399986 95.8720018,21.0613357 95.52,20.592 C95.1679982,20.1226643 94.9813334,19.6106694 94.96,19.056 C94.96,18.9706662 94.9919997,18.8933337 95.056,18.824 C95.1200003,18.7546663 95.1999995,18.72 95.296,18.72 L96.752,18.72 C96.8693339,18.72 96.965333,18.7466664 97.04,18.8 C97.114667,18.8533336 97.1839997,18.9279995 97.248,19.024 C97.3546672,19.3866685 97.5973314,19.6906654 97.976,19.936 C98.3546686,20.1813346 98.8746634,20.304 99.536,20.304 C100.28267,20.304 100.845331,20.1786679 101.224,19.928 C101.602669,19.6773321 101.792,19.3333355 101.792,18.896 C101.792,18.6079986 101.696001,18.368001 101.504,18.176 C101.311999,17.983999 101.021335,17.8160007 100.632,17.672 C100.242665,17.5279993 99.6640038,17.3546677 98.896,17.152 C97.637327,16.8533318 96.7146696,16.4586691 96.128,15.968 C95.5413304,15.4773309 95.248,14.7733379 95.248,13.856 C95.248,13.2373302 95.418665,12.6853358 95.76,12.2 C96.101335,11.7146642 96.5893302,11.3333347 97.224,11.056 C97.8586698,10.7786653 98.5973291,10.64 99.44,10.64 C100.325338,10.64 101.090663,10.7946651 101.736,11.104 C102.381337,11.4133349 102.871998,11.7999977 103.208,12.264 C103.544002,12.7280023 103.722667,13.189331 103.744,13.648 C103.744,13.7333338 103.712,13.8106663 103.648,13.88 C103.584,13.9493337 103.504,13.984 103.408,13.984 L101.888,13.984 C101.653332,13.984 101.493334,13.888001 101.408,13.696 C101.354666,13.354665 101.146668,13.0693345 100.784,12.84 C100.421332,12.6106655 99.973336,12.496 99.44,12.496 C98.8533304,12.496 98.3920017,12.6079989 98.056,12.832 C97.7199983,13.0560011 97.552,13.3813312 97.552,13.808 C97.552,14.0960014 97.6373325,14.335999 97.808,14.528 C97.9786675,14.720001 98.2453315,14.8879993 98.608,15.032 C98.9706685,15.1760007 99.4986632,15.3386658 100.192,15.52 C101.141338,15.7333344 101.895997,15.973332 102.456,16.24 C103.016003,16.506668 103.429332,16.8426646 103.696,17.248 C103.962668,17.6533354 104.096,18.1706635 104.096,18.8 C104.096,19.4933368 103.906669,20.0933308 103.528,20.6 C103.149331,21.1066692 102.616003,21.493332 101.928,21.76 C101.239997,22.026668 100.442671,22.16 99.536,22.16 Z M109.504,22 C108.533328,22 107.802669,21.7466692 107.312,21.24 C106.821331,20.7333308 106.576,19.9893382 106.576,19.008 L106.576,15.392 L105.312,15.392 C105.205333,15.392 105.114667,15.354667 105.04,15.28 C104.965333,15.205333 104.928,15.1146672 104.928,15.008 L104.928,14.064 C104.928,13.9573328 104.965333,13.866667 105.04,13.792 C105.114667,13.717333 105.205333,13.68 105.312,13.68 L106.576,13.68 L106.576,11.024 C106.576,10.9066661 106.613333,10.8133337 106.688,10.744 C106.762667,10.6746663 106.853333,10.64 106.96,10.64 L108.288,10.64 C108.405334,10.64 108.498666,10.6746663 108.568,10.744 C108.637334,10.8133337 108.672,10.9066661 108.672,11.024 L108.672,13.68 L110.672,13.68 C110.778667,13.68 110.869333,13.717333 110.944,13.792 C111.018667,13.866667 111.056,13.9573328 111.056,14.064 L111.056,15.008 C111.056,15.1146672 111.018667,15.205333 110.944,15.28 C110.869333,15.354667 110.778667,15.392 110.672,15.392 L108.672,15.392 L108.672,18.832 C108.672,19.290669 108.751999,19.6373322 108.912,19.872 C109.072001,20.1066678 109.333332,20.224 109.696,20.224 L110.816,20.224 C110.933334,20.224 111.026666,20.2586663 111.096,20.328 C111.165334,20.3973337 111.2,20.4906661 111.2,20.608 L111.2,21.616 C111.2,21.7226672 111.165334,21.813333 111.096,21.888 C111.026666,21.962667 110.933334,22 110.816,22 L109.504,22 Z M115.04,22.16 C114.495997,22.16 113.997336,22.0506678 113.544,21.832 C113.090664,21.6133322 112.733335,21.3173352 112.472,20.944 C112.210665,20.5706648 112.08,20.1600022 112.08,19.712 C112.08,18.986663 112.37333,18.4000022 112.96,17.952 C113.54667,17.5039978 114.351995,17.2000008 115.376,17.04 L117.568,16.72 L117.568,16.384 C117.568,15.925331 117.450668,15.5786678 117.216,15.344 C116.981332,15.1093322 116.608003,14.992 116.096,14.992 C115.743998,14.992 115.461334,15.0559994 115.248,15.184 C115.034666,15.3120006 114.861334,15.442666 114.728,15.576 L114.464,15.84 C114.421333,15.9680006 114.341334,16.032 114.224,16.032 L112.976,16.032 C112.88,16.032 112.797334,16.0000003 112.728,15.936 C112.658666,15.8719997 112.624,15.7866672 112.624,15.68 C112.634667,15.413332 112.765332,15.1120017 113.016,14.776 C113.266668,14.4399983 113.653331,14.1466679 114.176,13.896 C114.698669,13.6453321 115.343996,13.52 116.112,13.52 C117.370673,13.52 118.287997,13.8026638 118.864,14.368 C119.440003,14.9333362 119.728,15.6746621 119.728,16.592 L119.728,21.616 C119.728,21.7226672 119.693334,21.813333 119.624,21.888 C119.554666,21.962667 119.461334,22 119.344,22 L118.016,22 C117.909333,22 117.818667,21.962667 117.744,21.888 C117.669333,21.813333 117.632,21.7226672 117.632,21.616 L117.632,20.992 C117.397332,21.333335 117.066669,21.6133322 116.64,21.832 C116.213331,22.0506678 115.680003,22.16 115.04,22.16 Z M115.584,20.624 C116.17067,20.624 116.650665,20.4320019 117.024,20.048 C117.397335,19.6639981 117.584,19.109337 117.584,18.384 L117.584,18.064 L115.984,18.32 C114.757327,18.512001 114.144,18.9226635 114.144,19.552 C114.144,19.893335 114.285332,20.1573324 114.568,20.344 C114.850668,20.5306676 115.189331,20.624 115.584,20.624 Z M124.944,22.16 C124.133329,22.16 123.456003,22.0373346 122.912,21.792 C122.367997,21.5466654 121.965335,21.261335 121.704,20.936 C121.442665,20.610665 121.312,20.3306678 121.312,20.096 C121.312,19.9893328 121.346666,19.9040003 121.416,19.84 C121.485334,19.7759997 121.568,19.744 121.664,19.744 L122.976,19.744 C123.061334,19.744 123.136,19.7866662 123.2,19.872 L123.472222,20.1008886 C123.499629,20.1242961 123.528889,20.1493332 123.56,20.176 C123.746668,20.3360008 123.959999,20.4613329 124.2,20.552 C124.440001,20.6426671 124.703999,20.688 124.992,20.688 C125.418669,20.688 125.765332,20.6053342 126.032,20.44 C126.298668,20.2746658 126.432,20.0373349 126.432,19.728 C126.432,19.5146656 126.370667,19.341334 126.248,19.208 C126.125333,19.074666 125.906668,18.9520006 125.592,18.84 C125.355999,18.7559996 125.031501,18.6645002 124.618501,18.5655002 L124.176,18.464 C123.269329,18.271999 122.600002,17.9786686 122.168,17.584 C121.735998,17.1893314 121.52,16.6666699 121.52,16.016 C121.52,15.5893312 121.647999,15.1866686 121.904,14.808 C122.160001,14.4293314 122.541331,14.1200012 123.048,13.88 C123.554669,13.6399988 124.159996,13.52 124.864,13.52 C125.589337,13.52 126.213331,13.6346655 126.736,13.864 C127.258669,14.0933345 127.655999,14.3679984 127.928,14.688 C128.200001,15.0080016 128.336,15.2906654 128.336,15.536 C128.336,15.6320005 128.301334,15.7146663 128.232,15.784 C128.162666,15.8533337 128.08,15.888 127.984,15.888 L126.784,15.888 C126.666666,15.888 126.576,15.8453338 126.512,15.76 L126.40064,15.6742401 C126.33408,15.6204802 126.2512,15.5504004 126.152,15.464 C125.986666,15.3199993 125.802668,15.2053338 125.6,15.12 C125.397332,15.0346662 125.152001,14.992 124.864,14.992 C124.469331,14.992 124.165334,15.0773325 123.952,15.248 C123.738666,15.4186675 123.632,15.6426653 123.632,15.92 C123.632,16.112001 123.682666,16.2719994 123.784,16.4 C123.885334,16.5280006 124.090665,16.6479994 124.4,16.76 C124.709335,16.8720006 125.17333,16.9866661 125.792,17.104 C127.71201,17.4773352 128.672,18.3146602 128.672,19.616 C128.672,20.3733371 128.344003,20.9866643 127.688,21.456 C127.031997,21.9253357 126.117339,22.16 124.944,22.16 Z M130.704,22 C130.597333,22 130.506667,21.962667 130.432,21.888 C130.357333,21.813333 130.32,21.7226672 130.32,21.616 L130.32,11.024 C130.32,10.9066661 130.357333,10.8133337 130.432,10.744 C130.506667,10.6746663 130.597333,10.64 130.704,10.64 L132.16,10.64 C132.277334,10.64 132.370666,10.6746663 132.44,10.744 C132.509334,10.8133337 132.544,10.9066661 132.544,11.024 L132.544,14.672 C133.184003,13.9039962 134.042661,13.52 135.12,13.52 C136.101338,13.52 136.88533,13.8426634 137.472,14.488 C138.05867,15.1333366 138.352,16.0106611 138.352,17.12 L138.352,21.616 C138.352,21.7226672 138.317334,21.813333 138.248,21.888 C138.178666,21.962667 138.085334,22 137.968,22 L136.512,22 C136.394666,22 136.298667,21.962667 136.224,21.888 C136.149333,21.813333 136.112,21.7226672 136.112,21.616 L136.112,17.216 C136.112,16.5973302 135.960002,16.1146684 135.656,15.768 C135.351998,15.4213316 134.917336,15.248 134.352,15.248 C133.807997,15.248 133.370668,15.4239982 133.04,15.776 C132.709332,16.1280018 132.544,16.607997 132.544,17.216 L132.544,21.616 C132.544,21.7226672 132.509334,21.813333 132.44,21.888 C132.370666,21.962667 132.277334,22 132.16,22 L130.704,22 Z" id="HackerStash" fill="#DEE7FF" fill-rule="nonzero"></path>
            <g id="Group-14">
                <g id="Group-3" transform="translate(0.000000, 0.038242)">
                    <mask id="mask-2" fill="white">
                        <use xlink:href="#path-1"></use>
                    </mask>
                    <g id="Clip-2"></g>
                    <path d="M0.508044729,11.2177823 L11.9046883,17.8407853 C12.2451476,18.0385489 12.6920277,18.1375399 13.1395633,18.1375399 C13.5870989,18.1375399 14.0348531,18.0385489 14.3774976,17.8407853 L30.5003623,8.53213146 C31.1854327,8.13660435 31.1889291,7.49545711 30.5084476,7.09993 L19.111804,0.476927017 C18.7713448,0.279163466 18.3244647,0.180390952 17.8769291,0.180390952 C17.429612,0.180390952 16.9816393,0.279163466 16.6389948,0.476927017 L0.51613009,9.78558088 C-0.168940333,10.181108 -0.172436705,10.8222552 0.508044729,11.2177823" id="Fill-1" fill="#2472D3" mask="url(#mask-2)"></path>
                </g>
                <path d="M1.52127153,17.9843551 L0.516064533,18.5647529 C-0.168787367,18.96028 -0.172502262,19.6014272 0.507979172,19.9969543 L11.9048413,26.6199573 C12.245082,26.8177209 12.6919621,26.9164934 13.1394977,26.9164934 C13.5870334,26.9164934 14.0350061,26.8177209 14.377432,26.6199573 L30.5002967,17.3113035 C31.1853671,16.9157764 31.189082,16.2746291 30.5083821,15.879102 L29.492686,15.2890892 L15.1422634,23.5741801 C14.5821883,23.8978131 13.8708951,24.075691 13.1394977,24.075691 C12.4065707,24.075691 11.6952775,23.896939 11.136295,23.5719949 L1.52127153,17.9843551 Z" id="Fill-4" fill="#70B0FF"></path>
                <path d="M15.1422634,19.2037367 C14.5821883,19.5271512 13.8708951,19.7052476 13.1394977,19.7052476 C12.4065707,19.7052476 11.6952775,19.5264956 11.136295,19.2015515 L1.52127153,13.6139117 L0.516064533,14.1943095 C-0.168787367,14.5898366 -0.172502262,15.2309839 0.507979172,15.626511 L11.9048413,22.249514 C12.245082,22.4472775 12.6919621,22.54605 13.1394977,22.54605 C13.5870334,22.54605 14.0350061,22.4472775 14.377432,22.249514 L30.5002967,12.9408601 C31.1853671,12.545333 31.189082,11.9041857 30.5083821,11.5086586 L29.492686,10.9184273 L15.1422634,19.2037367 Z" id="Fill-6" fill="#70B0FF"></path>
                <path d="M1.52127153,22.3548203 L0.516064533,22.9352181 C-0.168787367,23.3307452 -0.172502262,23.9718924 0.507979172,24.3674195 L11.9048413,30.9904225 C12.245082,31.1881861 12.6919621,31.2869586 13.1394977,31.2869586 C13.5870334,31.2869586 14.0350061,31.1881861 14.377432,30.9904225 L30.5002967,21.6817687 C31.1853671,21.2862416 31.189082,20.6450943 30.5083821,20.2495672 L29.492686,19.6595544 L15.1422634,27.9446453 C14.5821883,28.2682783 13.8708951,28.4461562 13.1394977,28.4461562 C12.4065707,28.4461562 11.6952775,28.2674042 11.136295,27.9424601 L1.52127153,22.3548203 Z" id="Fill-8" fill="#70B0FF"></path>
                <path d="M14.6734218,4.26050431 L14.5676565,4.39970363 L14.6718921,4.54742535 L15.3676702,4.95169338 C14.7872724,5.39944755 14.4846177,5.84283124 14.4745656,6.28184447 C14.4645135,6.72959863 14.7249933,7.1078624 15.2636531,7.42078771 C15.8619698,7.76867674 16.5365511,7.92513939 17.2572408,7.88165327 C17.9927901,7.83816714 18.8347602,7.62947742 19.8124333,7.25580265 C20.3163479,7.0600058 20.7147158,6.92517695 21.0005443,6.83820469 C21.2861542,6.75145096 21.5265297,6.70796483 21.721671,6.6992239 C21.9168123,6.69048297 22.0817974,6.72522817 22.224056,6.80782996 C22.4183232,6.92102501 22.4703317,7.06437627 22.3792075,7.24706172 C22.2880833,7.42078771 22.0693415,7.61636603 21.7079041,7.82505574 C21.1508883,8.14672198 20.5870983,8.25554656 20.0099783,8.16420384 L19.7171571,8.17709671 C19.6419851,8.18583764 19.5591648,8.2164309 19.4689147,8.26843944 L18.1363599,9.03785984 L18.0380244,9.16394776 L18.1197521,9.29003568 C18.4490667,9.4639802 18.846342,9.58132719 19.2960628,9.64207665 C19.7536505,9.69867418 20.2566911,9.68556278 20.7973176,9.59006812 C21.3307329,9.49872539 21.8870931,9.32478088 22.4515387,9.06823457 L23.1470983,9.47272113 L23.4018964,9.53347059 L23.6499203,9.47709159 L24.5231392,8.97273991 L24.6293415,8.82501818 L24.5174576,8.6814484 L23.8216796,8.27718037 C24.4623898,7.80342194 24.802849,7.32944499 24.8576983,6.85568656 C24.9129847,6.39066906 24.6452937,5.98203056 24.0618366,5.64288246 C23.6503573,5.40381801 23.2159331,5.25609629 22.773205,5.19949876 C22.3309139,5.14311976 21.8429514,5.17349449 21.294458,5.29084149 C20.7533945,5.41255894 20.1067841,5.62124866 19.3697052,5.9166921 C18.7080167,6.16012702 18.2268285,6.31680819 17.9189292,6.36444627 C17.6031631,6.41667332 17.3555763,6.38629859 17.1613091,6.27310354 C16.9742532,6.16449748 16.8999553,6.0340391 16.9532749,5.89068784 C17.0068131,5.73859565 17.1801021,5.58628493 17.4587192,5.42567034 C17.6997504,5.28647102 17.9477743,5.1951283 18.2183061,5.15164217 C18.4886194,5.10815604 18.7136983,5.11689697 18.8858947,5.17349449 C19.0810359,5.19949876 19.2538878,5.16912403 19.4042318,5.08215177 L20.8123957,4.26924524 L20.9030829,4.14752778 L20.8060586,4.02143986 C20.5442677,3.88682953 20.1996565,3.79111635 19.7647952,3.73888929 C19.3371452,3.68229176 18.8570496,3.69103269 18.3310641,3.76052309 C17.8129455,3.82586155 17.2867414,3.96484234 16.7603189,4.17353205 L16.0422515,3.75615262 L15.7948831,3.69103269 L15.5468592,3.75615262 L14.6734218,4.26050431 Z" id="Fill-10" fill="#DEE7FF"></path>
                <polygon id="Fill-12" fill="#DEE7FF" points="6.1740688 10.3202417 6.06830354 10.4679635 6.17975041 10.6202742 12.6504427 14.3804039 12.9052408 14.4411534 13.1530462 14.3760335 14.5234055 13.5847607 14.6444674 13.437039 14.5400133 13.2893173 12.0940825 11.8678235 14.4657154 10.4985567 16.9118648 11.9200505 17.1666629 11.9808 17.4146868 11.9156801 18.7850462 11.1244073 18.8984598 10.9810561 18.8016539 10.8289639 12.3313987 7.06861562 12.061304 7.00786615 11.8058503 7.06861562 10.4357094 7.85988835 10.3297257 8.00761007 10.441391 8.15970226 12.8051571 9.53333948 10.4335242 10.9028248 8.06975809 9.52896901 7.80753017 9.46384908 7.54442817 9.52896901"></polygon>
            </g>
        </g>
    </g>
</svg>