<?xml version="1.0" encoding="utf-8"?>
<!-- Generator: Adobe Illustrator 24.3.0, SVG Export Plug-In . SVG Version: 6.00 Build 0)  -->
<svg version="1.1" id="Layer_1" xmlns="http://www.w3.org/2000/svg" xmlns:xlink="http://www.w3.org/1999/xlink" x="0px" y="0px"
	 viewBox="0 0 688 446" style="enable-background:new 0 0 688 446;" xml:space="preserve">
<style type="text/css">
	.st0{fill:#70B0FF;}
	.st1{fill:#344F88;}
	.st2{fill:#FFCC4D;}
	.st3{fill:#664500;}
	.st4{fill:#DD2E44;}
	.st5{fill:#FFAC33;}
	.st6{fill:#21335A;}
	.st7{fill:#A7D28B;}
	.st8{fill:#9AAAB4;}
	.st9{fill:#67757F;}
	.st10{fill:#E1E8ED;}
	.st11{fill:#CCD6DD;}
	.st12{fill:#FF7892;}
</style>
<g>
	<path class="st0" d="M513.4,310.9c-1.8-1.8-2.7-4.1-3.2-6.5c-0.3-1.5-0.8-2.6-1.9-3.5c-1.5-1.1-1.8-2.6-1.6-4.4
		c0.1-1.4,0-2.7,0.2-4.1c0.4-2.7-0.7-5.2-1.4-7.7c-0.4-1.7-1.7-2-3.3-1.1c-0.5,0.3-1,0.7-1.5,0.6c-0.9-0.1-2-0.2-1.7-1.6
		c0.6-2.7-0.8-4.4-2.5-6.2c-1.3-1.4-2.3-3-2.6-4.9c-2.8,0-5.3,0.9-7.9,1.4c-0.3,0-0.7,0.1-0.7,0.3c-0.8,2.5-3.5,3.2-4.8,5.3
		c-0.7,1.1-1.8,1.8-2.8,2.5c-1,0.7-1.9,1.4-3,1.9c-2.2,1-2.9,2.9-2.9,5c0,2-0.6,3.9-0.7,5.9c-0.1,2.3-2.1,3.7-3.7,5.1
		c-0.5,0.4-1.4,0.4-1.8-0.6c-2.1-4.7-4.1-9.5-6.2-14.2c-1-2.3-0.9-4.8-1.3-7.2c-0.1-0.7-0.2-1.4-0.4-2.1c-0.5-1.7-0.6-1.7-2.3-1.2
		c-2.5,0.7-3.5,0.2-4.5-2.3c-0.3-0.9-0.5-1.7-0.6-2.6c-0.1-0.5-0.1-1.3-0.8-1.3c-1.4,0.1-2-0.9-2.8-1.7c-1.4-1.4-3.3-1-4.9-0.7
		c-2.9,0.6-5.7,0.6-8.6-0.1c-0.7-0.2-1.4-0.3-2.1-0.4c-1.2,0-2.2-0.6-2.6-1.6c-0.6-1.3-1.5-1.5-2.7-1.2c-2.6,0.5-5,0-7.1-1.7
		c-1-0.8-2-1.4-2.4-2.8c-0.3-0.8-0.5-2.3-2.1-2.2c-0.8,0.1-1.6-0.8-2.2,0.2c-0.5,0.9-0.8,2-0.3,2.9c1,1.8,1.8,4,3.4,5.2
		c1.4,1.1,2.6,1.8,3.2,3.6c0.3,0.8,3.8,0.5,4.8-0.3c0.6-0.5,1.1-1.2,1.8-1.7c1.1-0.8,1.9-0.6,2,0.7c0.2,1.7,1.6,1.9,2.6,2.4
		c1.4,0.7,2.4,1.5,3,2.9c0.4,0.9,0.5,1.4-0.2,2.1c-1.3,1.2-2.6,2.3-3,4.4c-0.2,1.2-1.9,1.6-2.7,2.5c-1.3,1.3-2.7,2.4-4.7,2.4
		c-0.6,0-1.3,0.2-1.7,0.7c-2.2,2.9-5.8,3.5-8.8,5c-2.4,1.2-5.1,1.2-7.6,2.1c-1.1,0.4-2.1,0.6-2,2.1c0.1,0.8,1.9,2.4,2.8,2.4
		c0.6,0,1.3,0,1.9-0.2c2.7-1,5.5-1,8.2-1.9c1.7-0.6,2.7,0.3,2.2,2.1c-0.3,1.3-0.9,2.6-1.5,3.8c-1.3,2.5-2.8,4.9-4.1,7.3
		c-1.2,2.1-3.2,3.2-4.9,4.6c-3.3,2.8-6.5,5.5-9.4,8.7c-3.6,4-3.4,9.9-1.5,13.8c0.8,1.7,1.4,3.3,1.3,5.2c-0.1,1.3,0,2.6,0,3.8
		c0,3.3-1.1,5-4.1,6.1c-2.7,1-4.1,3.5-6.1,5.3c-0.7,0.6-0.1,1.6,0,2.3c0.3,1.6,0.5,3.2,0.3,4.9c-0.2,1.8-1,3.1-2.7,3.5
		c-1.9,0.5-2.4,1.7-2.1,3.5c0.1,0.6,0.1,1.4-0.1,1.9c-1.9,3.5-3.7,7-6.6,9.8c-1.7,1.7-3.5,3.4-5.9,4.1c-1,0.3-1.9,0.6-2.9,0.6
		c-2.7,0-5.4-0.1-8.1,0.9c-2.2,0.9-4.3-0.7-4.1-3.3c0.3-4.5-1.8-8-4.4-11.3c-1.6-2-1.9-4.4-1.9-6.7c0-4.2-1.7-7.7-3.8-10.9
		c-3-4.4-2.4-9.1,1.2-14c1-1.4,0.9-2.8,0.5-4.1c-1.1-3.6-2.4-7.2-3.6-10.8c-0.7-2-2.5-3.1-3.7-4.6c-1-1.2-1.7-2-1.1-3.7
		c0.6-1.8,0.5-3.9,0.7-5.9c0.2-1.6-1.3-3.8-2.7-3.4c-3.2,0.8-5.4-0.3-7.1-2.9c-0.2-0.3-0.7-0.6-0.9-0.6c-2.3,0.7-4.9-0.3-7.2,1.2
		c-1.6,1-3.3,1.9-5.3,1.8c-1,0-1.9-0.5-2.9-0.6c-2-0.2-4,0.1-5.9,0.8c-1.3,0.5-2.5,0.5-3.7-0.7c-1.3-1.2-2.9-2.2-4.5-3.1
		c-1.2-0.7-2.1-1.7-2.5-2.8c-0.9-2.8-2.9-4.7-5.1-6.1c-2.6-1.7-2.6-4.3-3.2-6.6c-0.2-1,0.7-2.4,1.3-3.5c1.1-2,1-4,0.3-6
		c-0.1-0.3-0.2-0.5-0.3-0.8c-0.7-2.4-1.1-4.6,0.6-6.9c1.8-2.4,3.1-5.3,4.7-7.9c1-1.7,2.7-2.7,4.4-3.6c1.6-0.8,2.6-1.9,3-3.6
		c0.2-1.1,0.5-2.1,0.7-3.2c0.3-1.5,0.9-2.6,2.4-3.4c2.1-1,3.1-3,4-5c0.6-1.4-0.5-3.2-2-3.3c-1.7-0.1-2.9-0.6-3.5-2.4
		c-0.5-1.5-1.3-2.7-0.2-4.3c1.3-2,0.4-4.3,0.3-6.4c-0.1-3.2,0.8-4.2,3.9-3.7c2.7,0.4,5.5,0.1,8.2,0.5c1.3,0.2,1.8-0.5,2-1.6
		c0.2-1.6,0.7-3.3,0.5-4.9c-0.4-2.4-2.1-4.1-4.2-5.4c-0.7-0.4-2.2-0.3-1.9-1.4c0.2-0.9,1.5-0.7,2.3-0.9c0.1,0,0.2,0,0.3,0
		c2.5-0.2,2.5-0.2,2.9-2.6c1.4,0.1,2.9,0.7,4.2-0.5c0.5-0.5,1.3-0.9,1.4-1.6c0.2-1.6,1.2-2.4,2.5-3c2.2-1,3.6-2.8,4.5-4.9
		c0.5-1.1,1.2-1.7,2.4-2c0.4-0.1,0.7-0.1,1-0.3c1.1-0.6,2.9,0,3.4-1.3c0.6-1.3,0.1-2.9-0.2-4.3c-0.2-0.8-0.2-1.7-0.4-2.4
		c-0.9-2.4,0.7-3.5,2-4.8c0.4-0.4,0.9-0.6,1.5-0.4c0.7,0.2,0.5,0.9,0.5,1.4c0,1.5,0,3.1,0,4.6c0.1,0.1,0.3,0.2,0.4,0.2
		c4.3-1,4.4-2.3,3.2-6c-0.7-1.9-1.7-3.6-2.3-5.5c-0.5-1.4-1.1-1.1-2.1-0.7c-1.4,0.6-2.2,1.8-3.2,2.8c-1.6,1.6-4.3,1.2-4.5-1
		c-0.2-1.6-1-2.8-1.3-4.3c-0.5-2.7,0-5.4-0.1-8.2c0-0.7,0.5-1.1,1-1.5c1.4-1.4,2.8-2.9,4.1-4.3c0.3-0.3,0.6-0.8,1-0.9
		c4.1-1.5,6.1-5,7.3-8.5c1.7-4.9,4-9.2,7.2-13.2c-2.5-1-2.9-1.5-2.5-2.9c0.5-1.4,1.5-1.6,4.4-0.7c-0.4-2.1,0.6-3.6,2-5
		c1.2-1.2,2.4-1.8,4.1-1.7c2,0.1,3.7-0.8,4.6-2.7c0.3-0.5,0.6-1.2,1.2-0.8c1.4,0.8,2.4,0.1,3-0.8c0.8-1,1.4-0.9,2.3-0.4
		c0.9,0.5,1.7,1.1,2.5-0.2c0.5-0.8,1.5-0.6,2.2-0.2c0.5,0.3,0.9,0.6,1.3,1c0.9,0.7,2.2,1.3,2.7,2.2c0.5,0.9-1.1,1.8-1,3
		c0.6,0.4,1.4,0.2,2.1,0.2c1.4,0,2.7,0,3.3,1.7c0.3,0.8,1.2,1,2,1.1c3.6,0.4,6.4,2.4,8.8,4.8c1.1,1.1,2.4,1.9,3.5,3
		c1.6,1.8,1.2,4,0.7,5.7c-0.5,1.4-2.3,2.2-4.2,2.3c-2.6,0.2-4.7-1.2-7.1-1.8c-0.4-0.1-0.8-0.5-1.2-0.5c-0.5-0.1-0.9,0.1-1.1,0.6
		c-0.2,0.4,0,0.8,0.3,1c1.8,1,1.6,2.6,1.5,4.3c-0.2,2.9,1.5,5.7,4.2,6.6c0.7,0.3,1.7,0.6,2.2-0.4c0.3-0.7,0-1.3-0.8-1.8
		c-0.7-0.4-1.9-0.9-1.4-2c0.7-1.3,1.7-0.4,2.6,0c0.8,0.4,1.7,0.6,2.6,0.4c0.5-0.5,0.3-1.1,0.3-1.6c0.2-3.2,2.8-5.7,6-5.7
		c0.5,0,0.9,0,1.4,0c0.9,0.1,1.4-0.2,1.3-1.2c-0.2-2.1,0.4-4.2-0.4-6.2c-0.1-0.3-0.1-0.7-0.1-1.1c0.1-0.8-0.4-1.8,0.6-2.1
		c0.9-0.3,2-0.4,2.9,0.2c1,0.6,0.9,1.8,1.1,2.7c0.1,0.5-0.8,0.9-1.4,1.2c-1,0.4-1.2,1.1-1,2c0.3,1.1,1.1,2,2.2,2.2
		c0.8,0.1,2,0.3,2.5-1c1.7-4.9,6.6-6,10.4-8.5c0.9-0.6,1.3-0.2,1.6,0.7c0.1,0.5,0.4,1,0.5,1.5c1.8-0.4,3.2-1.9,5.2-1.2
		c0.9,0.3,1.6-0.7,2.3-1.3c1-0.8,1.5-0.8,2.1,0.3c0.3,0.5,0.5,1.4,1.3,1.2c1-0.2,1.5-1,1.6-2c0.1-2-0.3-3.8-2.2-5
		c-1-0.6-1.7-1.3-0.8-2.9c1.7,2.9,4.5,3.4,7.4,3.9c3.1,0.5,5.1,3,7.6,4.6c0.9,0.6,1.5,1.6,2.8,1.9c1.1-2.4,0-4.3-1.6-5.7
		c-1.2-1-1.4-2-1.3-3.3c0.1-1.8,0.5-3.6-0.2-5.4c-0.4-0.9,0.4-1.7,1-2.1c2-1.4,2.5-3.4,2.7-5.6c0-0.1,0-0.2,0-0.3
		c0.5-1,0.1-2.5,1.9-2.9c2-0.4,3.7-0.4,5.2,1.2c0.4,0.4,0.3,0.7,0.2,1.2c-0.3,1.1-0.6,2.1-0.6,3.2c-0.1,1.7-0.7,3.3,0.2,5.2
		c0.8,1.6,0.3,3.8,0.2,5.7c0,1.5-0.1,3.1-0.1,4.6c0,0.6-0.1,1.3,0.4,1.8c2.2,2.7,1.1,5.2-0.4,7.6c-0.6,1-1.3,2-2,3
		c-0.4,0.6-1,1.1,0,1.8c0.8,0.5,1.5,0.8,2.2,0c0.8-0.9,1.8-1.5,2.3-2.6c0.5-1.1,1.1-2.3,1.7-3.4c0.3-0.6,0.4-1.1,0.3-1.8
		c-0.7-3.1-0.6-3.2,2.1-4.8c0.2-0.1,0.4-0.3,0.4-0.7c-0.3-0.6-0.9-0.3-1.4-0.3c-2.6-0.1-3.5-1-3.3-3.6c0.1-1.1,0.4-2.1,0.8-3.2
		c0.4-1.1,0.5-2.1-0.2-3.1c-0.2-0.2-0.2-0.5-0.3-0.8c-1.1-3.1-1.2-3.2,1.3-5.5c1.2-1.1,0.9-2.4,1.3-4c0.8,1.4,0.4,2.6,0.5,3.7
		c0.1,0.9-0.1,1.8,0.1,2.7c0.3,1.7,0.8,1.9,2.8,1.9c0-0.2,0.2-0.4,0.1-0.5c-2.2-2.9-2.1-3.3,1.5-3.8c-0.4-1.1-1.4-2.2-0.4-3.6
		c2.5,0.9,5.2,1.5,6.8,4.1c0.6,0.9,1.5,1,2.6,0.8c0.2-1.5-0.1-2.8-1.5-3.6c-1.3-0.8-2-1.8-1.7-3.3c0.1-0.4,0-0.7,0-1.1
		c-0.6-3.1-0.6-3.2,2.4-3.9c2.4-0.5,4.8-1,7.2-1.7c1.6-0.4,1.8-0.6,1.4-2.2c-0.2-0.8-0.5-1.5-1.1-2.1c-1.1-1.1-1.1-1.6,0.1-2.2
		c2.2-1.1,4-2.4,5.5-4.4c0.5-0.7,1.3-0.9,2.1-1.2c1.5-0.5,2.9-1.1,4.3-1.6c0.5-0.2,1.1-0.2,1.4-0.8c1-2.6,3.5-2.2,5.4-3
		c0.5-0.2,1.1,0,1.1,0.8c0,0.6,0.1,1,0.8,1.1c1.1,0.1,4.4-1.3,4.5-2.4c0.2-1.2,0.9-1.5,1.8-1.7c1.4-0.3,2.1-0.8,1.7-2.6
		c-0.3-1.5,0.5-3,1.7-4c0.7-0.6,1.4-1.2,2-1.8c1.8-1.7,1.8-1.8,4-0.8c1,0.5,1.8,1,0.9,2.2c-0.9,1.2-0.4,2,0.9,2.4
		c0.8,0.3,1.5,0.5,2.3,0.8c0,0.2-0.1,0.3-0.1,0.3c0.1,1-1.3,1.9-0.4,2.8c1,1,1.7-0.6,2.5-0.8c1.7-0.4,3.6-1,5.3-0.6
		c1.7,0.4,2.8,2,3.9,3.6c1.7,2.6,1.2,5.2,1.1,7.9c0,0.9-0.7,1.4-1.4,1.8c-1.9,1.1-3.3,2.9-5,4.2c-1.2,0.9-1.1,2.5-2.5,3.5
		c-1.1,0.7-2.1,1.7-3.2,2.5c-0.4,0.3-0.9,0.6-1,1.2c-0.1,0.7-0.1,1.4,0.8,1.1c1.7-0.5,3.4-1.2,5.1-1.8c0.5-0.2,0.5-0.7,0.5-1.2
		c0-0.6,0-1.3,0-2.1c1,0,1.9,0.2,2.5,0.8c0.6,0.7,1.3,0.9,2.2,0.9c0.2,0,0.4-0.1,0.5,0c2.5,2.2,5.5,1,8.3,1.2
		c1.2,0.1,1.9,0.2,2.4,1.5c0.8,1.8,2.8,2,4.6,2.3c0.4,0.1,0.9-0.1,1.4-0.1c3-0.1,3-0.1,3.3-3c0.1-1.5,0.9-2.1,2.4-1.6
		c0.7,0.2,1.3,0.6,1.9,1c0.7,0.4,1.3,0.7,2.1,0.5c0.9-0.2,2-0.4,2.5,0.5c0.8,1.2,2.4,2.1,2.2,3.9c-0.2,1.5,0.8,3.3-0.9,4.6
		c-0.4,0.3-0.2,1,0.1,1.5c1,1.7,2,3.4,3.1,5.1c0.8,1.2,2,1.1,2.6-0.3c0.4-0.8,0.5-1.7,0.8-2.6c0.5-1.5,0.9-1.7,2-0.6
		c0.8,0.7,1.6,1,2.4,0.6c2.5-1.3,5.1-0.5,7.6-0.3c2,0.2,2,0.2,1.8-1.9c0-0.6,0-1.3,0-1.9c0-0.9,0.1-1.6,1.1-1.9
		c0.3-0.1,0.9-0.2,0.9-0.5c0.6-2.4,2.4-1.7,3.9-1.4c2.2,0.5,4.5,0.5,6.4,2.1c0.9,0.8,2.3,0.8,3.4,0.7c1.1-0.1,1.9,0.2,2.8,0.7
		c0.8,0.4,1.4,0.9,1.1,1.9c-0.4,1.2,0.2,1.7,1.1,2.1c1.4,0.6,2.4,1.5,3.1,2.9c0.6,1.1,1.5,1.6,2.9,0.9c2.6-1.2,5.4-0.9,8.1-0.6
		c2.4,0.2,4.1,2.7,3.8,5c-0.2,1.6,0.7,2.7,2.5,3.2c0.5,0.1,1.1,0.2,1.6,0.1c2.8-0.6,5.5-1,8.3,0c1.1,0.4,1.6-0.5,2.2-1.1
		c1.5-1.6,1.5-1.5,3,0.2c-0.4,0.7-1.6,0.6-1.7,1.5c-0.1,0.9,0.8,1.1,1.2,1.7c0.2,0.4,0.8,0.7,1.2,1.1c0.5,0.5,1.2,0.6,1.7,0.2
		c0.6-0.4,1.2-0.9,1-1.8c-0.1-0.4-0.3-0.9-0.4-1.3c-0.6-2.8,0-3.5,2.8-3.1c0.4,0.1,0.9,0.2,1.3,0.2c4.5-0.3,8.3,1.6,12,3.7
		c0.6,0.3,1.1,0.7,1.5,1.1c2.8,2.6,5.2,5.6,8.6,7.5c0.5,0.3,0.4,0.8,0.5,1.2c0.4,1.3,0.8,2.5,1.2,3.9c2.3-2.6,3.8-2.6,6.2-0.3
		c0.5,0.4,0.9,0.9,1.4,1.3c1.4,1.4,1.4,1.6-0.4,2.8c-1.8,1.2-3.2,2.5-3.3,4.9c-0.1,1.5-1.5,2.1-2.8,1.2c-1.6-1.1-3.6-1.9-4.2-4.1
		c-0.3-0.9-0.8-1-1.7-0.8c-1.5,0.4-2.5,0-2.7-1.7c-0.1-0.6-0.3-1.3-1.2-1.2c-1,0.1-0.6,1-0.8,1.5c0,0.1,0,0.2-0.1,0.3
		c-0.5,4.3-0.9,4.7-5.3,5.5c-0.4,0.8,0.4,1.2,0.8,1.5c1.7,1.3,1.9,3.3,2.4,5.1c0.5,1.7-0.2,2.4-2,2.3c-4.3-0.3-7.4,2.1-10.4,4.6
		c-1.4,1.2-2.6,2.5-3.9,3.9c-0.6,0.6-1.1,0.7-1.8,0.1c-1.9-1.4-3.1-1.3-5.1,0.2c-0.7,0.6-1.4,0.9-2.4,0.6c-1.4-0.4-2.6,1-4,0.8
		c-0.3,0-0.5,0.5-0.5,0.9c0,1.6-1,2.7-1.9,3.8c-0.8,0.9-1.1,1.8,0,2.8c1.4,1.2,1.3,3,1.4,4.7c0,0.6-0.3,1.2-0.9,1.2
		c-1.6,0.2-1.6,1.3-1.5,2.4c0.3,1.8-0.5,3-2.2,3.5c-1.2,0.4-1.8,1.1-1.7,2.4c0.1,1-0.4,1.5-1.3,1.8c-1,0.3-1.4,1-1.5,2
		c-0.1,1.2-0.9,2.1-1.6,3c-0.9,1-2.1,0.8-2.4-0.6c-0.3-1-0.2-2-0.3-3c-0.3-2-0.6-4.1-1.1-6.1c-0.8-3.9,0.7-7.3,2.4-10.6
		c0.1-0.2,0.3-0.5,0.6-0.6c3.7-1.3,5.4-4.7,7.6-7.6c0.8-1.1,1.7-2.2,2.8-2.9c1.8-1,2.5-2.5,2.7-4.4c0.1-1.1,0.7-2.1,0.3-3.3
		c-0.9,0.2-1.7,0.4-2,1.6c-0.4,2.1-2.1,3.3-3.6,4.6c-1.2,1.1-2.3,0.6-2.6-1.1c-0.4-2-0.4-2-2.4-1.9c-2.2,0.2-4.3,0.5-5.3,3
		c-0.4,1.1-1.4,1.9-2.2,2.8c-0.7,0.8-1,1.6-0.3,2.6c0.8,1.2,0,1.6-1,1.8c-1.6,0.3-3.3-0.1-4.9,0.7c-0.6-0.9-0.2-2.5-2-2.4
		c-1.1,0-2.2-0.6-3.2,0.6c-1,1.1-2.5,0.6-3.9,0.4c-2.6-0.4-5.2-0.9-7.8,0.3c-0.8,0.4-1.4,0.8-1.9,1.5c-3.5,4.2-7,8.3-10.6,12.4
		c-0.4,0.5-0.6,1.1-0.9,1.8c1.3,0.6,2.5,1.4,3.2,2.7c0.6,1.1,1.5,1.2,2.2,0.3c0.8-1,1.6-1.5,2.8-0.8c1.1,0.6,2.1,1.4,2.2,2.9
		c0,0.5-0.2,1.1,0.5,1.6c0.8-1.1,0.9-3.2,3.1-2.6c0.6,3.5,1.3,7,1.7,10.6c0.1,1,0.1,1.5-0.9,2.2c-1.6,1.1-2,2.9-1.5,4.8
		c0.2,0.7,0.6,1.4,0.7,2c0,1-0.9,1.1-1.6,1c-0.6-0.1-0.4-0.6-0.3-1c0.8-4.2,0.2-8.3,0.3-12.5c0-0.6-0.4-1-0.8-1.4
		c-0.5-0.4-1-0.5-1.3,0.2c-0.6,1.1-1.3,2.2-1.2,3.6c0.1,1,0,2,0,3c0,0.9-0.1,1.9-0.6,2.6c-2.5,3.9-4.7,7.9-7.7,11.5
		c-2.3,2.7-4.7,3.9-8,3.9c-2,0-3.3,1.5-3.5,2.9c-0.4,2.1-1.8,3.1-3.2,4.1c-1.2,0.9-1.3,1.7-0.6,2.9c0.9,1.6,1.9,3.1,2.6,4.8
		c0.4,1.1,0.5,2.2,0.1,3.2c-0.5,1.2-1.5,1.8-2.8,1.8c-0.9,0-1.8,0-2.7,0.5c-0.6-1.8,0.1-3.5-0.1-5.3c-0.1-0.7,0.1-1.5-0.7-1.9
		c-1.4-0.6-1.9-1.3-1.5-3c0.4-1.7-0.7-2.4-2.5-1.9c-1.3,0.4-2.5,0.9-3.8,1.3c-0.7-1.3-0.2-2.4,0.2-3.6c-1.4-0.7-2.3-0.4-3.3,0.9
		c-1,1.3-2,2.9-4.1,2.9c-0.8,0-1,1-0.4,1.6c0.8,0.8,2.1,1,2.6,2.3c0.2,0.6,0.9,0.1,1.4-0.1c1-0.3,2-0.8,3.1-0.1
		c1,0.6,0.8,1.1,0.2,1.6c-1,0.8-2.1,1.5-3,2.3c-1.4,1.2-1.7,2.4-0.6,3.8c1,1.1,1.5,2.5,2.6,3.5c1.1,1,1.3,2.2,0.8,3.5
		c-0.4,1-0.4,1.7,0.3,2.5c0.8,1,0.6,1.9-0.3,2.9c-1,1.1-1.7,2.3-2.6,3.5c-0.2,0.3-0.6,0.5-0.7,0.8c-1.6,5.5-6.1,7.6-11.1,9.2
		c-1.6,0.5-3.3,0.9-5,1.4c-1.7,0.5-2.3,1.7-1.5,3.4c0.6,1.3-0.4,1.8-1,2.5c-0.7,0.9-1.7,0.2-2.2-0.1c-0.8-0.6-0.5-1.4,0.4-1.8
		c1.5-0.6,1.4-1.6,0.8-2.8c-0.6-1.1-1.5-1.8-2.5-1.3c-1.3,0.6-2.6,1.2-3.5,2.5c-1.4,1.8-1.3,2.8,0,4.8c0.7,1,1.4,2,2.2,2.7
		c2.4,2,2.7,4.7,3.2,7.4c0.2,1-0.1,2-1,2.7c-1.5,1.3-3,2.6-4.6,3.8c-0.5,0.4-1,0.7-1.7,0.8c-0.2,0-0.7,0-0.7,0
		c-0.3-2.4-3.1-2.6-3.9-4.5c-0.1-0.3-0.3-0.7-0.6-0.9c-1.2-1.4-2.8-2.3-4.5-2.3c-1.7,0-0.8,2.1-1.4,3.1c-1.4,2.6-0.5,4.9,0.8,7.2
		c0.4,0.7,1,1.1,1.6,1.3c1.6,0.7,2.6,1.9,3.6,3.2c0.9,1,1.4,2.1,1.3,3.5c-0.1,1.1,0,2.2,0.7,3.3c-1.1,0.5-2,0.5-2.9,0
		C514.1,311.3,513.8,311,513.4,310.9z M350.4,235.4c-1.2-3.1-1.2-3.1-4.4-5.3c-0.7-0.5-1.4-0.8-2-1.4c-1.8-1.5-3.9-2.7-4.7-5.1
		c-0.9-2.8-2.6-3.4-4.7-1.5c-1.6,1.4-3.3,2.4-5.6,1.6c-0.4-0.1-0.9-0.1-1.3-0.2c-1.2-0.3-2.1,0.1-2,1.4c0.1,2.1-1,3-2.7,3.8
		c-2.3,1.1-3.8,2.8-3.5,5.5c0.1,0.7,0,1.4-0.5,2c-1.6,2-3.3,3.6-6,3.7c-0.7,0-1.5,0.1-2.2,0.3c-0.7,0.1-1,0.8-1.1,1.4
		c0,0.8,0.3,1.7,1,1.7c2.4,0,4.8,1.1,7.1-0.7c2.4-1.9,5.3-2.5,8.4-2.8c3.9-0.4,7.8-0.2,11.6-1.3c0.4-0.1,0.7,0.1,1,0.3
		c1.8,1,2.3,4.2,0.8,6.1c-0.8,1-0.6,1.5,0.3,2.2c1.8,1.4,3.9,1.9,6.1,2.1c0.9,0.1,1.5,0.3,2,1.1c1.6,2.5,4.5,2.8,6.9,3.9
		c1.1,0.5,2.4-0.6,2.6-1.9c0.4-2.5,2.1-3.8,4.5-3c3.5,1,6.9,2.1,10.4,3.4c1.3,0.4,2.7,0.9,3.7,0.3c2.1-1.4,4.2-0.8,6.3-0.5
		c1.9,0.3,2.9-0.3,3.6-2.1c0.6-1.4,1.1-2.9,1.6-4.3c0.3-0.8,0.4-1.5,0.3-2.4c-0.6-3.7-0.5-3.7-4.2-2.8c-1,0.2-2.2,1-3-0.1
		c-1-1.3-2.1-0.8-3.2-0.4c-0.8,0.3-1.5,0.7-2.3,0.5c-2.8-0.5-5.1-3.4-5.3-6.4c0-1-0.2-2-0.4-3c-0.2-1.4-0.9-2-2.2-1.6
		c-1.5,0.5-3,1-4.4,2.1c0.9,1.6,1.7,3.1,2.5,4.6c-0.6,0.4-1.2,0.8-1.7,1.3c-0.6,0.5-0.2,2-1.6,1.8c-1.2-0.1-1.1-1.3-1.7-2
		c-0.6-0.7-0.9-1.5-1.4-2.3c-1.3-1.9-2.4-3.9-2.2-6.3c0.2-1.6-0.6-2.4-1.9-3.2c-2.8-1.6-5.8-3-7.3-6.2c-0.6-1.2-2.1-1.4-3.1-2
		c-0.6-0.3-1.1,0-1.2,0.7c-0.1,1.6-0.3,3.1,1.4,4.1c0.4,0.2,1,0.6,1,0.9c0.1,2.3,2.1,2.8,3.4,3.9c1.5,1.2,3.1,2.2,4.6,3.3
		c0.2,0.2,0.3,0.4,0.1,0.7c-0.7,0.4-1.7-0.2-2.4,0.6C351.7,233.3,352.2,234.7,350.4,235.4z M359.9,189.1c-0.3-2.5-0.6-4.8,0.3-7.1
		c0.8-1.9,1.7-2.1,3.2-0.6c0.3,0.3,0.4,0.6,0.7,0.9c0.6,0.5,1.5,0.3,1.5-0.4c0-1.4,0.7-3-0.7-4.3c-1.1-1-0.6-2.6,0.6-3.4
		c0.9-0.6,1.9-1,3.1-0.9c1,0.1,2,0.1,3,0.3c1.4,0.3,2.2-0.6,3-1.4c0.6-0.6-0.3-1.1-0.5-1.6c-0.4-1.1-1.3-1-2.1-0.8
		c-2.4,0.9-5,0.8-7.4,1.8c-1.1,0.4-2.1,0.2-2.9-0.8c-0.9-1.1-1.6-2.1-1.5-3.6c0.1-1.3,0.1-2.6-0.1-3.8c-0.4-2.6,0.6-4.5,2.3-6.3
		c1.5-1.6,2.9-3.2,4.3-4.9c0.8-0.9,0.9-3.4,0.2-3.7c-1.2-0.5-2.6-1-3.9-0.9c-1.1,0-1.3,1.1-2,1.7c-0.8,0.7-0.8,1.6-0.9,2.5
		c-0.2,2.6-1.2,4.6-3.6,6.2c-2.8,1.9-3.9,5-4.2,8.4c-0.2,1.9,1.3,2.8,2,4.2c0.2,0.5,0.4,1,0.9,1.3c0.8,0.6,0.5,1.2,0.1,1.9
		c-0.4,0.6-0.8,1.3-1.5,1.6c-2.1,0.8-2.2,2.6-2.4,4.4c-0.1,1-0.1,2-0.2,3c0,0.8-0.3,1.5-1,1.9c-1.4,0.8-3,1.2-3.8,2.8
		c-0.2,0.3-0.6,0.4-1,0.3c-1.6-0.5-2.6,0-3.2,1.6c-0.1,0.4-0.5,0.8-0.9,0.1c-0.8-1.2-1.8-0.7-2.3,0.1c-0.5,0.8-0.1,1.7,0.9,2.2
		c1.1,0.5,2.2,0.7,3.4,0.1c0.8-0.5,1.7-0.5,2.5,0.2c1.1,1,2.2,0.7,3.3,0.1c1-0.5,2-0.9,2.9-1.5c1-0.7,1.8-0.6,2.8-0.1
		c1.1,0.5,2.2,1.3,3-0.5C357.9,189.5,359,189.4,359.9,189.1z M387.5,219c-3.6,1.7-3.6,1.7-5.1-1.8c-0.6-1.3-2-2.3-3.3-2.4
		c-1.5,0-1.7,1.1-2.2,2.1c-0.4,0.9-0.8,1.8-1.7,2.4c-1.9,1.3-2.3,3.5-2.6,5.4c-0.4,2.8,0.6,3.7,3.4,3.9c0.5,0,0.9,0,1.4,0
		c1,0,2.1,0.4,3.1-0.4c2.2-1.9,4.8-1.7,7.1-0.4c2.1,1.3,4.2,1.3,6.5,1.2c0.9,0,1.7-0.4,2.7-0.4c1.7,0,1.8-0.3,1.8-1.9
		c0-1-0.4-1.7-1.2-2.3c-1.8-1.3-3.6-2.7-5.4-4c-1.1-0.8-1.4-1.5-0.7-2.7c0.5-0.8,0.8-1.8,1-2.8c0.3-1.1-0.3-1.8-1.4-1.4
		c-1.4,0.5-2.7,1.1-4,1.7c-0.7,0.3-0.7,0.8-0.7,1.6C386.2,217.8,386.8,218.3,387.5,219z M423.8,229.3c-1.6-0.8-1.5-3.2-3.6-2.4
		c-0.1,0-0.4-0.1-0.4-0.2c-0.3-2-2.5-2.5-3.3-4.2c-0.6-1.3-0.5-2.1,0.2-3.2c0.6-1,1.5-0.8,2.4-0.9c1,0,2.1-0.2,2.1-1.5
		c0-2.3-0.8-3.2-2.3-3.5c-1.9-0.3-3.4,0.4-4.6,1.7c-0.9,1-1.9,1.8-3.3,2.2c-1.2,0.3-2.4,3.1-2,4.2c1,2.5,1.8,5.2,3.9,7.1
		c1.4,1.3,1.4,2.6,0.6,4.1c-0.2,0.4-0.5,0.8-0.6,1.2c-0.1,1.2-0.5,2.5,0.5,3.6c1.8,2.2,5.3,2.7,7.5,2.1c0.5-0.2,1.2-0.3,1.2-0.9
		c0-1.9,0.5-3.8-0.5-5.6c-0.5-0.8-0.8-1.7-1.2-2.6C421.4,230.2,422.3,229.8,423.8,229.3z M401.5,290.2c-0.2-2.7-0.8-4.9-1.2-7.1
		c-0.6-2.9-2-5.3-4.3-7c-1-0.8-1.5-1.7-1.8-2.9c-0.6-2.1-0.6-4.6-3.1-5.7c-0.3-0.1-0.5-0.7-0.7-1.1c-1.1-1.9-2.2-3.8-3.1-5.7
		c-0.5-1.2-1.7-1.6-2.4-1.1c-1,0.7-1.3,1.8-0.7,2.9c1.1,2.1,2.5,4,3,6.3c0.3,1,0.7,1.8,1.5,2.5c1.1,0.9,1.4,1.9,1.6,3.3
		c0.3,2.2,0,4.6,2.6,5.8c0.4,0.2,0.4,1,0.6,1.5c0.5,1.2,0.7,2.7,1.5,3.4C396.9,287.1,399.1,288.5,401.5,290.2z M376.9,167.8
		c-0.1,0.9,0.5,1.5,0.9,2.2c0.9,1.6,1.7,1.7,3,0.7c1-0.7,1.1-2.2,0.3-3.2c-0.6-0.8-1.5-1.3-2.3-1.8c-0.8-0.5-1.4-0.2-1.7,0.6
		C377,166.7,377,167.3,376.9,167.8z M522.6,196.7c4.4-1.6,5.9-4.4,5-8.8C525.9,191,524.3,193.8,522.6,196.7z M379.7,318.3
		c-0.2,1.2,0.6,1.4,1.6,1.4c1.6,0,2.9-1.1,2.9-2.7c0-1.1-0.7-1.9-1.8-1.8C381.1,315.1,379.7,316.7,379.7,318.3z"/>
	<path class="st0" d="M38.2,167.8c0,0.7-0.1,1-0.1,1.3c0.1,2.4,0.1,2.6-2.4,2.7c-1.8,0.1-2.6,1.9-4.5,2.2c-0.2-1.6-0.3-3.1-0.5-5
		c-1.6,1.5-2,3.7-3.8,4.7c-0.1,0.1-0.2,0.5-0.1,0.7c1,2.4-0.5,3.9-2.3,4.9c-1.9,1.1-3.4,2.6-4.8,4.3c-2.3,2.8-5.3,4.7-9.3,4.6
		c0.2-1,0.7-1.5,1.7-1.8c3.1-1,5.3-3.3,7.2-5.9c0.5-0.7,0.6-1.5,0.6-2.3c0-0.8-0.3-1.3-1.1-1.2c-1.2,0.1-2.1-0.4-3-1
		c-0.7-0.5-1.5-0.6-2.3-0.3c-1.4,0.6-1.7-0.4-2-1.4c-0.1-0.4-0.1-0.7-0.1-1.1c0-1.4-0.8-1.9-2-1.4c-1.7,0.6-2.6-0.3-3.5-1.4
		c-0.2-0.2-0.5-0.5-0.5-0.6c0.7-1.9-0.7-2.9-1.5-4.3c-0.3-0.5,0.1-0.8,0.3-1.2c0.6-1.5,1.7-2.8,2.1-4.4c0.1-0.6,0.5-1.2,1.1-1
		c2.2,0.7,3.3-1.6,5.2-1.7c0.6,0,0.8-0.6,0.7-1.2c-0.2-1.3-0.2-2.5-0.2-4c-2.6,1.3-5.3,0.8-7.9,0.8c-1.8,0-2.4-0.4-2.5-2.1
		c-0.1-1.7-1.8-1.7-2.3-2.9c1.6-1.7,3.7-2.6,5.6-3.9c0.4-0.3,1.2-0.4,1.5,0.2c0.9,2.4,2.7,1.6,4.3,1.2c0.2,0,0.3-0.1,0.6-0.2
		c-0.5-1.9-1-3.6-3.3-4.1c-0.5-0.1-1.1-0.6-1.1-1.1c-0.1-1.8-1.4-2.4-2.7-3.2c-0.5-0.3-0.9-0.7-1.2-1.1c-1.2-1.5-0.8-3.6,1.1-3.8
		c2.9-0.2,3.8-2,4.5-4.2c0.3-1.1,1-1.8,2-2.4c1.5-0.9,3.2-1.7,4.2-3.4c0.2-0.3,0.5-0.6,0.9-0.5c1.7,0.2,2.9-0.7,4.1-1.8
		c1-1,2.2-0.9,3.2,0c1.4,1.3,2.9,2.1,4.9,1.8c1-0.2,1.5,0.6,2,1.2c0.8,0.8,1.5,1.3,2.8,0.9c2.6-0.7,5,0.8,7.3,1.6
		c1.2,0.5,2.4,0.8,3.7,0.6c1.9-0.2,3.8-0.2,5.3,1.3c0.8,0.7,1.9,0.8,2.8,0.9c2.1,0.2,3.5,1.4,4.9,2.6c1.8,1.6,2.5,1.6,3.9-0.4
		c0.8-1.1,1.7-1.6,3-1.4c1.8,0.3,3.2-0.4,4.4-1.7c0.7-0.8,1.6-1.5,2.8-1.3c0.4,0,0.8,0,1.1,0.2c1.9,1.1,1.9,1.1,3.1-0.7
		c0.3-0.4,0.5-1,1.1-1.2c1.2,0.9,1.4,2.5,2.2,3.6c0.4,0.6,0.8,1.3,1.7,1.2c0.8-0.2,0.7-0.9,0.9-1.5c0.1-0.3,0.2-0.7,0.7-0.8
		c0.7,0.6,0.7,1.5,1,2.3c0.8,0.3,1.3-0.3,1.7-0.6c1.6-1.4,3.2-1.2,4.8-0.3c1.6,0.9,3.1,1.8,4.6,2.8c1.4,1,3,1.2,4.6,1.2
		c1.5,0,2.8,0.6,3.3,1.8c0.6,1.4-0.4,2-1.1,2.8c-0.1,0.1-0.2,0.3-0.3,0.5c1.6,2.1,3.7,0.8,5.6,0.7c0.7,0,1.6-0.3,2.4-0.4
		c1.4-0.2,2.7-0.3,3.7,1c0.2,0.3,0.8,0.3,1.3,0.5c0.7-1.3,1-2.6,0-3.8c-0.7-0.9-0.2-1.3,0.4-1.7c0.1-0.1,0.2-0.1,0.2-0.1
		c3.2-1.8,3.6-1.7,5.5,1.4c0.8,1.3,1.5,2.2,3.1,2.1c0.2,0,0.4,0,0.5,0.1c1.7,2,4,1.2,6.1,1.1c1.4,0,2-0.5,2.4-1.7
		c0.1-0.4,0.2-0.9,0.4-1.3c0.7-1.3,0.3-2.2-0.9-2.9c-0.2-0.1-0.4-0.3-0.7-0.6c0.5-0.9,1.6-1.5,1.5-2.8c-0.1-1.1,0.8-1.3,1.7-1.2
		c1.1,0.1,1.6,1.4,2.8,1.4c0.2,0,0.3,0.4,0.1,0.7c-0.6,1.2,0.2,2.1,0.6,3c-0.6,0.5-1.1,1-1.6,1.5c-0.2,0.2-0.4,0.6-0.3,0.7
		c1.6,1.2,0.9,3.1,1.6,4.7c0.3-1.7,1-2.9,2.5-3.7c1-0.5,1.6-1.5,0.7-2.7c-0.7-1,0.2-2.1,0-3.2c-0.1-0.7-0.3-1.1-1.1-1.2
		c-2.1-0.4-3.2-1.5-3.3-3.6c-0.1-3.1-0.4-6.1,1.6-8.9c1.2-1.6,0.7-3.8,0.3-5.6c-0.7-2.9,0.1-5.5,0.7-8.3c0.2-1.1,0.9-1.3,1.7-1.4
		c1.8-0.3,3.6-0.3,5.4,0.3c1.4,0.4,2,1.6,1.4,3c-0.5,1.2-1.1,2.3-1.6,3.4c-0.5,1.1-1.2,2-2.6,2c-1.3,0-1.8,0.6-1.9,1.8
		c-0.1,1.1-0.4,2.1-0.5,3.2c-0.1,0.5-0.3,1.2,0.1,1.6c1.9,1.5,2,3.7,2.8,5.7c0.1,0.3,0.2,0.5,0.4,0.7c1.3,1.1,1,2.3,0.5,3.6
		c-0.6,1.8-0.6,1.9,1.3,2.3c1.1,0.2,1.6,0.7,1.7,1.8c0.1,0.7,0.3,1.4,0.5,2c1.1,0.1,1-2,2.5-1.1c1.2,0.7,2.1,1.4,2.1,3.1
		c0,0.7-0.1,1.5-0.4,2.1c-0.6,1.4,0.2,2.3,0.9,3.2c0.6,0.8,1.8,0.5,1.8-0.5c0-1.7,0.5-3,1.8-4.2c1.2-1.1,1.3-2.8,1.1-4.4
		c-0.2-1.4-0.2-2.8,0.1-4.3c-2-0.2-3.5-1.9-5.6-1.8c-0.4,0-0.8-0.6-1.2-1c-1.5-1.5-1.3-2.5,0.6-3.4c0.2-0.1,0.5-0.2,0.7-0.4
		c-0.2-0.1-0.4-0.2-0.5-0.3c-0.9-0.5-2.5,0-2.8-1.3c-0.3-1.4-1.1-2.7-0.5-4.4c0.9-2.3,1.2-4.9,2-7.3c0.8-2.6,3.7-4,6.3-3.4
		c0.6,0.1,0.7,0.5,0.7,1c0,0.4,0,0.9-0.2,1c-3.1,2.6-2.3,6-1.7,9.3c2.1-1.1,2.2-1.1,1.8-3.2c-0.4-2-0.3-3.8,1.1-5.4
		c1-1,2.1-1.6,3.6-1.6c2.6,0.1,5.1,0,7.7,0c2.8,0,4.7,2.1,4.5,4.8c0,0.6-0.3,1.4,0.4,1.7c2,0.6,2.5,2.4,3,3.9c0.7,1.9,1.7,3.2,4,2.8
		c1-0.2,1.7,0.3,2.2,1.3c0.3,0.7,0.8,1.2,1.1,1.9c0.5,1,1,1.7,2.2,1.6c1-0.1,1.9,0.4,1.9,1.5c0.1,1.4,2.1,1.2,2,2.7
		c-0.1,1.1-0.4,2.4,0.5,3.4c0.3,0.3,0.2,0.5-0.1,0.8c-1.8,1.9-1.8,2.9,0.1,4.5c1.1,0.9,2.2,2,3.7,2.1c0.9,0,1.2,0.7,1.6,1.3
		c0.8,1.6,2.1,2.6,3.7,3.4c2.1,1,2,1.2,0.9,3.4c-0.7,1.5-1.4,3-2.5,4.3c-1,1.2-1.7,1.3-2.7,0.1c-0.8-1-1.5-2.1-2.3-3.1
		c-0.6-0.8-1.4-1.2-2.4-0.8c-1.2,0.5-0.9,1.7-0.6,2.4c0.5,1.3,1,2.6,2.4,3.5c3,1.9,3.8,6,2.1,9.2c-1.6-0.9-3.1-1.7-4.7-2.6
		c0.8,1.9,2.6,3.1,2.7,5.4c-1.9,0.1-3.5-0.1-5-1.1c-0.9-0.7-1.8-1.5-3.1-1.5c-1,0-1.2-1.3-1.6-2c-1.6-3.2-4-5.1-7.7-5.1
		c-0.7,0-1.5-0.1-2.1,0.3c-1,0.7-1.8,0.1-2.5-0.4c-0.8-0.6-0.7-1.7-0.3-2.6c0.4-0.9,1.1-1.7,2.3-1.7c0.9,0,1.8,0.1,2.7,0.1
		c0.7,0,1.4-0.1,2.1-0.6c0.7-0.5,1.1-1,0.6-1.8c-1-1.4-0.3-2.4,0.6-3.3c0.1-0.1,0.1-0.1,0.2-0.2c2.5-3.1,2.6-3.2,1.3-6.9
		c-0.5-1.3-1.5-2.1-2.8-2.3c-0.4-0.1-1.4-0.1-1.4,0.9c0,0.6,0,1.4,1,1.1c0.5-0.1,1,0,1,0.5c0.1,0.7-0.6,0.5-1,0.6
		c-0.5,0.1-0.8,0.1-1.1,0.6c-1.2,2.1-1.2,2-3.7,2c-0.5-2.1-0.3-4,2-5.1c0.3-0.2,0.5-0.6,0.8-0.7c0.8-0.5,0.9-1.1,0.7-1.9
		c-0.3-0.9-1.2,0.2-1.7-0.3c-0.2-0.7,0.9-1,0.6-1.9c-0.3-0.8-1-0.6-1.6-0.7c-0.3,0-0.5-0.1-0.5-0.5c0.1-2.1-1.8-2.9-2.7-4.4
		c-1.2,0.7-1.8,1.7-2.4,2.7c-0.2,0.4-0.9,0.7-1.1,0.1c-0.5-1.9-1.8-1.1-2.8-1c-0.6,0.1-1.2,0.3-1.8,0.5c-0.3,1.1,0.6,1.5,1.1,2.1
		c1.3,1.9,1.4,3.5,0,5.3c-0.7,0.9-0.7,1.7-0.2,2.5c1.7,2.7,1.3,4.8-1.3,6.7c-0.9,0.7-2,1.4-2,2.8c-1-0.1-1.5-0.7-2.1-1.3
		c-0.7-0.7-1.4-0.8-2.2-0.4c-0.4,0.2-0.6,0.5-0.5,0.9c0.2,0.7,0.5,1.4,1.3,1.5c0.9,0.1,1.3,0.3,1.4,1.3c0.1,1.3,1.4,1.7,2.3,2.1
		c2.2,1.1,3.5,3,5.1,4.8c0.4,0.4,0.7,0.9,0.3,1.5c-0.3,0.5-0.9,0.6-1.4,0.5c-1-0.1-1.9-0.7-2.7-1.3c-0.6-0.5-1.1-0.4-1.6,0.3
		c-0.7,1-1.5,1.9-2.2,2.8c-0.4-0.1-0.5-0.1-0.5-0.2c-0.2-1.5-2.6-1.7-2.5-2.7c0.1-1.3,0.7-2.6,0.6-3.9c0-1.2,0-2.5,0-3.9
		c-1.6,0.7-1.7,2-2.1,3c-0.8,1.9-1.3,4-4,4.1c-1.1,0-1.3,1.2-1.6,2c-0.4,1-0.8,1.9-1.8,2.6c-5.1,3.5-6.9,8.5-6.6,14.5
		c0,0.4,0,1,0.6,1.1c2.2,0.2,2.2,2.2,3,3.6c0.5,0.9,0,2.4,1.2,2.9c0.9,0.3,1.9,0.2,2.9-0.1c0.8-0.2,1.5,0.6,2.1,1
		c2.2,1.3,4.3,2.8,6.4,4.2c1.4,0.9,2.9,1.3,4.6,1.4c2.4,0.2,2.5,0.3,2.7,2.8c0,0.2,0,0.4,0,0.5c-0.1,1.7,0.3,3.2,2.3,3.5
		c0.1,1-1.3,1.6-0.7,2.3c0.8,1.1,1.9,2,2.9,2.9c0.4,0.3,0.9-0.1,1.1-0.4c0.7-0.9,1.3-1.8,1.2-3.2c-0.1-1.7-0.6-3.4-0.9-5.1
		c-0.2-1.3-0.2-2,1.1-2.5c1.9-0.7,2.7-2.6,3.9-4.1c0.2-0.3,0.3-0.9,0.2-1.3c-0.4-2.5-0.6-5.1-3-6.6c-1.2-0.7-1.1-1.8-0.3-2.5
		c1.6-1.6,1.5-3.1,0.8-5.1c-0.8-2.1-0.2-4.5-0.3-6.8c0-0.9,0.5-1.4,1.4-1.3c0.8,0.1,1.7,0.2,2.4,0.5c1.2,0.5,2.4,0.8,3.7,0.2
		c1-0.5,1.8,0,2.4,0.7c0.6,0.7,1.1,1.5,1.6,2.2c0.6,0.7,1.2,1.7,1.9,1.9c3,0.5,2.6,2.6,2.5,4.6c-0.1,2.4,1.4,3.9,3.1,5.1
		c1.2,1,3.5-0.2,4.4-2.1c0.3-0.6,0.3-1.2,0.5-1.8c0.3-1.1,0.4-1.1,1.9-2.2c1.1,1.6,1.5,3.5,2.4,5.2c0.6,1.1,0.9,2.3,2,3.2
		c1.2,1,0.9,2.5,1.1,3.8c0.4,3.1,1.8,5.5,4.9,6.4c1.4,0.4,2.6,0.9,2.8,2.5c0.2,0.9,1,1.6,1.8,2c1.2,0.5,1.5,1.4,1.4,2.6
		c-0.1,2.4,0.2,4.9-0.5,7.3c-0.4,1.5,0.3,2.8,1.7,2.8c2.7-0.1,3,1.7,3.5,3.6c0.2,0.6,0.3,1.3,0.3,1.9c0,0.6,0.6,1.3-0.1,1.7
		c-0.8,0.4-1.3-0.2-1.7-0.9c-0.1-0.3-0.5-0.7-0.9-0.5c-1.4,1-2.2-0.1-3.3-0.5c-1.5-0.5-3.2-0.1-5.3-0.1c1.4-3.9,2.6-7.4,3.8-10.9
		c-1.5-0.5-2.5,0.2-3.5,1.1c-1.5,1.5-3.2,2.1-5.3,2.1c-2.9,0-5.7,0.7-8.7,0.5c-0.5,0-1,0.1-1.1,0.6c-0.5,1.7-2,2.4-3.7,3.6
		c3.1-0.1,5.7-2,8.7-0.9c-1.4,1.8-1.8,3.5-1.1,5.5c0.4,1.2,0.7,1.9,1.9,1.6c1.7-0.4,2.6,0.8,3.6,1.7c0.8-0.2,1-0.8,1.3-1.2
		c0.3-0.6,0.6-1.2,1.4-0.8c0.7,0.4,0.8,1.9,0.2,2.4c-0.3,0.3-0.8,0.4-1.2,0.6c-1.4,0.6-2.8,1.3-4.2,1.9c-1.4,0.7-2.8,1.4-3.4,2.9
		c-0.7-0.3-1.2-0.6-2-0.9c0.5-1.1,1-2.1,1.7-3.5c-3.7,1.3-7,2.4-9.6,5.1c-0.8,0.8-1.1,1.8-0.8,2.7c0.3,1.3-0.3,1.8-1.3,2.3
		c-0.7,0.3-1.2,0.8-1.9,1c-2.9,1.2-4.5,3.5-5.2,6.5c-0.1,0.3-0.3,0.8-0.5,0.9c-2.2,0.7-1.8,2.5-1.6,4.1c0.4,2.8-1.2,4.6-3.2,5.5
		c-2.2,1-3.4,2.9-5.1,4.4c-1.6,1.4-1.8,2.8-0.9,4.8c0.8,1.5,1,3.3,1.5,4.9c0.4,1.3,0.1,2.5-0.1,3.7c-0.2,1.2-1,1.6-1.8,0.8
		c-0.9-0.9-1.9-1.7-2-3.1c0-0.5-0.3-1.1-0.3-1.6c-0.6-4-1.4-4.8-5.3-5.1c-2.2-0.2-4.4,0-6.5-0.5c-0.6-0.2-1.1,0.1-1.4,0.6
		c-1.5,1.8-3.4,1.7-5.5,1.3c-2-0.5-3.7-0.3-5.7,0.7c-2.2,1.1-3.4,2.8-3.9,5.1c-0.9,3.8-1.2,7.6-0.3,11.3c0.5,2,1.6,3.8,3.2,5.2
		c1,0.9,2.2,1.6,3.8,1.1c0.4-0.1,0.9,0,1.4,0c2.1,0,3.9-0.4,4.5-2.9c0.1-0.7,0.7-1.3,1-1.9c0.3-0.6,0.7-0.8,1.3-0.8
		c1.2,0,2.3,0,3.5-0.5c1-0.4,1.3,0.3,1.1,1.2c-0.6,2.3-1.2,4.6-1.7,6.8c-0.1,0.5-0.3,1.1-0.4,1.6c-0.2,0.8,0.2,1.2,1,1.2
		c0.8,0,1.6,0,2.5,0c0.7,0,1.5-0.1,2.2,0c2.7,0.3,3.7,1.7,3.3,4.4c-0.2,1.5-0.2,3.1-0.4,4.6c0,0.7,0.2,1.2,0.8,1.6
		c0.5,0.4,1,0.8,1.3,1.3c1,1.6,2.3,1.9,4.1,1.4c3.5-0.9,3.5-0.7,7.1,1.1c0.7-1,1.4-2,2-3.1c0.5-0.9,1.1-1.5,2.1-1.6
		c2-0.2,3.5-1.3,5.1-2.4c0.2-0.2,0.5-0.2,0.7-0.1c0.3,0.1,0.3,0.2,0.3,0.4c0,1.6,0.1,1.9,1.3,1.2c1.3-0.8,2.3-0.7,3.4,0.2
		c2.4,1.9,5.3,2.2,8.2,1.5c2.2-0.6,4.1,0.2,6.1,0.6c0.6,0.1,0.8,0.5,0.8,0.9c0.1,1.3,1.1,1.9,2.1,2.3c1.5,0.6,2.6,1.6,3.5,2.9
		c0.8,1.3,1.9,1.9,3.4,1.8c3.3-0.3,5.9,1.1,8.6,2.8c0.8,0.5,1.1,1.2,1.4,1.9c0.7,1.7,1.4,3.3,1.9,5.1c0.4,1.4,1.2,2,2.4,2.3
		c1.6,0.4,3.1,1,4.7,1.3c1.4,0.4,2.8,0.8,3.6,2.2c0.4,0.7,1.2,0.8,1.9,0.8c1.1,0,2.2,0.1,3.3,0.2c2.3,0.2,4.4,0.4,6.2,2.3
		c1.3,1.4,3.1,2.4,5.1,2.7c0.7,0.1,1.4,0.4,1.5,1c0.2,2.8,1.2,5.8-1.4,8.2c-1.7,1.6-3.1,3.3-4.7,4.9c-1,0.9-1.7,1.9-1.4,3.3
		c0,0.2,0,0.4,0,0.5c0.4,4-1.1,7.6-2.2,11.3c-1.2,3.9-3.5,5.6-7.5,5.9c-2.8,0.2-5.3,2-7.2,4.2c-1,1.2-1.2,2.8-1.2,4.4
		c0,2.2-0.8,3.8-2.4,5.2c-3.2,2.8-5.4,6.4-7.4,10c-0.6,1-1.1,1.4-2.3,1.3c-1.7-0.2-3.5,0-5.3,0c0.2,1.4,0.7,2.5,1.3,3.6
		c1.1,2.3,0.2,4.5-2.3,5.4c-1.3,0.5-2.6,0.9-4,0.9c-2.2,0.1-3.4,1.3-3.8,3.4c-0.4,2.1-0.5,2.1-2.7,2c-0.5,0-1.1,0-1.6,0
		c-0.3,0-0.5,0.1-0.8,0.1c0.5,2.7,0.5,2.7,2.2,4.1c-1.5,1.2-3,2.5-2.7,4.7c0.1,0.4-0.4,0.8-0.9,1c-0.5,0.2-1,0.5-1.4,0.8
		c-2.3,1.7-2.2,4,0.3,5.6c1.3,0.8,1.5,2.3,0.3,3.3c-1.5,1.2-2.8,2.6-3,4.6c0,0.2-0.2,0.6-0.4,0.7c-2.1,0.6-1.9,2.2-1.8,3.7
		c0.2,1.5,0,2.9,0.6,4.4c1,2.7,3.3,4,5,6c-2,1.6-4.4,1.5-6.4,2.6c-0.5,0.3-1-0.3-1.4-0.6c-1.7-1.3-3.4-2.5-5-3.8
		c-0.5-0.4-1.1-0.9-1.3-1.7c-0.5-1.5-1.1-2.9-1.6-4.3c-0.4-1.2-0.8-2.5-0.6-3.9c0-0.3-0.1-0.7-0.3-1c-1.3-1.8-1.4-3.8-1.1-5.9
		c0.1-0.9,0.1-1.8,0.9-2.4c0.8-0.6,1.1-1.2,0.2-2c-1.1-0.8-0.8-1.7,0-2.6c0.8-0.9,1.1-1.9,1-3c-0.1-1.1,0.2-1.7,1.4-1.7
		c0.2,0,0.4-0.1,0.5-0.2c0.7-0.8,0.8-1.8,0.9-2.8c0.1-1,0.7-2.2-0.8-2.9c-0.2,0.8-0.5,1.6-0.7,2.3c-0.1,0.3-0.3,0.4-0.6,0.3
		c-0.3-0.1-0.4-0.3-0.4-0.6c0-0.4,0.2-0.9,0.3-1.3c0.8-3.5,1.7-7,0.9-10.7c-0.5-2.2,1.1-4,1.8-5.9c0.7-1.9,1.1-4,2.1-5.9
		c0.3-0.6,0.4-1.3,0.2-1.9c-0.8-2.7-0.3-5.5,0.5-8.1c1.4-4.3,1.2-8.8,1.4-13.2c0.1-1.7-0.4-3.5,0.4-5.1c0.2-0.3,0.1-1-0.1-1.3
		c-1.5-1.9-2.7-4.2-5.1-5.1c-1.2-0.5-2.3-1.2-3.4-1.6c-1.3-0.5-2.2-1.6-2.8-2.8c-1.5-3.4-3-6.8-4.4-10.2c-0.4-1-1.1-1.6-1.8-2.4
		c-1.1-1.1-2.2-2.2-2.8-3.7c-0.5-1.4-1.1-2.9,0.6-4c1-0.6,0.7-1.5,0.5-2.4c-1.1-3.5-0.5-4.3,2.3-6.8c1.9-1.8,3.7-3.8,3.6-7
		c-0.1-2.4-0.4-4.5-1.8-6.4c-0.5-0.7-1.1-1.4-2.2-1.3c-1.3,0-1.2,1-1.3,1.7c-0.3,1.2-1,1.3-1.8,0.9c-2.7-1.4-5.3-2.8-7.9-4.2
		c-0.5-0.3-0.4-0.8-0.5-1.2c-0.6-2.1-2.2-3.5-3.6-4.9c-0.6-0.6-1.4-0.8-2.2-1c-3.7-0.5-7-1.8-9.4-4.7c-0.5-0.6-1.1-0.8-1.9-0.8
		c-0.8,0.1-1.7,0-2.4,0.1c-2.1,0.4-4,0.1-6-1c-3.1-1.7-6.3-3.2-9.6-4.5c-1.9-0.8-3-2.2-2.8-4.2c0.3-2.7-0.9-4.4-2.7-6.1
		c-3.1-3-6-6.3-9.1-9.4c-0.5-0.5-0.9-1.1-1.1-1.8c-0.2-1-0.8-1.8-1-2.8c-0.3-1.4-1.5-2.4-2.4-2.2c-0.6,0.1-0.9,2.6-0.4,3.5
		c0.1,0.2,0.3,0.5,0.5,0.6c3.9,3.2,5.2,8,7.8,11.9c0.2,0.3,0.3,0.7,0,1.3c-1.9-0.7-3.7-1.8-4-3.8c-0.2-2-1.2-3-2.7-3.5
		c-1.5-0.5-2.2-1.1-1.5-2.8c0.4-0.9-0.1-1.6-0.8-2.1c-1.8-1.3-2.8-3.2-3.3-5.2c-0.8-3.2-2.8-5.2-5.7-6.4c-1.6-0.6-2.7-1.7-3.5-3.3
		c-1.7-3.4-4.1-6.4-5.3-10.1c-0.6-1.8-0.7-3.6-0.3-5.4c0.8-4,0.4-8.1,0.7-12.2c0.1-1.8-0.9-3.5-1.3-5.3c-0.1-0.6-0.6-0.9-1-1.2
		c-1.2-1.1-2.3-2.3-3.7-3.2c-1.7-1-2.8-2-1.4-4c0.3-0.4,0.2-1.1-0.2-1.5c-1.2-1.5-1.8-3.6-3.7-4.6c-1.2-0.7-1.3-2-1.4-3.1
		c0-1.9-1.1-2.6-2.6-2.8c-1.7-0.2-2.9-0.7-3-2.7c0-0.5-0.2-0.8-0.7-1.1c-2-1-3.3-2.7-4-4.9c-0.7-2.1-2.2-3.4-4-4.6
		c-1-0.7-2.1-1.3-2.6-2.6c-0.3-0.8-1.1-1.1-2-1.2c-2-0.2-3.8-1.3-5.9-0.5c-0.7,0.3-1.4-0.2-2-0.6C42.3,170,40.4,169,38.2,167.8z
		 M146.1,213.6c1.5,0.8,2.9,1,4.3-0.1c0.5-0.4,1.3-0.4,1.7,0.2c1.2,1.6,2.9,1.1,4.5,1.1c1.7,0,2.1-0.6,1.7-2.1
		c-0.4-1.8-3.5-4.2-5.4-4.2c-0.7,0-1.5-0.3-2.1,0.3C149.4,210.5,147.4,211.7,146.1,213.6z M91.5,144.9c0.1-0.7,0.2-1.4,0.2-2.1
		c0.1-0.9-0.6-1.2-1.2-0.9c-2.1,0.9-4.2,1.7-6.3,3.3c1.3,0.4,2.3,0.2,3.2,0.8c-0.6,1.1-1.3,2.2-1.7,3.4c-0.4,1.1,0.3,1.7,1.5,1.6
		c0.9-0.1,1.4-0.9,1.8-1.5c0.7-1.2,1.8,0.6,2.3-0.4c0.6-1.3,1.5-1.8,2.9-1.8c0.8,0,0.8-0.9,0.8-1.5c0-0.6-0.6-0.5-1-0.6
		C93.2,145,92.4,145.2,91.5,144.9z M163.5,223.4c0.4-1.8,1.1-3.2,3.3-3.5c0.8-0.1,0.5-1.1,0.1-1.8c-1.4-2.3-3.7-1.9-5.8-1.9
		c-1.3,0-1.7,0.7-0.9,1.9c0.3,0.6,0.6,1.1,0.5,1.8C160.5,221.8,161.6,222.8,163.5,223.4z M153.4,227.5c1.9-0.8,2-2.1,2-3.5
		c0.1-2-1-4.4,1.8-5.6c0.5-0.2,0.3-1,0.2-1.5c-0.1-0.4-0.4-0.6-0.8-0.6c-0.9,0-3.4,1.8-3.4,2.7C153.2,221.7,153,224.4,153.4,227.5z
		 M101.1,162.6c0.2,1.8-1,2.7-2.3,3.5c-0.5,0.3-1,0.5-0.9,1.2c0.1,0.9,0.9,0.8,1.5,0.8c1.4,0.1,2.8,0,3.7-1.1c0.6-0.7,1.7-0.8,2-1.9
		c-0.5-0.4-1-0.9-1.6-1.3C102.8,163.3,102.2,162.7,101.1,162.6z M132.1,193.6c-0.5,0-0.7,0.2-0.8,0.6c-0.6,1.4,0.8,4.3,2.2,4.8
		c0.5,0.2,0.9,0.1,1.1-0.4c0.2-0.5-0.8-4.4-1.2-4.6C132.9,193.8,132.5,193.7,132.1,193.6z M167.8,226.1c-0.3-0.3-0.4-0.4-0.5-0.5
		c-0.5-0.3-0.9-0.8-1.7-0.3c-1.1,0.8-2.9,0.4-3.8,1.8c-0.4,0.7,0,1.1,0.9,1.2C164.9,228.4,166.2,226.9,167.8,226.1z M169.3,109.3
		C169.3,109.3,169.3,109.3,169.3,109.3c-0.5,0-1.1,0-1.6,0.1c-1,0.1-0.9,0.9-1,1.6c0,0.8,0.4,1,1.2,1.1c1.3,0.2,2.2-0.3,2.9-1.4
		c0.5-0.7,0.4-1.2-0.5-1.3C170,109.3,169.6,109.3,169.3,109.3z"/>
	<path class="st0" d="M221,19.6c3.1-0.7,3.2-0.7,4.3,1.8c0.6,1.4,1.8,2.3,2.9,3.2c1.3,1,2.1,2.2,2.6,3.7c0.3,0.9,0.7,1.9,2.1,2
		c-0.4-3.1-0.7-6-3.5-7.9c-1-0.7-1.3-1.7-1.3-2.9c0-0.7-0.4-1.5,0.4-1.9c0.7-0.4,1.5-0.8,2.2-0.1c0.3,0.2,0.6,0.3,1,0.5
		c0.7-0.8-0.1-1.5-0.1-2.3c0.5-0.7,1.8-0.2,2.3-1.3c-1.5-0.2-3-0.5-4.3-0.7c-0.5-2.1,0.6-3.1,2.3-3.6c0.9-0.3,1.9-0.6,2.4-1.2
		c1.3-1.7,2.7-1.3,4.2-0.7c0.7,0.3,1.4,0.4,2.1,0.5c0.5,0.1,0.8-0.1,1.1-0.6c0.5-1.3,2.7-4.7,3.4-5.1c1.3-0.6,2.7-1.1,4.1-1.5
		c3.5-1,7.1-1.6,10.7-1.3c0.6,0.1,1.3-0.1,1.8,0.4c1.5,1.6,3.5,1.8,5.5,1.8c1.1,0,2.1,0.4,2.9,1.2c0.8,0.9,0.9,1.6-0.2,2.2
		c-1.2,0.7-2.5,1.4-4,2.2c1.8,0.5,3.2,0,4.6-0.3c1.9-0.4,2.8,0.1,2.6,1.9c-0.2,1.4,0.3,1.6,1.5,1.9c1.8,0.3,3.4,1.3,4.9,2.3
		c2,1.3,2.3,3.7,0.8,5.5c-0.9,1.1-1.8,2.5-3.7,2.2c-0.6-0.1-1.6,0.3-2,0.8c-1.1,1.5-2.7,1.3-4.2,1.3c-1.4,0-2.8,0.2-4.1,0
		c-3.7-0.6-5.9,1.9-8.4,3.8c-0.6,0.4-0.6,1.1-0.1,1.9c2.1-1.1,4.3-2.3,6.4-3.4c2.2-1.1,4.6-0.5,7-0.5c0.2,0,0.5,0.2,0.6,0.5
		c0.1,1,0.3,2,0.3,3c0,0.7-0.9,0.8-1.4,1.2c-0.7,0.6-1.5,1-2.2,1.6c-0.3,0.2-0.9,0.5-0.4,1c0.3,0.3,0.7,0.6,1.2,0.4
		c0.3-0.1,0.6-0.4,0.9-0.6c1-0.7,2.1-1.4,3.1-2.2c0.9-0.8,2-1.5,2-3c0-0.5,0.4-1,0.6-1.5c0.3-0.8,0.9-0.7,1.6-0.7
		c0.7,0,0.9,0.5,1.1,1c0.7,2.4,0.8,4.8,0,7.2c-0.5,1.6-1.2,3.2-1.7,4.9c1.9-2,3.1-4.6,5.1-6.7c0.2,0.3,0.4,0.5,0.6,0.7
		c2.1,1.9,4,1.5,5.1-0.9c0.5-1,1-1.9,1.4-2.9c1.5,0.4,2.8,1,4.3,1.3c1.5,0.3,2.6,1.2,3.3,2.6c0.8,1.6,0.5,3.1-0.9,4
		c-1.1,0.7-1.9,1.7-2.8,2.5c-0.4,0.4-0.9,0.7-0.9,1.3c0,0.8,0.1,1.7-0.8,2.2c-0.9,0.5-1.7,1-2.8,1c-0.9,0-1.8,0-2.7,0
		c0.1,1,0.8,1,1.4,1.1c0.9,0.2,1.6,0.6,1.6,1.6c0,1.1-0.7,1.8-1.7,2.1c-0.8,0.2-1.7,0-2.3,0.9c0.8,0.5,1.9,1,1.5,2.2
		c-0.3,1.1-0.8,2.2-2.1,2.2c-1.7,0-1.6,1-1.6,2.2c0,0.8,0,1.6,0,2.5c0.1,1-0.1,1.8-0.9,2.4c-2.4,1.6-2.5,4-2.7,6.5
		c0,0.3-0.1,0.6,0,0.8c0.2,0.9-0.7,1.8-0.2,2.6c0.5,0.8,1.7,0.6,2.5,0.9c0.9,0.3,0.9,0.3,1.7,2.5c-0.4,0.8-2,0.5-1.9,1.7
		c0.2,1,1.2,1.2,2.1,1.5c1.5,0.4,2,1.9,1.3,3.2c-0.4,0.7-0.7,1.1-1.7,0.6c-2.1-1.1-3-0.8-4.2,1.2c-0.9,1.5-0.5,2.2,1.3,2.6
		c1.2,0.3,1.6,1.2,1.8,2.1c0.3,1.2,0.4,2.5,0.6,3.8c0.1,1.1,0.6,2.3-1.2,2.6c-0.7,0.1-1,0.9-0.4,1.7c0.8,1.1,0.3,2.9,2.2,3.4
		c0.6,0.2,0.3,0.9-0.2,1.3c-0.9,0.7-2.2,1-3,2.1c-0.2,0.4,0.2,0.7,0.4,1.1c0.8,1.7,0.2,3-1.6,3.4c-1,0.2-2,0.3-3.3,0.4
		c1.5,1.7,1.8,3.4,1.6,5.3c-0.2,2.4-0.1,2.4-2.5,1.4c2.8,2.4,3.9,5.4,3.6,9c0,0.7,0.3,1.5-0.9,1.7c-1.6,0.3-2.7-0.1-3.1-1.2
		c-0.3-0.7-0.4-1.4-0.7-2c-0.3-0.6-0.9-1.1-1.8-1.1c-0.5,0.9-0.2,1.9-0.3,2.9c-0.1,1-1.1,1.4-1.5,2.3c2.1,0.7,4.3,0.9,6.2,1.9
		c0.1,0.7-0.2,1.3-0.6,1.7c-2.8,2.6-5.4,5.6-9.4,6.7c-2.2,0.6-4.3,1.8-6.8,1.9c-1.4,0-2.3,1.6-3.1,2.8c-0.1,0.2-0.1,0.5-0.2,0.8
		c-0.8,3.1-2.9,5.3-5.4,7.2c-1.1,0.8-2.2,1.1-3.6,1.1c-1.4,0.1-3-0.1-3.3,1.9c-2.2,1.1-1.7,3.1-1.7,5c0,1-0.1,1.9-0.7,2.8
		c-2.1,2.8-2.7,6.2-3.2,9.7c-0.1,0.8-0.1,1.6-0.3,2.4c-0.4,1.7-2.2,2.3-3.5,1.1c-0.4-0.4-0.8-0.7-1.1-1.2c-1-1.5-2.2-2.4-4.1-1.9
		c-0.8,0.2-1.5-0.1-2-1c-2.8-4.7-5.1-9.6-6.8-14.8c-0.6-1.8-0.6-3.7-2-5.1c-0.2-0.2-0.4-0.5-0.3-0.7c0.7-2.1,0-4-0.6-6
		c-0.6-2,0.8-3.9,1.1-5.8c0.1-0.5,0.5-0.7,1-0.7c2.2,0,2.8-1.2,2.9-3.3c0.1-1.3,0.1-2.7,0.3-4c-0.9-0.5-1.8-0.9-2.8-0.9
		c-0.3,0.5,0,0.9,0.1,1.3c0.2,0.7,0.7,1.3,0,2c-0.8,0.7-1.8,1.1-2.8,0.7c-0.8-0.3-1.7-0.9-1.6-2c0.1-1.5,0.3-3.1,0.5-4.6
		c0.1-0.7,0.6-1.1,1.3-1.1c0.6,0,1.3-0.1,1.9,0.1c0.8,0.3,1.7,1.2,2.3,0.1c0.6-1.1-0.5-2.3-1.2-2.6c-1.3-0.6-1.8-1.4-1.7-2.7
		c-1,0.3-1.8,0.7-2.7,0.9c-1.5,0.4-2.1,0.1-2.1-1.5c0-2.2,0.1-4.4,0.1-6.6c0-4.7-1.5-9.1-2.3-13.6c0-0.2-0.1-0.4-0.2-0.5
		c-2.2-1.2-2.3-3.5-3.1-5.5c-0.8-1.8-2.8-2.7-4.3-4.1c-0.9-0.9-2.1-1.4-3.3-1.6c-1.2-0.2-2.3-0.3-3.4,0.6c-0.4,0.3-1.2,0.9-1.4,0.8
		c-1.9-1.5-3.5,0.7-5.4,0.3c-2.4-0.5-2.9-0.9-2.5-3.3c0.2-1.3-0.5-1.9-1.5-2.2c-1.5-0.3-2-1.4-2.6-2.8c2.8-0.8,4.9-3.2,8.1-2.8
		c0.5,0.1,0.9-0.1,0.9-0.7c0-0.3,0-0.6-0.1-0.8c-0.4-0.4-0.8-0.1-1.2,0.1c-2.4,1.4-4.5,1-6.4-0.8c-1.5-1.6-3.7-2.6-4.1-5.2
		c-0.2-1.3-0.1-2,1.1-2.6c1.1-0.5,2.1-1.1,3.1-1.7c0.8-0.5,1.8-0.8,2.2-1.5c1.2-2.2,3.2-2.6,5.4-3c2.1-0.3,2.6-2.4,3.2-4
		c1.6-4.4,1.1-5.1-3.6-6.1c-1.6-0.4-2.3-1.4-1.4-2.7c2.1-3.2,4.4-6.2,6.6-9.3c0.4-0.6,1.1-0.7,1.7-0.4c0.7,0.3,1.3,0.6,1.8,1.2
		c0.4,0.6,0.6,1.9,1.7,1.1c0.9-0.6,0.2-1.7-0.2-2.2c-1.5-2.3-0.7-4.8-0.9-7.2c-0.1-1,0.7-1.4,1.5-1.7c1.2-0.3,2.3-0.7,2.2-2.3
		c0-0.8,0.7-1,1.3-1.2c2.3-0.9,4.5-1.8,6.8-2.8c0.6-0.3,0.7,0,1.1,0.4c0.5,0.5,1,0.9,1.7,0.6c1.3-0.5,1.9,0.5,2.3,1.3
		c0.5,1,0.9,2.2,1.3,3.3c0.3,1.1,1.2,1.1,2,0.9c0.9-0.2,0.6-1,0.5-1.6C222,24,221.5,21.9,221,19.6z"/>
	<path class="st0" d="M157.4,73.6c0-0.5,0-1,0-1.4c0-3.1,0-3.1-2.9-3.9c-1.1-0.3-1.6-0.8-1.5-1.9c0.1-0.6,0-1.3,0-1.9
		c-0.4-0.3-0.6,0.2-0.7,0.4c-1.2,3.5-4.2,3-6.8,2.9c-1.2,0-2.3-0.9-2.3-2.2c0-1.1-0.5-1.5-1.3-2.1c-1.6-1.4-1.6-2.4-0.2-4.2
		c0.4-0.6,0.9-1.1,1.3-1.7c0.3-0.4,0.4-0.8,0.1-1.2c-0.3-0.4-0.7-0.6-1.2-0.5c-0.8,0.2-1.5,0.5-2.3,0.7c-1.1,0.3-1.8-0.2-1.9-1.3
		c0-1-0.3-1.9-1-2.7c-1.1-1.4-1-2.3,0.5-3.9c0.4-0.5,0-0.6-0.1-0.8c-1-2.2-0.8-4.1,0.9-5.6c0.7-0.6,0.7-1.1,0.8-1.9
		c0.2-2.4,0.2-2.4,2.6-3.2c0.2-0.1,0.3-0.2,0.5-0.4c0.1-0.9-1-1.2-1.2-1.9c0.1-0.1,0.2-0.3,0.3-0.4c2-0.4,3.3,0.1,3.9,1.9
		c0.6,1.7,1.4,3.3,1.7,5.2c0.1,0.5,0,1.2,0.7,1.4c1.7,0.6,2.6,2.8,4.8,2.6c0.9-0.1,1,0.5,1.1,1.2c0.1,1.3,0.5,2.5,0.5,3.8
		c-0.1,2.6,1.3,3.7,3.5,4.2c0.3-0.3,0.1-0.5-0.1-0.7c-2.1-1.3-2.3-3.3-2.1-5.4c0.1-1.9,0.7-2.4,2.6-2c0.7,0.1,1.4,0.5,2.1,0.7
		c0.7,0.2,1.2,0.9,2.2,0.7c-0.2-1.7,0.7-2.6,2.3-2.9c0.7-0.2,1.3-0.6,2-0.7c2-0.2,2.7-1.9,3.6-3.3c0.2-0.3,0.4-0.7-0.1-0.9
		c-0.3-0.2-0.7-0.2-1-0.2c-0.7,0.1-1,0.7-1.5,1.1c-1.6,1.6-3.3,2.8-5.8,1.8c-0.6-0.3-1,0.2-1.4,0.5c-1.3,0.7-2.5,0.7-3.8,0
		c-1.2-0.7-2.3-1.4-3.8-1.4c-1,0-1.9-0.6-2.1-1.8c-0.2-1-0.3-2.2-1.6-2.5c-0.3-0.1-0.4-0.5-0.2-0.9c0.6-1.5,0.8-2.9-0.6-4.2
		c-0.5-0.5,0.2-1.2-0.2-1.8c-0.8-0.3-1.6,0.5-2.4,0.1c1.3-4.6,3.9-6.5,8.4-6.4c1.1,0,1.2-0.5,1.2-1.3c0.1-1.2-0.1-2.5,1-3.5
		c0.8-0.7,1.5-1,2.4-0.4c0.3,0.2,0.6,0.3,1,0.5c2.8,1.6,2.8,1.6,3.5-1.4c0.2-1,0.3-2.1,1.9-2.1c1.5,0.1-0.4-1.6,0.8-2
		c0.6-0.2,1.7,0.1,1.7-1.2c-0.1-1.2,0.6-1.5,1.8-1.1c0.7,0.2,1.4,0.1,2.2,0.2c1,0.2,1.5-0.2,1.5-1.3c-0.1-1.6,1.3-2.2,2.3-2.1
		c1.3,0.1,2.9-0.9,3.9,0.9c0.3,0.5,1,0.4,1.5,0.1c1.6-0.8,3.4-0.3,5.1-0.5c1.7-0.2,2.4,1.5,3.8,1.9c1.3,0.3,3.1-0.1,3.6,1.8
		c0.2,0.7,0.8,0.7,1.3,0.7c0.5,0,1.1,0,1.6,0c2.7,0,2.8,0,3.4,2.6c0.3,1.3,1.3,1.9,2.3,2.5c0.6,0.4,1.6,0.4,1.6,1.2
		c0.1,1.1,0.4,2.2-0.4,3.1c-2.4,2.6-4.1,5.8-7.8,6.9c-0.6,0.2-1.2,0.5-1.7,0.8c-0.7,0.4-0.7,1.1-0.5,1.7c0.3,0.7,0.9,0.2,1.4,0.1
		c0.8-0.3,1.6-1.3,2.4-0.3c0.6,0.9-0.3,1.7-0.9,2.4c-1.4,1.6-2.9,3.2-4.3,4.9c-1.2,1.5-3,2.7-3.2,4.9c0,0.4-0.5,0.7-0.8,1.1
		c-1.2,1.3-2.3,2.7-2.5,4.7c-0.1,1.5-0.9,3-2.9,2.9c-0.6,0-1,0.1-1.3,0.8c-0.5,1.5-1.9,1.9-3.3,2c-0.5,0.1-1.1,0-1.6,0.2
		c-0.5,0.1-1,0.5-1,1.1c0,0.5,0.3,0.8,0.8,0.9c0.2,0,0.4,0,0.5,0.1c0.5,0.1,1.2-0.2,1.2,0.7c0,0.8-0.6,0.7-1.2,0.8
		c-1.1,0.2-1.1,0.8-0.4,1.5c1.7,1.8,1.7,1.8,0.5,4.1c-0.2,0.3-0.3,0.7-0.3,1c0,2.5-1.1,3.8-3.7,3.9c-1,0-1.2,1-1.1,1.9
		c0.2,1.6-0.1,2.8-1.7,3.6c-1,0.5-1,1.5-0.8,2.4c0.2,1,1,0.8,1.7,0.9c1.1,0.2,1.5,1.9,0.6,2.8c-1.1,1.1-2.3,2-3.6,2.9
		c-0.9,0.6-1.7,0.3-1.9-0.7c-0.3-1-0.8-1.5-1.7-1.2c-2,0.7-4.4-0.4-6.3,1.4c-0.6,0.6-1.6,0.2-2.4,0c-2.3-0.8-4.6-0.8-7.2-1.4
		c0.2,1,1.7,2,0.1,2.8c-0.3,0.2-0.4,0.7-0.2,1c1.1,1.3,1.6,3.3,3.8,3.6c0.6,0.1,1.3,0.1,1.9,0.4c1.2,0.7,2.1,0.5,3.2-0.3
		c0.8-0.6,1.7-1.1,2.6-1.4c3.4-1.2,6.1-0.4,8.5,2.3c0.1,0.1,0.4,0.3,0.3,0.4c-0.6,1.4,0.2,3.1-0.7,4.5c-0.5,0.8-1.1,1.3-2.1,1.4
		c-2.5,0.2-4.9,0.1-7.4,0.2c-1.4,0-2.9-0.3-4.3,0.5c-0.4,0.2-1.1,0.2-1.3,0c-1.6-1.3-3.4-0.8-5.1-0.8c-2.4,0-3.4-2.8-3.5-5
		c-0.1-1.2,0.1-2.4,0.1-3.5c0-0.9-0.2-1.8-0.4-2.7c-0.3-1.3-1.1-1.9-2.4-1.6c-0.9,0.2-1.8,0.5-2.6-0.1c-1-0.9-2.1-1.8-2.8-3
		c-0.9-1.5,0-2.9,1.8-3c1.7,0,3.2,0.4,4.3,1.9c0.5,0.6,0.7,1.5,1.8,1.4c1.3-0.1,2.6,0.2,3.7-0.6c0.9-0.7,1.8-1.5,2.7-2.3
		c0.5-0.4,0.8-0.9,1.4-1.2c2.1-0.9,2.1-0.9,1.3-3.1c-0.8-2.2-0.8-3.1,0.3-3.6c1.7-0.7,2.3,0.9,3.1,1.9
		C156.4,73.1,156.5,73.7,157.4,73.6z"/>
	<path class="st0" d="M580.9,385.9c-0.4-0.7,0.8-1.3,0.1-2.1c-0.9,0.1-1.8,0.5-2.6,1.1c-1.1,0.8-1.6,0.3-2-0.7
		c-0.1-0.4-0.3-0.9-0.6-1.2c-0.9-0.9-0.6-2.6-2.1-3c-2-0.6-3.8-1.6-6.1-1.2c-2.5,0.4-4.9,1.2-7.5,1.2c-1.2,0-2.2,0.8-3.1,1.7
		c-1.9,1.9-4.1,2.8-6.9,2.4c-1.6-0.2-3,0.3-4.3,1.2c-1.7,1.1-3.7,2-5.8,0.5c-1.1-0.8-1.7-1.6-1.2-3c1.2-3.2,0.3-6.1-1-9
		c-1.1-2.4-2-4.9-1.6-7.6c0.1-0.8-0.2-1.6-0.3-2.4c-0.3-2.6-0.2-4.8,2.5-6.6c1.9-1.2,3.8-2,5.9-2.5c1-0.2,1.9-0.6,2.9-0.7
		c3-0.4,4.2-2.5,5-5c0.3-1.1,0.8-1.5,1.7-1.8c1.4-0.6,2.8-1.3,3.5-2.8c0.7-1.5,2.4-1.8,3.9-2.2c0.8-0.2,1.1,0.4,1.6,0.7
		c1.6,1.2,2.5,1,3.4-0.8c0.1-0.3,0.2-0.7,0.3-1c0.7-1.8,1.9-2.6,4-3c2.4-0.4,4.7,0,7,0.2c1.4,0.1,1.8,0.4,1.2,2.2
		c-1.5,4.1-1.8,3.1,2,5.7c1.3,0.8,2.6,1.6,3.9,2.4c1.5,0.9,2,0.7,3-0.7c1.6-2.1,1.3-4.5,1.6-6.8c0.2-1.3,0.8-2.4,0.7-3.7
		c0-0.3,0.1-0.7,0.5-0.8c0.5,0,0.9,0.2,1,0.7c0.2,1.3,0.8,2.4,1.1,3.6c0.4,1.2,0.9,2,2,2.3c1,0.3,1.4,1,1.6,2
		c0.1,0.7,0.6,1.4,0.6,2.1c0.2,3.4,1.8,5.7,5,6.9c0.4,0.2,0.8,0.4,0.9,0.9c0.5,1.7,1.4,3.1,3.1,3.9c0.2,0.1,0.5,0.4,0.5,0.6
		c-0.1,2,1.6,2.7,2.7,3.8c1.2,1.1,1.7,2.3,1.9,4c0.3,3.1,0.7,6.1-0.1,9.2c-0.2,0.6-0.1,1.2-0.6,1.8c-2.9,3.1-3.9,7-4.9,11
		c-0.5,1.9-1.1,3.4-3.5,3.3c-1-0.1-1.8,0.5-2.3,1.3c-0.9,1.4-2.1,1.4-3.3,0.5c-1-0.7-1.7-0.6-2.7,0c-2.8,1.5-7.6-1.1-8-4.2
		c-0.1-1-0.3-1.7-1.2-2.3c-0.6-0.4-1.3-0.8-1.5-1.8C582.7,384.9,581.5,386.7,580.9,385.9z"/>
	<path class="st0" d="M102,106.7c0.6,0.8-0.1,1.9,0.5,2.6c0.4,0.2,0.7,0,1-0.2c2-1.1,2.7-1,4,0.9c0.2,0.2,0.2,0.5,0.4,0.7
		c0.3,0.4,0.8,0.4,1.2,0.3c0.6-0.1,0.5-0.6,0.6-1.1c0-0.5-0.6-1,0.1-1.6c1.7,0.9,3,2.1,3.4,4.2c0.1,0.4,0.1,0.8,0.2,1.1
		c0.3,0.5-0.1,1.6,1,1.2c0.7-0.2,0.5-1,0.4-1.7c-0.3-1.6-0.5-3.2-0.7-4.8c-0.3-1.7-0.2-2,1.5-2c1.2,0,1.4-0.5,1.4-1.5
		c-0.1-1.6,1.1-1.3,2.1-1.4c1.2-0.1,1.4,0.7,1.4,1.6c0,0.8,0.1,1.8-0.3,2.4c-1.6,2.6-0.4,5.1,0.3,7.5c0.3,1.1,0.6,2.1,0.5,3.2
		c-0.2,2.3,0.9,3.8,2.7,4.9c0.8,0.5,1.7,1.1,2.6,1.5c0.6,0.3,0.9,0.8,1.2,1.4c0.4,1,0.2,1.5-0.9,1.6c-0.5,0-1.1,0.1-1.7,0.1
		c0.2,0.5,0.4,0.9,0.6,1.4c0.6,2,0,2.9-2,2.9c-1.6,0-3.1,0.3-4.5-1.1c-1-1-2.7-1-3.9,0.2c-2.6,2.6-6.2,2.2-9.4,3.1
		c-0.6,0.1-1-0.1-1.3-0.7c-0.3-0.7-0.7-1.3-1-1.9c-0.4-1-1-1.5-2.1-1.3c-2.1,0.4-3.2-0.8-4.1-2.4c-0.7-1.3-0.7-1.7,0.6-2.4
		c1.6-0.9,3.3-0.7,5.1-0.7c0.4,0,0.7,0,1.1,0c0.7,0,1.6,0.6,2-0.3c0.5-1.1-0.8-1.2-1.3-1.7c-0.7-0.7-1.8-0.7-2.6-0.5
		c-1.4,0.5-2.9,0-4.3,0.6c-1.3,0.6-1.6-1.2-2.7-1.3c0.1-1.3,1.2-1.9,1.4-3.1c-3-2.2-3.3-3.2-1.9-6.6c0.3-0.7,0.4-1.4,0.6-2
		c-0.4-0.4-0.9-0.5-1.3-0.1c-1.4,1.4-2.8,2.9-2.9,5.1c0,1.7-0.5,2.8-2.4,3.1c-0.3,0-0.5,0.2-0.7,0.4c-2.3,1.1-2.4,1.2-3.5-1
		c-0.5-1-1.3-1.5-2.2-1.9c-1.2-0.6-1.3-1.4-1-2.4c0.6-2.2,1.1-4.4,1.9-6.5c0.8-1.9,0.7-3.7,0-5.5c-0.6-1.5,0.2-2,1.3-2.3
		c1.3-0.3,2.7-0.4,4-0.6c0.8-0.1,1.6,0,2,0.6c1.2,1.5,2.9,1.3,4.5,1.4c2,0,5.1,2.9,4.8,4.8c-0.2,1.7,0.4,1.9,1.7,1.8
		C101.5,106.5,101.8,106.7,102,106.7z"/>
	<path class="st0" d="M361.9,47.9c0.5-0.6,0.4-1.1,0.4-1.5c0.2-1,0.7-1.3,1.4-0.4c0.4,0.6,0.8,1.1,1.5,0.9c2.2-0.6,3.5,1.1,5.1,2
		c1,0.5,0.9,1.9,0,3.1c-0.9,1.1-1.9,2-2.2,3.6c-0.3,1.3-2,1.9-3.4,1.8c-1.8-0.2-3.6-0.4-5.3-1.2c-2-0.9-2.1-1.5-0.5-3.2
		c-2.4-1.1-2.4-1.1-4.8-0.8c0.3,3.2,0.9,6.2,4,8.1c1.1,0.7,1.7,1.8,2.3,3.1c0.7,1.5,0.8,3.7,2.9,4.5c1.1,0.4,0.3,1.9,1.5,2.7
		c1.2,0.7,0,1.9-0.4,2.7c-0.3,0.6-0.2,1.5-1.1,2c-0.7-0.7-1-2-2.5-1.5c-0.9,0.3-1.2-0.4-1.1-1.3c0.5-4,0.3-4.9-1.5-8.7
		c-1.5,0.2-2.3,1.1-2.6,2.6c-0.7,3.3-1.7,6.6-2.4,10c-0.3,1.4-0.6,2.8-1.1,4.2c-0.2,0.5-0.3,0.9-0.8,0.9c-0.5,0-0.8-0.4-0.9-0.9
		c-0.4-1.8-1.8-2.9-3-4.1c-1.8-1.9-1.8-1.9,0.1-3.7c0.1-0.1,0.1-0.3,0.2-0.5c-0.1-0.4-0.4-0.6-0.8-0.6c-0.9,0-1-0.6-1-1.3
		c0-0.6-0.1-1.1,0.7-1.5c2.1-1,2.3-1.3,4-3.6c-0.9-0.5-1.7-0.9-2.7-1.5c-0.7,1.2-0.9,2.7-2.3,3.2c-0.5,0.2-1,0.4-1.2-0.1
		c-0.9-1.8-2.8-3.2-2.3-5.6c0.3-1.3,0-2.5-0.9-3.6c-0.2-0.2-0.3-0.5-0.4-0.7c-0.4-1.6-0.9-3.3,0.3-4.7c1-1.1,4.4-1.2,5.8-0.4
		c0.7,0.4,1.4,0.8,2.3,1.3c0.3-0.6,0.6-1.2,0.9-1.9c0.2-0.6,0.4-1.2,0.6-1.8c1.3,0.1,2.1,1.4,3.4,1.1c0.4-0.4,0.3-1,0.3-1.5
		c0-0.6-0.1-1.4,0.4-1.8c0.9-0.7,1.9-1.3,2.7-2.1c0.3-0.3,1,0.1,1.5,0.4C359.7,46.6,360.7,47.2,361.9,47.9z"/>
	<path class="st0" d="M425.9,122.2c-0.8-0.1-1.6-0.1-2.4-0.2c-0.5,0-1-0.1-1.2-0.5c-1.1-1.8-2.6-3.2-4.1-4.6
		c-0.8-0.8-0.8-2.3,0.3-3.4c0.9-1,1.6-1.9,1.4-3.3c-0.2-1,0.6-1.7,1.2-2.3c1.1-1.1,1.9-2.3,1.3-3.9c-0.3-0.7,0-1.2,0.5-1.6
		c2-1.8,2.9-4.1,2.9-6.7c0-1.4,0.7-2.6,1.8-3.5c2.6-2.2,5.2-4.4,7.8-6.7c0.7-0.6,1.5-0.5,2.3-0.6c2.1-0.3,4.3,0,6.2-1.6
		c0.6-0.5,1.2-1,1.7-1.7c0.3-0.4,0.5-0.8,0.7-1.1c0.7-1,2.6-1.7,3.4-1.3c0.6,0.3,1.2,2.3,0.9,3.3c-0.5,1.7-1.7,2.9-3.3,3.8
		c-2.8,1.4-5.6,2.9-8.4,4.5c-1.8,1-3.5,2.3-4,4.5c-0.1,0.3-0.2,0.6-0.6,0.9c-3.2,2-4.2,5.6-5.9,8.6c-0.4,0.7-0.7,1.4-1.1,2.2
		c-2,3.7-2.6,7.5-1,11.5c0.3,0.8,0.7,1.7,1.5,2.2c0.6,0.4,0.9,0.9,0.5,1.6c-0.4,0.6-0.9,0.4-1.5,0.2
		C426.3,122.1,426.1,122.1,425.9,122.2C425.9,122.1,425.9,122.1,425.9,122.2z"/>
	<path class="st0" d="M498.7,50.3c-1.3,1.3-1.4,3.2-3.3,2.8c-1.4-0.3-1.2-1.7-1.6-2.6c-0.6-1.5,1.7-0.7,1.8-1.8
		c0.1-0.6-0.4-0.9-0.7-1.4c-0.4-0.8-0.6-1.6,0.1-2.2c1.4-1.3,1.6-3,1.8-4.7c0.1-1.1,0.5-1.8,1.5-2.4c1.2-0.7,2.4-1.6,3.8-2.5
		c1.1,1.7,2.1,3.4,3.2,5c0.3,0.5,0.2,1-0.1,1.5c-1.1,2.4-0.6,4.7,0.4,7c0.3,0.7,0.7,0.9,1.5,0.9c2,0.1,3,1.2,2.8,3.2
		c-0.1,1-0.1,2-0.5,2.9c-0.5,1.2-0.3,2.2,0,3.4c0.5,1.9,0,2.4-2,2.6c-2,0.2-3.4-0.8-5-1.6c-1.7-0.9-2.5-2.2-3.5-3.8
		C497.6,54.5,498.2,52.8,498.7,50.3z"/>
	<path class="st0" d="M581.8,331.4c2-3.3,1.6-4.8-1.2-6.2c-1.6-0.8-3.2-1.7-4.9-2.3c-0.6-0.2-1.2-0.9-2-0.4c-0.4,0.3-1-0.1-1.1-0.5
		c-0.7-1.7-1.5-3.3-3.1-4.3c-0.5-0.3-0.1-0.8,0.3-1.1c1.4-1.2,4.4-0.4,5.2,1.4c0.2,0.6,0.4,1.2,0.7,1.8c0.3,0.5,0.6,0.9,0.9,1.3
		c0.8-0.5,1.7-0.9,2.3-1.5c1.7-1.5,3.7-1.4,5.6-0.7c3.1,1.1,6.2,2.3,9.4,3.5c1,0.3,1.8,0.8,2.3,1.7c0.5,0.8,1,1.5,1.9,1.8
		c1.3,0.5,2.2,1.2,1.8,2.8c-0.2,0.9,0.7,1.4,1.3,1.9c1.3,1.2,2.7,2.4,4.1,3.6c-2.1,0.8-4.3,0.3-5.5-1c-0.6-0.6-1.1-1.2-1.6-1.8
		c-1.8-2.2-3.9-2.1-5.6,0.2c-1,1.4-3.5,1.8-5,0.4C585.9,330.7,584.3,330.1,581.8,331.4z"/>
	<path class="st0" d="M545.6,304.9c-0.1,0.3-0.2,0.5-0.3,0.6c-2,1.7-2.5,3.6-1,5.9c0.6,1,0.6,1.9-0.5,2.8c-1.2,0.9-1.4,2.5-1.9,3.8
		c-0.4,1.2-0.7,2.4-1.2,3.6c-0.5,1.1-1.8,1.7-2.7,1c-2-1.6-4.5-1.1-6.7-1.7c-1.2-0.3-1.8-0.6-2.4-1.7c-0.8-1.5-1.8-2.9-1.9-4.7
		c-0.1-1.5,0.5-2.3,1.9-2.4c1.3,0,2.1-0.6,2.8-1.7c0.3-0.4,0.8-1,1.2-1c2.2-0.3,3.4-2,4.8-3.3c1.1-1.1,2.2-2.2,3.4-3.2
		c1.1-0.9,1.9-0.9,2.8,0.1C544.4,303.6,545,304.3,545.6,304.9z"/>
	<path class="st0" d="M104.1,94c-1.6,0-3.1,0.1-4.5,0c-3.2-0.1-4.2-1.9-2.6-4.6c0.4-0.6,0.8-1.2,0.8-2c-0.2-2,1.3-3.1,2.5-4.3
		c0.6-0.6,1.3-0.6,1.8,0.2c0.2,0.3,0.4,0.8,0.7,0.8c2.6,0.5,3.3,2.8,4.5,4.6c0.7,1,3.3,2,4.5,1.5c0.4-0.2,0.9-0.6,0.4-1
		c-1-0.9-1.3-1.8-1-3.1c0-0.1,0-0.4-0.2-0.5c-2.1-1.7-0.3-3,0.4-4.5c0.2-0.5,0.6-0.7,1.1-0.6c0.6,0.1,0.6,0.6,0.7,1
		c0.1,0.8,0.1,1.6,0.2,2.4c0.3,2.4,1.2,3.2,3.5,2.7c1.3-0.3,1.7,0.4,1.9,1.3c0.3,1.6,0.1,3.3-0.4,4.8c-0.3,0.9-1,1.6-2.1,1.4
		c-3.4-0.7-5.9,1-8.3,3c-1.5,1.2-2.8,1.3-4.4,0.4c-1.3-0.7-1.5-1-0.5-2C103.2,95.2,103.8,95,104.1,94z"/>
	<path class="st0" d="M401.7,359c0-0.8,0-1.3,0.6-1.9c2.1-2.1,1.7-4.8,1.3-7.4c-0.2-1.5,0.2-3.1,1.5-3.5c3.3-0.9,5.2-3.1,6.6-6
		c0.2-0.3,0.4-0.6,0.7-0.8c0.7-0.6,1.6-0.5,1.7,0.3c0.2,2.1,2.2,4,0.2,6.3c-1.1,1.3-0.9,3.2-1.4,4.9c-1.1,3.5-1.9,7.1-2.9,10.7
		c-0.7,2.5-1.8,3.5-4.4,3.5c-1.5,0-2.5-1.1-3.2-3.4C402.2,360.8,401.5,360,401.7,359z"/>
	<path class="st0" d="M310.4,204.2c0.5-0.9,0.8-1.5,1.1-2.2c0.2-0.4,0.4-1.1,0.2-1.3c-2.2-1.4,0.4-3.2-0.4-4.7
		c-0.2-0.4,0.3-0.8,0.8-1c1.3-0.5,1.7-1.2,1.1-2.7c-0.4-1-0.4-2.1-1.8-2.3c-0.3,0-0.7-0.1-0.7-0.3c-0.2-2.3-2.7-3.4-3-5.6
		c-0.2-1.8,1.2-5.8,2.7-6.7c0.7-0.5,1.7-0.5,2.3,0c0.8,0.6-0.3,1.5,0,2.4c0.7,0.7,1.9,0,2.8,0.5c0.3,0.8-0.3,1.5-0.5,2.3
		c-0.4,1.6-1,3.1,0.7,4.4c0.6,0.4,0.8,1.4,1,2.2c0.2,0.7,0.4,1.4,1.1,1.8c1.1,0.7,1.6,1.7,1.7,2.9c0.2,1.2,0.6,2.2,1.8,2.5
		c1.3,0.4,1.1,1.2,0.7,2.1c-0.2,0.5-0.4,1-0.7,1.4c-0.5,0.7,0.8,1.6-0.3,2.2c-0.8,0.4-1.6,0.2-2.4,0.3c-2.1,0.3-4.4,0.1-6.2,1.5
		C312,204.2,311.3,204.1,310.4,204.2z"/>
	<path class="st0" d="M275.8,152c0.4-1,0.7-1.9,1-2.8c-0.2-0.4-0.4-0.5-0.7-0.5c-0.7-0.2-1.7,0.4-2.1-0.8c-0.2-0.6,1.1-2.6,1.8-2.8
		c0.9-0.3,1.8-0.2,2.4,0.8c0.4,0.8,1,1.5,1.7,2.4c0.8-1.6,2-2.3,3.6-1.9c1.6,0.3,2.8-0.6,4.1-1.2c1.3-0.6,2.3-0.4,3.1,0.7
		c0.9,1.1,2.4,1.7,2.5,3.4c0.1,2.1-0.8,3.7-2.5,4.8c-1.9,1.2-3.8,2.4-5.8,3.5c-1,0.6-2.1,0.4-3.2,0c-1.1-0.4-2.2-0.9-3.3-1.3
		c-0.5-0.2-0.9-0.5-0.8-1C278.2,153.7,276.8,152.9,275.8,152z"/>
	<path class="st0" d="M513.4,310.9c0.5,0.1,0.7,0.4,1,0.7c-0.1,0.4,0,0.8,0.3,1c1.3,0.8,2,1.8,2.1,3.5c0.1,1.7,1.4,2.5,3.2,2.5
		c1.6,0.1,2.1,0.9,1.7,2.4c-0.3,1.1-0.5,2.3-0.9,3.4c-0.4,1.7-1.2,2.1-2.8,1.2c-2.1-1.1-4-2.5-5.2-4.6c-1.7-2.9-4.1-5.4-5.5-8.6
		c-0.9-2.2-3-3.8-4.9-5.4c-0.3-0.3-0.8-0.5-1-0.9c-0.3-0.6-0.2-1.3,0.7-1.3c1.4,0,2.7,0.1,3.7,1.2c0.8,1,1.8,1.8,2.7,2.7
		C509.9,310.3,511.4,311,513.4,310.9z"/>
	<path class="st0" d="M589.4,232.7c-0.1,0.5,0,1.2-0.3,1.6c-1.8,2-1.9,4.7-2.4,7.1c-0.4,1.9-1.3,2.6-3,2.7c-2,0.1-3.7,0.7-5.1,2.2
		c-0.4,0.4-0.9,0.8-1.4,0.4c-1.2-1-1.9-0.3-2.7,0.5c-0.3,0.3-0.5,0.5-0.8,0.7c-0.7,0.4-1.5,0.9-1.8-0.4c-0.2-0.8-0.9-0.8-1.5-0.6
		c-0.8,0.3-0.3,0.9-0.1,1.3c0.1,0.3,0.2,0.7,0.2,1.1c0,1.4-1,3.1-1.8,3c-1.4-0.2-1.2-1.5-1.6-2.5c-0.5-1.3-0.3-2.2,0.9-3.2
		c2.3-2.2,4.6-4,8.1-3.8c1.7,0.1,3-0.6,3.4-2.5c0.1-0.7,0.7-1,1.4-1c0.8,0,1.6,0.2,2.2-0.7c1-1.5,2.5-2.6,2.8-4.5c0.1-1,0.3-2,0.3-3
		c0-0.9,0.4-1.4,1.2-1.5c0.9-0.2,1.4,0.3,1.7,1.1C589.2,231.2,589.5,231.9,589.4,232.7z"/>
	<path class="st0" d="M132.9,107.2c2.6,0.8,2.6,0.8,2.6,3c0,0.8-0.1,1.7,0,2.5c0.4,2.2-0.5,3.6-2.3,4.7c-1.3,0.9-2.6,1-3.1-0.4
		c-1.1-2.7-3.3-4.3-5.1-6.3c-0.2-0.3-0.6-0.5-0.7-0.8c-0.1-0.5,0.1-1.1,0.4-1.5c0.4-0.4,0.9-0.3,1.2,0.1c0.6,0.8,1.4,1.5,2.2,0.5
		c0.6-0.8,0.6-1.9-0.3-2.7c-0.3-0.3-0.7-0.6-1-0.9c0.4-0.8,0.8-1.5,1.1-2.2c0.2-0.5,0.5-1,1.2-0.9c1,0.3,1.7-0.1,2.4-0.8
		c0.6-0.6,1.4-0.7,2-0.1c0.5,0.5,1.3,0.8,1,2C134.2,104.7,134.3,106.1,132.9,107.2z"/>
	<path class="st0" d="M586.8,88.3c0.5-0.2,0.6-0.7,0.8-1c1.1-1.6,1.3-1.6,2.6-0.2c0.7,0.8,1.3,1.1,2.3,1.1c0.9,0,1.7,0.4,2.4,1.1
		c0.4,0.4,0.6,0.8,0.5,1.5c-0.4,2.8-2.5,4.5-5.4,4.6c-1,0-2,0-3,0c-0.5,0-0.9,0.1-1.4,0c-0.8-0.1-0.9,1.8-2.2,0.7
		c-1.1-1-2.7-1.5-3-3.3c-0.3-2.2-0.1-4.3,1.1-6.2c0.7-1,1.4-1.4,2.4-0.3C584.8,87.2,585.7,87.9,586.8,88.3z"/>
	<path class="st0" d="M124.8,85.8c0.2-2.1,2.4-2.5,3.3-4.1c0.6-1,2.3,0,3.6,0c0.9,0,1.1,0.8,1.2,1.5c0.2,1.6,1,3.1,1.2,4.7
		c0.2,1.1,0,2.1-0.2,3.2c-0.3,1.7-1.3,2.5-2.9,2.9c-1.9,0.4-2.6,0.1-2.6-1.9c0-1.6-0.6-2.1-2.1-1.9c-1.1,0.1-2.1,0.1-2.4-1.4
		c-0.2-0.7-1-1.3-1.6-1.8c-1.7-1.2-1.4-3-1.3-4.7c0-0.3,0.1-0.5,0.5-0.6c0.4-0.1,0.8,0,0.9,0.4C122.8,83.4,123.8,84.4,124.8,85.8z"
		/>
	<path class="st0" d="M94,82.8c-0.6,1.2-1.3,2.4-1.9,3.6c-0.4,0.8-0.8,1-1.7,0.8c-0.9-0.3-2,0.1-3-0.3c-1.5-0.6-1.9-2.2-0.6-3.1
		c2-1.4,3.1-3.5,4.3-5.5c0.9-1.5,1.9-2.9,4-2.7c0.8,0.1,1.3-0.6,1.9-0.9c0.6-0.3,1.3-0.4,1.8,0c0.6,0.4,0.4,1,0.2,1.7
		c-0.4,1-0.3,2.2-0.2,3.2c0.1,1.1-0.1,1.9-0.8,2.8C96.7,84.4,96.2,84.4,94,82.8z"/>
	<path class="st0" d="M121,56.8c1.1-0.3,1.8,0.5,2.4,1.3c0.6,0.8,1.1,2,2.5,1.7c0.2,0,0.5,0.1,0.5,0.1c0.4,1.8,2.6,2.3,3.1,3.9
		c0.6,1.8,0.8,3.7,1.2,5.5c0.1,0.7,0.3,1.5-0.8,1.7c-0.8,0.1-1.3,0.2-1.7-0.8c-0.7-2-2.4-2.8-4.4-3c-1-0.1-2-0.3-2.9-0.5
		c-0.8-0.2-0.9-1.1-0.2-1.6c0.3-0.2,0.7-0.3,1-0.5c0.9-0.7,1.1-1.4,0.1-2.2c-0.8-0.6-1.5-1.4-2.3-1.9c-0.9-0.7-0.9-1.6-0.6-2.4
		C119.1,56.9,120,56.7,121,56.8z"/>
	<path class="st0" d="M648.4,400.6c2.6,0.2,3.1,1.1,1.9,3.3c-1,2-1.7,4.2-4.2,5.1c-0.9,0.3-1.3,1.2-1.5,2.2c-0.3,1-0.7,1.8-1.3,2.7
		c-1.2,1.9-4.8,2.2-6,0.3c-0.7-1-0.2-2,0.4-3c1.2-2.1,3-3.4,4.9-4.5c2-1.3,3.4-2.9,4.3-5C647.2,400.7,647.5,400.2,648.4,400.6z"/>
	<path class="st0" d="M519.8,63c0,2.8-1,4.1-3.3,4.6c-2.1,0.4-4.3,0.5-6.2,1.7c-0.8,0.5-1.6-0.4-1.3-1.3c0.9-2.9,1.8-5.8,2.8-8.7
		c0.3-0.7,0.8-1.5,1.3-2c1-1.1,1.8-0.9,2.2,0.6c0.2,0.7,0.4,1.1,1.2,1.5C518.5,60.1,519.7,61.7,519.8,63z"/>
	<path class="st0" d="M300.3,199.4c1.3-1.8,1.5-3.7,0.8-5.7c-0.1-0.3-0.2-1-0.1-1c1.7-0.6,1.8-2.5,2.9-3.6c1.1-1.1,4.1-0.3,4.8,1
		c0.2,0.4,0.2,0.7,0,1c-1.3,1.4-1.1,3.2-1,4.9c0,1.1,0,2.2-1.5,2.3c-0.7,0.1-1.2,0.7-1.9,1.1C303,200.2,301.9,200.3,300.3,199.4z"/>
	<path class="st0" d="M652.9,401.2c0-1.5,0.1-2.9-1.6-3.6c-0.9-0.4-0.6-1.2-0.3-1.9c1-2.3,1.1-4.4-0.7-6.3c-0.5-0.6-0.9-1.4-0.4-2.4
		c0.9,0.1,1.5,0.5,1.6,1.6c0.1,1,0.5,1.7,1.5,2c0.3,0.1,0.8,0.2,0.9,0.5c0.4,1.9,1.9,1.6,3.2,1.6c1.3,0,2.1,1.4,1.2,2.1
		c-2,1.6-2.7,4-4.1,5.9C654,401,653.7,401.3,652.9,401.2z"/>
	<path class="st0" d="M424.1,37.8c0.9,0.2,1.7,0.4,2.5,0.4c0.5,0,1-0.5,1.2-1c0.3-0.7-0.2-0.9-0.7-1.2c-0.6-0.3-0.8-1-1.5-1.2
		c0.8-1,2.3-1.3,2.5-2.8c0.1-0.5,0.7-0.5,1.1-0.4c0.8,0.2,1.4,0.7,1.8,1.5c-0.5,0.7-1.7-0.3-1.8,0.7c-0.1,1.1-0.2,2.6,0.8,3.2
		c1.5,0.8,0.9,2,1,3.1c0,0.2-0.1,0.5-0.1,0.5c-1.4,0.1-2.1,1.6-3.4,1.8c-1.2,0.2-2.3,0-3.3-0.8c-0.7-0.6-1.1-1-0.4-1.7
		C424.6,39.3,423.7,38.6,424.1,37.8z"/>
	<path class="st0" d="M586.7,228.2c-0.9-1.9-0.8-3.3,0.8-4.4c1.7-1.2,1.6-3.1,1.5-5.1c2.6,0.9,4.5,2.5,6.5,3.8
		c0.6,0.4,0.4,1.2,0,1.4c-1.3,0.7-2.5,1.6-3.8,2.3c-0.4,0.2-1.1,0-1.6-0.1C587.7,225.9,587.7,225.9,586.7,228.2z"/>
	<path class="st0" d="M433,42.8c0-1.8,1.7-3.2,4-2.7c1.3,0.3,2,0.3,2.6-0.9c0.4-0.8,1.6-0.3,2-1.2c0.3-0.7,0.3-1.9,1.4-1.6
		c0.8,0.2,0.4,1.3,0.5,2c0.4,2.3-0.2,3-2.4,3.1c-0.2,0-0.4,0-0.5,0c-1.8-0.3-2.9,0.3-3.6,2c-0.3,0.8-0.8,1.6-2,1.5
		C433.2,44.7,433,44.6,433,42.8z"/>
	<path class="st0" d="M549.2,321.9c-1.4,0.8,0.2,2.9-1.7,3.5c-0.5-1.3-0.4-2.6-1.2-3.9c-0.8-1.2,0.1-3.3,1-4.8
		c0.1-0.2,0.6-0.3,0.7-0.2c1.3,1.6,3,0.8,5,0.6c-1.6,1.7-1.9,3.1-0.4,4.7c0.6,0.6,0.9,2-0.1,2.6c-1,0.5-1.6-0.5-2.1-1.2
		C550,322.8,549.9,322.1,549.2,321.9z"/>
	<path class="st0" d="M520.7,327.6c1.9-0.6,3.4-1.2,4.9-0.3c2.1,1.4,4.5,1.2,6.8,1.1c2.2-0.2,3.7,0.8,5.2,2.5
		c-0.9,0.5-1.8,0.4-2.5,0.3c-3.1-0.8-6.3-0.6-9.4-1.1C524,329.7,522.3,329.2,520.7,327.6z"/>
	<path class="st0" d="M177.1,275.4c-2.5,1.3-3.8,1.3-5.4-0.4c-1.1-1.1-2.2-1.9-3.9-2.2c-1.4-0.3-3.1-0.3-4.2-1.6
		c-0.4-0.5-1-0.3-1.5,0c-0.7,0.4-1.5,0.6-2.3,0.2c0-0.8,0.5-1,1.1-1c1.9,0,3.8,0.1,5.7-0.2c0.6-0.1,1.3,0.2,1.8,0.4
		c2.8,1.4,5.5,2.8,8.2,4.2C176.9,274.9,177.1,275.1,177.1,275.4z"/>
	<path class="st0" d="M138.2,67.7c0,2.9-0.6,3.5-2.6,3c-0.6-0.1-1.1-0.4-1-1c0.1-1.4-0.8-2.4-1.6-3.3c-0.7-0.8-0.8-1.6-0.6-2.5
		c0.1-0.6,0.1-1.4,1-1.4c0.6,0,1.3-0.2,1.7,0.4c0.7,1,1.4,1.8,2.5,2.3C138.8,65.7,137.9,67,138.2,67.7z"/>
	<path class="st0" d="M110.1,69.1c-0.1,0.8-0.2,1.5-0.3,2.3c-0.3,2.4-1,3.2-3.2,3.5c-0.8,0.1-1.4,0-1.7-0.9
		c-0.4-1.4-1.3-2.3-2.9-2.3c-0.9,0-1-0.7-0.7-1.3c0.2-0.7,0.8-1.2,1.4-0.5c0.9,0.9,1.6,0.8,2.5,0.1
		C106.3,69.1,107.7,69.1,110.1,69.1z"/>
	<path class="st0" d="M554.3,289.2c-2.7-0.9-3.3-0.7-4.2,1.8c-0.9-1.7-0.9-3.6-2.2-4.9c-0.3-0.3,0-0.7,0.1-1
		c0.4-1.8,0.8-3.5,1.2-5.5c0.8,0,1.9-0.3,2.5,0.7c0.5,0.9,1,1.9,0.1,3c-0.4,0.4-0.7,1.1-0.7,1.7c0,0.9-0.1,1.8,0.3,2.7
		c0.4,1.2,1.6,0.6,2.4,1C553.9,288.9,554.3,288.8,554.3,289.2z"/>
	<path class="st0" d="M139.7,96.2c-2.1,0-3.5-0.9-3.5-2.5c0-2.3,1-3.8,2.8-3.8c1.4,0,2.7,1.9,2.7,4.3
		C141.7,96,141.6,96.2,139.7,96.2z"/>
	<path class="st0" d="M595.4,400.6c1.2,0,2.2,0,3.2,0c2.6,0,2.7,0.1,2.7,2.7c0,2.2-1.6,3.7-3.5,3.3c-1-0.2-1.6-0.6-1.8-1.7
		C595.6,403.6,595.5,402.3,595.4,400.6z"/>
	<path class="st0" d="M409.2,47.3c0.5-1.9,1.3-3.3,3.3-3.7c1.1-0.2,1.2-1.2,1.2-2.2c-0.1-1.1,0.4-1.7,1.5-1.9
		c0.5-0.1,2.2,1.7,2.2,2.3c-0.1,0.6-0.6,0.8-1,1.2c-1.2,0.9-2.4,1.7-3.2,3.2C411.9,48.3,411.8,48.2,409.2,47.3z"/>
	<path class="st0" d="M552.4,300.3c0.8-0.6,1-0.9,1.2-0.9c1.5-0.1,3-0.6,4.1-1.6c0.7-0.7,1.3-0.3,1.7,0.3c1,1.5,0.6,4.3-0.9,5.4
		c-0.9,0.7-2.9,0.3-2.9-0.7C555.6,300.9,554.6,300.3,552.4,300.3z"/>
	<path class="st0" d="M188.4,279.5c-1.7,0.8-3.5,0.6-5.3,0.9c-0.6,0.1-1.6-0.1-1.9-0.7c-0.4-0.7-0.8-1.5-0.4-2.3
		c0.3-0.6,1.1-0.6,1.7-0.6C184.8,276.8,187.2,276.7,188.4,279.5z"/>
	<path class="st0" d="M599.8,91.5c1.1,0,2-0.1,2.6,0.8c0.5,0.7,1.3,0.6,2,0.6c0.9,0,1.4,0.6,1.5,1.3c0.1,0.9-0.8,1.1-1.4,1.3
		c-2.1,0.7-4.4-0.1-5.7-1.8c-0.4-0.5-0.7-1.1-0.4-1.8C598.6,91.1,599.4,91.6,599.8,91.5z"/>
	<path class="st0" d="M663.4,117.5c0.7,0,1.2-0.1,1.6,0c0.8,0.2,1.3,0.7,1.4,1.5c0,0.8-0.6,1.3-1.4,1.4c-1.4,0.2-2.9,0.4-4.3,0.5
		c-0.4,0-0.9,0.2-1.1-0.5c-0.1-0.4-0.1-0.8,0.2-1C661,118.6,661.8,116.8,663.4,117.5z"/>
	<path class="st0" d="M104.8,66.4c0.9-2.1,2.7-2.7,4.3-3.4c0.6-0.3,2.2,1,2.3,1.8c0.2,1.1-0.3,1.9-1.5,2
		C108.3,66.9,106.7,66.8,104.8,66.4z"/>
	<path class="st0" d="M472.7,303.8c-1.1-1.8-1.6-3.1-1.5-4.6c0-0.7,0.4-1.2,1-1.5c0.7-0.3,1.2,0.1,1.7,0.6c1,1.1,1.2,2.5,1,3.8
		C474.8,303.1,473.2,302.5,472.7,303.8z"/>
	<path class="st0" d="M592,106.2c-1.3-0.2-2.4-0.4-3.4-0.5c-0.8-0.1-1.1-0.6-1.2-1.3c-0.1-0.9,0.4-1.4,1.1-1.7
		C590.7,102,592,103.2,592,106.2z"/>
	<path class="st0" d="M431.5,45.8c-0.7,1.9-2.1,2.6-4,2.8c-1.1,0.1-1.7-0.5-1.2-1.4c0.7-1.3,1.9-2.2,3.2-2.8
		C430.5,43.9,430.9,45.2,431.5,45.8z"/>
	<path class="st0" d="M26.3,183c-1.1-2.5-0.6-3.2,2.8-4.4C30.5,181.4,27.7,181.6,26.3,183z"/>
	<path class="st0" d="M556.1,313.1c0.1,1-0.4,1.4-1.3,1.4c-1.7,0-3.5,0-5.2,0c-0.5,0-1-0.1-1-0.6c0-0.4,0.4-0.8,0.9-0.8
		C551.8,313.1,554,313.1,556.1,313.1z"/>
	<path class="st0" d="M139.5,74.5c-0.8-0.2-2.3,0.6-2.2-1.3c0-0.6,0.2-1.1,0.9-1.1c0.7,0,1.4,0,2.2,0c1-0.1,1.6,0.3,1.6,1.4
		c0,0.9-0.7,1.2-1.5,1.1C140.1,74.5,139.9,74.5,139.5,74.5z"/>
	<path class="st0" d="M548.3,269.1c0.1-0.3,0.1-0.9,0.4-1.4c0.5-0.7,0.9-2,1.9-1.6c1,0.4,0.5,1.5,0.1,2.3c-0.2,0.4-0.1,0.9-0.2,1.3
		c-0.2,0.7-0.7,1.1-1.4,1C548.2,270.7,548.3,270,548.3,269.1z"/>
	<path class="st0" d="M411.4,41.3c-1.4,0.4-2.3,1.3-3.1,2.2c-0.9,1.1-1.5,0.5-2.4-0.3C407.7,42.1,408.8,40.1,411.4,41.3z"/>
	<path class="st0" d="M555.1,295.6c-0.1,0.8-1.7,1.5-2.1,0.8c-0.7-0.9-0.7-2.1-1-3.2c0-0.1,0.4-0.4,0.6-0.4
		C553.5,292.8,555.2,294.8,555.1,295.6z"/>
	<path class="st0" d="M414.3,130.3c0.1,1.2-0.6,2-1.7,2c-0.7,0-1.2-0.2-1.3-1.1c-0.1-1,0.6-1.9,1.7-2
		C413.9,129.1,414.3,129.5,414.3,130.3z"/>
	<path class="st0" d="M131.3,52.3c-1.4-0.9-2.6-1.4-1.9-3.1c0.2-0.4,0.2-0.9,0.8-0.7c0.6,0.1,1,0.3,1,1
		C131.3,50.3,131.3,51.1,131.3,52.3z"/>
	<path class="st0" d="M147.2,73.2c0.8,0.1,1.4,0.5,1.5,1.5c0,0.9-0.4,1.7-1.3,1.7c-1.2,0.1-0.9-1.2-1.2-1.8
		C145.9,73.9,146.2,73.3,147.2,73.2z"/>
	<path class="st0" d="M559.6,331.6c-1,1.1-2.1,1.7-3.1,2.3c-0.4,0.2-0.8,0.5-1.1-0.1c-0.2-0.4-0.1-0.8,0.2-0.9
		C556.7,332.2,557.7,331.2,559.6,331.6z"/>
	<path class="st0" d="M208.3,429.8c0,1-0.6,1.2-1.2,1.3c-0.9,0.1-1.8,0.2-2.6,0.2c-0.1,0-0.2-0.2-0.3-0.4c-0.1-0.4,0.1-0.7,0.4-0.9
		C205.8,429.3,207.1,429.6,208.3,429.8z"/>
	<path class="st0" d="M604.2,326.2c1.7-0.3,2.9-1.3,4.2-2.4C607.8,326.4,606.7,327.1,604.2,326.2z"/>
	<path class="st0" d="M678.1,157.8c1.2-0.5,2-0.4,2.8-0.2c0.6,0.1,1.4,0.4,1.1,1.2c-0.2,0.6-0.9,0.5-1.4,0.3
		C679.8,158.7,679.1,158.3,678.1,157.8z"/>
	<path class="st0" d="M120.1,77c-0.7-0.3-1.4-0.3-1.4-1.2c0-0.9-0.2-1.8-0.2-2.6c0-0.1,0.3-0.2,0.4-0.2c0.2,0.1,0.6,0.3,0.6,0.5
		C119.7,74.6,120.4,75.6,120.1,77z"/>
	<path class="st0" d="M68.6,195.7c-0.4-0.1-0.8-0.2-1.1-0.4c-0.9-0.4-0.9-1.2-0.7-2.1c0.1-0.4,0.4-0.6,0.8-0.5
		c1,0.2,1.2,0.9,1.1,1.8C68.6,195,68.6,195.3,68.6,195.7z"/>
	<path class="st0" d="M455.5,106.6c-1,0.4-1.6,1.4-2.4,0.2c-0.2-0.4-0.6-1,0.1-1.4C454.2,104.8,454.8,105.6,455.5,106.6z"/>
	<path class="st0" d="M557.2,294c-0.8-0.9-1-1.8-0.3-2.7c0.1-0.1,0.5,0.1,0.7,0.2C558.6,292.7,557.2,293.1,557.2,294z"/>
	<path class="st0" d="M163.5,160.3c-0.9,1.3-1.4,2.2-2.7,1.9c-0.2-0.1-0.5-0.5-0.4-0.6C160.8,160.4,161.9,160.4,163.5,160.3z"/>
	<path class="st0" d="M534.7,99.2c-0.2,0.7-0.8,0.9-1.5,0.9c-0.6,0-1.1-0.5-1-1c0.2-0.7,1.1-0.9,1.8-0.9
		C534.5,98.1,534.6,98.7,534.7,99.2z"/>
	<path class="st0" d="M453.1,423.4c-1.1,0.8-1.8,0.8-2.5,0c-0.1-0.1-0.1-0.4,0-0.5C451.5,422.2,452.2,422.8,453.1,423.4z"/>
	<path class="st0" d="M284.5,94c-0.5,0-0.9-0.1-0.9-0.7c0-0.5,0.3-0.9,0.8-0.9c0.7-0.1,0.9,0.5,1,1C285.4,93.9,284.9,94,284.5,94z"
		/>
	<path class="st0" d="M94.8,87.2c0.2,0.9-0.1,1.5-0.4,2c-0.2,0.4-0.6,0.7-1.1,0.3c-0.4-0.3-0.5-0.7-0.1-1.1
		C93.7,88,94.2,87.7,94.8,87.2z"/>
	<path class="st0" d="M382.5,46.9c-0.1,0.4-0.1,0.6-0.2,0.7c-0.6,0.3-1.1,0.9-1.9,0.5c-0.1-0.1-0.2-0.3-0.1-0.5
		C380.8,46.6,381.6,47,382.5,46.9z"/>
	<path class="st0" d="M3.8,171.1c0,0.6-0.5,0.7-0.9,0.7c-0.4,0.1-1,0.1-1-0.6c0-0.6,0.4-0.7,0.9-0.8C3.3,170.4,3.6,170.6,3.8,171.1z
		"/>
	<path class="st0" d="M120.8,93.4c-0.4,0-0.7-0.3-0.7-0.7c0-0.7,0.5-1,1.1-0.9c0.5,0,0.5,0.4,0.5,0.8
		C121.7,93.2,121.4,93.4,120.8,93.4z"/>
	<path class="st0" d="M436.2,38c-0.2,0.6-0.7,0.8-1.2,0.8c-0.7,0-0.6-0.6-0.5-1c0.2-0.6,0.7-0.8,1.3-0.7
		C436.2,37.2,436.3,37.6,436.2,38z"/>
	<path class="st0" d="M563,314.3c-0.2-0.2-0.3-0.2-0.3-0.3c-0.1-0.6-0.4-1.2,0.3-1.6c0.1-0.1,0.4,0,0.5,0.1
		C564,313.2,563.6,313.8,563,314.3z"/>
	<path class="st0" d="M492.5,37.3c-0.4,0-0.9-0.2-0.8-0.7c0-0.4,0.2-0.9,0.8-0.8c0.4,0,0.7,0.2,0.7,0.6
		C493.3,36.9,493.1,37.2,492.5,37.3z"/>
	<path class="st0" d="M421.3,46.6c0,0.7-0.5,0.9-1,1c-0.4,0.1-0.7-0.2-0.7-0.6c0-0.5,0.5-0.7,0.9-0.9
		C420.9,46,421.2,46.2,421.3,46.6z"/>
	<path class="st0" d="M167.6,164.7c-0.4-0.1-0.7-0.3-0.7-0.6c0-0.6,0.2-1.1,0.8-1.2c0.3-0.1,0.5,0.2,0.5,0.5
		C168.2,164,168,164.5,167.6,164.7z"/>
	<path class="st0" d="M431.8,28.1c0,0.5-0.3,0.8-0.8,0.8c-0.4,0-0.7-0.1-0.7-0.5c0-0.4,0.4-0.6,0.7-0.7
		C431.4,27.6,431.7,27.7,431.8,28.1z"/>
	<path class="st0" d="M126.7,71.1c0,0.9-0.6,1.1-1.1,1.1c-0.4,0-0.7-0.4-0.6-0.7c0.1-0.5,0.6-0.6,1-0.7
		C126.4,70.6,126.7,70.8,126.7,71.1z"/>
	<path class="st0" d="M565.2,321.3c0.2,0.2,0.9-0.9,1.5-0.2C566,322.3,565.4,321.4,565.2,321.3z"/>
	<path class="st0" d="M200.4,206.7c-1,0.3-1.8,0.3-2.1-0.8C199.2,205.6,199.6,206.4,200.4,206.7z"/>
	<path class="st0" d="M24.1,277.1c-0.1,0.4-0.3,0.6-0.7,0.6c-0.4,0-0.5-0.4-0.5-0.7c0-0.4,0.1-0.7,0.6-0.6
		C23.8,276.5,24,276.7,24.1,277.1z"/>
	<path class="st0" d="M283.7,27.2c-1-0.7-0.8-1.4-0.6-2.1C284.2,25.5,283.8,26.3,283.7,27.2z"/>
	<path class="st0" d="M542.6,331.4c0.8-0.2,1.5-0.4,2.4-0.1C544.1,332,543.4,331.6,542.6,331.4z"/>
	<path class="st0" d="M633.8,356.2c0.2,0.5,1,0.3,1.1,1C634,357.6,634.1,356.7,633.8,356.2L633.8,356.2z"/>
	<path class="st0" d="M547.5,333.1c0.3,0.1,0.7,0.2,0.8,0.5c0,0.3-0.2,0.5-0.4,0.5c-0.4,0-0.6-0.3-0.8-0.6
		C547,333.3,547.2,333.2,547.5,333.1z"/>
	<path class="st0" d="M432.9,49.5c0,0.4-0.1,0.7-0.5,0.7c-0.3,0-0.5-0.3-0.4-0.5c0.1-0.2,0.3-0.5,0.5-0.6
		C432.7,49,432.9,49.2,432.9,49.5z"/>
	<path class="st0" d="M658.7,349.7c-0.2,0.3-0.5,0.5-0.8,0.3c-0.1-0.1-0.2-0.3-0.2-0.4c0.2-0.3,0.5-0.4,0.9-0.3
		C658.8,349.4,658.8,349.5,658.7,349.7z"/>
	<path class="st0" d="M470.1,108.5c0.1,0.1,0.3,0.3,0.4,0.5c0.1,0.3-0.2,0.4-0.5,0.4c-0.3,0-0.5-0.2-0.5-0.5
		C469.5,108.7,469.6,108.5,470.1,108.5z"/>
	<path class="st0" d="M440,29.9c0,0.3-0.1,0.5-0.4,0.6c-0.4,0.1-0.7-0.2-0.7-0.5c0-0.3,0.2-0.5,0.5-0.4
		C439.7,29.5,439.9,29.6,440,29.9z"/>
	<path class="st0" d="M470.7,41.1c-0.2-0.1-0.5-0.2-0.6-0.4c-0.1-0.4,0.1-0.7,0.5-0.7c0.3,0,0.4,0.2,0.5,0.4
		C471.3,40.9,471,40.9,470.7,41.1z"/>
	<polygon class="st0" points="633.8,356.3 633.7,356.2 633.8,356.2 	"/>
	<path class="st0" d="M348.6,237c0.1,1-0.3,1.8-1.1,2.5c-0.9-0.1-1.6-0.9-2.5-1c-0.5,0-0.8-0.4-0.8-0.9c0-0.6,0.5-0.6,1-0.6
		C346.3,237,347.4,237,348.6,237z"/>
	<path class="st0" d="M338,230.7c-0.7,1,0,2.8-1.4,2.9c-1.1,0.1-0.9-1.4-1.2-2.2c-0.3-0.9,0.4-1.5,1.3-1.6
		C337.5,229.6,337.8,230,338,230.7z"/>
	<path class="st0" d="M337.4,226.2c-0.4,0.3-0.2,1.1-1,1c-0.3-0.1-0.3-0.4-0.2-0.7c0.2-0.4,0.2-0.9,0.8-0.9
		C337.3,225.6,337.5,225.8,337.4,226.2z"/>
	<path class="st0" d="M382.5,244.4c-0.1-0.1-0.3-0.1-0.4-0.2c-0.1-0.3,0-0.5,0.3-0.6c0.2-0.1,0.5,0,0.6,0.2
		C383,244.2,382.7,244.3,382.5,244.4z"/>
</g>
<path class="st1" d="M383.9,199l7-7c1.4-1.4,2.3-3.2,2.7-5.1c0.4-1.9,0.2-3.9-0.6-5.7c-0.8-1.8-2-3.4-3.7-4.5
	c-1.6-1.1-3.6-1.7-5.5-1.7s-3.9,0.6-5.5,1.7c-1.6,1.1-2.9,2.6-3.7,4.5c-0.8,1.8-0.9,3.8-0.6,5.7c0.4,1.9,1.3,3.7,2.7,5.1L383.9,199z
	"/>
<path class="st2" d="M392,185c0,4.4-3.6,8-8,8s-8-3.6-8-8s3.6-8,8-8S392,180.6,392,185z"/>
<path class="st3" d="M384,186.7c-1.3,0-2.2-0.2-3.3-0.4c-0.2,0-0.7,0-0.7,0.7c0,1.5,1.7,3.3,4,3.3c2.3,0,4-1.8,4-3.3
	c0-0.7-0.5-0.8-0.7-0.7C386.2,186.6,385.3,186.7,384,186.7z"/>
<path class="st4" d="M383.4,178.5c-0.4-1.1-1.6-1.6-2.6-1.3c-0.7,0.2-1.1,0.8-1.3,1.4c-0.5-0.4-1.2-0.5-1.9-0.3
	c-1.1,0.4-1.6,1.6-1.3,2.6c0.1,0.2,0.1,0.3,0.2,0.4c0.9,1.6,3.4,2.7,4.9,2.7c1.2-1,2.4-3.4,2.1-5.2
	C383.5,178.8,383.5,178.6,383.4,178.5L383.4,178.5z M384.6,178.5c0.4-1.1,1.6-1.6,2.6-1.3c0.7,0.2,1.1,0.8,1.3,1.4
	c0.5-0.4,1.2-0.5,1.9-0.3c1.1,0.4,1.6,1.6,1.3,2.6c-0.1,0.2-0.1,0.3-0.2,0.4c-0.9,1.6-3.4,2.7-4.9,2.7c-1.2-1-2.4-3.4-2.1-5.2
	C384.5,178.8,384.5,178.6,384.6,178.5L384.6,178.5z"/>
<path class="st1" d="M463.1,284l7-7c1.4-1.4,2.3-3.2,2.7-5.1c0.4-1.9,0.2-3.9-0.6-5.7c-0.8-1.8-2-3.4-3.7-4.5
	c-1.6-1.1-3.6-1.7-5.5-1.7s-3.9,0.6-5.5,1.7c-1.6,1.1-2.9,2.6-3.7,4.5c-0.8,1.8-0.9,3.8-0.6,5.7c0.4,1.9,1.3,3.7,2.7,5.1L463.1,284z
	"/>
<path class="st2" d="M463.1,278c4.4,0,8-3.6,8-8s-3.6-8-8-8s-8,3.6-8,8S458.7,278,463.1,278z"/>
<path class="st3" d="M462.2,269.5c-0.2,0-0.4-0.1-0.4-0.3c-0.1-0.3-0.5-1-0.9-1c-0.5,0-0.8,0.8-0.9,1c-0.1,0.2-0.3,0.4-0.6,0.3
	c-0.2-0.1-0.4-0.3-0.3-0.6c0.1-0.2,0.6-1.6,1.8-1.6c1.2,0,1.7,1.5,1.8,1.6c0.1,0.2,0,0.5-0.3,0.6
	C462.3,269.5,462.3,269.5,462.2,269.5L462.2,269.5z M466.7,269.5c-0.2,0-0.4-0.1-0.4-0.3c-0.1-0.3-0.5-1-0.9-1c-0.5,0-0.8,0.8-0.9,1
	c-0.1,0.2-0.3,0.4-0.6,0.3c-0.2-0.1-0.4-0.3-0.3-0.6c0.1-0.2,0.6-1.6,1.8-1.6c1.2,0,1.7,1.5,1.8,1.6c0.1,0.2,0,0.5-0.3,0.6
	C466.8,269.5,466.7,269.5,466.7,269.5L466.7,269.5z M467.3,271.2c-0.1-0.1-0.2-0.1-0.3,0c0,0-1.7,1.3-3.9,1.3
	c-2.1,0-3.9-1.3-3.9-1.3c-0.1-0.1-0.2-0.1-0.3,0c-0.1,0.1-0.1,0.2,0,0.3c0.1,0.1,1.4,2.3,4.2,2.3c2.8,0,4.1-2.2,4.2-2.3
	C467.4,271.4,467.3,271.3,467.3,271.2L467.3,271.2z"/>
<path class="st5" d="M464.5,263.8c0,0.1,0,0.2,0,0.3c0.2,1.2,1.5,2.4,2.4,2.8c0.7-0.3,1.7-1.1,2.2-2c-0.9-1.1-2.1-1.9-3.5-2.4
	C465,262.5,464.5,263.1,464.5,263.8z M461.2,274.9c0-0.1,0-0.2,0-0.3c0-0.8-0.7-1.5-1.5-1.5c-0.5,0-0.9,0.2-1.2,0.6
	c-0.3-0.4-0.7-0.6-1.2-0.6c-0.6,0-1,0.3-1.3,0.8c0.8,1.5,2.1,2.6,3.6,3.4C460.4,276.6,461.1,275.8,461.2,274.9L461.2,274.9z
	 M470.4,273.4c-0.1-0.4-0.5-0.7-1-0.7c-0.3,0-0.6,0.2-0.8,0.4c-0.2-0.3-0.5-0.4-0.8-0.4c-0.6,0-1,0.5-1,1c0,0.1,0,0.2,0,0.2
	c0.1,0.8,1,1.7,1.7,2C469.3,275.2,469.9,274.4,470.4,273.4z"/>
<path class="st4" d="M470.1,263.5c0-0.8-0.6-1.4-1.4-1.4c-0.5,0-0.9,0.2-1.1,0.6c-0.2-0.3-0.6-0.6-1.1-0.6c-0.8,0-1.4,0.6-1.4,1.4
	c0,0.1,0,0.2,0,0.3c0.2,1.2,1.5,2.4,2.4,2.8c0.9-0.3,2.2-1.6,2.4-2.8C470,263.7,470.1,263.6,470.1,263.5L470.1,263.5z M460.5,274.6
	c0-0.8-0.7-1.5-1.5-1.5c-0.5,0-0.9,0.2-1.2,0.6c-0.3-0.4-0.7-0.6-1.2-0.6c-0.8,0-1.5,0.7-1.5,1.5c0,0.1,0,0.2,0,0.3
	c0.2,1.3,1.6,2.6,2.6,3c1-0.4,2.4-1.7,2.6-3C460.5,274.9,460.5,274.7,460.5,274.6L460.5,274.6z M471.1,273.6c0-0.6-0.5-1-1-1
	c-0.3,0-0.6,0.2-0.8,0.4c-0.2-0.3-0.5-0.4-0.8-0.4c-0.6,0-1,0.5-1,1c0,0.1,0,0.2,0,0.2c0.1,0.9,1.1,1.8,1.8,2.1
	c0.7-0.3,1.7-1.2,1.8-2.1C471.1,273.8,471.1,273.7,471.1,273.6L471.1,273.6z"/>
<path class="st6" d="M330.9,302l7-7c1.4-1.4,2.3-3.2,2.7-5.1c0.4-1.9,0.2-3.9-0.6-5.7c-0.8-1.8-2-3.4-3.7-4.5
	c-1.6-1.1-3.6-1.7-5.5-1.7s-3.9,0.6-5.5,1.7c-1.6,1.1-2.9,2.6-3.7,4.5c-0.8,1.8-0.9,3.8-0.6,5.7c0.4,1.9,1.3,3.7,2.7,5.1L330.9,302z
	"/>
<path class="st7" d="M328.1,284.5c-1.7,2.3-4.6,3.4-4.6,3.4c-0.5,0.5-0.1,1-0.1,1l4.6,5.5c0,0,0.2,0.3,1,0.1c0,0,2.9-1.1,4.6-3.4
	c1.7-2.4,4.9-3.2,4.9-3.2c0.5-0.5,0.1-1,0.1-1l-4.6-5.5c0,0-0.2-0.3-1-0.1C333,281.4,329.8,282.1,328.1,284.5L328.1,284.5z"/>
<path class="st8" d="M329.3,283.2c-0.4,0.4-0.9,0.8-1.2,1.3c-0.4,0.5-0.8,0.9-1.2,1.3l5.6,6.6c0.4-0.4,0.9-0.8,1.2-1.3
	c0.4-0.5,0.8-0.9,1.2-1.3L329.3,283.2z"/>
<path class="st9" d="M329.4,290c-0.7-0.8-2.2,0.5-2.6,0c-0.2-0.2-0.1-0.6,0.2-0.8c0.4-0.4,0.8-0.2,1-0.3c0.1-0.1,0.1-0.3,0.1-0.4
	c-0.2-0.2-0.7-0.1-1.1,0.1l-0.2-0.2c-0.1-0.1-0.3-0.2-0.5,0c-0.1,0.1-0.2,0.3,0,0.5l0.2,0.2c-0.3,0.4-0.4,0.9,0,1.3
	c0.7,0.8,2.1-0.5,2.6,0c0.2,0.2,0.1,0.6-0.2,0.8c-0.5,0.4-1,0.2-1.2,0.4c-0.1,0.1-0.1,0.2,0,0.4c0.2,0.2,0.7,0.2,1.2-0.2
	c0,0,0,0,0,0l0.2,0.3c0.1,0.1,0.3,0.2,0.5,0c0.1-0.1,0.2-0.3,0-0.5l-0.2-0.3c0,0,0,0,0,0C329.7,291.1,329.9,290.5,329.4,290
	L329.4,290z"/>
<path class="st10" d="M337.4,294.5C337.4,294.5,337.4,294.5,337.4,294.5c0,0,0.1-0.1,0.1-0.1c0,0,0,0,0.1-0.1c0,0,0,0,0-0.1
	c0.6-1,0.2-2.6-1-3.9s-2.9-1.7-3.9-1c0,0,0,0-0.1,0c0,0,0,0-0.1,0.1c0,0-0.1,0.1-0.1,0.1c0,0,0,0,0,0c0,0,0,0,0,0l0,0
	c-0.4,0.5-0.5,1.2,0,1.7c0.4,0.4,1.2,0.4,1.6,0l0,0c0,0,0,0,0,0c-0.5,0.5-0.5,1.2,0,1.7c0.5,0.5,1.2,0.4,1.7,0c0,0,0,0,0,0l0,0
	c-0.4,0.5-0.5,1.2,0,1.6C336.2,294.9,336.9,294.9,337.4,294.5L337.4,294.5C337.4,294.5,337.4,294.5,337.4,294.5L337.4,294.5z"/>
<path class="st11" d="M332.5,291.2c0.4,0.4,1,0.4,1.5,0.1c0.2-0.3,0.3-0.6,0.3-0.8c-1,0.7-1.9,0-2.1-0.4
	C332.1,290.5,332.2,290.9,332.5,291.2z M335.7,292.9c0.1-0.2,0.2-0.4,0.3-0.5c-0.6,0.6-1.8,0.2-2.2-0.8c-0.2,0.4-0.1,0.9,0.3,1.2
	C334.5,293.4,335.2,293.4,335.7,292.9z M337.4,294.5L337.4,294.5C337.4,294.5,337.4,294.5,337.4,294.5c0.1-0.1,0.1-0.1,0.1-0.1
	c0,0,0,0,0.1-0.1c0,0,0,0,0-0.1c0,0,0-0.1,0.1-0.1c-1.1,0.5-2-0.4-2.2-0.8c-0.1,0.4,0,0.9,0.3,1.2C336.2,295,336.9,295,337.4,294.5
	L337.4,294.5z"/>
<path class="st10" d="M329.2,285.6L329.2,285.6c0,0,0.1-0.1,0.1-0.1c0,0,0,0,0.1-0.1c0,0,0,0,0-0.1c0.6-1,0.2-2.6-1-3.9
	c-1.2-1.2-2.9-1.7-3.9-1c0,0,0,0-0.1,0c0,0,0,0-0.1,0.1c0,0-0.1,0.1-0.1,0.1c0,0,0,0,0,0c0,0,0,0,0,0l0,0c-0.4,0.5-0.4,1.2,0,1.6
	c0.4,0.4,1.2,0.4,1.6,0l0,0c0,0,0,0,0,0c-0.5,0.5-0.5,1.2,0,1.7c0.5,0.5,1.2,0.4,1.7,0c0,0,0,0,0,0l0,0c-0.4,0.5-0.5,1.2,0,1.7
	C328,286,328.7,286,329.2,285.6L329.2,285.6C329.2,285.6,329.2,285.6,329.2,285.6L329.2,285.6z"/>
<path class="st11" d="M324.2,282.3c0.4,0.4,1,0.4,1.5,0.1c0.2-0.3,0.3-0.6,0.3-0.7c-1,0.7-1.9,0-2.1-0.4
	C323.8,281.6,323.9,282,324.2,282.3L324.2,282.3z M327.5,284c0.1-0.2,0.2-0.4,0.3-0.5c-0.6,0.6-1.8,0.2-2.2-0.8
	c-0.2,0.4-0.1,0.9,0.3,1.2C326.3,284.4,327,284.4,327.5,284L327.5,284z M329.2,285.6C329.2,285.6,329.2,285.6,329.2,285.6
	L329.2,285.6c0.1-0.1,0.1-0.1,0.1-0.1c0,0,0,0,0.1-0.1c0,0,0,0,0-0.1c0,0,0-0.1,0.1-0.1c-1.1,0.5-2-0.4-2.2-0.8
	c-0.1,0.4,0,0.9,0.3,1.2C328,286,328.7,286,329.2,285.6L329.2,285.6L329.2,285.6z"/>
<path class="st1" d="M580,243.2l7-7c1.4-1.4,2.3-3.2,2.7-5.1c0.4-1.9,0.2-3.9-0.6-5.7c-0.8-1.8-2-3.4-3.7-4.5
	c-1.6-1.1-3.6-1.7-5.5-1.7s-3.9,0.6-5.5,1.7c-1.6,1.1-2.9,2.6-3.7,4.5c-0.8,1.8-1,3.8-0.6,5.7c0.4,1.9,1.3,3.7,2.7,5.1L580,243.2z"
	/>
<path class="st2" d="M588.1,229.2c0,4.4-3.6,8-8,8s-8-3.6-8-8s3.6-8,8-8S588.1,224.8,588.1,229.2z"/>
<path class="st12" d="M575.2,231.4c1.2,0,2.2-1,2.2-2.2s-1-2.2-2.2-2.2c-1.2,0-2.2,1-2.2,2.2S573.9,231.4,575.2,231.4z"/>
<path class="st12" d="M585,231.4c1.2,0,2.2-1,2.2-2.2s-1-2.2-2.2-2.2c-1.2,0-2.2,1-2.2,2.2S583.7,231.4,585,231.4z"/>
<path class="st3" d="M584.2,230.8c-0.1-0.1-0.2-0.1-0.3,0c0,0-1.7,1.3-3.9,1.3c-2.1,0-3.8-1.3-3.9-1.3c-0.1-0.1-0.2-0.1-0.3,0
	c-0.1,0.1-0.1,0.2,0,0.3c0.1,0.1,1.4,2.3,4.2,2.3s4.1-2.2,4.2-2.3C584.3,231,584.3,230.9,584.2,230.8L584.2,230.8z M575.6,227.8
	c-0.1,0-0.1,0-0.2,0c-0.2-0.1-0.3-0.4-0.2-0.6c0,0,0.6-1.1,2.2-1.1c1.6,0,2.2,1.1,2.2,1.1c0.1,0.2,0,0.5-0.2,0.6
	c-0.2,0.1-0.5,0-0.6-0.2c0,0-0.4-0.6-1.4-0.6c-1,0-1.4,0.6-1.4,0.6C575.9,227.8,575.8,227.8,575.6,227.8L575.6,227.8z M584.5,227.8
	c-0.2,0-0.3-0.1-0.4-0.2c0,0-0.4-0.6-1.4-0.6c-1,0-1.4,0.6-1.4,0.6c-0.1,0.2-0.4,0.3-0.6,0.2c-0.2-0.1-0.3-0.4-0.2-0.6
	c0,0,0.6-1.1,2.2-1.1c1.6,0,2.2,1.1,2.2,1.1c0.1,0.2,0,0.5-0.2,0.6C584.6,227.8,584.6,227.8,584.5,227.8L584.5,227.8z"/>
</svg>
