<svg xmlns="http://www.w3.org/2000/svg" xmlns:xlink="http://www.w3.org/1999/xlink" viewBox="0 0 688 446" xmlns:v="https://vecta.io/nano"><g fill="#70b0ff"><path d="M513.4 310.9c-1.8-1.8-2.7-4.1-3.2-6.5-.3-1.5-.8-2.6-1.9-3.5-1.5-1.1-1.8-2.6-1.6-4.4l.2-4.1c.4-2.7-.7-5.2-1.4-7.7-.4-1.7-1.7-2-3.3-1.1-.5.3-1 .7-1.5.6-.9-.1-2-.2-1.7-1.6.6-2.7-.8-4.4-2.5-6.2-1.3-1.4-2.3-3-2.6-4.9-2.8 0-5.3.9-7.9 1.4-.3 0-.7.1-.7.3-.8 2.5-3.5 3.2-4.8 5.3-.7 1.1-1.8 1.8-2.8 2.5s-1.9 1.4-3 1.9c-2.2 1-2.9 2.9-2.9 5 0 2-.6 3.9-.7 5.9-.1 2.3-2.1 3.7-3.7 5.1-.5.4-1.4.4-1.8-.6l-6.2-14.2c-1-2.3-.9-4.8-1.3-7.2l-.4-2.1c-.5-1.7-.6-1.7-2.3-1.2-2.5.7-3.5.2-4.5-2.3-.3-.9-.5-1.7-.6-2.6-.1-.5-.1-1.3-.8-1.3-1.4.1-2-.9-2.8-1.7-1.4-1.4-3.3-1-4.9-.7-2.9.6-5.7.6-8.6-.1-.7-.2-1.4-.3-2.1-.4-1.2 0-2.2-.6-2.6-1.6-.6-1.3-1.5-1.5-2.7-1.2-2.6.5-5 0-7.1-1.7-1-.8-2-1.4-2.4-2.8-.3-.8-.5-2.3-2.1-2.2-.8.1-1.6-.8-2.2.2-.5.9-.8 2-.3 2.9 1 1.8 1.8 4 3.4 5.2 1.4 1.1 2.6 1.8 3.2 3.6.3.8 3.8.5 4.8-.3.6-.5 1.1-1.2 1.8-1.7 1.1-.8 1.9-.6 2 .7.2 1.7 1.6 1.9 2.6 2.4 1.4.7 2.4 1.5 3 2.9.4.9.5 1.4-.2 2.1-1.3 1.2-2.6 2.3-3 4.4-.2 1.2-1.9 1.6-2.7 2.5-1.3 1.3-2.7 2.4-4.7 2.4-.6 0-1.3.2-1.7.7-2.2 2.9-5.8 3.5-8.8 5-2.4 1.2-5.1 1.2-7.6 2.1-1.1.4-2.1.6-2 2.1.1.8 1.9 2.4 2.8 2.4.6 0 1.3 0 1.9-.2 2.7-1 5.5-1 8.2-1.9 1.7-.6 2.7.3 2.2 2.1-.3 1.3-.9 2.6-1.5 3.8-1.3 2.5-2.8 4.9-4.1 7.3-1.2 2.1-3.2 3.2-4.9 4.6-3.3 2.8-6.5 5.5-9.4 8.7-3.6 4-3.4 9.9-1.5 13.8.8 1.7 1.4 3.3 1.3 5.2-.1 1.3 0 2.6 0 3.8 0 3.3-1.1 5-4.1 6.1-2.7 1-4.1 3.5-6.1 5.3-.7.6-.1 1.6 0 2.3.3 1.6.5 3.2.3 4.9-.2 1.8-1 3.1-2.7 3.5-1.9.5-2.4 1.7-2.1 3.5.1.6.1 1.4-.1 1.9-1.9 3.5-3.7 7-6.6 9.8-1.7 1.7-3.5 3.4-5.9 4.1-1 .3-1.9.6-2.9.6-2.7 0-5.4-.1-8.1.9-2.2.9-4.3-.7-4.1-3.3.3-4.5-1.8-8-4.4-11.3-1.6-2-1.9-4.4-1.9-6.7 0-4.2-1.7-7.7-3.8-10.9-3-4.4-2.4-9.1 1.2-14 1-1.4.9-2.8.5-4.1-1.1-3.6-2.4-7.2-3.6-10.8-.7-2-2.5-3.1-3.7-4.6-1-1.2-1.7-2-1.1-3.7.6-1.8.5-3.9.7-5.9.2-1.6-1.3-3.8-2.7-3.4-3.2.8-5.4-.3-7.1-2.9-.2-.3-.7-.6-.9-.6-2.3.7-4.9-.3-7.2 1.2-1.6 1-3.3 1.9-5.3 1.8-1 0-1.9-.5-2.9-.6-2-.2-4 .1-5.9.8-1.3.5-2.5.5-3.7-.7-1.3-1.2-2.9-2.2-4.5-3.1-1.2-.7-2.1-1.7-2.5-2.8-.9-2.8-2.9-4.7-5.1-6.1-2.6-1.7-2.6-4.3-3.2-6.6-.2-1 .7-2.4 1.3-3.5 1.1-2 1-4 .3-6-.1-.3-.2-.5-.3-.8-.7-2.4-1.1-4.6.6-6.9 1.8-2.4 3.1-5.3 4.7-7.9 1-1.7 2.7-2.7 4.4-3.6 1.6-.8 2.6-1.9 3-3.6.2-1.1.5-2.1.7-3.2.3-1.5.9-2.6 2.4-3.4 2.1-1 3.1-3 4-5 .6-1.4-.5-3.2-2-3.3-1.7-.1-2.9-.6-3.5-2.4-.5-1.5-1.3-2.7-.2-4.3 1.3-2 .4-4.3.3-6.4-.1-3.2.8-4.2 3.9-3.7 2.7.4 5.5.1 8.2.5 1.3.2 1.8-.5 2-1.6.2-1.6.7-3.3.5-4.9-.4-2.4-2.1-4.1-4.2-5.4-.7-.4-2.2-.3-1.9-1.4.2-.9 1.5-.7 2.3-.9h.3c2.5-.2 2.5-.2 2.9-2.6 1.4.1 2.9.7 4.2-.5.5-.5 1.3-.9 1.4-1.6.2-1.6 1.2-2.4 2.5-3 2.2-1 3.6-2.8 4.5-4.9.5-1.1 1.2-1.7 2.4-2 .4-.1.7-.1 1-.3 1.1-.6 2.9 0 3.4-1.3.6-1.3.1-2.9-.2-4.3-.2-.8-.2-1.7-.4-2.4-.9-2.4.7-3.5 2-4.8.4-.4.9-.6 1.5-.4.7.2.5.9.5 1.4v4.6a.76.76 0 0 0 .4.2c4.3-1 4.4-2.3 3.2-6-.7-1.9-1.7-3.6-2.3-5.5-.5-1.4-1.1-1.1-2.1-.7-1.4.6-2.2 1.8-3.2 2.8-1.6 1.6-4.3 1.2-4.5-1-.2-1.6-1-2.8-1.3-4.3-.5-2.7 0-5.4-.1-8.2 0-.7.5-1.1 1-1.5 1.4-1.4 2.8-2.9 4.1-4.3.3-.3.6-.8 1-.9 4.1-1.5 6.1-5 7.3-8.5 1.7-4.9 4-9.2 7.2-13.2-2.5-1-2.9-1.5-2.5-2.9.5-1.4 1.5-1.6 4.4-.7-.4-2.1.6-3.6 2-5 1.2-1.2 2.4-1.8 4.1-1.7 2 .1 3.7-.8 4.6-2.7.3-.5.6-1.2 1.2-.8 1.4.8 2.4.1 3-.8.8-1 1.4-.9 2.3-.4s1.7 1.1 2.5-.2c.5-.8 1.5-.6 2.2-.2a6.42 6.42 0 0 1 1.3 1c.9.7 2.2 1.3 2.7 2.2s-1.1 1.8-1 3c.6.4 1.4.2 2.1.2 1.4 0 2.7 0 3.3 1.7.3.8 1.2 1 2 1.1 3.6.4 6.4 2.4 8.8 4.8 1.1 1.1 2.4 1.9 3.5 3 1.6 1.8 1.2 4 .7 5.7-.5 1.4-2.3 2.2-4.2 2.3-2.6.2-4.7-1.2-7.1-1.8-.4-.1-.8-.5-1.2-.5-.5-.1-.9.1-1.1.6-.2.4 0 .8.3 1 1.8 1 1.6 2.6 1.5 4.3-.2 2.9 1.5 5.7 4.2 6.6.7.3 1.7.6 2.2-.4.3-.7 0-1.3-.8-1.8-.7-.4-1.9-.9-1.4-2 .7-1.3 1.7-.4 2.6 0 .8.4 1.7.6 2.6.4.5-.5.3-1.1.3-1.6.2-3.2 2.8-5.7 6-5.7h1.4c.9.1 1.4-.2 1.3-1.2-.2-2.1.4-4.2-.4-6.2-.1-.3-.1-.7-.1-1.1.1-.8-.4-1.8.6-2.1.9-.3 2-.4 2.9.2 1 .6.9 1.8 1.1 2.7.1.5-.8.9-1.4 1.2-1 .4-1.2 1.1-1 2 .3 1.1 1.1 2 2.2 2.2.8.1 2 .3 2.5-1 1.7-4.9 6.6-6 10.4-8.5.9-.6 1.3-.2 1.6.7.1.5.4 1 .5 1.5 1.8-.4 3.2-1.9 5.2-1.2.9.3 1.6-.7 2.3-1.3 1-.8 1.5-.8 2.1.3.3.5.5 1.4 1.3 1.2 1-.2 1.5-1 1.6-2 .1-2-.3-3.8-2.2-5-1-.6-1.7-1.3-.8-2.9 1.7 2.9 4.5 3.4 7.4 3.9 3.1.5 5.1 3 7.6 4.6.9.6 1.5 1.6 2.8 1.9 1.1-2.4 0-4.3-1.6-5.7-1.2-1-1.4-2-1.3-3.3.1-1.8.5-3.6-.2-5.4-.4-.9.4-1.7 1-2.1 2-1.4 2.5-3.4 2.7-5.6v-.3c.5-1 .1-2.5 1.9-2.9 2-.4 3.7-.4 5.2 1.2.4.4.3.7.2 1.2-.3 1.1-.6 2.1-.6 3.2-.1 1.7-.7 3.3.2 5.2.8 1.6.3 3.8.2 5.7 0 1.5-.1 3.1-.1 4.6 0 .6-.1 1.3.4 1.8 2.2 2.7 1.1 5.2-.4 7.6-.6 1-1.3 2-2 3-.4.6-1 1.1 0 1.8.8.5 1.5.8 2.2 0 .8-.9 1.8-1.5 2.3-2.6s1.1-2.3 1.7-3.4c.3-.6.4-1.1.3-1.8-.7-3.1-.6-3.2 2.1-4.8.2-.1.4-.3.4-.7-.3-.6-.9-.3-1.4-.3-2.6-.1-3.5-1-3.3-3.6.1-1.1.4-2.1.8-3.2s.5-2.1-.2-3.1c-.2-.2-.2-.5-.3-.8-1.1-3.1-1.2-3.2 1.3-5.5 1.2-1.1.9-2.4 1.3-4 .8 1.4.4 2.6.5 3.7.1.9-.1 1.8.1 2.7.3 1.7.8 1.9 2.8 1.9 0-.2.2-.4.1-.5-2.2-2.9-2.1-3.3 1.5-3.8-.4-1.1-1.4-2.2-.4-3.6 2.5.9 5.2 1.5 6.8 4.1.6.9 1.5 1 2.6.8.2-1.5-.1-2.8-1.5-3.6-1.3-.8-2-1.8-1.7-3.3.1-.4 0-.7 0-1.1-.6-3.1-.6-3.2 2.4-3.9 2.4-.5 4.8-1 7.2-1.7 1.6-.4 1.8-.6 1.4-2.2-.2-.8-.5-1.5-1.1-2.1-1.1-1.1-1.1-1.6.1-2.2 2.2-1.1 4-2.4 5.5-4.4.5-.7 1.3-.9 2.1-1.2 1.5-.5 2.9-1.1 4.3-1.6.5-.2 1.1-.2 1.4-.8 1-2.6 3.5-2.2 5.4-3 .5-.2 1.1 0 1.1.8 0 .6.1 1 .8 1.1 1.1.1 4.4-1.3 4.5-2.4.2-1.2.9-1.5 1.8-1.7 1.4-.3 2.1-.8 1.7-2.6-.3-1.5.5-3 1.7-4 .7-.6 1.4-1.2 2-1.8 1.8-1.7 1.8-1.8 4-.8 1 .5 1.8 1 .9 2.2s-.4 2 .9 2.4c.8.3 1.5.5 2.3.8 0 .2-.1.3-.1.3.1 1-1.3 1.9-.4 2.8 1 1 1.7-.6 2.5-.8 1.7-.4 3.6-1 5.3-.6s2.8 2 3.9 3.6c1.7 2.6 1.2 5.2 1.1 7.9 0 .9-.7 1.4-1.4 1.8-1.9 1.1-3.3 2.9-5 4.2-1.2.9-1.1 2.5-2.5 3.5-1.1.7-2.1 1.7-3.2 2.5-.4.3-.9.6-1 1.2-.1.7-.1 1.4.8 1.1 1.7-.5 3.4-1.2 5.1-1.8.5-.2.5-.7.5-1.2v-2.1c1 0 1.9.2 2.5.8.6.7 1.3.9 2.2.9.2 0 .4-.1.5 0 2.5 2.2 5.5 1 8.3 1.2 1.2.1 1.9.2 2.4 1.5.8 1.8 2.8 2 4.6 2.3.4.1.9-.1 1.4-.1 3-.1 3-.1 3.3-3 .1-1.5.9-2.1 2.4-1.6.7.2 1.3.6 1.9 1 .7.4 1.3.7 2.1.5.9-.2 2-.4 2.5.5.8 1.2 2.4 2.1 2.2 3.9-.2 1.5.8 3.3-.9 4.6-.4.3-.2 1 .1 1.5l3.1 5.1c.8 1.2 2 1.1 2.6-.3.4-.8.5-1.7.8-2.6.5-1.5.9-1.7 2-.6.8.7 1.6 1 2.4.6 2.5-1.3 5.1-.5 7.6-.3 2 .2 2 .2 1.8-1.9V113c0-.9.1-1.6 1.1-1.9.3-.1.9-.2.9-.5.6-2.4 2.4-1.7 3.9-1.4 2.2.5 4.5.5 6.4 2.1.9.8 2.3.8 3.4.7s1.9.2 2.8.7c.8.4 1.4.9 1.1 1.9-.4 1.2.2 1.7 1.1 2.1 1.4.6 2.4 1.5 3.1 2.9.6 1.1 1.5 1.6 2.9.9 2.6-1.2 5.4-.9 8.1-.6 2.4.2 4.1 2.7 3.8 5-.2 1.6.7 2.7 2.5 3.2.5.1 1.1.2 1.6.1 2.8-.6 5.5-1 8.3 0 1.1.4 1.6-.5 2.2-1.1 1.5-1.6 1.5-1.5 3 .2-.4.7-1.6.6-1.7 1.5s.8 1.1 1.2 1.7c.2.4.8.7 1.2 1.1.5.5 1.2.6 1.7.2.6-.4 1.2-.9 1-1.8-.1-.4-.3-.9-.4-1.3-.6-2.8 0-3.5 2.8-3.1.4.1.9.2 1.3.2 4.5-.3 8.3 1.6 12 3.7.6.3 1.1.7 1.5 1.1 2.8 2.6 5.2 5.6 8.6 7.5.5.3.4.8.5 1.2l1.2 3.9c2.3-2.6 3.8-2.6 6.2-.3.5.4.9.9 1.4 1.3 1.4 1.4 1.4 1.6-.4 2.8s-3.2 2.5-3.3 4.9c-.1 1.5-1.5 2.1-2.8 1.2-1.6-1.1-3.6-1.9-4.2-4.1-.3-.9-.8-1-1.7-.8-1.5.4-2.5 0-2.7-1.7-.1-.6-.3-1.3-1.2-1.2-1 .1-.6 1-.8 1.5 0 .1 0 .2-.1.3-.5 4.3-.9 4.7-5.3 5.5-.4.8.4 1.2.8 1.5 1.7 1.3 1.9 3.3 2.4 5.1.5 1.7-.2 2.4-2 2.3-4.3-.3-7.4 2.1-10.4 4.6-1.4 1.2-2.6 2.5-3.9 3.9-.6.6-1.1.7-1.8.1-1.9-1.4-3.1-1.3-5.1.2-.7.6-1.4.9-2.4.6-1.4-.4-2.6 1-4 .8-.3 0-.5.5-.5.9 0 1.6-1 2.7-1.9 3.8-.8.9-1.1 1.8 0 2.8 1.4 1.2 1.3 3 1.4 4.7 0 .6-.3 1.2-.9 1.2-1.6.2-1.6 1.3-1.5 2.4.3 1.8-.5 3-2.2 3.5-1.2.4-1.8 1.1-1.7 2.4.1 1-.4 1.5-1.3 1.8-1 .3-1.4 1-1.5 2-.1 1.2-.9 2.1-1.6 3-.9 1-2.1.8-2.4-.6-.3-1-.2-2-.3-3-.3-2-.6-4.1-1.1-6.1-.8-3.9.7-7.3 2.4-10.6.1-.2.3-.5.6-.6 3.7-1.3 5.4-4.7 7.6-7.6.8-1.1 1.7-2.2 2.8-2.9 1.8-1 2.5-2.5 2.7-4.4.1-1.1.7-2.1.3-3.3-.9.2-1.7.4-2 1.6-.4 2.1-2.1 3.3-3.6 4.6-1.2 1.1-2.3.6-2.6-1.1-.4-2-.4-2-2.4-1.9-2.2.2-4.3.5-5.3 3-.4 1.1-1.4 1.9-2.2 2.8-.7.8-1 1.6-.3 2.6.8 1.2 0 1.6-1 1.8-1.6.3-3.3-.1-4.9.7-.6-.9-.2-2.5-2-2.4-1.1 0-2.2-.6-3.2.6-1 1.1-2.5.6-3.9.4-2.6-.4-5.2-.9-7.8.3-.8.4-1.4.8-1.9 1.5L578.9 188c-.4.5-.6 1.1-.9 1.8 1.3.6 2.5 1.4 3.2 2.7.6 1.1 1.5 1.2 2.2.3.8-1 1.6-1.5 2.8-.8 1.1.6 2.1 1.4 2.2 2.9 0 .5-.2 1.1.5 1.6.8-1.1.9-3.2 3.1-2.6.6 3.5 1.3 7 1.7 10.6.1 1 .1 1.5-.9 2.2-1.6 1.1-2 2.9-1.5 4.8.2.7.6 1.4.7 2 0 1-.9 1.1-1.6 1-.6-.1-.4-.6-.3-1 .8-4.2.2-8.3.3-12.5 0-.6-.4-1-.8-1.4-.5-.4-1-.5-1.3.2-.6 1.1-1.3 2.2-1.2 3.6.1 1 0 2 0 3 0 .9-.1 1.9-.6 2.6-2.5 3.9-4.7 7.9-7.7 11.5-2.3 2.7-4.7 3.9-8 3.9-2 0-3.3 1.5-3.5 2.9-.4 2.1-1.8 3.1-3.2 4.1-1.2.9-1.3 1.7-.6 2.9.9 1.6 1.9 3.1 2.6 4.8.4 1.1.5 2.2.1 3.2-.5 1.2-1.5 1.8-2.8 1.8-.9 0-1.8 0-2.7.5-.6-1.8.1-3.5-.1-5.3-.1-.7.1-1.5-.7-1.9-1.4-.6-1.9-1.3-1.5-3s-.7-2.4-2.5-1.9c-1.3.4-2.5.9-3.8 1.3-.7-1.3-.2-2.4.2-3.6-1.4-.7-2.3-.4-3.3.9s-2 2.9-4.1 2.9c-.8 0-1 1-.4 1.6.8.8 2.1 1 2.6 2.3.2.6.9.1 1.4-.1 1-.3 2-.8 3.1-.1 1 .6.8 1.1.2 1.6-1 .8-2.1 1.5-3 2.3-1.4 1.2-1.7 2.4-.6 3.8 1 1.1 1.5 2.5 2.6 3.5s1.3 2.2.8 3.5c-.4 1-.4 1.7.3 2.5.8 1 .6 1.9-.3 2.9-1 1.1-1.7 2.3-2.6 3.5-.2.3-.6.5-.7.8-1.6 5.5-6.1 7.6-11.1 9.2-1.6.5-3.3.9-5 1.4s-2.3 1.7-1.5 3.4c.6 1.3-.4 1.8-1 2.5-.7.9-1.7.2-2.2-.1-.8-.6-.5-1.4.4-1.8 1.5-.6 1.4-1.6.8-2.8-.6-1.1-1.5-1.8-2.5-1.3-1.3.6-2.6 1.2-3.5 2.5-1.4 1.8-1.3 2.8 0 4.8.7 1 1.4 2 2.2 2.7 2.4 2 2.7 4.7 3.2 7.4a2.64 2.64 0 0 1-1 2.7c-1.5 1.3-3 2.6-4.6 3.8-.5.4-1 .7-1.7.8h-.7c-.3-2.4-3.1-2.6-3.9-4.5-.1-.3-.3-.7-.6-.9-1.2-1.4-2.8-2.3-4.5-2.3s-.8 2.1-1.4 3.1c-1.4 2.6-.5 4.9.8 7.2.4.7 1 1.1 1.6 1.3 1.6.7 2.6 1.9 3.6 3.2.9 1 1.4 2.1 1.3 3.5-.1 1.1 0 2.2.7 3.3-1.1.5-2 .5-2.9 0-.7.1-1-.2-1.4-.3zm-163-75.5c-1.2-3.1-1.2-3.1-4.4-5.3-.7-.5-1.4-.8-2-1.4-1.8-1.5-3.9-2.7-4.7-5.1-.9-2.8-2.6-3.4-4.7-1.5-1.6 1.4-3.3 2.4-5.6 1.6-.4-.1-.9-.1-1.3-.2-1.2-.3-2.1.1-2 1.4.1 2.1-1 3-2.7 3.8-2.3 1.1-3.8 2.8-3.5 5.5.1.7 0 1.4-.5 2-1.6 2-3.3 3.6-6 3.7a8.33 8.33 0 0 0-2.2.3c-.7.1-1 .8-1.1 1.4 0 .8.3 1.7 1 1.7 2.4 0 4.8 1.1 7.1-.7 2.4-1.9 5.3-2.5 8.4-2.8 3.9-.4 7.8-.2 11.6-1.3.4-.1.7.1 1 .3 1.8 1 2.3 4.2.8 6.1-.8 1-.6 1.5.3 2.2 1.8 1.4 3.9 1.9 6.1 2.1.9.1 1.5.3 2 1.1 1.6 2.5 4.5 2.8 6.9 3.9 1.1.5 2.4-.6 2.6-1.9.4-2.5 2.1-3.8 4.5-3 3.5 1 6.9 2.1 10.4 3.4 1.3.4 2.7.9 3.7.3 2.1-1.4 4.2-.8 6.3-.5 1.9.3 2.9-.3 3.6-2.1.6-1.4 1.1-2.9 1.6-4.3a4.84 4.84 0 0 0 .3-2.4c-.6-3.7-.5-3.7-4.2-2.8-1 .2-2.2 1-3-.1-1-1.3-2.1-.8-3.2-.4-.8.3-1.5.7-2.3.5-2.8-.5-5.1-3.4-5.3-6.4 0-1-.2-2-.4-3-.2-1.4-.9-2-2.2-1.6-1.5.5-3 1-4.4 2.1l2.5 4.6c-.6.4-1.2.8-1.7 1.3-.6.5-.2 2-1.6 1.8-1.2-.1-1.1-1.3-1.7-2s-.9-1.5-1.4-2.3c-1.3-1.9-2.4-3.9-2.2-6.3.2-1.6-.6-2.4-1.9-3.2-2.8-1.6-5.8-3-7.3-6.2-.6-1.2-2.1-1.4-3.1-2-.6-.3-1.1 0-1.2.7-.1 1.6-.3 3.1 1.4 4.1.4.2 1 .6 1 .9.1 2.3 2.1 2.8 3.4 3.9 1.5 1.2 3.1 2.2 4.6 3.3.2.2.3.4.1.7-.7.4-1.7-.2-2.4.6.3 1.4.8 2.8-1 3.5zm9.5-46.3c-.3-2.5-.6-4.8.3-7.1.8-1.9 1.7-2.1 3.2-.6.3.3.4.6.7.9.6.5 1.5.3 1.5-.4 0-1.4.7-3-.7-4.3-1.1-1-.6-2.6.6-3.4.9-.6 1.9-1 3.1-.9 1 .1 2 .1 3 .3 1.4.3 2.2-.6 3-1.4.6-.6-.3-1.1-.5-1.6-.4-1.1-1.3-1-2.1-.8-2.4.9-5 .8-7.4 1.8-1.1.4-2.1.2-2.9-.8-.9-1.1-1.6-2.1-1.5-3.6.1-1.3.1-2.6-.1-3.8-.4-2.6.6-4.5 2.3-6.3 1.5-1.6 2.9-3.2 4.3-4.9.8-.9.9-3.4.2-3.7-1.2-.5-2.6-1-3.9-.9-1.1 0-1.3 1.1-2 1.7-.8.7-.8 1.6-.9 2.5-.2 2.6-1.2 4.6-3.6 6.2-2.8 1.9-3.9 5-4.2 8.4-.2 1.9 1.3 2.8 2 4.2.2.5.4 1 .9 1.3.8.6.5 1.2.1 1.9-.4.6-.8 1.3-1.5 1.6-2.1.8-2.2 2.6-2.4 4.4-.1 1-.1 2-.2 3 0 .8-.3 1.5-1 1.9-1.4.8-3 1.2-3.8 2.8-.2.3-.6.4-1 .3-1.6-.5-2.6 0-3.2 1.6-.1.4-.5.8-.9.1-.8-1.2-1.8-.7-2.3.1s-.1 1.7.9 2.2c1.1.5 2.2.7 3.4.1.8-.5 1.7-.5 2.5.2 1.1 1 2.2.7 3.3.1 1-.5 2-.9 2.9-1.5 1-.7 1.8-.6 2.8-.1 1.1.5 2.2 1.3 3-.5.1-.6 1.2-.7 2.1-1zm27.6 29.9c-3.6 1.7-3.6 1.7-5.1-1.8-.6-1.3-2-2.3-3.3-2.4-1.5 0-1.7 1.1-2.2 2.1-.4.9-.8 1.8-1.7 2.4-1.9 1.3-2.3 3.5-2.6 5.4-.4 2.8.6 3.7 3.4 3.9h1.4c1 0 2.1.4 3.1-.4 2.2-1.9 4.8-1.7 7.1-.4 2.1 1.3 4.2 1.3 6.5 1.2.9 0 1.7-.4 2.7-.4 1.7 0 1.8-.3 1.8-1.9 0-1-.4-1.7-1.2-2.3l-5.4-4c-1.1-.8-1.4-1.5-.7-2.7.5-.8.8-1.8 1-2.8.3-1.1-.3-1.8-1.4-1.4-1.4.5-2.7 1.1-4 1.7-.7.3-.7.8-.7 1.6 0 1 .6 1.5 1.3 2.2zm36.3 10.3c-1.6-.8-1.5-3.2-3.6-2.4-.1 0-.4-.1-.4-.2-.3-2-2.5-2.5-3.3-4.2-.6-1.3-.5-2.1.2-3.2.6-1 1.5-.8 2.4-.9 1 0 2.1-.2 2.1-1.5 0-2.3-.8-3.2-2.3-3.5-1.9-.3-3.4.4-4.6 1.7-.9 1-1.9 1.8-3.3 2.2-1.2.3-2.4 3.1-2 4.2 1 2.5 1.8 5.2 3.9 7.1 1.4 1.3 1.4 2.6.6 4.1-.2.4-.5.8-.6 1.2-.1 1.2-.5 2.5.5 3.6 1.8 2.2 5.3 2.7 7.5 2.1.5-.2 1.2-.3 1.2-.9 0-1.9.5-3.8-.5-5.6-.5-.8-.8-1.7-1.2-2.6 1-.3 1.9-.7 3.4-1.2zm-22.3 60.9c-.2-2.7-.8-4.9-1.2-7.1-.6-2.9-2-5.3-4.3-7-1-.8-1.5-1.7-1.8-2.9-.6-2.1-.6-4.6-3.1-5.7-.3-.1-.5-.7-.7-1.1-1.1-1.9-2.2-3.8-3.1-5.7-.5-1.2-1.7-1.6-2.4-1.1-1 .7-1.3 1.8-.7 2.9 1.1 2.1 2.5 4 3 6.3.3 1 .7 1.8 1.5 2.5 1.1.9 1.4 1.9 1.6 3.3.3 2.2 0 4.6 2.6 5.8.4.2.4 1 .6 1.5.5 1.2.7 2.7 1.5 3.4 1.9 1.8 4.1 3.2 6.5 4.9zm-24.6-122.4c-.1.9.5 1.5.9 2.2.9 1.6 1.7 1.7 3 .7 1-.7 1.1-2.2.3-3.2-.6-.8-1.5-1.3-2.3-1.8s-1.4-.2-1.7.6c-.1.4-.1 1-.2 1.5zm145.7 28.9c4.4-1.6 5.9-4.4 5-8.8a345.57 345.57 0 0 1-5 8.8zM379.7 318.3c-.2 1.2.6 1.4 1.6 1.4 1.6 0 2.9-1.1 2.9-2.7 0-1.1-.7-1.9-1.8-1.8-1.3-.1-2.7 1.5-2.7 3.1z"/><path d="M38.2 167.8c0 .7-.1 1-.1 1.3.1 2.4.1 2.6-2.4 2.7-1.8.1-2.6 1.9-4.5 2.2l-.5-5c-1.6 1.5-2 3.7-3.8 4.7-.1.1-.2.5-.1.7 1 2.4-.5 3.9-2.3 4.9-1.9 1.1-3.4 2.6-4.8 4.3-2.3 2.8-5.3 4.7-9.3 4.6.2-1 .7-1.5 1.7-1.8 3.1-1 5.3-3.3 7.2-5.9.5-.7.6-1.5.6-2.3s-.3-1.3-1.1-1.2c-1.2.1-2.1-.4-3-1-.7-.5-1.5-.6-2.3-.3-1.4.6-1.7-.4-2-1.4-.1-.4-.1-.7-.1-1.1 0-1.4-.8-1.9-2-1.4-1.7.6-2.6-.3-3.5-1.4-.2-.2-.5-.5-.5-.6.7-1.9-.7-2.9-1.5-4.3-.3-.5.1-.8.3-1.2.6-1.5 1.7-2.8 2.1-4.4.1-.6.5-1.2 1.1-1 2.2.7 3.3-1.6 5.2-1.7.6 0 .8-.6.7-1.2-.2-1.3-.2-2.5-.2-4-2.6 1.3-5.3.8-7.9.8-1.8 0-2.4-.4-2.5-2.1S.9 149 .4 147.8c1.6-1.7 3.7-2.6 5.6-3.9.4-.3 1.2-.4 1.5.2.9 2.4 2.7 1.6 4.3 1.2.2 0 .3-.1.6-.2-.5-1.9-1-3.6-3.3-4.1-.5-.1-1.1-.6-1.1-1.1-.1-1.8-1.4-2.4-2.7-3.2-.5-.3-.9-.7-1.2-1.1-1.2-1.5-.8-3.6 1.1-3.8 2.9-.2 3.8-2 4.5-4.2.3-1.1 1-1.8 2-2.4 1.5-.9 3.2-1.7 4.2-3.4.2-.3.5-.6.9-.5 1.7.2 2.9-.7 4.1-1.8 1-1 2.2-.9 3.2 0 1.4 1.3 2.9 2.1 4.9 1.8 1-.2 1.5.6 2 1.2.8.8 1.5 1.3 2.8.9 2.6-.7 5 .8 7.3 1.6 1.2.5 2.4.8 3.7.6 1.9-.2 3.8-.2 5.3 1.3.8.7 1.9.8 2.8.9 2.1.2 3.5 1.4 4.9 2.6 1.8 1.6 2.5 1.6 3.9-.4.8-1.1 1.7-1.6 3-1.4 1.8.3 3.2-.4 4.4-1.7.7-.8 1.6-1.5 2.8-1.3.4 0 .8 0 1.1.2 1.9 1.1 1.9 1.1 3.1-.7.3-.4.5-1 1.1-1.2 1.2.9 1.4 2.5 2.2 3.6.4.6.8 1.3 1.7 1.2.8-.2.7-.9.9-1.5.1-.3.2-.7.7-.8.7.6.7 1.5 1 2.3.8.3 1.3-.3 1.7-.6 1.6-1.4 3.2-1.2 4.8-.3s3.1 1.8 4.6 2.8c1.4 1 3 1.2 4.6 1.2 1.5 0 2.8.6 3.3 1.8.6 1.4-.4 2-1.1 2.8-.1.1-.2.3-.3.5 1.6 2.1 3.7.8 5.6.7.7 0 1.6-.3 2.4-.4 1.4-.2 2.7-.3 3.7 1 .2.3.8.3 1.3.5.7-1.3 1-2.6 0-3.8-.7-.9-.2-1.3.4-1.7.1-.1.2-.1.2-.1 3.2-1.8 3.6-1.7 5.5 1.4.8 1.3 1.5 2.2 3.1 2.1.2 0 .4 0 .5.1 1.7 2 4 1.2 6.1 1.1 1.4 0 2-.5 2.4-1.7.1-.4.2-.9.4-1.3.7-1.3.3-2.2-.9-2.9-.2-.1-.4-.3-.7-.6.5-.9 1.6-1.5 1.5-2.8-.1-1.1.8-1.3 1.7-1.2 1.1.1 1.6 1.4 2.8 1.4.2 0 .3.4.1.7-.6 1.2.2 2.1.6 3-.6.5-1.1 1-1.6 1.5-.2.2-.4.6-.3.7 1.6 1.2.9 3.1 1.6 4.7.3-1.7 1-2.9 2.5-3.7 1-.5 1.6-1.5.7-2.7-.7-1 .2-2.1 0-3.2-.1-.7-.3-1.1-1.1-1.2-2.1-.4-3.2-1.5-3.3-3.6-.1-3.1-.4-6.1 1.6-8.9 1.2-1.6.7-3.8.3-5.6-.7-2.9.1-5.5.7-8.3.2-1.1.9-1.3 1.7-1.4 1.8-.3 3.6-.3 5.4.3 1.4.4 2 1.6 1.4 3-.5 1.2-1.1 2.3-1.6 3.4s-1.2 2-2.6 2c-1.3 0-1.8.6-1.9 1.8-.1 1.1-.4 2.1-.5 3.2-.1.5-.3 1.2.1 1.6 1.9 1.5 2 3.7 2.8 5.7.1.3.2.5.4.7 1.3 1.1 1 2.3.5 3.6-.6 1.8-.6 1.9 1.3 2.3 1.1.2 1.6.7 1.7 1.8.1.7.3 1.4.5 2 1.1.1 1-2 2.5-1.1 1.2.7 2.1 1.4 2.1 3.1 0 .7-.1 1.5-.4 2.1-.6 1.4.2 2.3.9 3.2.6.8 1.8.5 1.8-.5 0-1.7.5-3 1.8-4.2 1.2-1.1 1.3-2.8 1.1-4.4-.2-1.4-.2-2.8.1-4.3-2-.2-3.5-1.9-5.6-1.8-.4 0-.8-.6-1.2-1-1.5-1.5-1.3-2.5.6-3.4.2-.1.5-.2.7-.4-.2-.1-.4-.2-.5-.3-.9-.5-2.5 0-2.8-1.3-.3-1.4-1.1-2.7-.5-4.4.9-2.3 1.2-4.9 2-7.3.8-2.6 3.7-4 6.3-3.4.6.1.7.5.7 1 0 .4 0 .9-.2 1-3.1 2.6-2.3 6-1.7 9.3 2.1-1.1 2.2-1.1 1.8-3.2-.4-2-.3-3.8 1.1-5.4 1-1 2.1-1.6 3.6-1.6 2.6.1 5.1 0 7.7 0 2.8 0 4.7 2.1 4.5 4.8 0 .6-.3 1.4.4 1.7 2 .6 2.5 2.4 3 3.9.7 1.9 1.7 3.2 4 2.8 1-.2 1.7.3 2.2 1.3.3.7.8 1.2 1.1 1.9.5 1 1 1.7 2.2 1.6 1-.1 1.9.4 1.9 1.5.1 1.4 2.1 1.2 2 2.7-.1 1.1-.4 2.4.5 3.4.3.3.2.5-.1.8-1.8 1.9-1.8 2.9.1 4.5 1.1.9 2.2 2 3.7 2.1.9 0 1.2.7 1.6 1.3.8 1.6 2.1 2.6 3.7 3.4 2.1 1 2 1.2.9 3.4-.7 1.5-1.4 3-2.5 4.3-1 1.2-1.7 1.3-2.7.1-.8-1-1.5-2.1-2.3-3.1-.6-.8-1.4-1.2-2.4-.8-1.2.5-.9 1.7-.6 2.4.5 1.3 1 2.6 2.4 3.5 3 1.9 3.8 6 2.1 9.2l-4.7-2.6c.8 1.9 2.6 3.1 2.7 5.4-1.9.1-3.5-.1-5-1.1-.9-.7-1.8-1.5-3.1-1.5-1 0-1.2-1.3-1.6-2-1.6-3.2-4-5.1-7.7-5.1-.7 0-1.5-.1-2.1.3-1 .7-1.8.1-2.5-.4-.8-.6-.7-1.7-.3-2.6s1.1-1.7 2.3-1.7c.9 0 1.8.1 2.7.1.7 0 1.4-.1 2.1-.6s1.1-1 .6-1.8c-1-1.4-.3-2.4.6-3.3l.2-.2c2.5-3.1 2.6-3.2 1.3-6.9-.5-1.3-1.5-2.1-2.8-2.3-.4-.1-1.4-.1-1.4.9 0 .6 0 1.4 1 1.1.5-.1 1 0 1 .5.1.7-.6.5-1 .6-.5.1-.8.1-1.1.6-1.2 2.1-1.2 2-3.7 2-.5-2.1-.3-4 2-5.1.3-.2.5-.6.8-.7.8-.5.9-1.1.7-1.9-.3-.9-1.2.2-1.7-.3-.2-.7.9-1 .6-1.9-.3-.8-1-.6-1.6-.7-.3 0-.5-.1-.5-.5.1-2.1-1.8-2.9-2.7-4.4-1.2.7-1.8 1.7-2.4 2.7-.2.4-.9.7-1.1.1-.5-1.9-1.8-1.1-2.8-1-.6.1-1.2.3-1.8.5-.3 1.1.6 1.5 1.1 2.1 1.3 1.9 1.4 3.5 0 5.3-.7.9-.7 1.7-.2 2.5 1.7 2.7 1.3 4.8-1.3 6.7-.9.7-2 1.4-2 2.8-1-.1-1.5-.7-2.1-1.3-.7-.7-1.4-.8-2.2-.4-.4.2-.6.5-.5.9.2.7.5 1.4 1.3 1.5.9.1 1.3.3 1.4 1.3.1 1.3 1.4 1.7 2.3 2.1 2.2 1.1 3.5 3 5.1 4.8.4.4.7.9.3 1.5-.3.5-.9.6-1.4.5-1-.1-1.9-.7-2.7-1.3-.6-.5-1.1-.4-1.6.3-.7 1-1.5 1.9-2.2 2.8-.4-.1-.5-.1-.5-.2-.2-1.5-2.6-1.7-2.5-2.7.1-1.3.7-2.6.6-3.9v-3.9c-1.6.7-1.7 2-2.1 3-.8 1.9-1.3 4-4 4.1-1.1 0-1.3 1.2-1.6 2-.4 1-.8 1.9-1.8 2.6-5.1 3.5-6.9 8.5-6.6 14.5 0 .4 0 1 .6 1.1 2.2.2 2.2 2.2 3 3.6.5.9 0 2.4 1.2 2.9.9.3 1.9.2 2.9-.1.8-.2 1.5.6 2.1 1 2.2 1.3 4.3 2.8 6.4 4.2 1.4.9 2.9 1.3 4.6 1.4 2.4.2 2.5.3 2.7 2.8v.5c-.1 1.7.3 3.2 2.3 3.5.1 1-1.3 1.6-.7 2.3.8 1.1 1.9 2 2.9 2.9.4.3.9-.1 1.1-.4.7-.9 1.3-1.8 1.2-3.2-.1-1.7-.6-3.4-.9-5.1-.2-1.3-.2-2 1.1-2.5 1.9-.7 2.7-2.6 3.9-4.1a1.91 1.91 0 0 0 .2-1.3c-.4-2.5-.6-5.1-3-6.6-1.2-.7-1.1-1.8-.3-2.5 1.6-1.6 1.5-3.1.8-5.1-.8-2.1-.2-4.5-.3-6.8 0-.9.5-1.4 1.4-1.3.8.1 1.7.2 2.4.5 1.2.5 2.4.8 3.7.2 1-.5 1.8 0 2.4.7s1.1 1.5 1.6 2.2c.6.7 1.2 1.7 1.9 1.9 3 .5 2.6 2.6 2.5 4.6-.1 2.4 1.4 3.9 3.1 5.1 1.2 1 3.5-.2 4.4-2.1.3-.6.3-1.2.5-1.8.3-1.1.4-1.1 1.9-2.2 1.1 1.6 1.5 3.5 2.4 5.2.6 1.1.9 2.3 2 3.2 1.2 1 .9 2.5 1.1 3.8.4 3.1 1.8 5.5 4.9 6.4 1.4.4 2.6.9 2.8 2.5.2.9 1 1.6 1.8 2 1.2.5 1.5 1.4 1.4 2.6-.1 2.4.2 4.9-.5 7.3-.4 1.5.3 2.8 1.7 2.8 2.7-.1 3 1.7 3.5 3.6a6.28 6.28 0 0 1 .3 1.9c0 .6.6 1.3-.1 1.7-.8.4-1.3-.2-1.7-.9-.1-.3-.5-.7-.9-.5-1.4 1-2.2-.1-3.3-.5-1.5-.5-3.2-.1-5.3-.1l3.8-10.9c-1.5-.5-2.5.2-3.5 1.1-1.5 1.5-3.2 2.1-5.3 2.1-2.9 0-5.7.7-8.7.5-.5 0-1 .1-1.1.6-.5 1.7-2 2.4-3.7 3.6 3.1-.1 5.7-2 8.7-.9-1.4 1.8-1.8 3.5-1.1 5.5.4 1.2.7 1.9 1.9 1.6 1.7-.4 2.6.8 3.6 1.7.8-.2 1-.8 1.3-1.2.3-.6.6-1.2 1.4-.8.7.4.8 1.9.2 2.4-.3.3-.8.4-1.2.6-1.4.6-2.8 1.3-4.2 1.9-1.4.7-2.8 1.4-3.4 2.9-.7-.3-1.2-.6-2-.9.5-1.1 1-2.1 1.7-3.5-3.7 1.3-7 2.4-9.6 5.1-.8.8-1.1 1.8-.8 2.7.3 1.3-.3 1.8-1.3 2.3-.7.3-1.2.8-1.9 1-2.9 1.2-4.5 3.5-5.2 6.5-.1.3-.3.8-.5.9-2.2.7-1.8 2.5-1.6 4.1.4 2.8-1.2 4.6-3.2 5.5-2.2 1-3.4 2.9-5.1 4.4-1.6 1.4-1.8 2.8-.9 4.8.8 1.5 1 3.3 1.5 4.9.4 1.3.1 2.5-.1 3.7s-1 1.6-1.8.8c-.9-.9-1.9-1.7-2-3.1 0-.5-.3-1.1-.3-1.6-.6-4-1.4-4.8-5.3-5.1-2.2-.2-4.4 0-6.5-.5-.6-.2-1.1.1-1.4.6-1.5 1.8-3.4 1.7-5.5 1.3-2-.5-3.7-.3-5.7.7-2.2 1.1-3.4 2.8-3.9 5.1-.9 3.8-1.2 7.6-.3 11.3.5 2 1.6 3.8 3.2 5.2 1 .9 2.2 1.6 3.8 1.1.4-.1.9 0 1.4 0 2.1 0 3.9-.4 4.5-2.9.1-.7.7-1.3 1-1.9s.7-.8 1.3-.8c1.2 0 2.3 0 3.5-.5 1-.4 1.3.3 1.1 1.2l-1.7 6.8c-.1.5-.3 1.1-.4 1.6-.2.8.2 1.2 1 1.2h2.5c.7 0 1.5-.1 2.2 0 2.7.3 3.7 1.7 3.3 4.4-.2 1.5-.2 3.1-.4 4.6 0 .7.2 1.2.8 1.6.5.4 1 .8 1.3 1.3 1 1.6 2.3 1.9 4.1 1.4 3.5-.9 3.5-.7 7.1 1.1.7-1 1.4-2 2-3.1.5-.9 1.1-1.5 2.1-1.6 2-.2 3.5-1.3 5.1-2.4.2-.2.5-.2.7-.1.3.1.3.2.3.4 0 1.6.1 1.9 1.3 1.2 1.3-.8 2.3-.7 3.4.2 2.4 1.9 5.3 2.2 8.2 1.5 2.2-.6 4.1.2 6.1.6.6.1.8.5.8.9.1 1.3 1.1 1.9 2.1 2.3 1.5.6 2.6 1.6 3.5 2.9.8 1.3 1.9 1.9 3.4 1.8 3.3-.3 5.9 1.1 8.6 2.8.8.5 1.1 1.2 1.4 1.9.7 1.7 1.4 3.3 1.9 5.1.4 1.4 1.2 2 2.4 2.3 1.6.4 3.1 1 4.7 1.3 1.4.4 2.8.8 3.6 2.2.4.7 1.2.8 1.9.8 1.1 0 2.2.1 3.3.2 2.3.2 4.4.4 6.2 2.3 1.3 1.4 3.1 2.4 5.1 2.7.7.1 1.4.4 1.5 1 .2 2.8 1.2 5.8-1.4 8.2-1.7 1.6-3.1 3.3-4.7 4.9-1 .9-1.7 1.9-1.4 3.3v.5c.4 4-1.1 7.6-2.2 11.3-1.2 3.9-3.5 5.6-7.5 5.9-2.8.2-5.3 2-7.2 4.2-1 1.2-1.2 2.8-1.2 4.4 0 2.2-.8 3.8-2.4 5.2-3.2 2.8-5.4 6.4-7.4 10-.6 1-1.1 1.4-2.3 1.3-1.7-.2-3.5 0-5.3 0 .2 1.4.7 2.5 1.3 3.6 1.1 2.3.2 4.5-2.3 5.4-1.3.5-2.6.9-4 .9-2.2.1-3.4 1.3-3.8 3.4s-.5 2.1-2.7 2h-1.6c-.3 0-.5.1-.8.1.5 2.7.5 2.7 2.2 4.1-1.5 1.2-3 2.5-2.7 4.7.1.4-.4.8-.9 1s-1 .5-1.4.8c-2.3 1.7-2.2 4 .3 5.6 1.3.8 1.5 2.3.3 3.3-1.5 1.2-2.8 2.6-3 4.6 0 .2-.2.6-.4.7-2.1.6-1.9 2.2-1.8 3.7.2 1.5 0 2.9.6 4.4 1 2.7 3.3 4 5 6-2 1.6-4.4 1.5-6.4 2.6-.5.3-1-.3-1.4-.6-1.7-1.3-3.4-2.5-5-3.8-.5-.4-1.1-.9-1.3-1.7-.5-1.5-1.1-2.9-1.6-4.3-.4-1.2-.8-2.5-.6-3.9a1.93 1.93 0 0 0-.3-1c-1.3-1.8-1.4-3.8-1.1-5.9.1-.9.1-1.8.9-2.4s1.1-1.2.2-2c-1.1-.8-.8-1.7 0-2.6s1.1-1.9 1-3 .2-1.7 1.4-1.7c.2 0 .4-.1.5-.2.7-.8.8-1.8.9-2.8s.7-2.2-.8-2.9c-.2.8-.5 1.6-.7 2.3-.1.3-.3.4-.6.3s-.4-.3-.4-.6c0-.4.2-.9.3-1.3.8-3.5 1.7-7 .9-10.7-.5-2.2 1.1-4 1.8-5.9s1.1-4 2.1-5.9c.3-.6.4-1.3.2-1.9-.8-2.7-.3-5.5.5-8.1 1.4-4.3 1.2-8.8 1.4-13.2.1-1.7-.4-3.5.4-5.1.2-.3.1-1-.1-1.3-1.5-1.9-2.7-4.2-5.1-5.1-1.2-.5-2.3-1.2-3.4-1.6-1.3-.5-2.2-1.6-2.8-2.8l-4.4-10.2c-.4-1-1.1-1.6-1.8-2.4-1.1-1.1-2.2-2.2-2.8-3.7-.5-1.4-1.1-2.9.6-4 1-.6.7-1.5.5-2.4-1.1-3.5-.5-4.3 2.3-6.8 1.9-1.8 3.7-3.8 3.6-7-.1-2.4-.4-4.5-1.8-6.4-.5-.7-1.1-1.4-2.2-1.3-1.3 0-1.2 1-1.3 1.7-.3 1.2-1 1.3-1.8.9l-7.9-4.2c-.5-.3-.4-.8-.5-1.2-.6-2.1-2.2-3.5-3.6-4.9-.6-.6-1.4-.8-2.2-1-3.7-.5-7-1.8-9.4-4.7-.5-.6-1.1-.8-1.9-.8-.8.1-1.7 0-2.4.1-2.1.4-4 .1-6-1-3.1-1.7-6.3-3.2-9.6-4.5-1.9-.8-3-2.2-2.8-4.2.3-2.7-.9-4.4-2.7-6.1-3.1-3-6-6.3-9.1-9.4-.5-.5-.9-1.1-1.1-1.8-.2-1-.8-1.8-1-2.8-.3-1.4-1.5-2.4-2.4-2.2-.6.1-.9 2.6-.4 3.5.1.2.3.5.5.6 3.9 3.2 5.2 8 7.8 11.9.2.3.3.7 0 1.3-1.9-.7-3.7-1.8-4-3.8-.2-2-1.2-3-2.7-3.5s-2.2-1.1-1.5-2.8c.4-.9-.1-1.6-.8-2.1-1.8-1.3-2.8-3.2-3.3-5.2-.8-3.2-2.8-5.2-5.7-6.4-1.6-.6-2.7-1.7-3.5-3.3-1.7-3.4-4.1-6.4-5.3-10.1a9.95 9.95 0 0 1-.3-5.4c.8-4 .4-8.1.7-12.2.1-1.8-.9-3.5-1.3-5.3-.1-.6-.6-.9-1-1.2-1.2-1.1-2.3-2.3-3.7-3.2-1.7-1-2.8-2-1.4-4 .3-.4.2-1.1-.2-1.5-1.2-1.5-1.8-3.6-3.7-4.6-1.2-.7-1.3-2-1.4-3.1 0-1.9-1.1-2.6-2.6-2.8-1.7-.2-2.9-.7-3-2.7 0-.5-.2-.8-.7-1.1-2-1-3.3-2.7-4-4.9-.7-2.1-2.2-3.4-4-4.6-1-.7-2.1-1.3-2.6-2.6-.3-.8-1.1-1.1-2-1.2-2-.2-3.8-1.3-5.9-.5-.7.3-1.4-.2-2-.6-3.8-.6-5.7-1.6-7.9-2.8zm107.9 45.8c1.5.8 2.9 1 4.3-.1.5-.4 1.3-.4 1.7.2 1.2 1.6 2.9 1.1 4.5 1.1 1.7 0 2.1-.6 1.7-2.1-.4-1.8-3.5-4.2-5.4-4.2-.7 0-1.5-.3-2.1.3-1.4 1.7-3.4 2.9-4.7 4.8zm-54.6-68.7c.1-.7.2-1.4.2-2.1.1-.9-.6-1.2-1.2-.9-2.1.9-4.2 1.7-6.3 3.3 1.3.4 2.3.2 3.2.8-.6 1.1-1.3 2.2-1.7 3.4-.4 1.1.3 1.7 1.5 1.6.9-.1 1.4-.9 1.8-1.5.7-1.2 1.8.6 2.3-.4.6-1.3 1.5-1.8 2.9-1.8.8 0 .8-.9.8-1.5s-.6-.5-1-.6c-.8-.2-1.6 0-2.5-.3zm72 78.5c.4-1.8 1.1-3.2 3.3-3.5.8-.1.5-1.1.1-1.8-1.4-2.3-3.7-1.9-5.8-1.9-1.3 0-1.7.7-.9 1.9.3.6.6 1.1.5 1.8-.2 1.9.9 2.9 2.8 3.5zm-10.1 4.1c1.9-.8 2-2.1 2-3.5.1-2-1-4.4 1.8-5.6.5-.2.3-1 .2-1.5-.1-.4-.4-.6-.8-.6-.9 0-3.4 1.8-3.4 2.7 0 2.7-.2 5.4.2 8.5zm-52.3-64.9c.2 1.8-1 2.7-2.3 3.5-.5.3-1 .5-.9 1.2.1.9.9.8 1.5.8 1.4.1 2.8 0 3.7-1.1.6-.7 1.7-.8 2-1.9-.5-.4-1-.9-1.6-1.3-.7-.5-1.3-1.1-2.4-1.2zm31 31c-.5 0-.7.2-.8.6-.6 1.4.8 4.3 2.2 4.8.5.2.9.1 1.1-.4s-.8-4.4-1.2-4.6c-.5-.2-.9-.3-1.3-.4zm35.7 32.5l-.5-.5c-.5-.3-.9-.8-1.7-.3-1.1.8-2.9.4-3.8 1.8-.4.7 0 1.1.9 1.2 2.2.1 3.5-1.4 5.1-2.2zm1.5-116.8c-.5 0-1.1 0-1.6.1-1 .1-.9.9-1 1.6 0 .8.4 1 1.2 1.1 1.3.2 2.2-.3 2.9-1.4.5-.7.4-1.2-.5-1.3-.3-.1-.7-.1-1-.1zM221 19.6c3.1-.7 3.2-.7 4.3 1.8.6 1.4 1.8 2.3 2.9 3.2 1.3 1 2.1 2.2 2.6 3.7.3.9.7 1.9 2.1 2-.4-3.1-.7-6-3.5-7.9-1-.7-1.3-1.7-1.3-2.9 0-.7-.4-1.5.4-1.9.7-.4 1.5-.8 2.2-.1.3.2.6.3 1 .5.7-.8-.1-1.5-.1-2.3.5-.7 1.8-.2 2.3-1.3l-4.3-.7c-.5-2.1.6-3.1 2.3-3.6.9-.3 1.9-.6 2.4-1.2 1.3-1.7 2.7-1.3 4.2-.7.7.3 1.4.4 2.1.5.5.1.8-.1 1.1-.6.5-1.3 2.7-4.7 3.4-5.1 1.3-.6 2.7-1.1 4.1-1.5 3.5-1 7.1-1.6 10.7-1.3.6.1 1.3-.1 1.8.4 1.5 1.6 3.5 1.8 5.5 1.8 1.1 0 2.1.4 2.9 1.2.8.9.9 1.6-.2 2.2-1.2.7-2.5 1.4-4 2.2 1.8.5 3.2 0 4.6-.3 1.9-.4 2.8.1 2.6 1.9-.2 1.4.3 1.6 1.5 1.9 1.8.3 3.4 1.3 4.9 2.3 2 1.3 2.3 3.7.8 5.5-.9 1.1-1.8 2.5-3.7 2.2-.6-.1-1.6.3-2 .8-1.1 1.5-2.7 1.3-4.2 1.3-1.4 0-2.8.2-4.1 0-3.7-.6-5.9 1.9-8.4 3.8-.6.4-.6 1.1-.1 1.9l6.4-3.4c2.2-1.1 4.6-.5 7-.5.2 0 .5.2.6.5.1 1 .3 2 .3 3 0 .7-.9.8-1.4 1.2-.7.6-1.5 1-2.2 1.6-.3.2-.9.5-.4 1 .3.3.7.6 1.2.4.3-.1.6-.4.9-.6 1-.7 2.1-1.4 3.1-2.2.9-.8 2-1.5 2-3 0-.5.4-1 .6-1.5.3-.8.9-.7 1.6-.7s.9.5 1.1 1c.7 2.4.8 4.8 0 7.2-.5 1.6-1.2 3.2-1.7 4.9 1.9-2 3.1-4.6 5.1-6.7.2.3.4.5.6.7 2.1 1.9 4 1.5 5.1-.9.5-1 1-1.9 1.4-2.9 1.5.4 2.8 1 4.3 1.3s2.6 1.2 3.3 2.6c.8 1.6.5 3.1-.9 4-1.1.7-1.9 1.7-2.8 2.5-.4.4-.9.7-.9 1.3 0 .8.1 1.7-.8 2.2s-1.7 1-2.8 1h-2.7c.1 1 .8 1 1.4 1.1.9.2 1.6.6 1.6 1.6 0 1.1-.7 1.8-1.7 2.1-.8.2-1.7 0-2.3.9.8.5 1.9 1 1.5 2.2-.3 1.1-.8 2.2-2.1 2.2-1.7 0-1.6 1-1.6 2.2v2.5c.1 1-.1 1.8-.9 2.4-2.4 1.6-2.5 4-2.7 6.5 0 .3-.1.6 0 .8.2.9-.7 1.8-.2 2.6s1.7.6 2.5.9c.9.3.9.3 1.7 2.5-.4.8-2 .5-1.9 1.7.2 1 1.2 1.2 2.1 1.5 1.5.4 2 1.9 1.3 3.2-.4.7-.7 1.1-1.7.6-2.1-1.1-3-.8-4.2 1.2-.9 1.5-.5 2.2 1.3 2.6 1.2.3 1.6 1.2 1.8 2.1.3 1.2.4 2.5.6 3.8.1 1.1.6 2.3-1.2 2.6-.7.1-1 .9-.4 1.7.8 1.1.3 2.9 2.2 3.4.6.2.3.9-.2 1.3-.9.7-2.2 1-3 2.1-.2.4.2.7.4 1.1.8 1.7.2 3-1.6 3.4-1 .2-2 .3-3.3.4 1.5 1.7 1.8 3.4 1.6 5.3-.2 2.4-.1 2.4-2.5 1.4 2.8 2.4 3.9 5.4 3.6 9 0 .7.3 1.5-.9 1.7-1.6.3-2.7-.1-3.1-1.2-.3-.7-.4-1.4-.7-2s-.9-1.1-1.8-1.1c-.5.9-.2 1.9-.3 2.9s-1.1 1.4-1.5 2.3c2.1.7 4.3.9 6.2 1.9.1.7-.2 1.3-.6 1.7-2.8 2.6-5.4 5.6-9.4 6.7-2.2.6-4.3 1.8-6.8 1.9-1.4 0-2.3 1.6-3.1 2.8-.1.2-.1.5-.2.8-.8 3.1-2.9 5.3-5.4 7.2-1.1.8-2.2 1.1-3.6 1.1-1.4.1-3-.1-3.3 1.9-2.2 1.1-1.7 3.1-1.7 5 0 1-.1 1.9-.7 2.8-2.1 2.8-2.7 6.2-3.2 9.7-.1.8-.1 1.6-.3 2.4-.4 1.7-2.2 2.3-3.5 1.1-.4-.4-.8-.7-1.1-1.2-1-1.5-2.2-2.4-4.1-1.9-.8.2-1.5-.1-2-1-2.8-4.7-5.1-9.6-6.8-14.8-.6-1.8-.6-3.7-2-5.1-.2-.2-.4-.5-.3-.7.7-2.1 0-4-.6-6s.8-3.9 1.1-5.8c.1-.5.5-.7 1-.7 2.2 0 2.8-1.2 2.9-3.3.1-1.3.1-2.7.3-4-.9-.5-1.8-.9-2.8-.9-.3.5 0 .9.1 1.3.2.7.7 1.3 0 2-.8.7-1.8 1.1-2.8.7-.8-.3-1.7-.9-1.6-2 .1-1.5.3-3.1.5-4.6.1-.7.6-1.1 1.3-1.1.6 0 1.3-.1 1.9.1.8.3 1.7 1.2 2.3.1s-.5-2.3-1.2-2.6c-1.3-.6-1.8-1.4-1.7-2.7-1 .3-1.8.7-2.7.9-1.5.4-2.1.1-2.1-1.5l.1-6.6c0-4.7-1.5-9.1-2.3-13.6 0-.2-.1-.4-.2-.5-2.2-1.2-2.3-3.5-3.1-5.5-.8-1.8-2.8-2.7-4.3-4.1-.9-.9-2.1-1.4-3.3-1.6s-2.3-.3-3.4.6c-.4.3-1.2.9-1.4.8-1.9-1.5-3.5.7-5.4.3-2.4-.5-2.9-.9-2.5-3.3.2-1.3-.5-1.9-1.5-2.2-1.5-.3-2-1.4-2.6-2.8 2.8-.8 4.9-3.2 8.1-2.8.5.1.9-.1.9-.7 0-.3 0-.6-.1-.8-.4-.4-.8-.1-1.2.1-2.4 1.4-4.5 1-6.4-.8-1.5-1.6-3.7-2.6-4.1-5.2-.2-1.3-.1-2 1.1-2.6 1.1-.5 2.1-1.1 3.1-1.7.8-.5 1.8-.8 2.2-1.5 1.2-2.2 3.2-2.6 5.4-3 2.1-.3 2.6-2.4 3.2-4 1.6-4.4 1.1-5.1-3.6-6.1-1.6-.4-2.3-1.4-1.4-2.7 2.1-3.2 4.4-6.2 6.6-9.3.4-.6 1.1-.7 1.7-.4.7.3 1.3.6 1.8 1.2.4.6.6 1.9 1.7 1.1.9-.6.2-1.7-.2-2.2-1.5-2.3-.7-4.8-.9-7.2-.1-1 .7-1.4 1.5-1.7 1.2-.3 2.3-.7 2.2-2.3 0-.8.7-1 1.3-1.2 2.3-.9 4.5-1.8 6.8-2.8.6-.3.7 0 1.1.4.5.5 1 .9 1.7.6 1.3-.5 1.9.5 2.3 1.3.5 1 .9 2.2 1.3 3.3.3 1.1 1.2 1.1 2 .9.9-.2.6-1 .5-1.6-.3-2.8-.8-4.9-1.3-7.2z"/><path d="M157.4 73.6v-1.4c0-3.1 0-3.1-2.9-3.9-1.1-.3-1.6-.8-1.5-1.9.1-.6 0-1.3 0-1.9-.4-.3-.6.2-.7.4-1.2 3.5-4.2 3-6.8 2.9-1.2 0-2.3-.9-2.3-2.2 0-1.1-.5-1.5-1.3-2.1-1.6-1.4-1.6-2.4-.2-4.2.4-.6.9-1.1 1.3-1.7.3-.4.4-.8.1-1.2s-.7-.6-1.2-.5c-.8.2-1.5.5-2.3.7-1.1.3-1.8-.2-1.9-1.3a3.94 3.94 0 0 0-1-2.7c-1.1-1.4-1-2.3.5-3.9.4-.5 0-.6-.1-.8-1-2.2-.8-4.1.9-5.6.7-.6.7-1.1.8-1.9.2-2.4.2-2.4 2.6-3.2.2-.1.3-.2.5-.4.1-.9-1-1.2-1.2-1.9.1-.1.2-.3.3-.4 2-.4 3.3.1 3.9 1.9.6 1.7 1.4 3.3 1.7 5.2.1.5 0 1.2.7 1.4 1.7.6 2.6 2.8 4.8 2.6.9-.1 1 .5 1.1 1.2.1 1.3.5 2.5.5 3.8-.1 2.6 1.3 3.7 3.5 4.2.3-.3.1-.5-.1-.7-2.1-1.3-2.3-3.3-2.1-5.4.1-1.9.7-2.4 2.6-2 .7.1 1.4.5 2.1.7s1.2.9 2.2.7c-.2-1.7.7-2.6 2.3-2.9.7-.2 1.3-.6 2-.7 2-.2 2.7-1.9 3.6-3.3.2-.3.4-.7-.1-.9-.3-.2-.7-.2-1-.2-.7.1-1 .7-1.5 1.1-1.6 1.6-3.3 2.8-5.8 1.8-.6-.3-1 .2-1.4.5-1.3.7-2.5.7-3.8 0-1.2-.7-2.3-1.4-3.8-1.4-1 0-1.9-.6-2.1-1.8-.2-1-.3-2.2-1.6-2.5-.3-.1-.4-.5-.2-.9.6-1.5.8-2.9-.6-4.2-.5-.5.2-1.2-.2-1.8-.8-.3-1.6.5-2.4.1 1.3-4.6 3.9-6.5 8.4-6.4 1.1 0 1.2-.5 1.2-1.3.1-1.2-.1-2.5 1-3.5.8-.7 1.5-1 2.4-.4.3.2.6.3 1 .5 2.8 1.6 2.8 1.6 3.5-1.4.2-1 .3-2.1 1.9-2.1 1.5.1-.4-1.6.8-2 .6-.2 1.7.1 1.7-1.2-.1-1.2.6-1.5 1.8-1.1.7.2 1.4.1 2.2.2 1 .2 1.5-.2 1.5-1.3-.1-1.6 1.3-2.2 2.3-2.1 1.3.1 2.9-.9 3.9.9.3.5 1 .4 1.5.1 1.6-.8 3.4-.3 5.1-.5s2.4 1.5 3.8 1.9c1.3.3 3.1-.1 3.6 1.8.2.7.8.7 1.3.7h1.6c2.7 0 2.8 0 3.4 2.6.3 1.3 1.3 1.9 2.3 2.5.6.4 1.6.4 1.6 1.2.1 1.1.4 2.2-.4 3.1-2.4 2.6-4.1 5.8-7.8 6.9-.6.2-1.2.5-1.7.8-.7.4-.7 1.1-.5 1.7.3.7.9.2 1.4.1.8-.3 1.6-1.3 2.4-.3.6.9-.3 1.7-.9 2.4-1.4 1.6-2.9 3.2-4.3 4.9-1.2 1.5-3 2.7-3.2 4.9 0 .4-.5.7-.8 1.1-1.2 1.3-2.3 2.7-2.5 4.7-.1 1.5-.9 3-2.9 2.9-.6 0-1 .1-1.3.8-.5 1.5-1.9 1.9-3.3 2-.5.1-1.1 0-1.6.2-.5.1-1 .5-1 1.1 0 .5.3.8.8.9.2 0 .4 0 .5.1.5.1 1.2-.2 1.2.7 0 .8-.6.7-1.2.8-1.1.2-1.1.8-.4 1.5 1.7 1.8 1.7 1.8.5 4.1a1.93 1.93 0 0 0-.3 1c0 2.5-1.1 3.8-3.7 3.9-1 0-1.2 1-1.1 1.9.2 1.6-.1 2.8-1.7 3.6-1 .5-1 1.5-.8 2.4.2 1 1 .8 1.7.9 1.1.2 1.5 1.9.6 2.8-1.1 1.1-2.3 2-3.6 2.9-.9.6-1.7.3-1.9-.7-.3-1-.8-1.5-1.7-1.2-2 .7-4.4-.4-6.3 1.4-.6.6-1.6.2-2.4 0-2.3-.8-4.6-.8-7.2-1.4.2 1 1.7 2 .1 2.8a.78.78 0 0 0-.2 1c1.1 1.3 1.6 3.3 3.8 3.6.6.1 1.3.1 1.9.4 1.2.7 2.1.5 3.2-.3.8-.6 1.7-1.1 2.6-1.4 3.4-1.2 6.1-.4 8.5 2.3.1.1.4.3.3.4-.6 1.4.2 3.1-.7 4.5-.5.8-1.1 1.3-2.1 1.4-2.5.2-4.9.1-7.4.2-1.4 0-2.9-.3-4.3.5-.4.2-1.1.2-1.3 0-1.6-1.3-3.4-.8-5.1-.8-2.4 0-3.4-2.8-3.5-5-.1-1.2.1-2.4.1-3.5 0-.9-.2-1.8-.4-2.7-.3-1.3-1.1-1.9-2.4-1.6-.9.2-1.8.5-2.6-.1-1-.9-2.1-1.8-2.8-3-.9-1.5 0-2.9 1.8-3 1.7 0 3.2.4 4.3 1.9.5.6.7 1.5 1.8 1.4 1.3-.1 2.6.2 3.7-.6.9-.7 1.8-1.5 2.7-2.3.5-.4.8-.9 1.4-1.2 2.1-.9 2.1-.9 1.3-3.1s-.8-3.1.3-3.6c1.7-.7 2.3.9 3.1 1.9.6 0 .7.6 1.6.5zm423.5 312.3c-.4-.7.8-1.3.1-2.1-.9.1-1.8.5-2.6 1.1-1.1.8-1.6.3-2-.7-.1-.4-.3-.9-.6-1.2-.9-.9-.6-2.6-2.1-3-2-.6-3.8-1.6-6.1-1.2-2.5.4-4.9 1.2-7.5 1.2-1.2 0-2.2.8-3.1 1.7-1.9 1.9-4.1 2.8-6.9 2.4-1.6-.2-3 .3-4.3 1.2-1.7 1.1-3.7 2-5.8.5-1.1-.8-1.7-1.6-1.2-3 1.2-3.2.3-6.1-1-9-1.1-2.4-2-4.9-1.6-7.6.1-.8-.2-1.6-.3-2.4-.3-2.6-.2-4.8 2.5-6.6 1.9-1.2 3.8-2 5.9-2.5 1-.2 1.9-.6 2.9-.7 3-.4 4.2-2.5 5-5 .3-1.1.8-1.5 1.7-1.8 1.4-.6 2.8-1.3 3.5-2.8s2.4-1.8 3.9-2.2c.8-.2 1.1.4 1.6.7 1.6 1.2 2.5 1 3.4-.8l.3-1c.7-1.8 1.9-2.6 4-3 2.4-.4 4.7 0 7 .2 1.4.1 1.8.4 1.2 2.2-1.5 4.1-1.8 3.1 2 5.7l3.9 2.4c1.5.9 2 .7 3-.7 1.6-2.1 1.3-4.5 1.6-6.8.2-1.3.8-2.4.7-3.7 0-.3.1-.7.5-.8.5 0 .9.2 1 .7.2 1.3.8 2.4 1.1 3.6.4 1.2.9 2 2 2.3 1 .3 1.4 1 1.6 2 .1.7.6 1.4.6 2.1.2 3.4 1.8 5.7 5 6.9.4.2.8.4.9.9.5 1.7 1.4 3.1 3.1 3.9.2.1.5.4.5.6-.1 2 1.6 2.7 2.7 3.8 1.2 1.1 1.7 2.3 1.9 4 .3 3.1.7 6.1-.1 9.2-.2.6-.1 1.2-.6 1.8-2.9 3.1-3.9 7-4.9 11-.5 1.9-1.1 3.4-3.5 3.3-1-.1-1.8.5-2.3 1.3-.9 1.4-2.1 1.4-3.3.5-1-.7-1.7-.6-2.7 0-2.8 1.5-7.6-1.1-8-4.2-.1-1-.3-1.7-1.2-2.3-.6-.4-1.3-.8-1.5-1.8-.1-1.3-1.3.5-1.9-.3zM102 106.7c.6.8-.1 1.9.5 2.6.4.2.7 0 1-.2 2-1.1 2.7-1 4 .9.2.2.2.5.4.7.3.4.8.4 1.2.3.6-.1.5-.6.6-1.1 0-.5-.6-1 .1-1.6 1.7.9 3 2.1 3.4 4.2.1.4.1.8.2 1.1.3.5-.1 1.6 1 1.2.7-.2.5-1 .4-1.7l-.7-4.8c-.3-1.7-.2-2 1.5-2 1.2 0 1.4-.5 1.4-1.5-.1-1.6 1.1-1.3 2.1-1.4 1.2-.1 1.4.7 1.4 1.6 0 .8.1 1.8-.3 2.4-1.6 2.6-.4 5.1.3 7.5.3 1.1.6 2.1.5 3.2-.2 2.3.9 3.8 2.7 4.9.8.5 1.7 1.1 2.6 1.5.6.3.9.8 1.2 1.4.4 1 .2 1.5-.9 1.6-.5 0-1.1.1-1.7.1l.6 1.4c.6 2 0 2.9-2 2.9-1.6 0-3.1.3-4.5-1.1-1-1-2.7-1-3.9.2-2.6 2.6-6.2 2.2-9.4 3.1-.6.1-1-.1-1.3-.7-.3-.7-.7-1.3-1-1.9-.4-1-1-1.5-2.1-1.3-2.1.4-3.2-.8-4.1-2.4-.7-1.3-.7-1.7.6-2.4 1.6-.9 3.3-.7 5.1-.7h1.1c.7 0 1.6.6 2-.3.5-1.1-.8-1.2-1.3-1.7-.7-.7-1.8-.7-2.6-.5-1.4.5-2.9 0-4.3.6-1.3.6-1.6-1.2-2.7-1.3.1-1.3 1.2-1.9 1.4-3.1-3-2.2-3.3-3.2-1.9-6.6.3-.7.4-1.4.6-2-.4-.4-.9-.5-1.3-.1-1.4 1.4-2.8 2.9-2.9 5.1 0 1.7-.5 2.8-2.4 3.1-.3 0-.5.2-.7.4-2.3 1.1-2.4 1.2-3.5-1-.5-1-1.3-1.5-2.2-1.9-1.2-.6-1.3-1.4-1-2.4l1.9-6.5c.8-1.9.7-3.7 0-5.5-.6-1.5.2-2 1.3-2.3 1.3-.3 2.7-.4 4-.6.8-.1 1.6 0 2 .6 1.2 1.5 2.9 1.3 4.5 1.4 2 0 5.1 2.9 4.8 4.8-.2 1.7.4 1.9 1.7 1.8.1-.2.4 0 .6 0zm259.9-58.8c.5-.6.4-1.1.4-1.5.2-1 .7-1.3 1.4-.4.4.6.8 1.1 1.5.9 2.2-.6 3.5 1.1 5.1 2 1 .5.9 1.9 0 3.1-.9 1.1-1.9 2-2.2 3.6-.3 1.3-2 1.9-3.4 1.8-1.8-.2-3.6-.4-5.3-1.2-2-.9-2.1-1.5-.5-3.2-2.4-1.1-2.4-1.1-4.8-.8.3 3.2.9 6.2 4 8.1 1.1.7 1.7 1.8 2.3 3.1.7 1.5.8 3.7 2.9 4.5 1.1.4.3 1.9 1.5 2.7 1.2.7 0 1.9-.4 2.7-.3.6-.2 1.5-1.1 2-.7-.7-1-2-2.5-1.5-.9.3-1.2-.4-1.1-1.3.5-4 .3-4.9-1.5-8.7-1.5.2-2.3 1.1-2.6 2.6-.7 3.3-1.7 6.6-2.4 10-.3 1.4-.6 2.8-1.1 4.2-.2.5-.3.9-.8.9s-.8-.4-.9-.9c-.4-1.8-1.8-2.9-3-4.1-1.8-1.9-1.8-1.9.1-3.7.1-.1.1-.3.2-.5-.1-.4-.4-.6-.8-.6-.9 0-1-.6-1-1.3 0-.6-.1-1.1.7-1.5 2.1-1 2.3-1.3 4-3.6-.9-.5-1.7-.9-2.7-1.5-.7 1.2-.9 2.7-2.3 3.2-.5.2-1 .4-1.2-.1-.9-1.8-2.8-3.2-2.3-5.6.3-1.3 0-2.5-.9-3.6-.2-.2-.3-.5-.4-.7-.4-1.6-.9-3.3.3-4.7 1-1.1 4.4-1.2 5.8-.4l2.3 1.3c.3-.6.6-1.2.9-1.9l.6-1.8c1.3.1 2.1 1.4 3.4 1.1.4-.4.3-1 .3-1.5 0-.6-.1-1.4.4-1.8.9-.7 1.9-1.3 2.7-2.1.3-.3 1 .1 1.5.4.7 1 1.7 1.6 2.9 2.3zm64 74.3l-2.4-.2c-.5 0-1-.1-1.2-.5-1.1-1.8-2.6-3.2-4.1-4.6-.8-.8-.8-2.3.3-3.4.9-1 1.6-1.9 1.4-3.3-.2-1 .6-1.7 1.2-2.3 1.1-1.1 1.9-2.3 1.3-3.9-.3-.7 0-1.2.5-1.6 2-1.8 2.9-4.1 2.9-6.7 0-1.4.7-2.6 1.8-3.5l7.8-6.7c.7-.6 1.5-.5 2.3-.6 2.1-.3 4.3 0 6.2-1.6.6-.5 1.2-1 1.7-1.7.3-.4.5-.8.7-1.1.7-1 2.6-1.7 3.4-1.3.6.3 1.2 2.3.9 3.3-.5 1.7-1.7 2.9-3.3 3.8l-8.4 4.5c-1.8 1-3.5 2.3-4 4.5-.1.3-.2.6-.6.9-3.2 2-4.2 5.6-5.9 8.6-.4.7-.7 1.4-1.1 2.2-2 3.7-2.6 7.5-1 11.5.3.8.7 1.7 1.5 2.2.6.4.9.9.5 1.6-.4.6-.9.4-1.5.2-.5-.4-.7-.4-.9-.3 0-.1 0-.1 0 0zm72.8-71.9c-1.3 1.3-1.4 3.2-3.3 2.8-1.4-.3-1.2-1.7-1.6-2.6-.6-1.5 1.7-.7 1.8-1.8.1-.6-.4-.9-.7-1.4-.4-.8-.6-1.6.1-2.2 1.4-1.3 1.6-3 1.8-4.7.1-1.1.5-1.8 1.5-2.4 1.2-.7 2.4-1.6 3.8-2.5l3.2 5c.3.5.2 1-.1 1.5-1.1 2.4-.6 4.7.4 7 .3.7.7.9 1.5.9 2 .1 3 1.2 2.8 3.2-.1 1-.1 2-.5 2.9-.5 1.2-.3 2.2 0 3.4.5 1.9 0 2.4-2 2.6s-3.4-.8-5-1.6c-1.7-.9-2.5-2.2-3.5-3.8-1.3-2.1-.7-3.8-.2-6.3zm83.1 281.1c2-3.3 1.6-4.8-1.2-6.2l-4.9-2.3c-.6-.2-1.2-.9-2-.4-.4.3-1-.1-1.1-.5-.7-1.7-1.5-3.3-3.1-4.3-.5-.3-.1-.8.3-1.1 1.4-1.2 4.4-.4 5.2 1.4l.7 1.8c.3.5.6.9.9 1.3.8-.5 1.7-.9 2.3-1.5 1.7-1.5 3.7-1.4 5.6-.7l9.4 3.5c1 .3 1.8.8 2.3 1.7.5.8 1 1.5 1.9 1.8 1.3.5 2.2 1.2 1.8 2.8-.2.9.7 1.4 1.3 1.9l4.1 3.6c-2.1.8-4.3.3-5.5-1-.6-.6-1.1-1.2-1.6-1.8-1.8-2.2-3.9-2.1-5.6.2-1 1.4-3.5 1.8-5 .4-1.7-1.3-3.3-1.9-5.8-.6zm-36.2-26.5c-.1.3-.2.5-.3.6-2 1.7-2.5 3.6-1 5.9.6 1 .6 1.9-.5 2.8-1.2.9-1.4 2.5-1.9 3.8l-1.2 3.6c-.5 1.1-1.8 1.7-2.7 1-2-1.6-4.5-1.1-6.7-1.7-1.2-.3-1.8-.6-2.4-1.7-.8-1.5-1.8-2.9-1.9-4.7-.1-1.5.5-2.3 1.9-2.4 1.3 0 2.1-.6 2.8-1.7.3-.4.8-1 1.2-1 2.2-.3 3.4-2 4.8-3.3l3.4-3.2c1.1-.9 1.9-.9 2.8.1l1.7 1.9z"/><path d="M104.1 94h-4.5c-3.2-.1-4.2-1.9-2.6-4.6.4-.6.8-1.2.8-2-.2-2 1.3-3.1 2.5-4.3.6-.6 1.3-.6 1.8.2.2.3.4.8.7.8 2.6.5 3.3 2.8 4.5 4.6.7 1 3.3 2 4.5 1.5.4-.2.9-.6.4-1-1-.9-1.3-1.8-1-3.1 0-.1 0-.4-.2-.5-2.1-1.7-.3-3 .4-4.5.2-.5.6-.7 1.1-.6.6.1.6.6.7 1l.2 2.4c.3 2.4 1.2 3.2 3.5 2.7 1.3-.3 1.7.4 1.9 1.3.3 1.6.1 3.3-.4 4.8-.3.9-1 1.6-2.1 1.4-3.4-.7-5.9 1-8.3 3-1.5 1.2-2.8 1.3-4.4.4-1.3-.7-1.5-1-.5-2 .1-.3.7-.5 1-1.5zm297.6 265c0-.8 0-1.3.6-1.9 2.1-2.1 1.7-4.8 1.3-7.4-.2-1.5.2-3.1 1.5-3.5 3.3-.9 5.2-3.1 6.6-6 .2-.3.4-.6.7-.8.7-.6 1.6-.5 1.7.3.2 2.1 2.2 4 .2 6.3-1.1 1.3-.9 3.2-1.4 4.9-1.1 3.5-1.9 7.1-2.9 10.7-.7 2.5-1.8 3.5-4.4 3.5-1.5 0-2.5-1.1-3.2-3.4-.2-.9-.9-1.7-.7-2.7zm-91.3-154.8l1.1-2.2c.2-.4.4-1.1.2-1.3-2.2-1.4.4-3.2-.4-4.7-.2-.4.3-.8.8-1 1.3-.5 1.7-1.2 1.1-2.7-.4-1-.4-2.1-1.8-2.3-.3 0-.7-.1-.7-.3-.2-2.3-2.7-3.4-3-5.6-.2-1.8 1.2-5.8 2.7-6.7.7-.5 1.7-.5 2.3 0 .8.6-.3 1.5 0 2.4.7.7 1.9 0 2.8.5.3.8-.3 1.5-.5 2.3-.4 1.6-1 3.1.7 4.4.6.4.8 1.4 1 2.2.2.7.4 1.4 1.1 1.8 1.1.7 1.6 1.7 1.7 2.9.2 1.2.6 2.2 1.8 2.5 1.3.4 1.1 1.2.7 2.1-.2.5-.4 1-.7 1.4-.5.7.8 1.6-.3 2.2-.8.4-1.6.2-2.4.3-2.1.3-4.4.1-6.2 1.5-.4.3-1.1.2-2 .3zM275.8 152l1-2.8c-.2-.4-.4-.5-.7-.5-.7-.2-1.7.4-2.1-.8-.2-.6 1.1-2.6 1.8-2.8.9-.3 1.8-.2 2.4.8.4.8 1 1.5 1.7 2.4.8-1.6 2-2.3 3.6-1.9 1.6.3 2.8-.6 4.1-1.2s2.3-.4 3.1.7c.9 1.1 2.4 1.7 2.5 3.4.1 2.1-.8 3.7-2.5 4.8l-5.8 3.5c-1 .6-2.1.4-3.2 0l-3.3-1.3c-.5-.2-.9-.5-.8-1 .6-1.6-.8-2.4-1.8-3.3zm237.6 158.9c.5.1.7.4 1 .7-.1.4 0 .8.3 1 1.3.8 2 1.8 2.1 3.5s1.4 2.5 3.2 2.5c1.6.1 2.1.9 1.7 2.4l-.9 3.4c-.4 1.7-1.2 2.1-2.8 1.2-2.1-1.1-4-2.5-5.2-4.6-1.7-2.9-4.1-5.4-5.5-8.6-.9-2.2-3-3.8-4.9-5.4-.3-.3-.8-.5-1-.9-.3-.6-.2-1.3.7-1.3 1.4 0 2.7.1 3.7 1.2.8 1 1.8 1.8 2.7 2.7 1.4 1.6 2.9 2.3 4.9 2.2zm76-78.2c-.1.5 0 1.2-.3 1.6-1.8 2-1.9 4.7-2.4 7.1-.4 1.9-1.3 2.6-3 2.7-2 .1-3.7.7-5.1 2.2-.4.4-.9.8-1.4.4-1.2-1-1.9-.3-2.7.5-.3.3-.5.5-.8.7-.7.4-1.5.9-1.8-.4-.2-.8-.9-.8-1.5-.6-.8.3-.3.9-.1 1.3.1.3.2.7.2 1.1 0 1.4-1 3.1-1.8 3-1.4-.2-1.2-1.5-1.6-2.5-.5-1.3-.3-2.2.9-3.2 2.3-2.2 4.6-4 8.1-3.8 1.7.1 3-.6 3.4-2.5.1-.7.7-1 1.4-1 .8 0 1.6.2 2.2-.7 1-1.5 2.5-2.6 2.8-4.5l.3-3c0-.9.4-1.4 1.2-1.5.9-.2 1.4.3 1.7 1.1.1.5.4 1.2.3 2zM132.9 107.2c2.6.8 2.6.8 2.6 3 0 .8-.1 1.7 0 2.5.4 2.2-.5 3.6-2.3 4.7-1.3.9-2.6 1-3.1-.4-1.1-2.7-3.3-4.3-5.1-6.3-.2-.3-.6-.5-.7-.8-.1-.5.1-1.1.4-1.5.4-.4.9-.3 1.2.1.6.8 1.4 1.5 2.2.5.6-.8.6-1.9-.3-2.7-.3-.3-.7-.6-1-.9l1.1-2.2c.2-.5.5-1 1.2-.9 1 .3 1.7-.1 2.4-.8.6-.6 1.4-.7 2-.1.5.5 1.3.8 1 2-.3 1.3-.2 2.7-1.6 3.8zm453.9-18.9c.5-.2.6-.7.8-1 1.1-1.6 1.3-1.6 2.6-.2.7.8 1.3 1.1 2.3 1.1.9 0 1.7.4 2.4 1.1.4.4.6.8.5 1.5-.4 2.8-2.5 4.5-5.4 4.6h-3c-.5 0-.9.1-1.4 0-.8-.1-.9 1.8-2.2.7-1.1-1-2.7-1.5-3-3.3-.3-2.2-.1-4.3 1.1-6.2.7-1 1.4-1.4 2.4-.3.9.9 1.8 1.6 2.9 2zm-462-2.5c.2-2.1 2.4-2.5 3.3-4.1.6-1 2.3 0 3.6 0 .9 0 1.1.8 1.2 1.5.2 1.6 1 3.1 1.2 4.7.2 1.1 0 2.1-.2 3.2-.3 1.7-1.3 2.5-2.9 2.9-1.9.4-2.6.1-2.6-1.9 0-1.6-.6-2.1-2.1-1.9-1.1.1-2.1.1-2.4-1.4-.2-.7-1-1.3-1.6-1.8-1.7-1.2-1.4-3-1.3-4.7 0-.3.1-.5.5-.6s.8 0 .9.4c.4 1.3 1.4 2.3 2.4 3.7zm-30.8-3l-1.9 3.6c-.4.8-.8 1-1.7.8-.9-.3-2 .1-3-.3-1.5-.6-1.9-2.2-.6-3.1 2-1.4 3.1-3.5 4.3-5.5.9-1.5 1.9-2.9 4-2.7.8.1 1.3-.6 1.9-.9s1.3-.4 1.8 0c.6.4.4 1 .2 1.7-.4 1-.3 2.2-.2 3.2.1 1.1-.1 1.9-.8 2.8-1.3 2-1.8 2-4 .4zm27-26c1.1-.3 1.8.5 2.4 1.3s1.1 2 2.5 1.7c.2 0 .5.1.5.1.4 1.8 2.6 2.3 3.1 3.9.6 1.8.8 3.7 1.2 5.5.1.7.3 1.5-.8 1.7-.8.1-1.3.2-1.7-.8-.7-2-2.4-2.8-4.4-3-1-.1-2-.3-2.9-.5-.8-.2-.9-1.1-.2-1.6.3-.2.7-.3 1-.5.9-.7 1.1-1.4.1-2.2-.8-.6-1.5-1.4-2.3-1.9-.9-.7-.9-1.6-.6-2.4.2-1.2 1.1-1.4 2.1-1.3zm527.4 343.8c2.6.2 3.1 1.1 1.9 3.3-1 2-1.7 4.2-4.2 5.1-.9.3-1.3 1.2-1.5 2.2-.3 1-.7 1.8-1.3 2.7-1.2 1.9-4.8 2.2-6 .3-.7-1-.2-2 .4-3 1.2-2.1 3-3.4 4.9-4.5 2-1.3 3.4-2.9 4.3-5 .3-1 .6-1.5 1.5-1.1z"/><path d="M519.8 63c0 2.8-1 4.1-3.3 4.6-2.1.4-4.3.5-6.2 1.7-.8.5-1.6-.4-1.3-1.3l2.8-8.7c.3-.7.8-1.5 1.3-2 1-1.1 1.8-.9 2.2.6.2.7.4 1.1 1.2 1.5 2 .7 3.2 2.3 3.3 3.6zM300.3 199.4c1.3-1.8 1.5-3.7.8-5.7-.1-.3-.2-1-.1-1 1.7-.6 1.8-2.5 2.9-3.6s4.1-.3 4.8 1c.2.4.2.7 0 1-1.3 1.4-1.1 3.2-1 4.9 0 1.1 0 2.2-1.5 2.3-.7.1-1.2.7-1.9 1.1-1.3.8-2.4.9-4 0zm352.6 201.8c0-1.5.1-2.9-1.6-3.6-.9-.4-.6-1.2-.3-1.9 1-2.3 1.1-4.4-.7-6.3-.5-.6-.9-1.4-.4-2.4.9.1 1.5.5 1.6 1.6.1 1 .5 1.7 1.5 2 .3.1.8.2.9.5.4 1.9 1.9 1.6 3.2 1.6s2.1 1.4 1.2 2.1c-2 1.6-2.7 4-4.1 5.9-.2.3-.5.6-1.3.5zM424.1 37.8c.9.2 1.7.4 2.5.4.5 0 1-.5 1.2-1 .3-.7-.2-.9-.7-1.2-.6-.3-.8-1-1.5-1.2.8-1 2.3-1.3 2.5-2.8.1-.5.7-.5 1.1-.4.8.2 1.4.7 1.8 1.5-.5.7-1.7-.3-1.8.7-.1 1.1-.2 2.6.8 3.2 1.5.8.9 2 1 3.1 0 .2-.1.5-.1.5-1.4.1-2.1 1.6-3.4 1.8-1.2.2-2.3 0-3.3-.8-.7-.6-1.1-1-.4-1.7.8-.6-.1-1.3.3-2.1zm162.6 190.4c-.9-1.9-.8-3.3.8-4.4 1.7-1.2 1.6-3.1 1.5-5.1 2.6.9 4.5 2.5 6.5 3.8.6.4.4 1.2 0 1.4-1.3.7-2.5 1.6-3.8 2.3-.4.2-1.1 0-1.6-.1-2.4-.2-2.4-.2-3.4 2.1zM433 42.8c0-1.8 1.7-3.2 4-2.7 1.3.3 2 .3 2.6-.9.4-.8 1.6-.3 2-1.2.3-.7.3-1.9 1.4-1.6.8.2.4 1.3.5 2 .4 2.3-.2 3-2.4 3.1h-.5c-1.8-.3-2.9.3-3.6 2-.3.8-.8 1.6-2 1.5-1.8-.3-2-.4-2-2.2zm116.2 279.1c-1.4.8.2 2.9-1.7 3.5-.5-1.3-.4-2.6-1.2-3.9-.8-1.2.1-3.3 1-4.8.1-.2.6-.3.7-.2 1.3 1.6 3 .8 5 .6-1.6 1.7-1.9 3.1-.4 4.7.6.6.9 2-.1 2.6-1 .5-1.6-.5-2.1-1.2-.4-.4-.5-1.1-1.2-1.3zm-28.5 5.7c1.9-.6 3.4-1.2 4.9-.3 2.1 1.4 4.5 1.2 6.8 1.1 2.2-.2 3.7.8 5.2 2.5-.9.5-1.8.4-2.5.3-3.1-.8-6.3-.6-9.4-1.1-1.7-.4-3.4-.9-5-2.5zm-343.6-52.2c-2.5 1.3-3.8 1.3-5.4-.4-1.1-1.1-2.2-1.9-3.9-2.2-1.4-.3-3.1-.3-4.2-1.6-.4-.5-1-.3-1.5 0-.7.4-1.5.6-2.3.2 0-.8.5-1 1.1-1 1.9 0 3.8.1 5.7-.2.6-.1 1.3.2 1.8.4l8.2 4.2c.3.1.5.3.5.6zM138.2 67.7c0 2.9-.6 3.5-2.6 3-.6-.1-1.1-.4-1-1 .1-1.4-.8-2.4-1.6-3.3-.7-.8-.8-1.6-.6-2.5.1-.6.1-1.4 1-1.4.6 0 1.3-.2 1.7.4.7 1 1.4 1.8 2.5 2.3 1.2.5.3 1.8.6 2.5zm-28.1 1.4l-.3 2.3c-.3 2.4-1 3.2-3.2 3.5-.8.1-1.4 0-1.7-.9-.4-1.4-1.3-2.3-2.9-2.3-.9 0-1-.7-.7-1.3.2-.7.8-1.2 1.4-.5.9.9 1.6.8 2.5.1 1.1-.9 2.5-.9 4.9-.9zm444.2 220.1c-2.7-.9-3.3-.7-4.2 1.8-.9-1.7-.9-3.6-2.2-4.9-.3-.3 0-.7.1-1l1.2-5.5c.8 0 1.9-.3 2.5.7.5.9 1 1.9.1 3a2.61 2.61 0 0 0-.7 1.7c0 .9-.1 1.8.3 2.7.4 1.2 1.6.6 2.4 1 .1.2.5.1.5.5zm-414.6-193c-2.1 0-3.5-.9-3.5-2.5 0-2.3 1-3.8 2.8-3.8 1.4 0 2.7 1.9 2.7 4.3 0 1.8-.1 2-2 2zm455.7 304.4h3.2c2.6 0 2.7.1 2.7 2.7 0 2.2-1.6 3.7-3.5 3.3-1-.2-1.6-.6-1.8-1.7-.4-1.3-.5-2.6-.6-4.3zM409.2 47.3c.5-1.9 1.3-3.3 3.3-3.7 1.1-.2 1.2-1.2 1.2-2.2-.1-1.1.4-1.7 1.5-1.9.5-.1 2.2 1.7 2.2 2.3-.1.6-.6.8-1 1.2-1.2.9-2.4 1.7-3.2 3.2-1.3 2.1-1.4 2-4 1.1zm143.2 253c.8-.6 1-.9 1.2-.9 1.5-.1 3-.6 4.1-1.6.7-.7 1.3-.3 1.7.3 1 1.5.6 4.3-.9 5.4-.9.7-2.9.3-2.9-.7 0-1.9-1-2.5-3.2-2.5z"/><path d="M188.4 279.5c-1.7.8-3.5.6-5.3.9-.6.1-1.6-.1-1.9-.7-.4-.7-.8-1.5-.4-2.3.3-.6 1.1-.6 1.7-.6 2.3 0 4.7-.1 5.9 2.7zm411.4-188c1.1 0 2-.1 2.6.8.5.7 1.3.6 2 .6.9 0 1.4.6 1.5 1.3.1.9-.8 1.1-1.4 1.3-2.1.7-4.4-.1-5.7-1.8-.4-.5-.7-1.1-.4-1.8.2-.8 1-.3 1.4-.4zm63.6 26c.7 0 1.2-.1 1.6 0 .8.2 1.3.7 1.4 1.5 0 .8-.6 1.3-1.4 1.4l-4.3.5c-.4 0-.9.2-1.1-.5-.1-.4-.1-.8.2-1 1.2-.8 2-2.6 3.6-1.9zM104.8 66.4c.9-2.1 2.7-2.7 4.3-3.4.6-.3 2.2 1 2.3 1.8.2 1.1-.3 1.9-1.5 2-1.6.1-3.2 0-5.1-.4zm367.9 237.4c-1.1-1.8-1.6-3.1-1.5-4.6 0-.7.4-1.2 1-1.5.7-.3 1.2.1 1.7.6 1 1.1 1.2 2.5 1 3.8-.1 1-1.7.4-2.2 1.7zM592 106.2l-3.4-.5c-.8-.1-1.1-.6-1.2-1.3-.1-.9.4-1.4 1.1-1.7 2.2-.7 3.5.5 3.5 3.5zM431.5 45.8c-.7 1.9-2.1 2.6-4 2.8-1.1.1-1.7-.5-1.2-1.4.7-1.3 1.9-2.2 3.2-2.8 1-.5 1.4.8 2 1.4zM26.3 183c-1.1-2.5-.6-3.2 2.8-4.4 1.4 2.8-1.4 3-2.8 4.4zm529.8 130.1c.1 1-.4 1.4-1.3 1.4h-5.2c-.5 0-1-.1-1-.6 0-.4.4-.8.9-.8h6.6zM139.5 74.5c-.8-.2-2.3.6-2.2-1.3 0-.6.2-1.1.9-1.1h2.2c1-.1 1.6.3 1.6 1.4 0 .9-.7 1.2-1.5 1.1-.4-.1-.6-.1-1-.1zm408.8 194.6c.1-.3.1-.9.4-1.4.5-.7.9-2 1.9-1.6s.5 1.5.1 2.3c-.2.4-.1.9-.2 1.3-.2.7-.7 1.1-1.4 1-.9 0-.8-.7-.8-1.6zM411.4 41.3c-1.4.4-2.3 1.3-3.1 2.2-.9 1.1-1.5.5-2.4-.3 1.8-1.1 2.9-3.1 5.5-1.9zm143.7 254.3c-.1.8-1.7 1.5-2.1.8-.7-.9-.7-2.1-1-3.2 0-.1.4-.4.6-.4.9 0 2.6 2 2.5 2.8zM414.3 130.3c.1 1.2-.6 2-1.7 2-.7 0-1.2-.2-1.3-1.1-.1-1 .6-1.9 1.7-2 .9-.1 1.3.3 1.3 1.1zm-283-78c-1.4-.9-2.6-1.4-1.9-3.1.2-.4.2-.9.8-.7.6.1 1 .3 1 1 .1.8.1 1.6.1 2.8zm15.9 20.9c.8.1 1.4.5 1.5 1.5 0 .9-.4 1.7-1.3 1.7-1.2.1-.9-1.2-1.2-1.8-.3-.7 0-1.3 1-1.4zm412.4 258.4c-1 1.1-2.1 1.7-3.1 2.3-.4.2-.8.5-1.1-.1-.2-.4-.1-.8.2-.9 1.1-.7 2.1-1.7 4-1.3zm-351.3 98.2c0 1-.6 1.2-1.2 1.3l-2.6.2c-.1 0-.2-.2-.3-.4-.1-.4.1-.7.4-.9 1.2-.7 2.5-.4 3.7-.2zm395.9-103.6c1.7-.3 2.9-1.3 4.2-2.4-.6 2.6-1.7 3.3-4.2 2.4zm73.9-168.4a3.99 3.99 0 0 1 2.8-.2c.6.1 1.4.4 1.1 1.2-.2.6-.9.5-1.4.3l-2.5-1.3zM120.1 77c-.7-.3-1.4-.3-1.4-1.2s-.2-1.8-.2-2.6c0-.1.3-.2.4-.2.2.1.6.3.6.5.2 1.1.9 2.1.6 3.5zM68.6 195.7c-.4-.1-.8-.2-1.1-.4-.9-.4-.9-1.2-.7-2.1.1-.4.4-.6.8-.5 1 .2 1.2.9 1.1 1.8-.1.5-.1.8-.1 1.2zm386.9-89.1c-1 .4-1.6 1.4-2.4.2-.2-.4-.6-1 .1-1.4 1-.6 1.6.2 2.3 1.2zM557.2 294c-.8-.9-1-1.8-.3-2.7.1-.1.5.1.7.2 1 1.2-.4 1.6-.4 2.5zM163.5 160.3c-.9 1.3-1.4 2.2-2.7 1.9-.2-.1-.5-.5-.4-.6.4-1.2 1.5-1.2 3.1-1.3zm371.2-61.1c-.2.7-.8.9-1.5.9-.6 0-1.1-.5-1-1 .2-.7 1.1-.9 1.8-.9.5-.1.6.5.7 1zm-81.6 324.2c-1.1.8-1.8.8-2.5 0-.1-.1-.1-.4 0-.5.9-.7 1.6-.1 2.5.5zM284.5 94c-.5 0-.9-.1-.9-.7 0-.5.3-.9.8-.9.7-.1.9.5 1 1 0 .5-.5.6-.9.6zM94.8 87.2c.2.9-.1 1.5-.4 2-.2.4-.6.7-1.1.3-.4-.3-.5-.7-.1-1.1l1.6-1.2zm287.7-40.3c-.1.4-.1.6-.2.7-.6.3-1.1.9-1.9.5-.1-.1-.2-.3-.1-.5.5-1 1.3-.6 2.2-.7zM3.8 171.1c0 .6-.5.7-.9.7-.4.1-1 .1-1-.6 0-.6.4-.7.9-.8.5 0 .8.2 1 .7zm117-77.7a.68.68 0 0 1-.7-.7c0-.7.5-1 1.1-.9.5 0 .5.4.5.8 0 .6-.3.8-.9.8zM436.2 38c-.2.6-.7.8-1.2.8-.7 0-.6-.6-.5-1 .2-.6.7-.8 1.3-.7.4.1.5.5.4.9zM563 314.3c-.2-.2-.3-.2-.3-.3-.1-.6-.4-1.2.3-1.6.1-.1.4 0 .5.1.5.7.1 1.3-.5 1.8zm-70.5-277c-.4 0-.9-.2-.8-.7 0-.4.2-.9.8-.8.4 0 .7.2.7.6.1.5-.1.8-.7.9zm-71.2 9.3c0 .7-.5.9-1 1-.4.1-.7-.2-.7-.6 0-.5.5-.7.9-.9.4-.1.7.1.8.5zM167.6 164.7c-.4-.1-.7-.3-.7-.6 0-.6.2-1.1.8-1.2.3-.1.5.2.5.5 0 .6-.2 1.1-.6 1.3zM431.8 28.1c0 .5-.3.8-.8.8-.4 0-.7-.1-.7-.5s.4-.6.7-.7c.4-.1.7 0 .8.4zm-305.1 43c0 .9-.6 1.1-1.1 1.1-.4 0-.7-.4-.6-.7.1-.5.6-.6 1-.7.4-.2.7 0 .7.3zm438.5 250.2c.2.2.9-.9 1.5-.2-.7 1.2-1.3.3-1.5.2zM200.4 206.7c-1 .3-1.8.3-2.1-.8.9-.3 1.3.5 2.1.8zM24.1 277.1c-.1.4-.3.6-.7.6s-.5-.4-.5-.7c0-.4.1-.7.6-.6.3.1.5.3.6.7zM283.7 27.2c-1-.7-.8-1.4-.6-2.1 1.1.4.7 1.2.6 2.1zm258.9 304.2c.8-.2 1.5-.4 2.4-.1-.9.7-1.6.3-2.4.1zm91.2 24.8c.2.5 1 .3 1.1 1-.9.4-.8-.5-1.1-1h0zm-86.3-23.1c.3.1.7.2.8.5 0 .3-.2.5-.4.5-.4 0-.6-.3-.8-.6-.1-.2.1-.3.4-.4zM432.9 49.5c0 .4-.1.7-.5.7-.3 0-.5-.3-.4-.5s.3-.5.5-.6.4.1.4.4zm225.8 300.2c-.2.3-.5.5-.8.3a.76.76 0 0 1-.2-.4c.2-.3.5-.4.9-.3.2.1.2.2.1.4z"/><path d="M470.1 108.5c.1.1.3.3.4.5.1.3-.2.4-.5.4a.47.47 0 0 1-.5-.5c0-.2.1-.4.6-.4zM440 29.9c0 .3-.1.5-.4.6-.4.1-.7-.2-.7-.5s.2-.5.5-.4c.3-.1.5 0 .6.3zm30.7 11.2c-.2-.1-.5-.2-.6-.4-.1-.4.1-.7.5-.7.3 0 .4.2.5.4.2.5-.1.5-.4.7zm163.1 315.2l-.1-.1h.1zM348.6 237c.1 1-.3 1.8-1.1 2.5-.9-.1-1.6-.9-2.5-1-.5 0-.8-.4-.8-.9 0-.6.5-.6 1-.6h3.4zm-10.6-6.3c-.7 1 0 2.8-1.4 2.9-1.1.1-.9-1.4-1.2-2.2-.3-.9.4-1.5 1.3-1.6.8-.2 1.1.2 1.3.9zm-.6-4.5c-.4.3-.2 1.1-1 1-.3-.1-.3-.4-.2-.7.2-.4.2-.9.8-.9.3 0 .5.2.4.6zm45.1 18.2c-.1-.1-.3-.1-.4-.2-.1-.3 0-.5.3-.6.2-.1.5 0 .6.2 0 .4-.3.5-.5.6z"/></g><use xlink:href="#B" fill="#344f88"/><path d="M392 185c0 4.4-3.6 8-8 8s-8-3.6-8-8 3.6-8 8-8 8 3.6 8 8z" fill="#ffcc4d"/><path d="M384 186.7c-1.3 0-2.2-.2-3.3-.4-.2 0-.7 0-.7.7 0 1.5 1.7 3.3 4 3.3s4-1.8 4-3.3c0-.7-.5-.8-.7-.7-1.1.3-2 .4-3.3.4z" fill="#664500"/><path d="M383.4 178.5c-.4-1.1-1.6-1.6-2.6-1.3-.7.2-1.1.8-1.3 1.4-.5-.4-1.2-.5-1.9-.3-1.1.4-1.6 1.6-1.3 2.6.1.2.1.3.2.4.9 1.6 3.4 2.7 4.9 2.7 1.2-1 2.4-3.4 2.1-5.2 0 0 0-.2-.1-.3h0zm1.2 0c.4-1.1 1.6-1.6 2.6-1.3.7.2 1.1.8 1.3 1.4.5-.4 1.2-.5 1.9-.3 1.1.4 1.6 1.6 1.3 2.6-.1.2-.1.3-.2.4-.9 1.6-3.4 2.7-4.9 2.7-1.2-1-2.4-3.4-2.1-5.2 0 0 0-.2.1-.3h0z" fill="#dd2e44"/><use xlink:href="#B" x="79.2" y="85" fill="#344f88"/><path d="M463.1 278c4.4 0 8-3.6 8-8s-3.6-8-8-8-8 3.6-8 8 3.6 8 8 8z" fill="#ffcc4d"/><path d="M462.2 269.5c-.2 0-.4-.1-.4-.3-.1-.3-.5-1-.9-1-.5 0-.8.8-.9 1s-.3.4-.6.3c-.2-.1-.4-.3-.3-.6.1-.2.6-1.6 1.8-1.6s1.7 1.5 1.8 1.6c.1.2 0 .5-.3.6h-.2zm4.5 0c-.2 0-.4-.1-.4-.3-.1-.3-.5-1-.9-1-.5 0-.8.8-.9 1s-.3.4-.6.3c-.2-.1-.4-.3-.3-.6.1-.2.6-1.6 1.8-1.6s1.7 1.5 1.8 1.6c.1.2 0 .5-.3.6h-.2zm.6 1.7c-.1-.1-.2-.1-.3 0 0 0-1.7 1.3-3.9 1.3-2.1 0-3.9-1.3-3.9-1.3-.1-.1-.2-.1-.3 0s-.1.2 0 .3 1.4 2.3 4.2 2.3 4.1-2.2 4.2-2.3 0-.2 0-.3h0z" fill="#664500"/><path d="M464.5 263.8v.3c.2 1.2 1.5 2.4 2.4 2.8.7-.3 1.7-1.1 2.2-2-.9-1.1-2.1-1.9-3.5-2.4-.6 0-1.1.6-1.1 1.3zm-3.3 11.1v-.3a1.54 1.54 0 0 0-1.5-1.5c-.5 0-.9.2-1.2.6-.3-.4-.7-.6-1.2-.6-.6 0-1 .3-1.3.8.8 1.5 2.1 2.6 3.6 3.4.8-.7 1.5-1.5 1.6-2.4h0zm9.2-1.5c-.1-.4-.5-.7-1-.7-.3 0-.6.2-.8.4-.2-.3-.5-.4-.8-.4-.6 0-1 .5-1 1v.2c.1.8 1 1.7 1.7 2 .8-.7 1.4-1.5 1.9-2.5z" fill="#ffac33"/><path d="M470.1 263.5c0-.8-.6-1.4-1.4-1.4-.5 0-.9.2-1.1.6-.2-.3-.6-.6-1.1-.6-.8 0-1.4.6-1.4 1.4v.3c.2 1.2 1.5 2.4 2.4 2.8.9-.3 2.2-1.6 2.4-2.8.1-.1.2-.2.2-.3h0zm-9.6 11.1a1.54 1.54 0 0 0-1.5-1.5c-.5 0-.9.2-1.2.6-.3-.4-.7-.6-1.2-.6a1.54 1.54 0 0 0-1.5 1.5v.3c.2 1.3 1.6 2.6 2.6 3 1-.4 2.4-1.7 2.6-3 .2 0 .2-.2.2-.3h0zm10.6-1c0-.6-.5-1-1-1-.3 0-.6.2-.8.4-.2-.3-.5-.4-.8-.4-.6 0-1 .5-1 1v.2c.1.9 1.1 1.8 1.8 2.1.7-.3 1.7-1.2 1.8-2.1v-.2z" fill="#dd2e44"/><use xlink:href="#B" x="-53" y="103" fill="#21335a"/><path d="M328.1 284.5c-1.7 2.3-4.6 3.4-4.6 3.4-.5.5-.1 1-.1 1l4.6 5.5s.2.3 1 .1c0 0 2.9-1.1 4.6-3.4 1.7-2.4 4.9-3.2 4.9-3.2.5-.5.1-1 .1-1l-4.6-5.5s-.2-.3-1-.1c0 .1-3.2.8-4.9 3.2h0z" fill="#a7d28b"/><path d="M329.3 283.2c-.4.4-.9.8-1.2 1.3-.4.5-.8.9-1.2 1.3l5.6 6.6c.4-.4.9-.8 1.2-1.3.4-.5.8-.9 1.2-1.3l-5.6-6.6z" fill="#9aaab4"/><path d="M329.4 290c-.7-.8-2.2.5-2.6 0-.2-.2-.1-.6.2-.8.4-.4.8-.2 1-.3.1-.1.1-.3.1-.4-.2-.2-.7-.1-1.1.1l-.2-.2c-.1-.1-.3-.2-.5 0-.1.1-.2.3 0 .5l.2.2c-.3.4-.4.9 0 1.3.7.8 2.1-.5 2.6 0 .2.2.1.6-.2.8-.5.4-1 .2-1.2.4-.1.1-.1.2 0 .4.2.2.7.2 1.2-.2l.2.3c.1.1.3.2.5 0 .1-.1.2-.3 0-.5l-.2-.3c.3-.2.5-.8 0-1.3h0z" fill="#67757f"/><path d="M337.4 294.5l.2-.2v-.1c.6-1 .2-2.6-1-3.9s-2.9-1.7-3.9-1h-.1l-.2.2c-.4.5-.5 1.2 0 1.7.4.4 1.2.4 1.6 0h0c-.5.5-.5 1.2 0 1.7s1.2.4 1.7 0h0c-.4.5-.5 1.2 0 1.6s1.2.4 1.7 0h0z" fill="#e1e8ed"/><path d="M332.5 291.2c.4.4 1 .4 1.5.1.2-.3.3-.6.3-.8-1 .7-1.9 0-2.1-.4-.1.4 0 .8.3 1.1zm3.2 1.7c.1-.2.2-.4.3-.5-.6.6-1.8.2-2.2-.8-.2.4-.1.9.3 1.2.4.6 1.1.6 1.6.1zm1.7 1.6h0l.2-.2v-.1s0-.1.1-.1c-1.1.5-2-.4-2.2-.8-.1.4 0 .9.3 1.2.4.5 1.1.5 1.6 0h0z" fill="#ccd6dd"/><path d="M329.2 285.6h0l.2-.2v-.1c.6-1 .2-2.6-1-3.9-1.2-1.2-2.9-1.7-3.9-1h-.1l-.2.2c-.4.5-.4 1.2 0 1.6s1.2.4 1.6 0h0c-.5.5-.5 1.2 0 1.7s1.2.4 1.7 0h0c-.4.5-.5 1.2 0 1.7.5.4 1.2.4 1.7 0h0z" fill="#e1e8ed"/><path d="M324.2 282.3c.4.4 1 .4 1.5.1.2-.3.3-.6.3-.7-1 .7-1.9 0-2.1-.4-.1.3 0 .7.3 1h0zm3.3 1.7c.1-.2.2-.4.3-.5-.6.6-1.8.2-2.2-.8-.2.4-.1.9.3 1.2.4.5 1.1.5 1.6.1h0zm1.7 1.6h0l.2-.2v-.1s0-.1.1-.1c-1.1.5-2-.4-2.2-.8-.1.4 0 .9.3 1.2.4.4 1.1.4 1.6 0h0z" fill="#ccd6dd"/><path d="M580 243.2l7-7c1.4-1.4 2.3-3.2 2.7-5.1a9.32 9.32 0 0 0-.6-5.7c-.8-1.8-2-3.4-3.7-4.5a9.91 9.91 0 0 0-5.5-1.7 9.91 9.91 0 0 0-5.5 1.7c-1.6 1.1-2.9 2.6-3.7 4.5a9.32 9.32 0 0 0-.6 5.7c.4 1.9 1.3 3.7 2.7 5.1l7.2 7z" fill="#344f88"/><path d="M588.1 229.2c0 4.4-3.6 8-8 8s-8-3.6-8-8 3.6-8 8-8 8 3.6 8 8z" fill="#ffcc4d"/><path d="M575.2 231.4a2.22 2.22 0 0 0 2.2-2.2 2.22 2.22 0 0 0-2.2-2.2 2.22 2.22 0 0 0-2.2 2.2c0 1.2.9 2.2 2.2 2.2zm9.8 0a2.22 2.22 0 0 0 2.2-2.2 2.22 2.22 0 0 0-2.2-2.2 2.22 2.22 0 0 0-2.2 2.2c0 1.2.9 2.2 2.2 2.2z" fill="#ff7892"/><path d="M584.2 230.8c-.1-.1-.2-.1-.3 0 0 0-1.7 1.3-3.9 1.3-2.1 0-3.8-1.3-3.9-1.3-.1-.1-.2-.1-.3 0s-.1.2 0 .3 1.4 2.3 4.2 2.3 4.1-2.2 4.2-2.3.1-.2 0-.3h0zm-8.6-3h-.2c-.2-.1-.3-.4-.2-.6 0 0 .6-1.1 2.2-1.1s2.2 1.1 2.2 1.1c.1.2 0 .5-.2.6s-.5 0-.6-.2c0 0-.4-.6-1.4-.6s-1.4.6-1.4.6c-.1.2-.2.2-.4.2h0zm8.9 0c-.2 0-.3-.1-.4-.2 0 0-.4-.6-1.4-.6s-1.4.6-1.4.6c-.1.2-.4.3-.6.2s-.3-.4-.2-.6c0 0 .6-1.1 2.2-1.1s2.2 1.1 2.2 1.1c.1.2 0 .5-.2.6h-.2z" fill="#664500"/><defs ><path id="B" d="M383.9 199l7-7c1.4-1.4 2.3-3.2 2.7-5.1a9.32 9.32 0 0 0-.6-5.7c-.8-1.8-2-3.4-3.7-4.5a9.91 9.91 0 0 0-5.5-1.7 9.91 9.91 0 0 0-5.5 1.7c-1.6 1.1-2.9 2.6-3.7 4.5-.8 1.8-.9 3.8-.6 5.7.4 1.9 1.3 3.7 2.7 5.1l7.2 7z"/></defs></svg>