<svg width="64" height="76" viewBox="0 0 64 76" fill="none" xmlns="http://www.w3.org/2000/svg">
<path fill-rule="evenodd" clip-rule="evenodd" d="M27.7081 3.48923C19.7388 3.48923 9.75754 12.5386 6.8363 16.3895C4.38027 19.6271 4.72772 36.3063 4.72772 46.2004C4.72772 48.2697 5.66739 52.186 6.00851 54.1654C7.25852 61.4186 12.7045 67.5016 23.4834 67.5016C32.26 67.5016 39.014 64.7344 45.5454 57.6566C47.0355 56.0419 54.3125 61.8225 55.8008 59.7408C59.688 59.7408 62.9385 23.586 55.3063 12.7416C47.6741 1.89728 35.6774 3.48923 27.7081 3.48923Z" fill="#DEE7FF"/>
<path fill-rule="evenodd" clip-rule="evenodd" d="M51.6607 6.03628C47.0558 1.86583 40.921 -0.140462 34.7314 0.00763493C31.5258 0.0844775 28.3314 0.692232 25.304 1.7331C23.7896 2.25563 22.3229 2.93743 20.9207 3.70865C20.4155 3.98593 19.9497 4.31083 19.5013 4.65587L19.3895 4.74253H19.3881C18.1853 5.17285 17.1116 5.94547 16.1375 6.84942C14.1852 6.69433 12.2175 6.86898 10.3298 7.46835C7.70237 8.30384 5.27006 9.8337 3.56197 12.0063C1.57235 14.5355 0.910904 17.6035 1.14692 20.7706L1.1905 21.3086C1.42389 24.1063 1.84195 27.7048 4.14865 29.5431C4.32409 29.6828 4.51777 29.789 4.71848 29.8533C3.23214 32.3877 2.01249 35.2015 1.28265 38.0433C-1.50334 48.8977 0.638435 60.2173 3.98865 70.679C4.26374 71.5411 5.57322 72.1139 6.23989 71.2714C7.43008 69.7653 9.15922 68.6169 11.1045 68.4017C12.3045 68.269 13.4989 68.5093 14.633 67.9672C15.0779 67.7534 15.5074 67.4041 15.8161 66.9794C17.7305 67.7017 19.7923 68.0426 21.8372 67.9588C25.1931 67.8219 28.7805 66.6651 31.0893 64.1279C31.4598 63.7206 31.5537 63.2633 31.4684 62.8512C31.1788 62.7483 30.8816 62.6718 30.5753 62.6238C27.6476 64.3415 24.4203 65.4892 20.9519 65.5613C18.9478 65.603 16.993 65.3239 15.368 64.0783C15.0164 63.8086 14.693 63.51 14.3941 63.1893C10.9966 61.0136 8.60118 57.3183 7.46237 53.3601C6.4013 49.6689 6.53183 45.8254 6.89674 42.0391L7.08926 40.0411C7.36989 37.1087 7.63025 34.1674 7.70321 31.2225L7.68118 31.2214C6.96369 31.1753 6.9585 30.0571 7.68118 30.1036C9.55053 30.2241 11.4057 29.9188 13.2693 30.0518C13.2849 29.1748 13.3483 28.3018 13.6073 27.4559C13.7551 26.9727 14.6004 26.8774 14.6899 27.4559C14.8098 28.2299 14.8536 28.9996 14.8666 29.7771C17.6556 29.7403 20.4419 29.5067 23.2312 29.6026C23.7458 29.0564 23.9096 28.0877 24.1503 27.4139C24.1853 27.3147 24.2204 27.2169 24.2569 27.1177C24.4684 28.0806 24.7682 29.0224 25.1626 29.9444L25.8467 29.9467C29.7281 29.9648 33.6885 30.0803 37.4787 30.8827C37.7421 30.6814 37.8989 30.3301 37.9413 30.0112C38.2162 27.9356 38.6086 25.9152 39.304 23.9373L39.4035 23.6582C39.4116 23.6351 39.4202 23.6105 39.4291 23.5846C39.9416 24.4079 40.553 25.1754 41.2198 25.89C41.6128 26.3113 42.0248 26.7141 42.4477 27.1054C42.8585 27.5595 43.2831 28.0067 43.6946 28.4622C43.6785 28.545 43.6644 28.6291 43.6531 28.7148C43.5272 29.6599 43.5141 30.6185 43.6063 31.5673C43.7731 33.2826 44.2595 34.9354 45.041 36.4644L45.0657 36.6175C45.1844 37.334 45.3532 38.0746 45.7475 38.6142C45.2555 39.163 44.8764 39.8185 44.6566 40.5468C44.4609 41.1952 45.3621 41.7572 45.8295 41.2265C46.2007 40.805 46.6132 40.4562 47.0663 40.1778C47.0949 40.2165 47.1466 40.2356 47.2045 40.2033C48.4663 39.5061 50.6095 39.7171 51.8698 40.3737C53.4376 41.1897 54.0495 42.8648 53.8755 44.5623C53.7085 46.1844 52.9955 48.0803 51.613 48.9116C50.9786 49.2931 50.4846 49.3252 49.8109 49.1422C49.5955 49.0839 49.3284 48.9053 49.2138 48.8166L49.101 48.7266C48.6593 48.3791 48.248 48.1412 47.7266 48.132C47.1934 47.9665 46.6575 48.1961 46.4536 48.7527L46.441 48.7887C46.3456 49.0723 46.1715 49.4286 46.2094 49.8617C46.2487 50.3255 46.4621 50.7475 46.7807 51.087C46.8354 51.1457 46.8944 51.2043 46.9547 51.2588C41.4669 57.1729 40.7624 66.3884 43.5764 73.7765C43.6985 74.1006 43.8291 74.4206 43.9652 74.7377C44.4354 75.8247 46.2459 75.488 46.4761 74.4108C46.5449 74.088 46.6207 73.7667 46.7035 73.4482C46.8557 72.8595 47.0301 72.2764 47.2266 71.7017L47.3014 71.4866C47.4684 71.0116 47.6242 70.5323 47.7926 70.0573L47.8095 70.003C47.8158 69.9815 47.8228 69.9567 47.8305 69.9288L48.1154 70.5477L48.9814 72.4157C49.3866 73.2874 50.6741 72.8136 50.722 71.9736L50.7232 71.9448C50.7274 71.7898 50.733 71.6361 50.7428 71.4838C50.8046 70.3423 51.0025 69.233 51.3169 68.1474L51.4303 68.2877C53.1193 70.3664 55.1015 72.3147 57.8208 72.7943C58.5029 72.9145 59.2748 72.2047 58.8061 71.5187C58.6124 71.2351 58.4257 70.9445 58.2489 70.6497C58.4018 70.5784 58.5464 70.5044 58.6797 70.4289C59.7113 69.8519 60.5703 69.0304 61.2805 68.0985C62.7864 66.123 63.3254 63.6361 63.4573 61.2023C63.5977 58.6301 63.3703 55.9183 62.6643 53.437C62.3584 52.364 61.9443 51.3343 61.4657 50.3353C61.4994 50.2459 61.5317 50.1565 61.564 50.0671C62.0805 48.6336 62.5043 47.168 62.8566 45.6856C63.5668 42.693 63.9486 39.6053 63.9949 36.5302C64.0791 31.0213 63.1247 25.4244 61.1134 20.2871C59.0362 14.9891 55.912 9.8854 51.6607 6.03628ZM54.2474 54.2012C54.6288 53.6034 55.5832 54.1421 55.229 54.7441L55.2158 54.7656C54.6109 55.7143 54.3274 56.7929 53.9793 57.8505C53.7562 58.5309 52.6713 58.2403 52.8972 57.5529L52.972 57.3234C53.3184 56.2509 53.6344 55.1609 54.2474 54.2012ZM50.9253 42.7894L50.6719 42.6673C49.8725 42.2876 49.1721 42.0289 48.2277 42.3604C46.9631 42.8033 45.6087 44.213 46.4635 45.5808C46.7779 46.0852 47.3365 46.2864 47.9119 46.1676C48.882 45.9674 49.1324 45.0977 49.6247 44.3839L49.7094 44.263C50.0095 43.831 50.3891 43.2339 50.8888 43.0646C51.0025 43.0255 51.0502 42.8494 50.9253 42.7894ZM50.2125 13.7486L50.1309 13.6758C49.5877 13.198 50.3849 12.41 50.9253 12.885C53.3983 15.0604 54.2572 18.4652 55.5401 21.3671C55.8278 22.0195 54.8608 22.5896 54.5702 21.9315C53.3465 19.1625 52.5343 15.85 50.2125 13.7486ZM20.4941 12.797C21.1402 12.5072 21.7056 13.4432 21.0844 13.7515L21.0611 13.7625C18.8772 14.7446 17.9481 16.9689 17.0583 19.0339C16.7747 19.6933 15.8077 19.1247 16.0884 18.4708L16.249 18.1003C17.1775 15.9722 18.2604 13.8032 20.4941 12.797ZM17.0709 11.453C17.7558 11.2169 18.0491 12.2955 17.3698 12.5316C15.5186 13.1729 14.2484 14.556 13.1775 16.1376C12.7761 16.73 11.8035 16.1711 12.2091 15.5731C13.4526 13.7373 14.9291 12.1963 17.0709 11.453Z" fill="#000920"/>
<path fill-rule="evenodd" clip-rule="evenodd" d="M15.7966 54.3287C16.6905 53.9044 17.713 53.9338 18.6504 54.2144C19.7599 54.5468 20.7424 55.2374 21.6167 55.9725C21.9579 56.2594 22.2821 56.5833 22.6076 56.9091C23.021 57.3228 23.4359 57.7406 23.8966 58.0793C23.7446 56.803 22.8366 55.5069 22.0568 54.5694C21.1001 53.4194 19.768 52.4875 18.3278 52.0366C16.7941 51.5565 15.2116 51.8204 13.9696 52.6C12.7389 53.3725 11.8424 54.6519 11.6618 56.2166C11.6238 56.5452 11.7796 56.8461 12.0107 57.074C12.2803 57.34 12.6588 57.515 13.0118 57.515C13.372 57.515 13.6914 57.3718 13.9284 57.1437C14.1769 56.9044 14.3356 56.5724 14.3583 56.2117C14.3735 55.8273 14.4638 55.4906 14.7913 55.085C15.0113 54.8128 15.4249 54.5052 15.7966 54.3287ZM13.5241 40.8963C13.8951 41.0293 14.3259 41.3504 14.4512 41.7021C14.4787 41.7795 14.4942 41.8586 14.4955 41.9388C14.6163 41.6967 14.6622 41.4118 14.6465 41.1297C14.5965 40.2338 13.7302 39.5835 12.9922 39.2035C12.7299 39.0685 12.4605 38.9788 12.192 38.9316L11.2414 38.7644L12.1339 38.4009C12.9569 38.0658 13.7287 37.6047 14.4174 37.0403C15.0753 36.5016 15.6835 35.8048 16.0405 35.0359C16.2017 34.6887 16.3282 34.3491 16.4169 33.9821L16.4407 33.8791C16.4843 33.6814 16.5319 33.5806 16.5855 33.4687C16.6169 33.403 16.651 33.3324 16.6877 33.2174C16.7083 33.1529 16.7198 33.0989 16.7006 33.0568C16.6821 33.0161 16.6369 32.9986 16.5929 32.9822C16.3015 32.8734 15.8323 32.9475 15.6329 33.0261C15.1512 33.216 14.7278 33.6302 14.3202 34.018C14.1213 34.2073 13.9266 34.3922 13.7331 34.5504C12.4988 35.5597 10.9582 36.134 9.45265 36.274L9.36217 36.2819C8.96401 36.3142 8.59484 36.4688 8.33321 36.7269C8.09933 36.9576 7.95496 37.2714 7.95496 37.6473C7.95496 38.0134 8.12193 38.3658 8.38138 38.6218C8.62915 38.8662 8.96429 39.0245 9.32814 39.0118C9.58374 39.0028 9.83742 38.9802 10.0893 38.9469L11.0264 38.8232L10.311 39.4328C10.169 39.5538 10.0355 39.6927 9.91537 39.8539C9.26342 40.7295 8.98359 42.0643 9.00781 43.1358C9.01243 43.3404 9.06969 43.5513 9.17539 43.733C9.26771 43.8918 9.3975 44.0288 9.56481 44.1143C9.76512 44.2168 9.9346 44.2715 10.1627 44.2758C10.4107 44.2806 10.6208 44.2032 10.7934 44.0736C11.0093 43.9115 11.1679 43.6724 11.2768 43.4115C11.4216 43.0647 11.4302 42.6983 11.4445 42.3321C11.4544 42.0791 11.4651 41.8256 11.5078 41.5757C11.5688 41.2567 11.7151 40.8503 11.8995 40.7219C12.1719 40.5323 12.8966 40.6783 13.3466 40.8334L13.5241 40.8963ZM17.3957 44.1021C16.3316 44.74 14.7103 46.2277 15.855 47.8093C17.2024 49.2039 19.1425 47.6049 20.0985 46.8818C20.985 46.3213 21.981 47.7627 21.1585 48.4172C14.2503 53.4619 11.4468 44.2689 16.8575 43.352C17.4533 43.2509 17.6745 43.9047 17.3957 44.1021ZM24.9433 42.0768C25.2341 41.7532 25.5173 41.4516 25.9548 41.2798C26.4723 41.0763 27.0994 41.0544 27.6378 41.2069C28.2482 41.3798 28.7315 41.7789 29.0895 42.2887C29.4041 42.7366 29.6207 43.2697 29.7442 43.7954C29.9748 43.5456 30.0827 43.2567 30.1347 42.9629C30.2204 42.4792 30.1597 41.9807 29.9925 41.5066C29.6204 40.4512 28.7239 39.5129 27.6785 39.1091C26.4849 38.6479 25.008 38.8019 23.9116 39.4511C23.3522 39.7826 22.7074 40.3576 22.3827 40.92C22.1608 41.3044 22.148 41.7023 22.289 42.0442C22.4443 42.4205 22.7792 42.7261 23.2068 42.8795C23.4094 42.9522 23.6179 42.9464 23.8158 42.8948C24.0732 42.8277 24.3138 42.6843 24.5099 42.5173C24.6734 42.3783 24.8096 42.2255 24.9433 42.0768ZM23.1599 35.4205C23.4048 35.7438 23.7656 35.909 24.1416 35.9264C24.1801 35.9282 24.2186 35.9284 24.257 35.927C24.2813 35.9545 24.3083 35.9849 24.3401 36.0206C24.4135 36.1031 24.4616 36.1572 24.5117 36.2097C24.6924 36.3995 24.8823 36.5807 25.0803 36.7531C25.5211 37.1373 25.996 37.4742 26.5095 37.757C27.409 38.2527 28.3956 38.6393 29.41 38.8238C30.4166 39.0069 31.4103 39.0631 32.424 38.9197L32.6699 38.8849C33.2555 38.8003 34.0231 38.6898 34.5039 38.3321C34.3145 38.2726 34.1227 38.2697 33.9356 38.2616C33.8124 38.2562 33.69 38.2507 33.5707 38.24C33.0034 38.1891 32.4521 38.0962 31.9028 37.9463C30.835 37.6548 29.8674 37.2523 28.9247 36.6755C28.0004 36.1101 27.1517 35.3406 26.4755 34.4976L26.3945 34.3954C26.36 34.3514 26.326 34.3076 26.2922 34.2641C26.0157 33.9076 25.7616 33.5678 25.3319 33.3416C24.9914 33.1624 24.6468 33.114 24.3156 33.1656C23.9312 33.2254 23.5663 33.4163 23.2428 33.6834C23.0037 33.8809 22.893 34.1652 22.8754 34.4569C22.8547 34.8 22.9606 35.1574 23.1599 35.4205Z" fill="#000920"/>
</svg>
