<svg xmlns="http://www.w3.org/2000/svg" xmlns:xlink="http://www.w3.org/1999/xlink" width="425" height="862" fill="none" xmlns:v="https://vecta.io/nano"><style><![CDATA[.B{fill:#dee7ff}.C{fill:#000920}.D{fill-rule:evenodd}.E{fill:#70b0ff}.F{fill:#7d8cb6}]]></style><rect width="425" height="862" rx="62" class="C"/><rect x="15" y="15" width="395" height="832" rx="48" fill="url(#C)"/><mask id="A" mask-type="alpha" maskUnits="userSpaceOnUse" x="25" y="25" width="375" height="812"><use xlink:href="#E" fill="url(#D)"/></mask><g mask="url(#A)"><use xlink:href="#E" fill="#101f3e"/></g><rect x="49" y="71" width="327" height="80" rx="16" class="C"/><g class="B"><path d="M114.632 117a.37.37 0 0 1-.384-.384V106.2c0-.117.032-.213.096-.288a.39.39 0 0 1 .288-.112h1.472a.39.39 0 0 1 .4.4v4.112h4.672V106.2a.39.39 0 0 1 .112-.288.37.37 0 0 1 .272-.112h1.488c.117 0 .208.037.272.112a.39.39 0 0 1 .112.288v10.416a.37.37 0 0 1-.112.272c-.064.075-.155.112-.272.112h-1.488a.37.37 0 0 1-.384-.384v-4.272h-4.672v4.272a.37.37 0 0 1-.112.272.39.39 0 0 1-.288.112h-1.472z"/><use xlink:href="#F"/><path d="M138.5 117.16c-1.174 0-2.112-.325-2.816-.976-.694-.65-1.062-1.552-1.104-2.704l-.016-.64.016-.64c.042-1.152.4-2.053 1.104-2.704s1.642-.976 2.816-.976c.842 0 1.552.15 2.128.448.586.3 1.018.667 1.296 1.104.288.427.442.837.464 1.232.01.107-.027.197-.112.272a.37.37 0 0 1-.272.112h-1.424c-.118 0-.203-.02-.256-.064-.054-.053-.107-.144-.16-.272-.16-.405-.374-.7-.64-.88-.256-.18-.587-.272-.992-.272-.544 0-.97.17-1.28.512-.3.34-.46.864-.48 1.568l-.016.592.016.528c.064 1.387.65 2.08 1.76 2.08.416 0 .752-.085 1.008-.256.256-.18.464-.48.624-.896a.86.86 0 0 1 .144-.256c.064-.053.154-.08.272-.08h1.424a.37.37 0 0 1 .272.112c.085.075.122.165.112.272-.022.373-.17.78-.448 1.216-.278.427-.704.795-1.28 1.104s-1.296.464-2.16.464zm5.956-.16a.37.37 0 0 1-.384-.384v-10.592c0-.117.037-.208.112-.272a.37.37 0 0 1 .272-.112h1.328a.37.37 0 0 1 .384.384v5.472l2.656-2.544a1.91 1.91 0 0 0 .144-.112c.075-.064.144-.107.208-.128a.78.78 0 0 1 .24-.032h1.52c.107 0 .192.032.256.096s.096.15.096.256c0 .096-.053.192-.16.288l-3.264 3.088 3.664 3.968c.096.096.144.187.144.272 0 .107-.032.192-.096.256s-.144.096-.24.096h-1.552c-.15 0-.26-.016-.336-.048-.064-.043-.15-.117-.256-.224l-3.024-3.216v3.104a.37.37 0 0 1-.384.384h-1.328zm11.638.16c-1.195 0-2.144-.34-2.848-1.024-.694-.683-1.062-1.653-1.104-2.912l-.016-.4c0-1.333.346-2.384 1.04-3.152.704-.768 1.674-1.152 2.912-1.152 1.27 0 2.245.384 2.928 1.152.693.768 1.04 1.792 1.04 3.072v.336c0 .107-.038.197-.112.272a.39.39 0 0 1-.288.112h-5.312v.128c.02.597.18 1.093.48 1.488.3.384.73.576 1.264.576.608 0 1.104-.245 1.488-.736.096-.117.17-.187.224-.208a.56.56 0 0 1 .272-.048h1.408c.096 0 .176.027.24.08a.26.26 0 0 1 .112.224c0 .256-.155.56-.464.912-.3.34-.73.64-1.296.896s-1.222.384-1.968.384zm1.744-5.056v-.032c0-.63-.16-1.13-.48-1.504-.3-.384-.736-.576-1.28-.576s-.97.192-1.28.576c-.3.373-.464.875-.464 1.504v.032h3.504zm4.3 4.896c-.107 0-.198-.037-.272-.112a.37.37 0 0 1-.112-.272v-7.536a.39.39 0 0 1 .112-.288c.074-.075.165-.112.272-.112h1.312a.39.39 0 0 1 .288.112c.074.075.112.17.112.288v.656c.533-.704 1.3-1.056 2.304-1.056h.672c.117 0 .208.037.272.112.074.064.112.155.112.272v1.168c0 .107-.038.197-.112.272-.064.075-.155.112-.272.112h-1.264c-.502 0-.896.144-1.184.432s-.432.683-.432 1.184v4.384c0 .107-.038.197-.112.272a.37.37 0 0 1-.272.112h-1.424zm10.415.16c-.96 0-1.782-.144-2.464-.432s-1.2-.667-1.552-1.136a2.68 2.68 0 0 1-.56-1.536c0-.085.032-.16.096-.224.064-.075.144-.112.24-.112h1.456c.117 0 .213.027.288.08a.84.84 0 0 1 .208.224c.106.363.346.667.72.912.384.245.906.368 1.568.368.746 0 1.306-.123 1.68-.368.384-.256.576-.603.576-1.04 0-.288-.096-.528-.288-.72s-.486-.357-.88-.496c-.384-.15-.96-.325-1.728-.528-1.26-.3-2.182-.693-2.768-1.184s-.88-1.195-.88-2.112c0-.62.17-1.168.512-1.648.34-.5.826-.875 1.456-1.152.64-.277 1.38-.416 2.224-.416.885 0 1.648.155 2.288.464.65.3 1.14.7 1.472 1.168.34.46.522.917.544 1.376 0 .085-.032.165-.096.24-.064.064-.144.096-.24.096h-1.52c-.235 0-.395-.096-.48-.288-.054-.34-.262-.624-.624-.848-.363-.235-.8-.352-1.344-.352-.587 0-1.05.112-1.392.336-.33.224-.496.55-.496.976 0 .288.085.528.256.72s.437.363.8.512c.362.14.9.3 1.584.48.95.213 1.7.453 2.256.72.565.267.98.603 1.248 1.008s.4.923.4 1.552c0 .693-.192 1.296-.576 1.808-.374.5-.907.885-1.6 1.152-.683.267-1.478.4-2.384.4zm9.96-.16c-.97 0-1.7-.25-2.192-.752-.5-.512-.736-1.26-.736-2.24v-3.616h-1.264a.37.37 0 0 1-.384-.384v-.944a.37.37 0 0 1 .384-.384h1.264v-2.656c0-.117.037-.208.112-.272a.37.37 0 0 1 .272-.112h1.328c.117 0 .208.037.272.112.075.064.112.155.112.272v2.656h2a.37.37 0 0 1 .384.384v.944a.37.37 0 0 1-.384.384h-2v3.44c0 .46.08.805.24 1.04s.42.352.784.352h1.12c.117 0 .208.037.272.112.075.064.112.155.112.272v1.008a.37.37 0 0 1-.112.272c-.064.075-.155.112-.272.112h-1.312z"/><use xlink:href="#F" x="59.875"/><path d="M197.943 117.16c-.8 0-1.488-.123-2.032-.368s-.95-.528-1.216-.848c-.256-.33-.384-.613-.384-.848 0-.107.032-.192.096-.256a.38.38 0 0 1 .256-.096h1.312c.085 0 .16.043.224.128l.352.304c.192.16.405.288.64.384.245.085.512.128.8.128.426 0 .773-.08 1.04-.24a.81.81 0 0 0 .4-.72c0-.213-.064-.384-.192-.512-.118-.14-.336-.26-.656-.368-.3-.117-.78-.245-1.408-.384-.907-.192-1.58-.485-2.016-.88-.427-.395-.64-.917-.64-1.568a2.08 2.08 0 0 1 .384-1.2c.256-.384.634-.693 1.136-.928.512-.245 1.12-.368 1.824-.368.725 0 1.35.117 1.872.352.522.224.917.496 1.184.816.277.32.416.603.416.848 0 .096-.038.18-.112.256-.064.064-.144.096-.24.096h-1.2a.32.32 0 0 1-.272-.128l-.368-.288c-.16-.15-.342-.267-.544-.352s-.448-.128-.736-.128c-.395 0-.7.085-.912.256s-.32.395-.32.672c0 .192.048.352.144.48.106.128.314.25.624.368.3.107.773.22 1.392.336 1.92.373 2.88 1.2 2.88 2.512 0 .757-.33 1.37-.992 1.84-.65.47-1.563.704-2.736.704zm5.763-.16a.37.37 0 0 1-.384-.384v-10.592c0-.117.037-.208.112-.272a.37.37 0 0 1 .272-.112h1.456c.117 0 .208.037.272.112.075.064.112.155.112.272v3.648c.64-.768 1.5-1.152 2.576-1.152.98 0 1.765.325 2.352.976.587.64.88 1.515.88 2.624v4.496a.37.37 0 0 1-.112.272c-.064.075-.155.112-.272.112h-1.456a.39.39 0 0 1-.288-.112.37.37 0 0 1-.112-.272v-4.4c0-.62-.155-1.1-.464-1.44-.3-.352-.73-.528-1.296-.528-.544 0-.98.176-1.312.528s-.496.832-.496 1.44v4.4a.37.37 0 0 1-.112.272c-.064.075-.155.112-.272.112h-1.456z"/></g><mask id="B" mask-type="alpha" maskUnits="userSpaceOnUse" x="73" y="95" width="32" height="19"><path d="M73 95h32v18.496H73V95z" fill="#fff" class="D"/></mask><g mask="url(#B)" class="D"><path d="M73.524 106.368l11.758 6.822c.35.204.812.306 1.274.306s.924-.102 1.277-.306l16.635-9.588c.706-.407.7-1.068.008-1.475l-11.758-6.822c-.35-.204-.812-.305-1.274-.305s-.924.102-1.277.305l-16.634 9.588c-.707.408-.7 1.068-.008 1.475" fill="#2472d3"/></g><g class="D"><g class="E"><path d="M74.57 113.298l-1.037.598c-.707.407-.7 1.068-.008 1.475l11.758 6.822c.35.203.812.305 1.274.305s.924-.102 1.277-.305l16.634-9.588c.707-.408.7-1.068.01-1.475l-1.048-.608-14.806 8.534c-.578.333-1.312.516-2.066.516s-1.5-.184-2.067-.52l-9.92-5.755zm14.052 1.256c-.578.333-1.312.517-2.066.517s-1.5-.184-2.067-.52l-9.92-5.755-1.037.598c-.707.407-.7 1.067-.008 1.475l11.758 6.82c.35.204.812.306 1.274.306s.924-.102 1.277-.306l16.634-9.587c.707-.408.7-1.068.01-1.476l-1.048-.607-14.806 8.533z"/><path d="M74.57 117.8l-1.037.598c-.707.407-.7 1.068-.008 1.475l11.758 6.822c.35.203.812.305 1.274.305s.924-.102 1.277-.305l16.634-9.588c.707-.408.71-1.068.01-1.475l-1.048-.608-14.806 8.533c-.578.334-1.312.517-2.066.517s-1.5-.184-2.067-.52l-9.92-5.755z"/></g><path d="M88.14 99.163l-.1.143.108.152.718.416c-.6.46-.9.917-.92 1.37-.01.46.258.85.814 1.173.617.358 1.313.52 2.057.474.76-.044 1.627-.26 2.636-.644l1.226-.43c.295-.1.543-.134.744-.143a.93.93 0 0 1 .518.11c.2.117.254.265.16.453-.094.18-.32.38-.693.595-.575.33-1.156.444-1.752.35l-.302.014a.69.69 0 0 0-.256.094l-1.375.792-.102.13.084.13c.34.18.75.3 1.214.363.472.058 1 .044 1.55-.054a7.03 7.03 0 0 0 1.707-.537l.718.416.263.063.256-.058.9-.52.1-.152-.116-.148-.718-.416c.66-.488 1.012-.976 1.07-1.464.057-.48-.22-.9-.82-1.25-.425-.247-.873-.4-1.33-.457s-.96-.027-1.526.094c-.558.125-1.225.34-1.986.645-.683.25-1.18.412-1.497.46-.326.054-.58.022-.782-.094-.193-.112-.27-.247-.215-.394.055-.157.234-.314.52-.48.25-.144.505-.238.784-.282s.5-.036.7.022a.82.82 0 0 0 .535-.094l1.453-.837.093-.125-.1-.13c-.27-.14-.626-.237-1.074-.3-.44-.058-.937-.05-1.48.022a6.68 6.68 0 0 0-1.621.425l-.74-.43-.255-.067-.256.067-.9.52zm-8.77 6.24l-.1.153.115.156 6.676 3.873.263.063.256-.067 1.414-.815.125-.152-.108-.153-2.523-1.464 2.447-1.4 2.524 1.464.263.063.256-.067 1.414-.815.117-.148-.1-.157-6.675-3.873-.28-.062-.264.062-1.413.815-.1.152.115.157 2.44 1.415-2.447 1.4-2.44-1.415-.27-.067-.27.067-1.414.815z" class="B"/></g><path d="M300 116h2v2h-20v-2h2v-7a8 8 0 0 1 8-8 8 8 0 0 1 8 8v7zm-2 0v-7c0-1.59-.632-3.117-1.757-4.243S293.59 103 292 103s-3.117.632-4.243 1.757S286 107.41 286 109v7h12zm-9 4h6v2h-6v-2z" fill="#2472d3"/><path d="M331 103h18v2h-18v-2zm0 7h18v2h-18v-2zm0 7h18v2h-18v-2z" fill="#b0bcdc"/><path d="M49 239h327v1H49z" class="C"/><g class="B"><path d="M51.447 207c-.16 0-.296-.056-.408-.168s-.168-.248-.168-.408v-15.648c0-.176.056-.312.168-.408.112-.112.248-.168.408-.168h2.256c.176 0 .312.056.408.168.112.096.168.232.168.408v13.344h7.608c.176 0 .32.056.432.168s.168.248.168.408v1.728c0 .16-.056.296-.168.408s-.256.168-.432.168h-10.44zm18.293.24c-1.792 0-3.216-.512-4.272-1.536-1.04-1.024-1.592-2.48-1.656-4.368l-.024-.6c0-2 .52-3.576 1.56-4.728 1.056-1.152 2.512-1.728 4.368-1.728 1.904 0 3.368.576 4.392 1.728 1.04 1.152 1.56 2.688 1.56 4.608v.504c0 .16-.056.296-.168.408s-.256.168-.432.168H67.1v.192c.032.896.272 1.64.72 2.232.464.576 1.096.864 1.896.864.912 0 1.656-.368 2.232-1.104.144-.176.256-.28.336-.312.08-.048.216-.072.408-.072h2.112c.144 0 .264.04.36.12a.39.39 0 0 1 .168.336c0 .384-.232.84-.696 1.368-.448.512-1.096.96-1.944 1.344s-1.832.576-2.952.576zm2.616-7.584v-.048c0-.944-.24-1.696-.72-2.256-.464-.576-1.104-.864-1.92-.864s-1.456.288-1.92.864c-.464.56-.696 1.312-.696 2.256v.048h5.256z"/><use xlink:href="#G"/><use xlink:href="#H"/><path d="M112.092 207.24c-1.792 0-3.216-.512-4.272-1.536-1.04-1.024-1.592-2.48-1.656-4.368l-.024-.6c0-2 .52-3.576 1.56-4.728 1.056-1.152 2.512-1.728 4.368-1.728 1.904 0 3.368.576 4.392 1.728 1.04 1.152 1.56 2.688 1.56 4.608v.504c0 .16-.056.296-.168.408s-.256.168-.432.168h-7.968v.192c.032.896.272 1.64.72 2.232.464.576 1.096.864 1.896.864.912 0 1.656-.368 2.232-1.104.144-.176.256-.28.336-.312.08-.048.216-.072.408-.072h2.112c.144 0 .264.04.36.12a.39.39 0 0 1 .168.336c0 .384-.232.84-.696 1.368-.448.512-1.096.96-1.944 1.344s-1.832.576-2.952.576zm2.616-7.584v-.048c0-.944-.24-1.696-.72-2.256-.464-.576-1.104-.864-1.92-.864s-1.456.288-1.92.864c-.464.56-.696 1.312-.696 2.256v.048h5.256zm6.435 7.344c-.16 0-.296-.056-.408-.168s-.168-.248-.168-.408V195.12c0-.176.056-.32.168-.432s.248-.168.408-.168h1.968c.176 0 .32.056.432.168s.168.256.168.432v.984c.8-1.056 1.952-1.584 3.456-1.584h1.008c.176 0 .312.056.408.168.112.096.168.232.168.408v1.752c0 .16-.056.296-.168.408-.096.112-.232.168-.408.168h-1.896c-.752 0-1.344.216-1.776.648s-.648 1.024-.648 1.776v6.576c0 .16-.056.296-.168.408s-.248.168-.408.168h-2.136zm16.415.24c-1.664 0-2.936-.568-3.816-1.704v.888c0 .16-.056.296-.168.408s-.256.168-.432.168h-1.92c-.16 0-.296-.056-.408-.168s-.168-.248-.168-.408v-15.888c0-.176.056-.312.168-.408.112-.112.248-.168.408-.168h2.088c.176 0 .312.056.408.168.112.096.168.232.168.408v5.328c.896-1.056 2.12-1.584 3.672-1.584 1.616 0 2.856.528 3.72 1.584.88 1.04 1.344 2.408 1.392 4.104.016.192.024.456.024.792l-.024.792c-.064 1.728-.528 3.112-1.392 4.152-.864 1.024-2.104 1.536-3.72 1.536zm-.912-2.592c1.712 0 2.624-1.056 2.736-3.168.016-.16.024-.4.024-.72l-.024-.72c-.112-2.112-1.024-3.168-2.736-3.168-.88 0-1.552.28-2.016.84s-.712 1.24-.744 2.04c-.016.192-.024.504-.024.936l.024.912c.032.848.272 1.568.72 2.16s1.128.888 2.04.888zm14.262 2.592c-1.888 0-3.344-.48-4.368-1.44s-1.576-2.288-1.656-3.984l-.024-1.056.024-1.056c.08-1.68.64-3 1.68-3.96 1.04-.976 2.488-1.464 4.344-1.464 1.84 0 3.28.488 4.32 1.464 1.04.96 1.6 2.28 1.68 3.96.016.192.024.544.024 1.056l-.024 1.056c-.08 1.696-.632 3.024-1.656 3.984s-2.472 1.44-4.344 1.44zm0-2.424c.848 0 1.496-.264 1.944-.792.464-.528.712-1.304.744-2.328.016-.16.024-.472.024-.936l-.024-.936c-.032-1.024-.28-1.8-.744-2.328-.464-.544-1.112-.816-1.944-.816-.848 0-1.504.272-1.968.816-.464.528-.712 1.304-.744 2.328l-.024.936.024.936c.032 1.024.28 1.8.744 2.328s1.12.792 1.968.792z"/><use xlink:href="#G" x="81.375"/><path d="M173.9 207c-.16 0-.296-.056-.408-.168s-.168-.248-.168-.408V195.12c0-.176.056-.32.168-.432s.248-.168.408-.168h1.968c.176 0 .32.056.432.168s.168.256.168.432v.984c.8-1.056 1.952-1.584 3.456-1.584h1.008c.176 0 .312.056.408.168.112.096.168.232.168.408v1.752c0 .16-.056.296-.168.408-.096.112-.232.168-.408.168h-1.896c-.752 0-1.344.216-1.776.648s-.648 1.024-.648 1.776v6.576c0 .16-.056.296-.168.408s-.248.168-.408.168H173.9z"/><use xlink:href="#H" x="91.242"/></g><g class="C"><path d="M49 386h327v1H49zm0 147h327v1H49zm0 147h327v1H49zm0 147h327v1H49z"/><rect x="65" y="256" width="32" height="32" rx="4"/></g><g class="B"><path d="M117.872 277.14c-1.288 0-2.286-.327-2.996-.98-.7-.663-1.073-1.6-1.12-2.814l-.014-1.232.014-1.26c.047-1.195.425-2.123 1.134-2.786.7-.672 1.704-1.008 2.982-1.008.83 0 1.554.145 2.17.434.616.28 1.092.667 1.428 1.162.346.495.528 1.05.546 1.666v.028c0 .075-.032.14-.098.196-.056.047-.12.07-.196.07h-1.358c-.112 0-.196-.023-.252-.07-.056-.056-.102-.15-.14-.28-.14-.58-.382-.985-.728-1.218-.345-.243-.802-.364-1.372-.364-1.334 0-2.03.747-2.086 2.24l-.014 1.162.014 1.2c.056 1.493.752 2.24 2.086 2.24.56 0 1.013-.117 1.358-.35.355-.243.602-.653.742-1.232.038-.13.084-.22.14-.266.056-.056.14-.084.252-.084h1.358c.084 0 .154.028.2.084.066.056.094.126.084.2-.018.616-.2 1.17-.546 1.666-.336.495-.812.887-1.428 1.176-.616.28-1.34.42-2.17.42z"/><use xlink:href="#I"/><path d="M134.51 277.14c-.943 0-1.666-.3-2.17-.896-.504-.607-.78-1.414-.826-2.422l-.014-.462.014-.462c.037-.99.308-1.787.812-2.394.513-.616 1.24-.924 2.184-.924.896 0 1.6.308 2.142.924v-3.108c0-.103.033-.182.098-.238.065-.065.145-.098.238-.098h1.218c.103 0 .182.033.238.098.065.056.098.135.098.238v9.268c0 .093-.033.173-.098.238-.056.065-.135.098-.238.098h-1.134c-.093 0-.173-.033-.238-.098s-.098-.145-.098-.238v-.518c-.513.663-1.255.994-2.226.994zm.532-1.512c.532 0 .924-.168 1.176-.504.26-.345.406-.77.434-1.274.01-.112.014-.29.014-.532l-.014-.546a1.93 1.93 0 0 0-.434-1.19c-.27-.327-.663-.5-1.176-.5-1 0-1.53.616-1.596 1.848l-.014.42.014.42c.065 1.232.597 1.848 1.596 1.848z"/><use xlink:href="#J"/><path d="M149.552 277c-.093 0-.173-.033-.238-.098s-.098-.145-.098-.238v-5.446h-1.134c-.093 0-.173-.033-.238-.098s-.098-.145-.098-.238v-.826c0-.093.033-.173.098-.238s.145-.098.238-.098h1.134v-.56c0-.85.23-1.48.686-1.9s1.148-.63 2.072-.63h.966c.093 0 .173.033.238.098s.098.145.098.238v.826c0 .093-.033.173-.098.238s-.145.098-.238.098h-.896c-.364 0-.62.1-.77.266s-.224.453-.224.826v.5h1.75c.093 0 .173.033.238.098s.098.145.098.238v.826c0 .093-.033.173-.098.238s-.145.098-.238.098h-1.75v5.446c0 .093-.033.173-.098.238-.056.065-.135.098-.238.098h-1.162zm5.028 0c-.094 0-.173-.033-.238-.098a.32.32 0 0 1-.098-.238v-6.594c0-.103.032-.187.098-.252s.144-.098.238-.098h1.148c.102 0 .186.033.252.098s.098.15.098.252v.574c.466-.616 1.138-.924 2.016-.924h.588c.102 0 .182.033.238.098.065.056.098.135.098.238v1.022c0 .093-.033.173-.098.238-.056.065-.136.098-.238.098h-1.106c-.44 0-.784.126-1.036.378s-.378.597-.378 1.036v3.836c0 .093-.033.173-.098.238s-.145.098-.238.098h-1.246zm8.582.14c-1.045 0-1.876-.3-2.492-.896-.607-.597-.93-1.447-.966-2.548l-.014-.35c0-1.167.303-2.086.9-2.758.616-.672 1.465-1.008 2.548-1.008 1.1 0 1.965.336 2.562 1.008.607.672.9 1.568.9 2.688v.294c0 .093-.033.173-.098.238s-.15.098-.252.098h-4.648v.112c.02.523.16.957.42 1.302.27.336.64.504 1.106.504.532 0 .966-.215 1.302-.644.084-.103.15-.163.196-.182.047-.028.126-.042.238-.042h1.232c.084 0 .154.023.2.07.065.047.098.112.098.196 0 .224-.135.5-.406.798-.26.3-.64.56-1.134.784s-1.07.336-1.722.336zm1.526-4.424v-.028c0-.55-.14-1-.42-1.316-.27-.336-.644-.504-1.12-.504s-.85.168-1.12.504c-.27.327-.406.765-.406 1.316v.028h3.066z"/><use xlink:href="#J" x="27.699"/><path d="M81.63 277a.32.32 0 0 1-.238-.098c-.065-.065-.098-.144-.098-.238v-7.224l-2.114 1.624c-.056.047-.126.07-.2.07-.112 0-.2-.046-.266-.14l-.602-.784c-.047-.065-.07-.13-.07-.196 0-.112.05-.205.154-.28l3.136-2.436a.64.64 0 0 1 .35-.098h1.26c.093 0 .173.033.238.098s.098.145.098.238v9.128c0 .094-.033.173-.098.238a.32.32 0 0 1-.238.098H81.63z"/></g><g class="E"><use xlink:href="#K"/><use xlink:href="#L"/><use xlink:href="#M"/><use xlink:href="#N"/><path d="M142.034 318c-.08 0-.148-.024-.204-.072-.048-.056-.072-.124-.072-.204v-5.04h-1.032c-.08 0-.148-.024-.204-.072-.048-.048-.072-.112-.072-.192v-.384c0-.08.024-.144.072-.192.056-.056.124-.084.204-.084h1.032v-.6c0-.648.156-1.148.468-1.5.32-.36.84-.54 1.56-.54h.708a.24.24 0 0 1 .192.084.24.24 0 0 1 .084.192v.384a.24.24 0 0 1-.084.192c-.048.048-.112.072-.192.072h-.684c-.368 0-.624.096-.768.288s-.216.488-.216.888v.54h1.548a.24.24 0 0 1 .192.084.24.24 0 0 1 .084.192v.384a.24.24 0 0 1-.084.192c-.048.048-.112.072-.192.072h-1.548v5.04c0 .08-.028.148-.084.204-.048.048-.112.072-.192.072h-.516z"/><use xlink:href="#O"/><use xlink:href="#N" x="15.621"/><use xlink:href="#N" x="22.324"/><use xlink:href="#P"/><use xlink:href="#Q"/><use xlink:href="#N" x="42.68"/><path d="M113 318.9h69.978v.6H113v-.6z"/></g><g class="B"><use xlink:href="#R"/><use xlink:href="#S"/><use xlink:href="#T"/><use xlink:href="#N" x="12.248" y="40"/><use xlink:href="#K" x="39.54" y="40"/><use xlink:href="#U"/><use xlink:href="#N" x="30.2" y="40"/><use xlink:href="#M" x="44.028" y="40"/><use xlink:href="#T" x="41.86"/><use xlink:href="#O" x="42.88" y="40"/><use xlink:href="#V"/><use xlink:href="#W"/><use xlink:href="#N" x="67.512" y="40"/><use xlink:href="#X"/></g><g class="F"><use xlink:href="#Y"/><use xlink:href="#Y" x="7.442"/><path d="M130.204 298c-.08 0-.144-.024-.192-.072-.04-.056-.052-.124-.036-.204l1.416-6.66-2.28 1.5c-.072.048-.136.072-.192.072a.2.2 0 0 1-.192-.12l-.24-.432c-.024-.04-.036-.076-.036-.108 0-.104.06-.196.18-.276l3.048-2.016c.056-.032.1-.052.132-.06.04-.016.092-.024.156-.024h.588c.08 0 .14.024.18.072.048.048.064.116.048.204l-1.68 7.848a.36.36 0 0 1-.12.204c-.056.048-.124.072-.204.072h-.576z"/><use xlink:href="#Z"/><use xlink:href="#a"/><path d="M151.612 290.584c-.08 0-.144-.024-.192-.072-.04-.056-.052-.124-.036-.204l.144-.624a.39.39 0 0 1 .108-.204.32.32 0 0 1 .216-.084h.72c.08 0 .14.028.18.084.048.056.064.124.048.204l-.144.624c-.008.08-.044.148-.108.204a.35.35 0 0 1-.216.072h-.72zM150.136 298c-.08 0-.144-.024-.192-.072-.04-.056-.052-.124-.036-.204l1.212-5.688c.016-.08.056-.144.12-.192a.32.32 0 0 1 .216-.084h.528c.08 0 .14.028.18.084.04.048.052.112.036.192l-1.212 5.688a.36.36 0 0 1-.12.204c-.056.048-.124.072-.204.072h-.528z"/><use xlink:href="#b"/><use xlink:href="#c"/><use xlink:href="#d"/></g><rect x="114" y="339" width="166" height="30" rx="7" stroke="#f5e33e" stroke-width="2"/><g class="B"><use xlink:href="#e"/><path d="M249.462 358c-.08 0-.148-.028-.204-.084s-.084-.124-.084-.204v-1.536h-3.804c-.08 0-.148-.028-.204-.084s-.084-.124-.084-.204v-.828c0-.128.044-.248.132-.36l3.54-4.896c.04-.064.1-.112.18-.144a.58.58 0 0 1 .264-.06h1.32c.088 0 .156.028.204.084.056.048.084.116.084.204v4.86h1.08c.088 0 .156.028.204.084.056.048.084.116.084.204v.852c0 .08-.028.148-.084.204-.048.056-.116.084-.204.084h-1.08v1.536c0 .08-.028.148-.084.204-.048.056-.116.084-.204.084h-1.056zm-2.688-3.204h2.436v-3.444l-2.436 3.444z"/><use xlink:href="#f"/><use xlink:href="#f" x="7.92"/><path d="M219 360.98h14v-14h-14v14z"/><use xlink:href="#R" y="147"/><use xlink:href="#S" y="147"/><use xlink:href="#T" y="147"/><use xlink:href="#N" x="12.248" y="187"/><use xlink:href="#K" x="39.54" y="187"/><use xlink:href="#U" y="147"/><use xlink:href="#N" x="30.2" y="187"/><use xlink:href="#M" x="44.028" y="187"/><use xlink:href="#T" x="41.86" y="147"/><use xlink:href="#O" x="42.88" y="187"/><use xlink:href="#V" y="147"/><use xlink:href="#W" y="147"/><use xlink:href="#N" x="67.512" y="187"/><use xlink:href="#X" y="147"/><path d="M113.5 424c-.084 0-.154-.028-.2-.084s-.084-.126-.084-.2l.028-.126 3.36-9.03c.094-.233.262-.35.504-.35h1.54c.243 0 .4.117.504.35l3.36 9.03.028.126c0 .084-.032.154-.098.2-.056.056-.12.084-.196.084H121c-.196 0-.33-.1-.406-.266l-.644-1.694h-4.144l-.644 1.694c-.074.177-.2.266-.406.266H113.5zm2.786-3.584h3.164l-1.582-4.312-1.582 4.312zm7.718 6.244c-.093 0-.173-.033-.238-.098-.065-.056-.098-.135-.098-.238v-9.268c0-.103.033-.182.098-.238.065-.065.145-.098.238-.098h1.12c.103 0 .187.033.252.098s.098.145.098.238v.56c.495-.7 1.237-1.036 2.226-1.036.943 0 1.666.3 2.17.896.504.588.775 1.38.812 2.38a6.81 6.81 0 0 1 .014.504l-.014.504c-.028.98-.3 1.773-.812 2.38-.504.597-1.227.896-2.17.896-.933 0-1.647-.33-2.142-.994v3.178c0 .103-.033.182-.098.238-.056.065-.135.098-.238.098h-1.218zm3.164-4.032c1 0 1.53-.616 1.596-1.848a4.72 4.72 0 0 0 .014-.42l-.014-.42c-.065-1.232-.597-1.848-1.596-1.848-.532 0-.93.173-1.2.518s-.4.765-.42 1.26c-.01.112-.014.3-.014.532l.014.546a1.93 1.93 0 0 0 .434 1.19c.27.327.663.5 1.176.5zm8.32 1.512c-1.102 0-1.95-.28-2.548-.84s-.92-1.335-.966-2.324l-.014-.616.014-.616c.046-.98.373-1.75.98-2.3.606-.57 1.45-.854 2.534-.854 1.073 0 1.913.285 2.52.854.606.56.933 1.33.98 2.3.01.112.014.317.014.616l-.014.616c-.047 1-.37 1.764-.966 2.324s-1.442.84-2.534.84zm0-1.414c.494 0 .872-.154 1.134-.462.27-.308.415-.76.434-1.358a6.9 6.9 0 0 0 .014-.546l-.014-.546c-.02-.597-.164-1.05-.434-1.358-.27-.317-.65-.476-1.134-.476-.495 0-.878.16-1.148.476-.27.308-.416.76-.434 1.358l-.014.546.014.546c.018.597.163 1.05.434 1.358s.653.462 1.148.462z"/><use xlink:href="#g"/><use xlink:href="#g" x="3.718"/><path d="M151.214 424.14c-1.1 0-1.95-.28-2.548-.84s-.92-1.335-.966-2.324l-.014-.616.014-.616c.047-.98.373-1.75.98-2.3.607-.57 1.45-.854 2.534-.854 1.073 0 1.913.285 2.52.854.607.56.933 1.33.98 2.3.01.112.014.317.014.616l-.014.616c-.047.99-.37 1.764-.966 2.324s-1.442.84-2.534.84zm0-1.414c.495 0 .873-.154 1.134-.462.27-.308.415-.76.434-1.358a6.9 6.9 0 0 0 .014-.546l-.014-.546c-.02-.597-.163-1.05-.434-1.358-.27-.317-.65-.476-1.134-.476-.495 0-.877.16-1.148.476-.27.308-.415.76-.434 1.358l-.014.546.014.546c.02.597.163 1.05.434 1.358s.653.462 1.148.462z"/></g><use xlink:href="#h" class="C"/><path d="M77.625 424a.32.32 0 0 1-.238-.098c-.065-.065-.098-.144-.098-.238v-.728c0-.26.117-.48.35-.658l2.184-2.17 1.526-1.274c.364-.336.635-.644.812-.924s.266-.555.266-.826c0-.438-.117-.784-.35-1.036s-.588-.378-1.064-.378c-.467 0-.835.14-1.106.42-.26.27-.425.626-.5 1.064-.028.112-.084.196-.168.252-.075.047-.16.07-.252.07h-1.26c-.084 0-.154-.028-.2-.084s-.084-.126-.084-.2c.02-.55.168-1.064.448-1.54.29-.485.7-.872 1.232-1.162.532-.298 1.157-.448 1.876-.448.747 0 1.38.13 1.904.392.523.252.915.602 1.176 1.05s.392.957.392 1.526c0 .626-.177 1.195-.532 1.708-.345.504-.887 1.046-1.624 1.624l-1.946 1.974h3.962c.103 0 .187.033.252.098s.098.15.098.252v1.008a.34.34 0 0 1-.098.252c-.065.056-.15.084-.252.084h-6.706z" fill="#fff"/><g class="E"><path d="M115.628 465.12c-.392 0-.756-.08-1.092-.24a2.11 2.11 0 0 1-.792-.648 1.6 1.6 0 0 1-.288-.924c0-.528.216-.96.648-1.296s1.02-.56 1.764-.672l1.8-.252v-.348c0-.824-.476-1.236-1.428-1.236-.368 0-.664.076-.888.228-.224.144-.388.316-.492.516-.032.08-.068.136-.108.168-.032.024-.08.036-.144.036h-.468c-.072 0-.136-.024-.192-.072-.048-.056-.072-.12-.072-.192 0-.184.084-.396.252-.636.176-.248.444-.46.804-.636.36-.184.8-.276 1.32-.276.896 0 1.536.208 1.92.624.392.416.588.936.588 1.56v3.9c0 .08-.028.148-.084.204-.048.048-.112.072-.192.072h-.528c-.08 0-.144-.024-.192-.072-.048-.056-.072-.124-.072-.204v-.528c-.176.264-.432.484-.768.66s-.768.264-1.296.264zm.24-.876c.528 0 .96-.172 1.296-.516s.504-.844.504-1.5v-.336l-1.404.204c-.576.08-1.012.216-1.308.408s-.444.432-.444.72c0 .328.132.58.396.756.272.176.592.264.96.264z"/><use xlink:href="#T" x="-19.114" y="107"/><use xlink:href="#L" x="7.125" y="147"/><use xlink:href="#i"/><use xlink:href="#i" x="2.894"/><use xlink:href="#L" x="19.78" y="147"/><use xlink:href="#M" x="19.781" y="147"/><use xlink:href="#N" x="19.781" y="147"/><path d="M163.1 465.12c-.552 0-1.02-.088-1.404-.264-.376-.184-.656-.392-.84-.624s-.276-.424-.276-.576c0-.08.028-.14.084-.18.056-.048.116-.072.18-.072h.504c.048 0 .084.008.108.024.032.016.072.052.12.108a2.22 2.22 0 0 0 .612.528c.232.128.54.192.924.192.432 0 .776-.08 1.032-.24.264-.16.396-.392.396-.696 0-.2-.056-.36-.168-.48s-.3-.228-.564-.324c-.256-.096-.64-.2-1.152-.312-.696-.152-1.188-.372-1.476-.66s-.432-.66-.432-1.116c0-.296.088-.58.264-.852a1.85 1.85 0 0 1 .78-.672c.352-.176.768-.264 1.248-.264.504 0 .932.084 1.284.252.36.168.628.364.804.588.184.224.276.412.276.564 0 .072-.028.132-.084.18-.048.048-.108.072-.18.072h-.456c-.112 0-.192-.044-.24-.132a3.52 3.52 0 0 0-.348-.348c-.088-.088-.22-.16-.396-.216a1.95 1.95 0 0 0-.66-.096c-.392 0-.692.084-.9.252-.208.16-.312.376-.312.648a.71.71 0 0 0 .132.432c.088.112.256.22.504.324.248.096.616.196 1.104.3.76.16 1.296.388 1.608.684.32.296.48.676.48 1.14 0 .344-.1.656-.3.936-.192.28-.484.5-.876.66-.384.16-.844.24-1.38.24z"/><use xlink:href="#j"/><use xlink:href="#P" x="9.702" y="147"/><use xlink:href="#K" x="62.204" y="147"/><use xlink:href="#L" x="62.203" y="147"/><use xlink:href="#Q" x="23.051" y="147"/><path d="M113 465.9h86.324v.6H113v-.6z"/></g><g class="F"><use xlink:href="#Y" y="147"/><use xlink:href="#k"/><path d="M128.826 445c-.072 0-.124-.024-.156-.072a.26.26 0 0 1-.024-.192c0-.024.016-.06.048-.108l4.488-7.02h-3.96c-.08 0-.14-.024-.18-.072s-.052-.116-.036-.204l.096-.444c.016-.088.052-.156.108-.204.064-.056.14-.084.228-.084h4.896c.088 0 .148.028.18.084.04.048.052.116.036.204l-.084.408c-.024.152-.092.308-.204.468l-4.428 6.936a2.17 2.17 0 0 1-.192.228.32.32 0 0 1-.216.072h-.6zm7.87 2.28c-.088 0-.152-.028-.192-.084-.04-.048-.052-.112-.036-.192l1.704-7.968a.33.33 0 0 1 .108-.192.32.32 0 0 1 .216-.084H139c.088 0 .152.028.192.084.04.048.052.112.036.192l-.108.528c.28-.304.576-.532.888-.684.312-.16.704-.24 1.176-.24.712 0 1.24.204 1.584.612.352.408.528.94.528 1.596 0 .192-.02.416-.06.672-.024.2-.076.44-.156.72-.208.84-.568 1.532-1.08 2.076-.512.536-1.192.804-2.04.804-.88 0-1.48-.304-1.8-.912l-.6 2.796c-.016.08-.056.144-.12.192-.056.056-.124.084-.204.084h-.54zm3.156-3.096c.544 0 .992-.184 1.344-.552s.612-.836.78-1.404c.056-.176.104-.408.144-.696.032-.192.048-.396.048-.612 0-.896-.404-1.344-1.212-1.344-.384 0-.732.092-1.044.276a2.33 2.33 0 0 0-.756.696 2.93 2.93 0 0 0-.408.9l-.204.936c-.032.192-.048.336-.048.432 0 .392.108.72.324.984.224.256.568.384 1.032.384z"/><use xlink:href="#a" x="0.996" y="147"/><path d="M152.608 437.584c-.08 0-.144-.024-.192-.072-.04-.056-.052-.124-.036-.204l.144-.624a.39.39 0 0 1 .108-.204.32.32 0 0 1 .216-.084h.72c.08 0 .14.028.18.084.048.056.064.124.048.204l-.144.624c-.008.08-.044.148-.108.204a.35.35 0 0 1-.216.072h-.72zM151.132 445c-.08 0-.144-.024-.192-.072-.04-.056-.052-.124-.036-.204l1.212-5.688c.016-.08.056-.144.12-.192a.32.32 0 0 1 .216-.084h.528c.08 0 .14.028.18.084.04.048.052.112.036.192l-1.212 5.688a.36.36 0 0 1-.12.204c-.056.048-.124.072-.204.072h-.528z"/><use xlink:href="#b" x="0.996" y="147"/><use xlink:href="#c" x="0.997" y="147"/><use xlink:href="#d" x="0.997" y="147"/></g><path d="M272 487H121a6 6 0 0 0-6 6v16a6 6 0 0 0 6 6h151a6 6 0 0 0 6-6v-16a6 6 0 0 0-6-6zm-151-2a8 8 0 0 0-8 8v16a8 8 0 0 0 8 8h151a8 8 0 0 0 8-8v-16a8 8 0 0 0-8-8H121z" fill="#c3f5f6" class="D"/><g class="B"><use xlink:href="#e" y="147"/><path d="M245.55 505c-.08 0-.148-.028-.204-.084s-.084-.124-.084-.204v-.624c0-.224.1-.412.3-.564l1.872-1.86 1.308-1.092c.312-.288.544-.552.696-.792s.228-.476.228-.708c0-.376-.1-.672-.3-.888s-.504-.324-.912-.324c-.4 0-.716.12-.948.36-.224.232-.364.536-.42.912a.35.35 0 0 1-.144.216.4.4 0 0 1-.216.06h-1.08c-.072 0-.132-.024-.18-.072s-.072-.108-.072-.18c.016-.472.144-.912.384-1.32a2.7 2.7 0 0 1 1.056-.996c.456-.256.992-.384 1.608-.384.64 0 1.184.112 1.632.336.448.216.784.516 1.008.9s.336.82.336 1.308a2.52 2.52 0 0 1-.456 1.464c-.296.432-.76.896-1.392 1.392l-1.668 1.692h3.396c.088 0 .16.028.216.084s.084.128.084.216v.864c0 .088-.028.16-.084.216a.32.32 0 0 1-.216.072h-5.748zm10.298.132c-.664 0-1.24-.112-1.728-.336-.48-.224-.844-.52-1.092-.888s-.38-.764-.396-1.188v-.024c0-.064.024-.116.072-.156.056-.048.116-.072.18-.072h1.14c.184 0 .3.08.348.24.112.352.296.612.552.78.264.168.572.252.924.252.448 0 .816-.136 1.104-.408.296-.272.444-.648.444-1.128 0-.432-.148-.78-.444-1.044-.288-.272-.656-.408-1.104-.408a1.53 1.53 0 0 0-.588.096 1.97 1.97 0 0 0-.444.264c-.016.008-.052.032-.108.072s-.108.068-.156.084c-.04.016-.084.024-.132.024h-1.128c-.072 0-.136-.024-.192-.072-.048-.056-.072-.12-.072-.192l.408-4.092c.008-.104.044-.184.108-.24.072-.064.156-.096.252-.096h4.512c.088 0 .156.028.204.084.056.048.084.116.084.204v.816c0 .08-.028.148-.084.204-.048.056-.116.084-.204.084h-3.468l-.192 1.944a2.44 2.44 0 0 1 .636-.288c.24-.08.552-.12.936-.12.52 0 1 .112 1.44.336a2.55 2.55 0 0 1 1.068.948c.272.408.408.884.408 1.428 0 .584-.136 1.096-.408 1.536-.272.432-.656.768-1.152 1.008-.496.232-1.072.348-1.728.348z"/><use xlink:href="#f" x="7.065" y="147"/><path d="M219 507.98h14v-14h-14v14zM113.883 571c-.103 0-.187-.033-.252-.098-.056-.065-.084-.15-.084-.252v-.994a.68.68 0 0 1 .056-.294l.154-.224 4.858-6.258h-4.592c-.093 0-.173-.033-.238-.098s-.098-.15-.098-.252v-.98c0-.103.028-.187.084-.252.065-.065.15-.098.252-.098h6.706c.103 0 .187.033.252.098s.098.15.098.252v.98c0 .187-.06.35-.182.5l-4.746 6.3h4.746c.103 0 .182.033.238.098.065.056.098.135.098.238v1.008c0 .093-.033.173-.098.238-.056.065-.135.098-.238.098h-7.014z"/><use xlink:href="#J" x="-17.855" y="294"/><path d="M130.982 571c-.094 0-.173-.033-.238-.098a.32.32 0 0 1-.098-.238v-6.608c0-.103.032-.182.098-.238.065-.065.144-.098.238-.098h1.162c.102 0 .182.033.238.098.065.056.098.135.098.238v.574c.57-.7 1.348-1.05 2.338-1.05.858 0 1.54.28 2.044.84s.756 1.33.756 2.3v3.934c0 .093-.033.173-.098.238-.056.065-.136.098-.238.098h-1.26c-.094 0-.173-.033-.238-.098a.32.32 0 0 1-.098-.238v-3.85c0-.54-.136-.96-.406-1.26-.262-.308-.64-.462-1.134-.462-.476 0-.86.154-1.148.462s-.434.728-.434 1.26v3.85c0 .093-.033.173-.098.238-.056.065-.136.098-.238.098h-1.246zm11.564.14c-1.027 0-1.848-.285-2.464-.854-.607-.57-.93-1.358-.966-2.366l-.014-.56.014-.56c.037-1.008.36-1.797.966-2.366.616-.57 1.437-.854 2.464-.854.737 0 1.358.13 1.862.392.513.26.9.583 1.134.966.252.373.387.733.406 1.078.01.093-.024.173-.098.238-.066.065-.145.098-.238.098h-1.246c-.103 0-.178-.02-.224-.056a.74.74 0 0 1-.14-.238c-.14-.355-.327-.6-.56-.77-.224-.16-.514-.238-.868-.238-.476 0-.85.15-1.12.448-.262.3-.402.756-.42 1.372l-.014.518.014.462c.056 1.213.57 1.82 1.54 1.82.364 0 .658-.075.882-.224.224-.16.406-.42.546-.784a.62.62 0 0 1 .126-.224c.056-.047.135-.07.238-.07h1.246c.093 0 .172.033.238.098.074.065.107.145.098.238-.02.327-.15.68-.392 1.064-.243.373-.616.695-1.12.966s-1.134.406-1.9.406z"/><use xlink:href="#I" x="23.898" y="294"/><path d="M158.408 571.14c-.86 0-1.535-.28-2.03-.84s-.742-1.33-.742-2.3v-3.934c0-.103.033-.182.098-.238.065-.065.145-.098.238-.098h1.26c.093 0 .173.033.238.098s.098.145.098.238v3.85c0 1.148.5 1.722 1.498 1.722.485 0 .868-.154 1.148-.462.3-.308.434-.728.434-1.26v-3.85c0-.103.033-.182.098-.238.065-.065.145-.098.238-.098h1.246c.103 0 .182.033.238.098.065.056.098.135.098.238v6.608c0 .093-.033.173-.098.238-.056.065-.135.098-.238.098h-1.162c-.093 0-.173-.033-.238-.098s-.098-.145-.098-.238v-.574c-.513.7-1.288 1.05-2.324 1.05zm6.342-.14c-.093 0-.173-.033-.238-.098s-.098-.145-.098-.238v-6.608c0-.103.033-.182.098-.238.065-.065.145-.098.238-.098h1.162c.103 0 .182.033.238.098.065.056.098.135.098.238v.574c.57-.7 1.35-1.05 2.338-1.05.86 0 1.54.28 2.044.84s.756 1.33.756 2.3v3.934c0 .093-.033.173-.098.238-.056.065-.135.098-.238.098h-1.26c-.093 0-.173-.033-.238-.098s-.098-.145-.098-.238v-3.85c0-.54-.135-.96-.406-1.26-.26-.308-.64-.462-1.134-.462-.476 0-.86.154-1.148.462s-.434.728-.434 1.26v3.85c0 .093-.033.173-.098.238-.056.065-.135.098-.238.098h-1.246zm11.637 0c-.85 0-1.5-.22-1.918-.658-.43-.448-.644-1.1-.644-1.96v-3.164h-1.106c-.093 0-.173-.033-.238-.098s-.098-.145-.098-.238v-.826c0-.093.033-.173.098-.238s.145-.098.238-.098h1.106v-2.324c0-.103.033-.182.098-.238.065-.065.145-.098.238-.098h1.162c.103 0 .182.033.238.098.065.056.098.135.098.238v2.324h1.75c.093 0 .173.033.238.098s.098.145.098.238v.826c0 .093-.033.173-.098.238s-.145.098-.238.098h-1.75v3c0 .4.07.705.2.9s.37.308.686.308h.98c.103 0 .182.033.238.098.065.056.098.135.098.238v.882c0 .093-.033.173-.098.238-.056.065-.135.098-.238.098h-1.148z"/></g><use xlink:href="#h" y="147" class="C"/><path d="M80.952 571.14c-.83 0-1.535-.13-2.114-.392-.57-.26-1-.588-1.288-.98-.28-.4-.43-.812-.448-1.232 0-.084.028-.154.084-.2s.126-.084.2-.084h1.288c.205 0 .345.094.42.28.205.663.82.994 1.848.994.57 0 1.013-.13 1.33-.392.327-.26.5-.634.5-1.12s-.15-.835-.448-1.05c-.29-.224-.72-.336-1.288-.336h-1.442a.32.32 0 0 1-.238-.098c-.065-.065-.098-.144-.098-.238v-.602c0-.177.06-.317.182-.42l2.492-2.436h-4c-.103 0-.187-.032-.252-.098s-.098-.144-.098-.238v-.938c0-.102.033-.186.098-.252s.15-.098.252-.098h6.02c.103 0 .187.033.252.098s.098.15.098.252v.854a.49.49 0 0 1-.182.392l-2.408 2.478.168.014c.896.075 1.605.346 2.128.812.532.467.798 1.134.798 2.002 0 .616-.168 1.153-.504 1.6-.327.458-.784.812-1.372 1.064-.58.243-1.24.364-1.988.364z" fill="#fff"/><g class="E"><use xlink:href="#W" x="-82.09" y="254"/><use xlink:href="#N" x="-14.578" y="294"/><use xlink:href="#l"/><use xlink:href="#K" x="19.957" y="294"/><use xlink:href="#L" x="19.957" y="294"/><path d="M149.65 612.12c-.76 0-1.348-.244-1.764-.732-.416-.496-.624-1.152-.624-1.968v-3.384c0-.08.024-.144.072-.192.056-.056.124-.084.204-.084h.552a.24.24 0 0 1 .192.084.24.24 0 0 1 .084.192v3.324c0 1.216.528 1.824 1.584 1.824.512 0 .916-.16 1.212-.48.304-.328.456-.776.456-1.344v-3.324c0-.08.024-.144.072-.192.056-.056.124-.084.204-.084h.552a.24.24 0 0 1 .192.084.24.24 0 0 1 .084.192v5.688c0 .08-.028.148-.084.204-.048.048-.112.072-.192.072h-.516c-.08 0-.148-.024-.204-.072-.048-.056-.072-.124-.072-.204v-.54c-.232.312-.504.548-.816.708-.312.152-.708.228-1.188.228z"/><use xlink:href="#l" x="27.903"/><use xlink:href="#U" x="1.64" y="254"/><use xlink:href="#P" x="2.812" y="294"/><path d="M171.708 612.12c-.856 0-1.524-.24-2.004-.72-.48-.488-.73-1.168-.755-2.04l-.012-.48.012-.48c.024-.872.275-1.548.755-2.028.48-.488 1.148-.732 2.004-.732.576 0 1.06.104 1.452.312.4.2.697.452.89.756.2.304.308.608.324.912.008.072-.02.136-.084.192-.056.056-.12.084-.192.084h-.528c-.08 0-.14-.016-.18-.048-.04-.04-.08-.108-.12-.204-.144-.392-.345-.668-.6-.828-.248-.168-.563-.252-.947-.252-.504 0-.904.156-1.2.468s-.456.788-.48 1.428l-.013.42.013.42c.024.64.184 1.116.48 1.428s.696.468 1.2.468c.392 0 .71-.08.96-.24.247-.168.444-.448.588-.84.04-.096.08-.16.12-.192.04-.04.1-.06.18-.06h.528c.072 0 .136.028.192.084.064.056.092.12.084.192-.016.296-.124.596-.324.9-.192.304-.49.56-.89.768-.392.208-.876.312-1.452.312z"/><use xlink:href="#L" x="55.312" y="294"/><use xlink:href="#Q" x="16.16" y="294"/><path d="M113 612.9h79.433v.6H113v-.6z"/></g><g class="F"><use xlink:href="#k" x="-7.442" y="147"/><path d="M121.912 592c-.072 0-.124-.024-.156-.072a.26.26 0 0 1-.024-.192c.008-.056.036-.108.084-.156l2.388-2.568c-.2.048-.428.072-.684.072-.736-.008-1.308-.216-1.716-.624-.408-.416-.612-.932-.612-1.548 0-.2.024-.4.072-.6a3.64 3.64 0 0 1 .624-1.368c.32-.432.736-.784 1.248-1.056s1.088-.408 1.728-.408c.816 0 1.436.212 1.86.636.424.416.636.94.636 1.572a2.62 2.62 0 0 1-.06.6 3.24 3.24 0 0 1-.492 1.164 8.28 8.28 0 0 1-.84 1.044l-3.024 3.264c-.136.16-.28.24-.432.24h-.6zm1.968-3.864a2.29 2.29 0 0 0 1.44-.504 2.23 2.23 0 0 0 .828-1.32 1.73 1.73 0 0 0 .048-.42c0-.432-.144-.776-.432-1.032-.288-.264-.656-.396-1.104-.396-.344 0-.676.076-.996.228a2.44 2.44 0 0 0-.816.648 2.21 2.21 0 0 0-.444.972c-.032.128-.048.272-.048.432 0 .424.14.764.42 1.02.288.248.656.372 1.104.372z"/><use xlink:href="#m"/><use xlink:href="#Z" x="2.096" y="294"/><use xlink:href="#a" x="2.098" y="294"/><path d="M153.7 584.584c-.08 0-.144-.024-.192-.072-.04-.056-.052-.124-.036-.204l.144-.624a.39.39 0 0 1 .108-.204.32.32 0 0 1 .216-.084h.72c.08 0 .14.028.18.084.048.056.064.124.048.204l-.144.624c-.008.08-.044.148-.108.204a.35.35 0 0 1-.216.072h-.72zM152.233 592c-.08 0-.144-.024-.192-.072-.04-.056-.052-.124-.036-.204l1.212-5.688c.016-.08.056-.144.12-.192a.32.32 0 0 1 .216-.084h.528c.08 0 .14.028.18.084.04.048.052.112.036.192l-1.212 5.688a.36.36 0 0 1-.12.204c-.056.048-.124.072-.204.072h-.528zm2.895 0c-.08 0-.144-.024-.192-.072-.04-.056-.052-.124-.036-.204l1.212-5.688c.016-.08.056-.144.12-.192a.32.32 0 0 1 .216-.084h.516c.08 0 .14.024.18.072s.052.116.036.204l-.12.528c.592-.616 1.296-.924 2.112-.924.688 0 1.2.164 1.536.492.344.328.516.788.516 1.38 0 .24-.032.512-.096.816l-.732 3.396a.36.36 0 0 1-.12.204c-.056.048-.124.072-.204.072h-.552c-.08 0-.14-.024-.18-.072-.04-.056-.052-.124-.036-.204L160 588.4c.072-.304.108-.568.108-.792 0-.352-.096-.612-.288-.78-.184-.168-.488-.252-.912-.252-.56 0-1.036.164-1.428.492-.392.32-.652.764-.78 1.332l-.696 3.324a.36.36 0 0 1-.12.204c-.056.048-.124.072-.204.072h-.552z"/><use xlink:href="#c" x="2.098" y="294"/><use xlink:href="#d" x="2.098" y="294"/></g><g class="B"><use xlink:href="#R" y="294"/><use xlink:href="#S" y="294"/><use xlink:href="#T" y="294"/><use xlink:href="#N" x="12.248" y="334"/><use xlink:href="#K" x="39.54" y="334"/><use xlink:href="#U" y="294"/><use xlink:href="#N" x="30.2" y="334"/><use xlink:href="#M" x="44.028" y="334"/><use xlink:href="#T" x="41.86" y="294"/><use xlink:href="#O" x="42.88" y="334"/><use xlink:href="#V" y="294"/><use xlink:href="#W" y="294"/><use xlink:href="#N" x="67.512" y="334"/><use xlink:href="#X" y="294"/></g><path d="M271 634H121a6 6 0 0 0-6 6v16a6 6 0 0 0 6 6h150a6 6 0 0 0 6-6v-16a6 6 0 0 0-6-6zm-150-2a8 8 0 0 0-8 8v16a8 8 0 0 0 8 8h150a8 8 0 0 0 8-8v-16a8 8 0 0 0-8-8H121z" fill="#f5963e" class="D"/><g class="B"><use xlink:href="#e" y="294"/><use xlink:href="#n"/><use xlink:href="#f" x="-2.263" y="294"/><use xlink:href="#f" x="5.647" y="294"/><path d="M219 654.98h14v-14h-14v14zM115.7 718c-.27 0-.438-.14-.504-.42l-1.652-8.974-.014-.112c0-.084.028-.154.084-.2s.126-.084.2-.084h1.26c.122 0 .2.023.266.07.056.037.094.107.112.2l1.162 6.3 1.246-4.06c.094-.234.248-.35.462-.35h.77c.122 0 .22.037.294.112.075.065.126.144.154.238l1.26 4.06 1.148-6.3c.028-.187.16-.28.392-.28h1.26c.075 0 .14.028.196.084s.084.126.084.2c0 .046-.004.084-.014.112l-1.652 8.974c-.018.13-.074.233-.168.308a.49.49 0 0 1-.336.112h-.952c-.13 0-.238-.033-.322-.098a.55.55 0 0 1-.168-.252l-1.568-4.648-1.568 4.648c-.074.233-.238.35-.5.35h-.952zm9.933-8.47c-.093 0-.173-.033-.238-.098s-.098-.145-.098-.238v-1.022c0-.103.033-.187.098-.252a.32.32 0 0 1 .238-.098h1.288c.103 0 .187.032.252.098s.098.15.098.252v1.022c0 .093-.037.172-.112.238-.065.065-.145.098-.238.098h-1.288zm.056 8.47c-.093 0-.173-.033-.238-.098s-.098-.145-.098-.238v-6.608c0-.103.033-.182.098-.238a.32.32 0 0 1 .238-.098h1.2a.32.32 0 0 1 .238.098c.065.065.098.144.098.238v6.608c0 .093-.033.172-.098.238a.32.32 0 0 1-.238.098h-1.2zm3.72 0c-.093 0-.173-.033-.238-.098s-.098-.145-.098-.238v-9.268c0-.103.033-.182.098-.238a.32.32 0 0 1 .238-.098h1.162a.32.32 0 0 1 .238.098c.065.065.098.144.098.238v4.788l2.324-2.226.126-.098a.55.55 0 0 1 .182-.112.61.61 0 0 1 .2-.028h1.33c.093 0 .168.028.224.084s.084.13.084.224c0 .084-.047.168-.14.252l-2.856 2.702 3.206 3.472c.084.084.126.163.126.238 0 .093-.028.168-.084.224s-.126.084-.2.084h-1.358c-.13 0-.23-.014-.294-.042a1.76 1.76 0 0 1-.224-.196l-2.646-2.814v2.716c0 .093-.033.172-.098.238a.32.32 0 0 1-.238.098h-1.162zm7.655-8.47c-.094 0-.173-.033-.238-.098s-.098-.145-.098-.238v-1.022c0-.103.032-.187.098-.252a.32.32 0 0 1 .238-.098h1.288a.34.34 0 0 1 .252.098c.065.065.098.15.098.252v1.022c0 .093-.038.172-.112.238-.066.065-.145.098-.238.098h-1.288zm.056 8.47c-.094 0-.173-.033-.238-.098s-.098-.145-.098-.238v-6.608c0-.103.032-.182.098-.238a.32.32 0 0 1 .238-.098h1.2c.093 0 .172.032.238.098a.32.32 0 0 1 .098.238v6.608c0 .093-.033.172-.098.238a.32.32 0 0 1-.238.098h-1.2zm3.873 0c-.094 0-.173-.033-.238-.098s-.098-.145-.098-.238v-9.128c0-.103.032-.182.098-.238a.32.32 0 0 1 .238-.098h1.344c.102 0 .182.032.238.098.065.056.098.135.098.238v9.128c0 .093-.033.172-.098.238-.056.065-.136.098-.238.098h-1.344zm10.148.9a.49.49 0 0 1-.308-.098c-.075-.056-.145-.13-.2-.224l-.518-.7c-.42.168-.915.252-1.484.252-1.27 0-2.263-.322-2.982-.966-.7-.644-1.083-1.6-1.12-2.87l-.014-1.2.014-1.204c.037-1.242.42-2.194 1.148-2.856.737-.663 1.722-.994 2.954-.994 1.24 0 2.226.33 2.954.994s1.1 1.614 1.148 2.856l.028 1.204-.028 1.2c-.037 1.232-.373 2.156-1.008 2.772l.98 1.4c.028.056.042.102.042.14v.028c0 .074-.028.135-.084.182-.056.056-.12.084-.196.084h-1.316zm-2.52-2.394c.625 0 1.12-.187 1.484-.56.373-.383.57-.957.588-1.722l.028-1.134-.028-1.134c-.02-.766-.215-1.335-.588-1.708-.373-.383-.868-.574-1.484-.574s-1.1.2-1.484.574c-.364.373-.56.942-.588 1.708l-.014 1.134.014 1.134c.028.774.224 1.348.588 1.722s.86.56 1.484.56z"/></g><use xlink:href="#h" y="294" class="C"/><path d="M81.958 718a.32.32 0 0 1-.238-.098c-.065-.065-.098-.144-.098-.238v-1.792h-4.438a.32.32 0 0 1-.238-.098c-.065-.065-.098-.144-.098-.238v-.966a.67.67 0 0 1 .154-.42l4.13-5.712a.43.43 0 0 1 .21-.168c.093-.046.196-.07.308-.07h1.54c.103 0 .182.033.238.098.065.056.098.136.098.238v5.67h1.26c.103 0 .182.033.238.098.065.056.098.136.098.238v.994c0 .094-.033.173-.098.238-.056.066-.135.098-.238.098h-1.26v1.792c0 .094-.033.173-.098.238-.056.066-.135.098-.238.098h-1.232zm-3.136-3.738h2.842v-4.018l-2.842 4.018z" fill="#fff"/><g class="E"><path d="M115.556 759c-.112 0-.196-.024-.252-.072s-.1-.124-.132-.228l-1.704-5.568-.024-.12c0-.072.024-.132.072-.18s.108-.072.18-.072h.492c.08 0 .144.024.192.072.056.04.088.08.096.12l1.356 4.584 1.44-4.524c.016-.064.052-.12.108-.168.056-.056.132-.084.228-.084h.384c.096 0 .172.028.228.084.056.048.092.104.108.168l1.44 4.524 1.356-4.584c.008-.04.036-.08.084-.12.056-.048.124-.072.204-.072h.492c.072 0 .132.024.18.072s.072.108.072.18l-.024.12-1.704 5.568c-.032.104-.076.18-.132.228s-.14.072-.252.072h-.432a.39.39 0 0 1-.408-.3l-1.404-4.344-1.404 4.344a.39.39 0 0 1-.408.3h-.432z"/><use xlink:href="#V" x="-69.61" y="401"/><use xlink:href="#j" x="-40.688" y="294"/><use xlink:href="#V" x="-60.575" y="401"/><use xlink:href="#V" x="-57.692" y="401"/><path d="M142.8 761.28c-.08 0-.148-.024-.204-.072-.048-.048-.072-.116-.072-.204v-2.796c-.456.608-1.104.912-1.944.912s-1.472-.268-1.896-.804-.648-1.212-.672-2.028l-.012-.408.012-.408c.032-.824.256-1.5.672-2.028.424-.536 1.056-.804 1.896-.804.864 0 1.52.308 1.968.924v-.528c0-.08.024-.144.072-.192.056-.056.124-.084.204-.084h.516a.24.24 0 0 1 .192.084.24.24 0 0 1 .084.192v7.968a.24.24 0 0 1-.084.192.24.24 0 0 1-.192.084h-.54zm-1.992-3.096c.544 0 .96-.176 1.248-.528a2.05 2.05 0 0 0 .468-1.272c.008-.088.012-.244.012-.468l-.012-.468c-.024-.512-.176-.952-.456-1.32s-.7-.552-1.26-.552c-.576 0-.996.18-1.26.54s-.408.832-.432 1.416l-.012.348c0 1.536.568 2.304 1.704 2.304z"/><use xlink:href="#P" x="-18.095" y="441"/><use xlink:href="#K" x="34.406" y="441"/><use xlink:href="#L" x="34.406" y="441"/><path d="M113 759.9h47.868v.6H113v-.6z"/></g><g class="F"><use xlink:href="#k" x="-7.442" y="294"/><use xlink:href="#m" x="-7.09" y="147"/><use xlink:href="#Y" x="14.742" y="441"/><use xlink:href="#Z" x="2.448" y="441"/><use xlink:href="#a" x="2.448" y="441"/><path d="M154.06 731.584c-.08 0-.144-.024-.192-.072-.04-.056-.052-.124-.036-.204l.144-.624a.39.39 0 0 1 .108-.204.32.32 0 0 1 .216-.084h.72c.08 0 .14.028.18.084.048.056.064.124.048.204l-.144.624c-.008.08-.044.148-.108.204a.35.35 0 0 1-.216.072h-.72zM152.585 739c-.08 0-.144-.024-.192-.072-.04-.056-.052-.124-.036-.204l1.212-5.688c.016-.08.056-.144.12-.192a.32.32 0 0 1 .216-.084h.528c.08 0 .14.028.18.084.04.048.052.112.036.192l-1.212 5.688a.36.36 0 0 1-.12.204c-.056.048-.124.072-.204.072h-.528z"/><use xlink:href="#b" x="2.45" y="441"/><use xlink:href="#c" x="2.45" y="441"/><use xlink:href="#d" x="2.46" y="441"/></g><g class="B"><use xlink:href="#R" y="441"/><use xlink:href="#S" y="441"/><use xlink:href="#T" y="441"/><use xlink:href="#N" x="12.248" y="481"/><use xlink:href="#K" x="39.54" y="481"/><use xlink:href="#U" y="441"/><use xlink:href="#N" x="30.2" y="481"/><use xlink:href="#M" x="44.028" y="481"/><use xlink:href="#T" x="41.86" y="441"/><use xlink:href="#O" x="42.88" y="481"/><use xlink:href="#V" y="441"/><use xlink:href="#W" y="441"/><use xlink:href="#N" x="67.512" y="481"/><use xlink:href="#X" y="441"/></g><path d="M263 781H121a6 6 0 0 0-6 6v16a6 6 0 0 0 6 6h142a6 6 0 0 0 6-6v-16a6 6 0 0 0-6-6zm-142-2a8 8 0 0 0-8 8v16a8 8 0 0 0 8 8h142a8 8 0 0 0 8-8v-16a8 8 0 0 0-8-8H121z" fill="#344f88" class="D"/><g class="B"><use xlink:href="#e" y="441"/><use xlink:href="#n" y="147"/><use xlink:href="#f" x="-2.263" y="441"/><path d="M219 801.98h14v-14h-14v14z"/></g><defs><linearGradient id="C" x1="212.5" y1="15" x2="212.5" y2="847" gradientUnits="userSpaceOnUse"><stop stop-color="#21335a"/><stop offset=".281" stop-color="#101f3e"/></linearGradient><linearGradient id="D" x1="212.5" y1="25" x2="212.5" y2="837" gradientUnits="userSpaceOnUse"><stop stop-color="#f2f6fc"/><stop offset="1" stop-color="#e1e8f4"/></linearGradient><path id="E" d="M25 65c0-22.09 17.91-40 40-40h46.75a7 7 0 0 1 7 7v3c0 11.046 8.954 20 20 20h147.5c11.046 0 20-8.954 20-20v-3a7 7 0 0 1 7-7H360c22.09 0 40 17.91 40 40v732c0 22.09-17.91 40-40 40H65c-22.09 0-40-17.91-40-40V65z"/><path id="F" d="M128.16 117.16c-.544 0-1.046-.107-1.504-.32-.448-.224-.806-.523-1.072-.896a2.13 2.13 0 0 1-.384-1.232c0-.725.293-1.312.88-1.76s1.392-.752 2.416-.912l2.192-.32v-.336c0-.46-.118-.805-.352-1.04s-.608-.352-1.12-.352c-.352 0-.635.064-.848.192s-.4.26-.528.4l-.256.256c-.043.128-.123.192-.24.192h-1.248a.38.38 0 0 1-.256-.096c-.064-.064-.096-.15-.096-.256.01-.267.138-.565.384-.896.256-.34.645-.635 1.168-.88.522-.256 1.168-.384 1.936-.384 1.258 0 2.176.283 2.752.848s.864 1.307.864 2.224v5.024c0 .107-.038.197-.112.272-.064.075-.155.112-.272.112h-1.328c-.107 0-.198-.037-.272-.112a.37.37 0 0 1-.112-.272v-.624c-.235.34-.566.624-.992.848-.427.213-.96.32-1.6.32zm.544-1.536c.586 0 1.066-.192 1.44-.576s.56-.94.56-1.664v-.32l-1.6.256c-1.227.192-1.84.603-1.84 1.232 0 .34.138.608.416.8.288.18.63.272 1.024.272z"/><path id="G" d="M81.84 207.24c-.816 0-1.568-.16-2.256-.48a4.29 4.29 0 0 1-1.608-1.344c-.384-.56-.576-1.176-.576-1.848 0-1.088.44-1.968 1.32-2.64s2.088-1.128 3.624-1.368l3.288-.48v-.504c0-.688-.176-1.208-.528-1.56s-.912-.528-1.68-.528c-.528 0-.952.096-1.272.288s-.584.392-.792.6l-.384.384c-.064.192-.184.288-.36.288h-1.872c-.144 0-.272-.048-.384-.144-.096-.096-.144-.224-.144-.384.016-.4.208-.848.576-1.344.384-.512.968-.952 1.752-1.32.784-.384 1.752-.576 2.904-.576 1.888 0 3.264.424 4.128 1.272s1.296 1.96 1.296 3.336v7.536c0 .16-.056.296-.168.408-.096.112-.232.168-.408.168h-1.992c-.16 0-.296-.056-.408-.168s-.168-.248-.168-.408v-.936c-.352.512-.848.936-1.488 1.272-.64.32-1.44.48-2.4.48zm.816-2.304c.88 0 1.6-.288 2.16-.864s.84-1.408.84-2.496v-.48l-2.4.384c-1.84.288-2.76.904-2.76 1.848 0 .512.208.912.624 1.2.432.272.944.408 1.536.408z"/><path id="H" d="M96.582 207.24c-1.616 0-2.856-.512-3.72-1.536-.864-1.04-1.336-2.424-1.416-4.152l-.024-.792.024-.792c.064-1.696.528-3.064 1.392-4.104.88-1.056 2.128-1.584 3.744-1.584 1.536 0 2.76.528 3.672 1.584v-5.328c0-.176.056-.312.168-.408.112-.112.248-.168.408-.168h2.088c.176 0 .312.056.408.168.112.096.168.232.168.408v15.888c0 .16-.056.296-.168.408-.096.112-.232.168-.408.168h-1.944c-.16 0-.296-.056-.408-.168s-.168-.248-.168-.408v-.888c-.88 1.136-2.152 1.704-3.816 1.704zm.912-2.592c.912 0 1.584-.288 2.016-.864.448-.592.696-1.32.744-2.184.016-.192.024-.496.024-.912l-.024-.936c-.032-.8-.28-1.48-.744-2.04s-1.136-.84-2.016-.84c-1.712 0-2.624 1.056-2.736 3.168l-.024.72.024.72c.112 2.112 1.024 3.168 2.736 3.168z"/><path id="I" d="M126.742 277.14c-1.1 0-1.95-.28-2.548-.84s-.92-1.335-.966-2.324l-.014-.616.014-.616c.047-.98.374-1.75.98-2.3.607-.57 1.452-.854 2.534-.854 1.074 0 1.914.285 2.52.854.607.56.934 1.33.98 2.3.01.112.014.317.014.616l-.014.616c-.046.99-.368 1.764-.966 2.324s-1.442.84-2.534.84zm0-1.414c.495 0 .873-.154 1.134-.462.27-.308.416-.76.434-1.358.01-.093.014-.275.014-.546l-.014-.546c-.018-.597-.163-1.05-.434-1.358-.27-.317-.648-.476-1.134-.476-.494 0-.877.16-1.148.476-.27.308-.415.76-.434 1.358l-.014.546.014.546c.02.597.164 1.05.434 1.358s.654.462 1.148.462z"/><path id="J" d="M143.557 277.14c-1.046 0-1.876-.3-2.492-.896-.607-.597-.93-1.447-.966-2.548l-.014-.35c0-1.167.303-2.086.9-2.758.616-.672 1.465-1.008 2.548-1.008 1.1 0 1.964.336 2.562 1.008.606.672.9 1.568.9 2.688v.294c0 .093-.033.173-.098.238s-.15.098-.252.098h-4.648v.112c.018.523.158.957.42 1.302.27.336.64.504 1.106.504.532 0 .966-.215 1.302-.644.084-.103.15-.163.196-.182.046-.028.126-.042.238-.042h1.232c.084 0 .154.023.2.07.065.047.098.112.098.196 0 .224-.136.5-.406.798-.262.3-.64.56-1.134.784s-1.07.336-1.722.336zm1.526-4.424v-.028c0-.55-.14-.99-.42-1.316-.27-.336-.644-.504-1.12-.504s-.85.168-1.12.504c-.27.327-.406.765-.406 1.316v.028h3.066z"/><path id="K" d="M116.396 318.12c-.856 0-1.524-.24-2.004-.72-.48-.488-.732-1.168-.756-2.04l-.012-.48.012-.48c.024-.872.276-1.548.756-2.028.48-.488 1.148-.732 2.004-.732.576 0 1.06.104 1.452.312.4.2.696.452.888.756.2.304.308.608.324.912.008.072-.02.136-.084.192-.056.056-.12.084-.192.084h-.528c-.08 0-.14-.016-.18-.048-.04-.04-.08-.108-.12-.204-.144-.392-.344-.668-.6-.828-.248-.168-.564-.252-.948-.252-.504 0-.904.156-1.2.468s-.456.788-.48 1.428l-.012.42.012.42c.024.64.184 1.116.48 1.428s.696.468 1.2.468c.392 0 .712-.08.96-.24.248-.168.444-.448.588-.84.04-.096.08-.16.12-.192.04-.04.1-.06.18-.06h.528c.072 0 .136.028.192.084.064.056.092.12.084.192-.016.296-.124.596-.324.9-.192.304-.488.56-.888.768-.392.208-.876.312-1.452.312z"/><path id="L" d="M123.03 318.12c-.88 0-1.56-.248-2.04-.744-.472-.496-.724-1.156-.756-1.98l-.012-.516.012-.516c.032-.824.288-1.484.768-1.98.488-.496 1.164-.744 2.028-.744s1.536.248 2.016.744c.488.496.748 1.156.78 1.98l.024.516-.024.516c-.032.824-.288 1.484-.768 1.98-.472.496-1.148.744-2.028.744zm0-.9c.512 0 .916-.16 1.212-.48.304-.328.468-.796.492-1.404a5.56 5.56 0 0 0 .012-.456l-.012-.456c-.024-.608-.188-1.072-.492-1.392-.296-.328-.7-.492-1.212-.492s-.92.164-1.224.492c-.296.32-.456.784-.48 1.392l-.012.456.012.456c.024.608.184 1.076.48 1.404.304.32.712.48 1.224.48z"/><path id="M" d="M129.645 318.12c-.84 0-1.472-.272-1.896-.816-.416-.544-.64-1.232-.672-2.064l-.012-.36.012-.36c.032-.824.26-1.508.684-2.052.424-.552 1.052-.828 1.884-.828s1.48.296 1.944.888v-2.772c0-.08.024-.144.072-.192.056-.056.124-.084.204-.084h.54a.24.24 0 0 1 .192.084.24.24 0 0 1 .084.192v7.968c0 .08-.028.148-.084.204-.048.048-.112.072-.192.072h-.516c-.08 0-.144-.024-.192-.072-.048-.056-.072-.124-.072-.204v-.516c-.456.608-1.116.912-1.98.912zm.228-.936c.56 0 .98-.184 1.26-.552a2.36 2.36 0 0 0 .456-1.332c.008-.088.012-.24.012-.456l-.012-.468a2 2 0 0 0-.468-1.26c-.288-.36-.704-.54-1.248-.54-.576 0-.996.18-1.26.54s-.408.832-.432 1.416l-.012.348c0 1.536.568 2.304 1.704 2.304z"/><path id="N" d="M136.962 318.12c-.816 0-1.468-.252-1.956-.756-.488-.512-.756-1.208-.804-2.088l-.012-.408.012-.396c.048-.864.316-1.552.804-2.064s1.14-.768 1.956-.768c.88 0 1.56.28 2.04.84.488.56.732 1.32.732 2.28v.216c0 .08-.028.148-.084.204-.048.048-.112.072-.192.072h-4.164v.108c.024.52.184.964.48 1.332s.688.552 1.176.552c.376 0 .68-.072.912-.216.24-.152.42-.308.54-.468.072-.096.128-.152.168-.168.04-.024.108-.036.204-.036h.528c.072 0 .132.02.18.06.056.04.084.092.084.156 0 .176-.108.388-.324.636s-.524.464-.924.648c-.392.176-.844.264-1.356.264zm1.68-3.684v-.036c0-.56-.152-1.016-.456-1.368s-.712-.528-1.224-.528c-.52 0-.928.176-1.224.528s-.444.808-.444 1.368v.036h3.348z"/><path id="O" d="M145.992 318c-.08 0-.148-.024-.204-.072-.048-.056-.072-.124-.072-.204v-5.676c0-.08.024-.148.072-.204.056-.056.124-.084.204-.084h.504c.088 0 .156.028.204.084.056.048.084.116.084.204v.528c.328-.544.884-.816 1.668-.816h.468c.088 0 .156.024.204.072s.072.116.072.204v.444c0 .08-.024.148-.072.204-.048.048-.116.072-.204.072h-.684c-.44 0-.788.128-1.044.384-.248.256-.372.604-.372 1.044v3.54c0 .08-.028.148-.084.204-.056.048-.124.072-.204.072h-.54z"/><path id="P" d="M163.71 318c-.08 0-.148-.024-.204-.072-.048-.056-.072-.124-.072-.204v-.828c0-.08.024-.148.072-.204.056-.056.124-.084.204-.084h.828a.24.24 0 0 1 .192.084c.056.056.084.124.084.204v.828c0 .08-.028.148-.084.204-.048.048-.112.072-.192.072h-.828z"/><path id="Q" d="M166.793 318c-.08 0-.148-.024-.204-.072-.048-.056-.072-.124-.072-.204v-5.688c0-.08.024-.144.072-.192.056-.056.124-.084.204-.084h.504a.24.24 0 0 1 .192.084c.048.048.072.112.072.192v.408c.432-.536 1.016-.804 1.752-.804.88 0 1.504.368 1.872 1.104a2.13 2.13 0 0 1 .816-.804 2.43 2.43 0 0 1 1.2-.3c.656 0 1.192.224 1.608.672s.624 1.096.624 1.944v3.468c0 .08-.028.148-.084.204-.048.048-.112.072-.192.072h-.516c-.08 0-.148-.024-.204-.072-.048-.056-.072-.124-.072-.204v-3.36c0-.64-.132-1.096-.396-1.368-.264-.28-.612-.42-1.044-.42-.384 0-.716.144-.996.432-.272.28-.408.732-.408 1.356v3.36c0 .08-.028.148-.084.204-.048.048-.112.072-.192.072h-.528c-.08 0-.148-.024-.204-.072-.048-.056-.072-.124-.072-.204v-3.36c0-.632-.14-1.088-.42-1.368-.272-.28-.612-.42-1.02-.42a1.36 1.36 0 0 0-.996.42c-.272.28-.408.732-.408 1.356v3.372c0 .08-.028.148-.084.204-.048.048-.112.072-.192.072h-.528z"/><path id="R" d="M126.32 358c-.08 0-.144-.024-.192-.072-.048-.056-.072-.124-.072-.204v-7.836c0-.088.024-.156.072-.204a.24.24 0 0 1 .192-.084h4.932c.088 0 .156.028.204.084.056.048.084.116.084.204v.432a.24.24 0 0 1-.084.192c-.048.048-.116.072-.204.072h-4.092v2.676h3.828c.088 0 .156.028.204.084.056.048.084.116.084.204v.408c0 .08-.028.148-.084.204-.048.048-.116.072-.204.072h-3.828v2.772h4.188c.088 0 .156.028.204.084.056.048.084.116.084.204v.432c0 .08-.028.148-.084.204-.056.048-.124.072-.204.072h-5.028z"/><path id="S" d="M132.878 358c-.072 0-.132-.024-.18-.072s-.072-.108-.072-.18.028-.148.084-.228l2.088-2.712-1.956-2.58c-.064-.088-.096-.16-.096-.216 0-.072.024-.132.072-.18.056-.048.116-.072.18-.072h.576c.12 0 .224.064.312.192l1.62 2.1 1.62-2.1a.8.8 0 0 1 .132-.144c.048-.032.108-.048.18-.048H138a.23.23 0 0 1 .24.24c0 .08-.028.156-.084.228l-1.98 2.604 2.088 2.688c.056.08.084.156.084.228s-.024.132-.072.18-.108.072-.18.072h-.588c-.12 0-.224-.06-.312-.18l-1.716-2.22-1.716 2.22a.72.72 0 0 1-.144.132c-.04.032-.096.048-.168.048h-.564z"/><path id="T" d="M139.9 360.28c-.08 0-.148-.024-.204-.072-.048-.048-.072-.116-.072-.204v-7.968c0-.088.024-.156.072-.204.056-.048.124-.072.204-.072h.504c.088 0 .156.024.204.072s.072.116.072.204v.528c.464-.616 1.124-.924 1.98-.924.84 0 1.468.268 1.884.804.424.528.648 1.204.672 2.028.008.088.012.224.012.408l-.012.408c-.024.816-.248 1.492-.672 2.028-.416.536-1.044.804-1.884.804-.856 0-1.504-.304-1.944-.912v2.796a.24.24 0 0 1-.084.192.24.24 0 0 1-.192.084h-.54zm2.532-3.096c.576 0 .996-.18 1.26-.54s.408-.832.432-1.416c.008-.08.012-.196.012-.348 0-1.536-.568-2.304-1.704-2.304-.56 0-.984.188-1.272.564-.28.368-.428.804-.444 1.308-.008.088-.012.244-.012.468l.012.468a2.09 2.09 0 0 0 .456 1.272c.296.352.716.528 1.26.528z"/><path id="U" d="M162.437 358c-1.24 0-1.86-.7-1.86-2.1v-3.216h-.948c-.08 0-.144-.024-.192-.072s-.072-.112-.072-.192v-.384c0-.08.024-.144.072-.192a.24.24 0 0 1 .192-.084h.948v-2.004c0-.08.024-.144.072-.192a.24.24 0 0 1 .192-.084h.528a.24.24 0 0 1 .192.084.24.24 0 0 1 .084.192v2.004h1.488a.24.24 0 0 1 .192.084.24.24 0 0 1 .084.192v.384a.24.24 0 0 1-.084.192c-.048.048-.112.072-.192.072h-1.488v3.132c0 .408.064.716.192.924.136.208.364.312.684.312h.732a.24.24 0 0 1 .192.084c.048.048.072.112.072.192v.396c0 .08-.024.148-.072.204-.048.048-.112.072-.192.072h-.816z"/><path id="V" d="M193.288 350.584c-.08 0-.148-.024-.204-.072-.048-.056-.072-.124-.072-.204v-.624c0-.08.024-.148.072-.204.056-.056.124-.084.204-.084h.708c.08 0 .148.028.204.084s.084.124.084.204v.624c0 .08-.028.148-.084.204-.056.048-.124.072-.204.072h-.708zm.096 7.416c-.08 0-.148-.024-.204-.072-.048-.056-.072-.124-.072-.204v-5.688c0-.08.024-.144.072-.192.056-.056.124-.084.204-.084h.528a.24.24 0 0 1 .192.084.24.24 0 0 1 .084.192v5.688c0 .08-.028.148-.084.204-.048.048-.112.072-.192.072h-.528z"/><path id="W" d="M195.858 358c-.08 0-.148-.024-.204-.072-.048-.056-.072-.124-.072-.204v-.396c0-.064.016-.128.048-.192.04-.072.08-.136.12-.192l3.348-4.26h-3.132c-.08 0-.144-.024-.192-.072-.048-.056-.072-.124-.072-.204v-.372c0-.08.024-.144.072-.192a.24.24 0 0 1 .192-.084h4.248a.24.24 0 0 1 .192.084.24.24 0 0 1 .084.192v.42c0 .088-.056.212-.168.372l-3.3 4.248h3.432c.088 0 .156.024.204.072s.072.116.072.204v.372c0 .08-.028.148-.084.204-.048.048-.112.072-.192.072h-4.596z"/><path id="X" d="M208.91 353.8c-.08 0-.144-.024-.192-.072-.048-.056-.072-.124-.072-.204v-.804c0-.088.024-.156.072-.204a.24.24 0 0 1 .192-.084h.828c.088 0 .156.028.204.084.056.048.084.116.084.204v.804c0 .08-.028.148-.084.204-.056.048-.124.072-.204.072h-.828zm0 4.2c-.08 0-.144-.024-.192-.072-.048-.056-.072-.124-.072-.204v-.804c0-.088.024-.156.072-.204a.24.24 0 0 1 .192-.084h.828c.088 0 .156.028.204.084.056.048.084.116.084.204v.804c0 .08-.028.148-.084.204-.056.048-.124.072-.204.072h-.828z"/><path id="Y" d="M117.116 298c-.08 0-.144-.024-.192-.072-.04-.056-.052-.124-.036-.204l.384-1.752h-3.948c-.08 0-.14-.024-.18-.072s-.052-.116-.036-.204l.096-.444c.016-.08.036-.14.06-.18s.06-.088.108-.144l4.74-5.124c.12-.136.28-.204.48-.204h.864c.08 0 .14.028.18.084.04.048.052.112.036.192l-1.08 5.088h1.08c.08 0 .14.028.18.084.04.048.052.112.036.192l-.096.456c-.008.08-.044.148-.108.204a.35.35 0 0 1-.216.072h-1.092l-.372 1.752a.36.36 0 0 1-.12.204c-.056.048-.124.072-.204.072h-.564zm-2.472-3.012h2.844l.852-4.044-3.696 4.044z"/><path id="Z" d="M135.7 300.28c-.088 0-.152-.028-.192-.084-.04-.048-.052-.112-.036-.192l1.704-7.968a.33.33 0 0 1 .108-.192.32.32 0 0 1 .216-.084h.504c.088 0 .152.028.192.084.04.048.052.112.036.192l-.108.528c.28-.304.576-.532.888-.684.312-.16.704-.24 1.176-.24.712 0 1.24.204 1.584.612.352.408.528.94.528 1.596 0 .192-.02.416-.06.672-.024.2-.076.44-.156.72-.208.84-.568 1.532-1.08 2.076-.512.536-1.192.804-2.04.804-.88 0-1.48-.304-1.8-.912l-.6 2.796c-.016.08-.056.144-.12.192-.056.056-.124.084-.204.084h-.54zm3.156-3.096c.544 0 .992-.184 1.344-.552s.612-.836.78-1.404c.056-.176.104-.408.144-.696.032-.192.048-.396.048-.612 0-.896-.404-1.344-1.212-1.344-.384 0-.732.092-1.044.276a2.33 2.33 0 0 0-.756.696 2.93 2.93 0 0 0-.408.9l-.204.936c-.032.192-.048.336-.048.432 0 .392.108.72.324.984.224.256.568.384 1.032.384z"/><path id="a" d="M145.572 298.12c-.744 0-1.324-.192-1.74-.576-.408-.392-.612-.912-.612-1.56a3.4 3.4 0 0 1 .06-.588c.04-.32.112-.664.216-1.032.208-.832.588-1.492 1.14-1.98.56-.496 1.28-.744 2.16-.744.752 0 1.332.196 1.74.588s.612.916.612 1.572c0 .208-.016.396-.048.564l-.228 1.032c-.208.832-.592 1.496-1.152 1.992-.552.488-1.268.732-2.148.732zm.048-.9c.52 0 .972-.16 1.356-.48.392-.328.664-.796.816-1.404l.192-.912c.04-.224.06-.412.06-.564 0-.432-.112-.76-.336-.984-.216-.224-.536-.336-.96-.336-.52 0-.976.164-1.368.492-.384.328-.648.792-.792 1.392-.088.296-.156.6-.204.912-.032.184-.048.372-.048.564 0 .88.428 1.32 1.284 1.32z"/><path id="b" d="M153.03 298c-.08 0-.144-.024-.192-.072-.04-.056-.052-.124-.036-.204l1.212-5.688c.016-.08.056-.144.12-.192a.32.32 0 0 1 .216-.084h.516c.08 0 .14.024.18.072s.052.116.036.204l-.12.528c.592-.616 1.296-.924 2.112-.924.688 0 1.2.164 1.536.492.344.328.516.788.516 1.38 0 .24-.032.512-.096.816l-.732 3.396a.36.36 0 0 1-.12.204c-.056.048-.124.072-.204.072h-.552c-.08 0-.14-.024-.18-.072-.04-.056-.052-.124-.036-.204l.696-3.324c.072-.304.108-.568.108-.792 0-.352-.096-.612-.288-.78-.184-.168-.488-.252-.912-.252-.56 0-1.036.164-1.428.492-.392.32-.652.764-.78 1.332l-.696 3.324a.36.36 0 0 1-.12.204c-.056.048-.124.072-.204.072h-.552z"/><path id="c" d="M162.35 298c-.584 0-1.004-.108-1.26-.324-.248-.224-.372-.548-.372-.972 0-.232.032-.5.096-.804l.684-3.216h-.936c-.08 0-.144-.024-.192-.072-.04-.048-.052-.112-.036-.192l.084-.384c.016-.08.056-.144.12-.192a.32.32 0 0 1 .216-.084h.936l.432-2.004a.33.33 0 0 1 .108-.192.32.32 0 0 1 .216-.084h.516c.088 0 .152.028.192.084.04.048.052.112.036.192l-.432 2.004h1.488c.08 0 .14.024.18.072s.052.116.036.204l-.084.384c-.016.08-.056.144-.12.192-.056.048-.124.072-.204.072h-1.488l-.672 3.132c-.072.328-.108.564-.108.708 0 .176.048.308.144.396.104.088.28.132.528.132h.792c.08 0 .136.028.168.084.04.048.052.112.036.192l-.084.396a.36.36 0 0 1-.12.204c-.056.048-.124.072-.204.072h-.696z"/><path id="d" d="M166.74 298.12c-.512 0-.936-.08-1.272-.24-.328-.16-.568-.344-.72-.552-.144-.216-.216-.412-.216-.588 0-.096.032-.176.096-.24.072-.064.144-.096.216-.096h.504c.048 0 .084.008.108.024.032.016.06.052.084.108a1.86 1.86 0 0 0 .516.54c.2.12.492.18.876.18.432 0 .796-.08 1.092-.24s.476-.392.54-.696l.024-.18c0-.224-.12-.396-.36-.516-.24-.128-.68-.268-1.32-.42-.56-.136-.964-.316-1.212-.54-.24-.224-.36-.5-.36-.828a2.88 2.88 0 0 1 .048-.408c.064-.304.212-.592.444-.864a2.63 2.63 0 0 1 .936-.66c.384-.176.816-.264 1.296-.264.496 0 .904.084 1.224.252.32.16.548.352.684.576.136.216.188.4.156.552-.008.08-.044.148-.108.204-.056.048-.124.072-.204.072h-.468c-.096 0-.164-.044-.204-.132l-.276-.36c-.072-.08-.188-.148-.348-.204-.16-.064-.372-.096-.636-.096-.392 0-.712.084-.96.252-.24.16-.392.376-.456.648a1.01 1.01 0 0 0-.024.18c0 .192.108.352.324.48.224.128.632.26 1.224.396.616.136 1.06.324 1.332.564s.408.536.408.888c0 .112-.012.236-.036.372-.112.528-.432.968-.96 1.32-.52.344-1.184.516-1.992.516z"/><path id="e" d="M240.48 359.2c-.08 0-.148-.028-.204-.084-.056-.048-.084-.116-.084-.204v-.84c-.576-.056-1.072-.196-1.488-.42-.408-.224-.72-.496-.936-.816-.208-.328-.32-.676-.336-1.044a.23.23 0 0 1 .072-.168c.056-.056.12-.084.192-.084h1.08c.096 0 .168.02.216.06.056.032.108.088.156.168.088.272.272.5.552.684.288.184.68.276 1.176.276.552 0 .968-.092 1.248-.276.288-.192.432-.452.432-.78 0-.216-.072-.396-.216-.54s-.364-.268-.66-.372c-.288-.112-.716-.244-1.284-.396-.944-.224-1.636-.52-2.076-.888s-.66-.896-.66-1.584c0-.624.224-1.152.672-1.584.456-.432 1.076-.696 1.86-.792v-.828c0-.088.028-.156.084-.204.056-.056.124-.084.204-.084h.744c.088 0 .156.028.204.084.056.048.084.116.084.204v.852c.52.072.964.228 1.332.468.376.232.66.504.852.816.2.312.308.616.324.912 0 .072-.024.132-.072.18s-.108.072-.18.072h-1.14c-.168 0-.284-.072-.348-.216-.048-.256-.208-.468-.48-.636-.264-.176-.596-.264-.996-.264-.44 0-.788.084-1.044.252-.248.168-.372.412-.372.732 0 .216.06.396.18.54.128.144.328.272.6.384.28.112.676.232 1.188.36.712.16 1.276.34 1.692.54.424.2.736.452.936.756s.3.692.3 1.164a2.12 2.12 0 0 1-.756 1.692c-.496.432-1.168.692-2.016.78v.84c0 .088-.028.156-.084.204-.048.056-.116.084-.204.084h-.744z"/><path id="f" d="M256.5 358.12c-1.072 0-1.872-.296-2.4-.888-.52-.592-.804-1.368-.852-2.328l-.012-1.104.012-1.128c.04-.944.328-1.712.864-2.304s1.332-.888 2.388-.888 1.852.296 2.388.888.824 1.36.864 2.304l.024 1.128-.024 1.104c-.048.96-.336 1.736-.864 2.328-.52.592-1.316.888-2.388.888zm0-1.404c.496 0 .868-.16 1.116-.48.248-.328.38-.792.396-1.392l.012-1.068-.012-1.044c-.016-.584-.148-1.04-.396-1.368s-.62-.496-1.116-.504c-.496.008-.868.176-1.116.504s-.38.784-.396 1.368l-.012 1.044.012 1.068c.016.6.148 1.064.396 1.392.248.32.62.48 1.116.48z"/><path id="g" d="M140.892 424c-.093 0-.172-.033-.238-.098s-.098-.145-.098-.238v-9.268c0-.103.033-.182.098-.238.066-.065.145-.098.238-.098h1.176c.103 0 .182.033.238.098.066.056.098.135.098.238v9.268a.32.32 0 0 1-.098.238c-.056.065-.135.098-.238.098h-1.176z"/><path id="h" d="M65 407a4 4 0 0 1 4-4h24a4 4 0 0 1 4 4v24a4 4 0 0 1-4 4H69a4 4 0 0 1-4-4v-24z"/><path id="i" d="M134.778 465c-.08 0-.148-.024-.204-.072-.048-.056-.072-.124-.072-.204v-7.968c0-.088.024-.156.072-.204.056-.048.124-.072.204-.072h.528a.24.24 0 0 1 .192.084.24.24 0 0 1 .084.192v7.968c0 .08-.028.148-.084.204-.048.048-.112.072-.192.072h-.528z"/><path id="j" d="M167.356 465c-.08 0-.148-.024-.204-.072-.048-.056-.072-.124-.072-.204v-7.968c0-.088.024-.156.072-.204.056-.048.124-.072.204-.072h.516a.24.24 0 0 1 .192.084.24.24 0 0 1 .084.192v4.188l2.4-1.98.252-.168c.048-.024.124-.036.228-.036h.6c.072 0 .128.024.168.072.048.04.072.1.072.18 0 .072-.044.148-.132.228l-2.808 2.304 3.108 2.976c.088.088.132.164.132.228 0 .072-.024.132-.072.18-.04.048-.096.072-.168.072h-.588c-.12 0-.208-.012-.264-.036-.048-.024-.12-.08-.216-.168l-2.712-2.568v2.496c0 .08-.028.148-.084.204-.048.048-.112.072-.192.072h-.516z"/><path id="k" d="M123.382 445.12c-.576 0-1.06-.084-1.452-.252-.392-.176-.684-.404-.876-.684-.192-.288-.288-.596-.288-.924 0-.064.008-.152.024-.264a.27.27 0 0 1 .108-.168c.064-.048.132-.072.204-.072h.54c.176 0 .272.088.288.264.016.408.18.696.492.864.32.168.712.252 1.176.252.576 0 1.064-.136 1.464-.408.4-.28.656-.676.768-1.188.032-.128.048-.26.048-.396 0-.712-.508-1.068-1.524-1.068h-1.128c-.08 0-.144-.024-.192-.072-.04-.048-.052-.116-.036-.204l.072-.312a.58.58 0 0 1 .204-.312l2.88-2.592h-3.552c-.08 0-.14-.024-.18-.072-.032-.048-.04-.112-.024-.192l.084-.432c.016-.088.056-.156.12-.204a.32.32 0 0 1 .216-.084h4.752c.088 0 .152.028.192.084.04.048.052.116.036.204l-.084.396a.65.65 0 0 1-.18.276l-2.904 2.628h.192c.696.016 1.24.172 1.632.468s.588.728.588 1.296c0 .184-.024.392-.072.624-.112.52-.34.972-.684 1.356-.336.384-.76.68-1.272.888-.504.2-1.048.3-1.632.3z"/><path id="l" d="M126.89 612c-.08 0-.148-.024-.204-.072-.048-.056-.072-.124-.072-.204v-5.688c0-.08.024-.144.072-.192.056-.056.124-.084.204-.084h.516c.088 0 .156.024.204.072s.072.116.072.204v.528c.24-.296.516-.524.828-.684.32-.16.716-.24 1.188-.24.768 0 1.364.248 1.788.744.424.488.636 1.136.636 1.944v3.396c0 .08-.028.148-.084.204-.048.048-.112.072-.192.072h-.552c-.08 0-.148-.024-.204-.072-.048-.056-.072-.124-.072-.204V608.4c0-.576-.14-1.024-.42-1.344s-.68-.48-1.2-.48c-.512 0-.92.164-1.224.492-.304.32-.456.764-.456 1.332v3.324c0 .08-.028.148-.084.204-.048.048-.112.072-.192.072h-.552z"/><path id="m" d="M130.358 592.12c-.552 0-1.036-.084-1.452-.252-.408-.176-.724-.42-.948-.732-.224-.32-.336-.688-.336-1.104 0-.168.016-.32.048-.456.096-.472.304-.884.624-1.236.32-.36.704-.632 1.152-.816-.216-.16-.388-.356-.516-.588a1.68 1.68 0 0 1-.192-.804 2.88 2.88 0 0 1 .048-.408 2.49 2.49 0 0 1 1.092-1.644c.6-.4 1.308-.6 2.124-.6.728 0 1.32.172 1.776.516.456.336.684.792.684 1.368 0 .12-.012.248-.036.384-.072.4-.224.744-.456 1.032-.224.288-.528.536-.912.744a1.62 1.62 0 0 1 .66.672 1.91 1.91 0 0 1 .252.96c0 .168-.016.32-.048.456-.16.792-.552 1.408-1.176 1.848s-1.42.66-2.388.66zm.9-5.016c.36-.008.704-.08 1.032-.216.328-.144.592-.34.792-.588a1.32 1.32 0 0 0 .3-.852.89.89 0 0 0-.372-.756c-.248-.184-.596-.276-1.044-.276-.6 0-1.108.156-1.524.468-.408.304-.612.708-.612 1.212 0 .32.12.568.36.744s.596.264 1.068.264zm-.864 4.08c.424 0 .82-.084 1.188-.252s.664-.4.888-.696.336-.624.336-.984a1.05 1.05 0 0 0-.444-.9c-.288-.224-.676-.336-1.164-.336-.408 0-.8.08-1.176.24a2.16 2.16 0 0 0-.912.672 1.54 1.54 0 0 0-.348.996c0 .392.148.7.444.924s.692.336 1.188.336z"/><path id="n" d="M248.046 652c-.08 0-.148-.028-.204-.084s-.084-.124-.084-.204v-6.192l-1.812 1.392c-.048.04-.108.06-.18.06-.096 0-.172-.04-.228-.12l-.516-.672c-.04-.056-.06-.112-.06-.168 0-.096.044-.176.132-.24l2.688-2.088c.088-.056.188-.084.3-.084h1.08c.08 0 .148.028.204.084s.084.124.084.204v7.824c0 .08-.028.148-.084.204s-.124.084-.204.084h-1.116z"/></defs></svg>